<?xml version="1.0" encoding="iso-8859-1"?>
<!-- Generator: Adobe Illustrator 19.1.0, SVG Export Plug-In . SVG Version: 6.00 Build 0)  -->
<svg version="1.1" id="Capa_1" xmlns="http://www.w3.org/2000/svg" xmlns:xlink="http://www.w3.org/1999/xlink" x="0px" y="0px"
	 viewBox="0 0 159.716 159.716" style="enable-background:new 0 0 159.716 159.716;" xml:space="preserve">
<g>
	<path d="M135.223,70.669c-0.152-1.585-0.606-3.179-2.04-4.098c-0.975-0.624-1.121-1.437-1.222-2.434
		c-0.299-2.951-0.836-5.807-2.024-8.603c-2.251-5.295-2.96-10.846-1.647-16.545c0.222-0.961,0.494-2.099,1.536-2.275
		c1.087-0.184,1.565,0.977,2.135,1.729c0.762,1.007,1.045,2.341,2.152,3.357c0.152-4.447-0.977-8.274-3.735-11.51
		c-5.03-5.902-11.551-8.91-19.212-9.326c-1.998-0.108-3.33-0.133-3.427-2.64c-0.046-1.188-0.927-2.332-1.641-3.398
		c-1.915-2.861-4.295-5.276-7.02-7.352c-6.612-5.037-13.873-8.228-22.395-7.46c-3.804,0.343-7.464,1.473-11.125,2.525
		c-4.955,1.424-9.701,3.345-14.264,5.755c-8.65,4.568-14.437,11.469-17.136,20.888c-0.829,2.892-2.906,4.675-5.175,6.351
		c-0.661,0.488-1.601,0.497-2.208,1.236c1.568,0.939,3.13,0.293,4.68,0.197c-0.426,1.47-0.87,2.849-1.224,4.249
		c-1.309,5.178-2.693,10.35-1.593,15.776c0.498,2.453,0.654,4.926,0.368,7.425c-0.36,3.145-1.511,4.338-4.63,4.711
		c1.34,1.553,1.967,1.828,5.215,2.28c-3.999,9.151-3.831,13.13,0.83,16.986c-0.194-0.56-0.352-1.002-0.501-1.447
		c-1.333-3.974-0.127-8.293,2.831-10.098c0.558-0.341,1.117-0.818,1.434,0.33c0.721,2.608,1.923,4.767,5.071,4.938
		c0.456,0.025,1.068,0.291,0.958,0.876c-0.093,0.499-0.681,0.559-1.171,0.669c-3.409,0.764-3.495,0.861-3.318,4.312
		c0.052,1.025,0.216,2.054,0.433,3.058c0.967,4.477,3.216,8.343,5.902,11.967c0.717,0.967,0.882,1.792,0.217,2.786
		c-0.693,1.036-1.683,1.357-2.849,1.143c-0.555-0.102-1.081-0.364-1.776-0.608c0.803,1.874,2.16,2.558,3.925,2.662
		c2.703,0.158,2.618,0.191,3.257,2.784c0.206,0.836-0.14,1.254-0.504,1.777c-1.015,1.459-1.833,2.996-1.981,4.806
		c-0.183,2.24,1.106,3.851,3.383,4.239c-0.223-0.488-0.522-0.95-0.644-1.455c-0.179-0.74-0.511-1.72,0.482-2.04
		c1.084-0.349,1.27,0.628,1.41,1.42c0.567,3.208-0.047,6.211-1.662,9.078c1.541,0.447,2.02-1.015,3.065-1.729
		c0.866,3.104,2.01,6.054-0.468,8.749c0.815,1.392,3.015-0.738,3.497,1.627c0.288,1.414,0.795,2.776,0.629,4.202
		c0.992,0.368,1.511-0.618,2.299-0.771c0.625,3.296,1.178,6.493,3.663,9.041c0.291-0.727-0.001-1.569,0.844-1.675
		c0.65-0.082,1.183,0.384,1.508,0.884c0.858,1.32,1.639,2.689,2.435,4.049c1.151,1.966,1.205,2.033,2.769,0.534
		c0.848-0.813,1.385-0.813,2.259-0.059c2.021,1.746,4.139,3.38,6.358,5.173c0.614-2.055,1.961-3.038,3.702-3.699
		c2.314-0.878,4.542-1.994,6.874-2.817c4.937-1.742,9.5-5.045,15.192-3.78c0.542,0.12,0.645-0.163,0.686-0.718
		c0.264-3.589,1.29-4.795,4.823-5.361c1.241-0.199,1.715-0.532,1.794-1.866c0.081-1.371,0.601-2.864,1.775-3.648
		c0.808-0.54,1.78,0.43,2.642,0.774c0.683,0.273,0.977,0.191,1.226-0.447c0.198-0.508,0.453-0.993,0.657-1.498
		c0.46-1.139,0.988-1.898,2.338-0.896c0.368,0.273,0.932,0.803,1.67,0.296c-2.41-3.308-2.573-6.569,0.226-9.73
		c1.264-1.428,1.629-2.949,0.879-4.817c-0.368-0.917-0.292-2.03-0.324-3.058c-0.014-0.451,0.057-1.207,0.62-1.165
		c2.774,0.206,1.154-1.468,0.965-2.331c-0.541-2.472-1.602-4.834-1.463-7.446c0.077-1.445,0.459-2.374,2.244-2.311
		c2.182,0.077,4.081-0.86,5.288-2.692c2.535-3.848,4.776-7.84,5.667-12.464c0.801-4.155,1.514-8.337,2.935-12.348
		C135.4,75.408,135.45,73.035,135.223,70.669z M35.52,69.855c1.613-4.71-0.127-10.018,2.48-14.474
		C36.493,60.131,38.147,65.39,35.52,69.855z M31.141,53.758c0.986-5.838,3.573-10.597,8.953-13.446
		C35.595,43.776,32.983,48.502,31.141,53.758z M61.713,14.085c7.857,1.068,14.975,4.194,21.533,8.615
		c0.189,0.128,0.345,0.304,0.462,0.598C73.18,18.561,62.915,12.77,50.152,15.906C54.112,13.529,57.969,13.576,61.713,14.085z
		 M69.792,23.615c-6.877,0.208-13.945-0.116-20.669,3.921C52.071,22.467,66.196,21.7,69.792,23.615z M69.807,125.295
		c-2.017-0.611-4.053-1.164-6.048-1.839c-1.506-0.51-0.387-1.494-0.228-2.225c0.218-0.999,0.759-0.722,1.44-0.287
		c1.727,1.102,3.523,2.095,5.283,3.145c0.282,0.168,0.758,0.162,0.702,0.722C70.75,125.319,70.354,125.461,69.807,125.295z
		 M65.163,118.113c0.212-0.975,0.927-1.378,1.889-1.333c2.783,0.131,5.687-0.178,8.322,0.52c4.203,1.115,8.384,0.631,12.577,0.724
		c1.036,0.023,1.817,0.487,2.794,1.027c-2.011,1.005-4.089,1.34-6.143,1.701c-5.795,1.016-11.57,0.957-17.298-0.5
		c-0.292-0.074-0.571-0.197-0.86-0.28C65.502,119.703,64.941,119.135,65.163,118.113z M84.901,133.164
		c-0.025,0.327,0.244,0.742-0.272,0.906c-0.367,0.117-0.546-0.199-0.744-0.399c-0.934-0.947-1.851-1.912-2.866-2.966
		c-0.581,1.841-0.481,3.582-0.685,5.901c-1.676-2.257-3.046-4.102-4.506-6.069c-0.845,1.49-1.641,2.895-2.557,4.51
		c-0.719-1.897-0.291-3.696-0.544-5.415c-0.713-0.206-1.056,0.581-1.671,0.551c-0.164,0.331-0.409,0.372-0.714,0.198
		c0.134-0.165,0.268-0.33,0.402-0.495c0.676-1.077,1.351-2.154,2.027-3.23c1.017-1.618,2.472-1.853,4.066-0.602
		c0.223,0.175,0.466,0.326,0.549,0.112c0.784-2.006,1.665-0.282,2.419-0.021c0.576,0.2,1.138,0.734,1.334-0.226
		c0.203-0.994,0.758-0.731,1.34-0.572c1.395,0.381,2.791,0.759,4.178,1.169c0.607,0.179,1.01,0.582,1.262,1.201
		c0.545,1.337,1.163,2.644,1.848,4.181c-1.925-0.31-3.423-1.348-5.147-1.78C84.258,131.205,84.979,132.15,84.901,133.164z
		 M91.276,125.907c-0.321,0.403-2.788-0.642-3.067-1.325c-0.4-0.977,0.66-0.872,1.037-1.087c2.083-1.183,4.237-2.243,6.366-3.346
		C94.622,122.491,92.759,124.045,91.276,125.907z M114.128,92.444c-0.594,1.397-1.553,2.75-0.383,4.375
		c0.553,0.768-0.325,0.659-0.72,0.76c-5.13,1.31-9.584,5.455-11.201,10.695c-4.73-3.666-7.764-8.552-11.381-13.017
		c-0.775,0.772-1.552,1.433-0.687,2.7c0.211,0.309-0.1,1.064-0.312,1.553c-0.36,0.833-0.857,1.908-1.896,1.575
		c-1.06-0.34-0.639-1.52-0.374-2.241c0.625-1.699,1.338-3.386,2.217-4.965c0.679-1.22,0.721-2.358,0.291-4.028
		c-1.514,1.57-2.827,2.935-4.144,4.296c-0.499,0.516-0.22,1.152-0.269,1.734c-0.369,4.414-2.143,5.54-5.5,5.415
		c-1.094-0.041-2.19-0.044-3.284-0.082c-0.953-0.034-1.835,0.045-2.272,1.088c-0.485,1.158-1.385,0.195-2.073,0.373
		c-0.559,0.144-1.369-0.163-1.579,0.56c-0.244,0.842,0.437,1.351,1.122,1.65c1.061,0.464,2.212,0.801,3.353,0.712
		c1.397-0.109,1.97,0.54,2.284,1.749c0.469,1.807,0.997,3.598,1.545,5.558c0.689-1.242,0.705-2.517,0.967-3.73
		c0.135-0.625,0.059-1.427,1.203-1.441c1.047-0.013,1.182,0.59,1.389,1.298c0.306,1.043,0.681,2.07,0.917,3.128
		c0.148,0.663,0.308,1.098,1.101,1.176c0.844,0.083,0.805-0.532,0.983-1.001c0.791-2.082,2.622-3.301,4.03-4.872
		c0.985-1.099,2.246-1.968,1.108-3.885c-0.517-0.871,0.691-1.883,1.437-2.733c1.298,1.39,2.434,2.854,3.215,4.473
		c1.439,2.981,3.658,5.276,6.026,7.455c0.933,0.858,1.438,1.712,1.152,2.983c-0.159,0.706-0.24,1.431-0.333,2.15
		c-0.386,2.976-0.383,2.977-3.855,3.431c1.164-1.494,2.213-2.839,3.338-4.284c-1.512-0.815-2.978-1.54-4.373-2.381
		c-0.826-0.498-1.271,0.156-1.763,0.465c-1.043,0.654-2.021,0.811-3.258,0.503c-2.522-0.628-5.111-0.984-7.646-1.563
		c-1.497-0.342-2.579,0.453-3.716,1.094c-1.049,0.591-1.909,0.862-2.749-0.338c-0.462-0.659-1.156-1.068-2.056-0.654
		c-3.125,1.44-6.438,0.788-9.687,0.845c-0.06,0.001-0.12-0.016-0.18-0.027c-2.489-0.446-4.411-0.024-5.454,2.717
		c-0.67,1.763-1.882,3.32-3.059,5.323c-0.267-2.825-0.453-5.211-0.742-7.585c-0.09-0.736,0.301-1.014,0.786-1.253
		c3.633-1.785,5.934-4.777,7.951-8.191c2.019-3.418,4.686-6.464,5.658-10.511c-0.686,0.143-1.04,0.697-1.429,1.148
		c-2.892,3.362-5.765,6.74-8.63,10.125c-0.346,0.409-0.988,0.76-0.292,1.469c0.433,0.441-0.154,0.747-0.405,1.029
		c-1.053,1.183-2.247,2.211-3.689,3.217c-1.14-2.7,1.507-3.965,2.01-5.997c-1.358-1.343-3.015-1.253-4.814-0.558
		c-0.17-0.94,0.836-1.547,0.478-2.547c-0.838,0.406-1.62,0.785-2.462,1.192c-0.424-1.029,0.575-1.857,0.238-2.843
		c-0.167,0.046-0.323,0.08-0.472,0.131c-1.237,0.422-2.513,1.799-3.571,1.298c-0.896-0.425-1.197-2.124-1.741-3.268
		c-1.065-2.238-2.038-4.524-3.197-6.711c-1.169-2.206-1.873-4.369-1.209-6.93c0.822-3.169,0.231-6.406,0.002-9.608
		c-0.303-4.227-0.823-8.416-0.702-12.694c0.109-3.856-1.029-7.694-1.012-11.597c0.025-5.743,2.064-10.514,6.751-14.024
		c4.007-3.001,8.129-5.717,13.296-6.288c3.467-0.384,6.737,0.477,10.013,1.377c0.232,0.064,0.468,0.144,0.674,0.265
		c4.5,2.645,8.975,1.5,13.382-0.195c3.382-1.3,6.657-2.874,10.028-4.206c4.918-1.943,7.467-1.375,11.071,2.467
		c5.37,5.724,8.864,12.396,9.817,20.257c0.487,4.013-0.229,7.863-2.125,11.443c-0.439,0.83-0.432,1.456-0.062,2.306
		c2.111,4.851,3.587,9.849,3.862,15.202C117.284,85.149,115.691,88.764,114.128,92.444z M119.247,50.569
		c-0.747-2.592-1.534-5.172-2.228-7.778c-0.691-2.595-1.487-5.149-2.538-7.617c3.297,4.584,3.994,10.004,5.314,15.224
		C119.613,50.454,119.43,50.512,119.247,50.569z M114.856,26.473c3.863-0.048,7.056,1.506,9.811,4.114
		c0.147,0.157,0.293,0.315,0.44,0.472c0.293,0.113,0.514,0.339,0.287,0.608c-0.313,0.37-0.399-0.115-0.579-0.24
		c-0.199-0.19-0.399-0.38-0.598-0.57C121.26,29.047,118.252,27.348,114.856,26.473z M129.596,79.9
		c-0.476,4.494-1.671,8.854-2.604,13.29c0.989,0.092,1.108-1.091,2.115-0.97c-0.759,3.117-2.186,5.867-4.056,8.391
		c-0.519,0.7-1.198,0.431-1.679-0.183c-0.535-0.683-0.871-1.477-0.881-2.347c-0.028-2.356-0.009-4.712-0.009-7.597
		c0.772,1.676,1.091,2.919,2.075,4.109c1.291-1.855,1.888-3.866,2.38-5.939c1.091-4.592,1.467-9.215,0.67-13.893
		c-0.141-0.827-0.252-1.872-1.284-1.955c-1.029-0.083-1.261,0.991-1.619,1.725c-0.261,0.536-0.381,1.142-0.551,1.721
		c-0.159,0.541-0.305,1.027-1.069,0.909c-0.778-0.12-0.595-0.695-0.538-1.112c0.179-1.317,0.349-2.646,0.688-3.927
		c0.372-1.403,1.08-2.658,2.796-2.628c1.821,0.032,2.902,1.147,3.354,2.809C130.063,74.806,129.865,77.357,129.596,79.9z"/>
	<path d="M112.055,71.216c-1.426-1.406-2.756-2.909-4.158-4.341c-0.693-0.708-1.289-1.288-0.831-2.484
		c0.382-0.999,0.118-1.635-1.355-1.297c-3.592,0.825-7.155,1.746-10.705,2.723c-0.752,0.207-1.45,0.521-1.881-0.568
		c-0.374-0.944-1.027-0.479-1.626-0.13c-2.46,1.435-4.948,2.823-7.389,4.289c-0.728,0.437-1.262,0.459-1.956-0.065
		c-1.06-0.799-2.207-1.482-3.58-2.388c0.327,1.639,0.572,2.877,0.822,4.115c0.651,3.223,0.651,3.222-2.184,4.906
		c-0.073,0.044-0.094,0.176-0.212,0.412c1.256,0,2.458,0.122,3.625-0.031c1.455-0.191,1.834,0.494,2.045,1.753
		c0.715,4.275,1.522,8.534,2.28,12.724c3.761-0.575,3.034-3.458,3.037-6.094c2.414,1.049,4.627,1.998,6.828,2.973
		c0.682,0.302,1.334,0.43,2.098,0.279c2.435-0.481,4.872-1.008,7.334-1.276c1.591-0.173,2.508-0.76,3.018-2.302
		c0.789-2.388,1.912-4.466,5.072-3.224c0.054,0.021,0.122,0.004,0.181,0.016c0.808,0.167,1.046-0.102,0.956-0.957
		c-0.248-2.355-0.377-4.722-0.589-7.082C112.82,72.448,112.634,71.786,112.055,71.216z M93.052,77.248
		c0.767,0.572,1.482,1.236,2.31,1.697c2.092,1.164,3.294,0.964,5.027-0.681c0.218-0.207,0.398-0.462,0.638-0.637
		c0.42-0.306,0.812-0.114,1.139,0.187c0.515,0.474,0.011,0.789-0.265,1.011c-2.023,1.633-4.387,1.824-6.848,1.525
		c-0.297-0.036-0.581-0.165-0.876-0.226C91.42,79.553,91.42,79.554,93.052,77.248z M106.517,81.579
		c-0.95,3.876-0.946,3.878-4.84,4.333c-0.42,0.049-0.852,0.045-1.26,0.142c-3.713,0.878-6.879-0.015-9.582-3.059
		c3.817-0.087,7.454,0.377,11.051-0.364c1.315-0.271,2.614-0.575,3.465-1.732c0.3-0.408,0.655-0.589,1.078-0.395
		C107.013,80.77,106.612,81.193,106.517,81.579z"/>
	<path d="M74.241,69.856c0.089-1.342-1.204-1.912-2.017-2.638c-0.691-0.617-1.195,0.425-1.777,0.719
		c-0.513,0.259-0.957,0.276-1.536,0.221c-3.357-0.319-6.54-2.318-10.099-0.979c-0.605,0.228-1.498-0.342-2.265-0.51
		c-0.764-0.167-1.699-0.644-2.278-0.376c-2.745,1.272-5.463,2.657-7.468,5.041c-0.256,0.305-0.699,0.997,0.147,1.019
		c1.082,0.029,0.714,0.36,0.404,0.909c-0.501,0.889-1.37,1.779,0.053,2.711c0.64,0.419,0.052,0.973-0.158,1.442
		c-0.57,1.273-1.197,2.531-1.1,3.986c0.08,1.196,0.463,2.007,1.922,1.628c1.521-0.395,3.08-0.651,4.583-1.101
		c1.328-0.397,2.26-0.211,3.35,0.811c3.016,2.829,8.932,2.775,11.084-0.012c0.526-0.682,0.988-1.175,1.673-0.628
		c0.729,0.582,0.247,1.427-0.226,1.897c-1.559,1.548-3.346,2.756-5.474,3.476c-0.933,0.316-2.036,0.136-3,0.996
		c5.063,0.317,8.631-2.14,11.714-5.497c0.742-0.808,1.398-1.682,2.379-2.181c1.018-0.517,1.255-1.125,1.02-2.31
		c-0.439-2.221-1.509-4.747,1.735-6.248C74.922,72.376,74.117,71.711,74.241,69.856z M64.864,80.577
		c-0.131,0.578-0.063,1.16-0.888,1.361c-1.008,0.246-2.009,0.386-3.13,0.361c-1.527,0.078-3.027-0.198-4.236-1.399
		c-0.547-0.543-0.876-1.041,0.079-1.483c0.532-0.246,0.92-1.168,1.58,0.112c0.998,1.935,3.398,2.142,5.103,0.722
		c0.314-0.262,0.311-1.061,1.026-0.716C64.821,79.738,64.978,80.073,64.864,80.577z"/>
</g>
<g>
</g>
<g>
</g>
<g>
</g>
<g>
</g>
<g>
</g>
<g>
</g>
<g>
</g>
<g>
</g>
<g>
</g>
<g>
</g>
<g>
</g>
<g>
</g>
<g>
</g>
<g>
</g>
<g>
</g>
</svg>
