<?xml version="1.0" encoding="iso-8859-1"?>
<!-- Generator: Adobe Illustrator 19.1.0, SVG Export Plug-In . SVG Version: 6.00 Build 0)  -->
<svg version="1.1" id="Capa_1" xmlns="http://www.w3.org/2000/svg" xmlns:xlink="http://www.w3.org/1999/xlink" x="0px" y="0px"
	 viewBox="0 0 154.904 154.904" style="enable-background:new 0 0 154.904 154.904;" xml:space="preserve">
<g>
	<path d="M125.335,57.529c-0.16-0.154-0.25-0.601-0.145-0.775c1.757-2.935,1.117-6.421,0.62-9.164
		c-0.596-3.294,0.531-7.212-2.358-10.065c-0.662-0.654-0.324-1.789,0.016-2.706c0.863-2.325-0.418-4.364-1.331-6.193
		c-1.136-2.275-3.464-3.982-4.476-6.286c-1.042-2.374-2.244-4.021-4.801-4.554c-0.961-0.201-2.153-0.674-1.836-1.728
		c1.039-3.453-1.321-4.164-3.654-4.552c-3.052-0.507-3.898-3.855-6.728-4.842c-0.745-0.26-1.951-1.396-3.195-1.828
		c-2.722-0.943-5.77-0.013-8.315-1.105c-3.249-1.393-6.863-0.711-10.008-2.287c-0.457-0.229-1.234-0.279-1.657-0.044
		c-2.484,1.383-4.538-0.02-6.704-0.861c-1.355-0.526-3.379-0.924-4.003,0.075c-1.893,3.03-4.376,1.685-6.73,1.458
		c-1.41-0.136-2.775-0.367-4.149,0.246c-3.69,1.646-7.283,3.659-11.134,4.751c-4.135,1.172-4.577,5.677-7.852,7.489
		c-1.418,0.784-2.43,2.325-3.864,3.056c-2.278,1.161-3.306,3.702-1.602,5.54c1.513,1.632,1.6,3.41,0.471,4.798
		c-2.789,3.429-1.688,7.202-1.484,10.914c0.181,3.289,1.085,6.654-1.408,9.547c-0.432,0.501-0.891,1.148-0.417,1.787
		c1.512,2.035,1.378,4.561,2.172,6.79c0.621,1.744-0.618,3.236-0.056,4.971c1.958,6.038,4.46,11.965,4.392,18.495
		c-0.005,0.436,0.196,0.908,0.405,1.309c2.037,3.911,2.816,8.057,2.055,12.396c-0.485,2.766-0.495,5.324,2.063,7.066
		c2.295,1.562,2.749,3.812,2.77,6.298c0.028,3.319,0.783,6.512,1.793,9.633c1.918,5.929,6.725,9.842,10.385,14.552
		c0.795,1.023,1.771,1.797,2.084,3.241c0.766,3.53,0.981,6.852-1.703,9.746c-1.708,1.842-1.218,2.877,1.096,3.795
		c3.937,1.562,7.739,3.459,11.608,5.194c4.668,2.094,6.451,1.617,9.494-2.443c4.298-5.733,9.687-10.366,15.01-15.093
		c2.975-2.641,6.175-5.098,8.547-8.38c0.426-0.59,0.825-0.979,0.018-1.592c-0.509-0.387-0.805-0.727-1.29,0.005
		c-1.823,2.754-4.827,4.279-6.995,6.686c-3.949,4.383-8.719,7.195-14.927,7.469c1.101-0.995,2.86-0.383,3.765-1.911
		c-2.088-0.484-4.117-0.58-6.044-1.226c-0.988-0.331-2.043-0.821-3.275-0.37c-4.377,1.602-9.811-1.482-11.315-5.793
		c-0.811-2.324-1.538-4.779-3.482-6.753c-1.217-1.236-3.184-1.217-3.94-2.976c-1.142-2.653-1.264-5.323-1.225-8.212
		c0.064-4.781,3.394-10.467-2.969-13.931c-0.071-0.039-0.109-0.153-0.146-0.238c-1.439-3.259-4.704-5.147-6.157-8.493
		c-0.982-2.262-0.269-4.654,1.465-6.368c1.866-1.845,4.283-0.631,6.11-1.92c-0.154-0.346-0.233-0.617-0.382-0.841
		c-0.487-0.735-1.431-1.273-0.498-2.405c0.882-1.07,1.474-0.58,2.314-0.001c0.738,0.509,1.586,0.04,2.41-0.052
		c1.447-0.161,3.382-1.651,3.485-1.533c2.302,2.65,7.126-0.843,8.444,4.66c0.391-1.924,0.615-2.736,0.714-3.562
		c0.471-3.948,0-4.668-3.702-6.135c-0.866-0.343-1.72-0.795-2.464-1.352c-3.201-2.393-6.679-3.433-10.712-2.808
		c-5.116,0.793-5.252,0.568-4.05-4.362c0.088-0.359,0.281-0.752,0.208-1.083c-1.265-5.787-1.741-11.654-2.102-17.557
		c-0.18-2.956-0.666-5.594,2.101-7.819c3.857-3.102,8.599-3.661,13.039-5.108c0.275-0.09,0.687,0.221,1.028,0.361
		c3.538,1.449,7.438,1.88,11.012,1.598c7.135-0.563,14.288-0.983,21.425-1.533c2.416-0.186,5.129-1.184,7.316,0.327
		c2.704,1.868,4.969,4.262,5.954,7.618c0.636,2.167,0.653,4.447,1.142,6.554c0.725,3.127,1.175,6.203,0.429,9.219
		c-0.546,2.208-0.243,4.559,0.487,6.082c2.357,4.916,2.751,10.011,3.016,15.256c0.113,2.241,0.227,4.603,1.632,7.044
		c1.87-5.874,7.103-8.716,9.63-13.872c0.793,1.244,0.653,2.42,1.964,3.385c-0.104-2.123,0.036-3.905-0.331-5.575
		c-0.45-2.049,0.804-3.383,1.502-4.976C126.207,61.637,127.489,59.599,125.335,57.529z"/>
	<path d="M96.215,73.021c0.925,0.062,1.824,0.27,2.77,0.005c0.815-0.228,1.846-0.214,1.656-1.419
		c-0.501-3.173-1.681-4.133-4.63-2.949c-1.076,0.432-2.1,0.905-3.15,0.244c-4.056-2.555-8.33-1.323-12.542-0.726
		c-0.822,0.117-2.127,0.86-1.421,1.918c0.804,1.206,1.243,3.094,3.678,2.955c-0.708,0.616-0.961,0.91-1.278,1.098
		c-0.88,0.521-1.697,1.399-1.127,2.227c0.699,1.015,2.033,0.678,3.076,0.213c0.384-0.171,0.626-0.669,0.924-1.025
		c0.396-0.475,1.084-0.906,1.372-0.286c0.907,1.954,2.491,1.35,3.999,1.378c2.01,0.038,3.894-1.58,6.005-0.386
		c0.35,0.198,0.935-0.234,1.052-0.732c0.162-0.691-0.331-1.011-0.912-1.152c-0.837-0.203-1.812-0.165-2.102-1.376
		C94.53,73.009,95.376,72.965,96.215,73.021z"/>
	<path d="M65.055,116.367c0.462-1.355,2.01-1.474,3.381-1.519c5.062-0.167,10.098-0.912,15.183-0.585
		c1.478,0.095,2.865-0.291,4.328-1.351c-1.225-0.93-2.372-0.718-3.427-0.695c-7.165,0.154-14.332,1.232-21.491-0.037
		c-0.706-0.125-2.25,0.475-1.984-0.609c0.515-2.098-0.925-2.603-2.009-2.459c-1.478,0.196-1.999,1.368-2.245,3.206
		c-0.436,3.259,0.831,5.804,1.97,8.52c0.331,0.789,0.903,1.523-0.597,1.778c-0.652,0.111-1.134,0.796-0.717,1.54
		c0.439,0.783,1.194,1.256,2.111,1.01c0.713-0.191,1.359-0.619,2.045-0.921c3.248-1.429,6.186-3.821,10.09-3.234
		c0.272,0.041,0.759,0.02,0.693-0.703c-2.492-0.37-4.955-0.366-7.393,0.405c0.406-0.241,0.558-0.61-0.035-1.355
		c-0.577-0.725-1.908-0.752-2.334-2.008C63.519,117.238,64.549,117.854,65.055,116.367z"/>
	<path d="M65.209,106.81c2.794-1.001,5.863-0.595,8.071-2.584c1.244-1.121,2.814-1.438,4.194-2.199
		c0.729-0.402,2.382,0.004,2.015-1.274c-0.325-1.133-1.792-1.154-2.948-0.741c-0.967,0.345-1.972,0.643-2.855,1.147
		c-1.244,0.711-2.329,0.585-3.701,0.217c-2.164-0.58-3.877-1.396-5.217-3.326c-0.539-0.777-2.086-2.517-3.182-0.947
		c-1.336,1.914-2.624,4.308-1.863,6.749C60.533,106.453,63.564,105.653,65.209,106.81z"/>
</g>
<g>
</g>
<g>
</g>
<g>
</g>
<g>
</g>
<g>
</g>
<g>
</g>
<g>
</g>
<g>
</g>
<g>
</g>
<g>
</g>
<g>
</g>
<g>
</g>
<g>
</g>
<g>
</g>
<g>
</g>
</svg>
