<?xml version="1.0" encoding="iso-8859-1"?>
<!-- Generator: Adobe Illustrator 19.1.0, SVG Export Plug-In . SVG Version: 6.00 Build 0)  -->
<svg version="1.1" id="Capa_1" xmlns="http://www.w3.org/2000/svg" xmlns:xlink="http://www.w3.org/1999/xlink" x="0px" y="0px"
	 viewBox="0 0 150.803 150.803" style="enable-background:new 0 0 150.803 150.803;" xml:space="preserve">
<g>
	<path d="M130.97,95.649c-0.771-0.542-1.518-1.122-2.317-1.618c-1.758-1.09-3.427-2.473-5.34-3.131
		c-4.019-1.383-8.208-2.141-12.509-1.768c-0.741,0.064-1.205-0.133-1.613-0.787c-1.571-2.519-3.299-4.946-4.778-7.516
		c-1.27-2.207-1.343-4.675-0.819-7.14c0.052-0.243-0.103-0.963,0.724-0.569c2.382,1.135,6.089-0.408,6.866-3.184
		c0.308-1.101,0.428-2.216,0.64-3.323c1.012-5.291,0.947-10.437-1.294-15.52c-1.957-4.438-2.631-4.965-7.415-3.784
		c-0.001-3.607-0.067-7.194-0.204-10.782c-0.28-7.344-3.289-13.431-8.157-18.727c-2.536-2.758-5.463-5.099-8.362-7.451
		C79.861,5.05,72.782,0.866,64.147,0.13c-6.501-0.554-12.674,0.66-18.462,3.673C38.064,7.769,32.92,14.147,28.763,21.438
		c-3.927,6.887-6.079,14.365-7.061,22.189c-0.347,2.763-0.521,5.547,0.345,8.291c0.946,2.998,1.771,6.035,2.727,9.03
		c0.35,1.096,0.189,1.599-1.044,1.688c-1.489,0.108-2.647,0.792-2.943,2.38c-0.725,3.891-0.627,7.731,1.218,11.325
		c2.363,4.604,5.485,8.69,8.938,12.526c0.665,0.739,1.446,1.346,2.387,1.733c1.915,0.787,3.268,0.321,4.262-1.484
		c0.561-1.019,0.913-2.121,1.257-3.248c0.577,0.205,0.677,0.716,0.938,1.081c3.463,4.848,6.228,10.116,9.175,15.274
		c0.176-0.07,0.128-0.051,0.303-0.121c-0.41-1.644-0.969-3.237-1.793-4.718C41.79,87.182,36.82,76.64,32.51,65.794
		c-2.682-6.748-5.026-13.575-4.996-21.018c0.041-10.339,2.861-19.508,10.399-26.926c1.244-1.224,2.596-2.16,4.241-2.694
		c5.901-1.914,11.814-3.773,17.953-4.805c7.09-1.192,13.898-0.222,20.434,2.676c1.749,0.776,3.269,1.923,3.675,4.003
		c0.325,1.663,1.065,3.387,0.852,4.981c-0.319,2.387,1.241,2.503,2.668,3.005c0.307,0.108,0.658,0.111,0.948,0.248
		c0.613,0.288,1.634,0.269,1.222,1.438c-0.11,0.312,0.2,0.229,0.31,0.316c0.282,0.224,0.857,0.284,0.75,0.726
		c-0.139,0.572-0.708,0.24-1.094,0.285c-0.263,0.031-0.528,0.042-0.92,0.072c1.091,0.685,2.384,0.768,3.236,1.811
		c-0.998,0.417-1.725-0.327-2.634-0.264c0.985,1.09,2.694,0.963,3.506,2.253c-0.624,0.352-1.169-0.459-1.79-0.009
		c0.714,0.42,1.407,0.81,2.08,1.232c0.292,0.184,0.834,0.305,0.645,0.763c-0.175,0.422-0.668,0.133-1.021,0.155
		c-0.654,0.041-1.227-0.511-1.921-0.258c0.12,0.36,0.463,0.456,0.742,0.585c2.115,0.982,3.547,2.578,4.458,4.714
		c0.682,1.6,1.514,3.136,2.209,4.732c0.655,1.505,1.373,2.997,1.606,4.651c0.045,0.32,0.122,0.692-0.252,0.867
		c-0.368,0.172-0.606-0.114-0.854-0.338c-0.32-0.288-0.445-0.882-1.099-0.715c0.154,0.673,0.329,1.331,0.449,1.998
		c0.124,0.695,0.255,1.397,0.277,2.099c0.063,2.004-1.354,2.839-3.149,1.871c-0.364-0.196-0.679-0.483-1.015-0.728
		c-0.235,0.322-0.325,0.677-0.353,1.066c-0.253,3.547,0.068,6.896,2.973,9.466c0.63,0.557,1.095,1.298,1.658,1.935
		c0.472,0.534,0.622,1.155,0.576,1.839c-0.254,3.714-1.123,7.256-3.015,10.494c-0.745,1.276-1.6,2.62-3.056,3.03
		c-2.236,0.629-2.67,2.258-2.841,4.172c-0.093,1.035-0.189,2.071-0.264,3.107c-0.109,1.505-0.736,2.781-1.981,3.588
		c-3.787,2.454-7.552,4.971-12.034,6.062c-0.538,0.131-1.159,0.279-1.453,0.804c-0.643,1.146-1.77,1.429-2.882,1.836
		c-4.757,1.743-9.372,1.783-14.101-0.363c-3.525-1.599-7.177-2.903-10.391-5.153c2.227,3.746,5.149,6.679,9.157,8.473
		c1.765,0.79,3.64,1.631,4.716,3.275c1.856,2.834,4.608,3.698,7.683,4.113c3.745,0.506,4.644,1.898,3.607,5.53
		c-0.091,0.317-0.199,0.632-0.344,0.927c-0.495,1.005-0.578,2.021-0.22,3.101c0.578,1.74,0.314,3.29-0.951,4.713
		c-0.586,0.659-1.128,1.453-1.051,2.56c6.224-4.573,11.163-10.507,16.762-15.73c5.655-5.276,10.458-11.304,15.332-17.299
		c0.219,1.617-0.251,3.041-0.706,4.45c-2.63,8.135-5.328,16.248-7.926,24.393c-2.041,6.399-4.046,12.808-6.434,19.089
		c-0.343,0.901-0.586,1.957-2.54,1.248c-1.037-0.376-2.16-0.416-3.236-0.175c-1.148,0.257-1.666,0.075-1.519-0.611
		c0.299-1.396,0.509-2.814,1.125-4.128c0.281-0.599,0.972-0.815,1.543-0.48c0.786,0.461,1.564,0.933,2.346,1.401
		c-2.06-3.012-4.513-5.56-7.694-7.327c-0.143,0.157-0.123,0.135-0.265,0.291c0.084-0.1,0.168-0.199,0.251-0.299
		c-0.244-0.121-0.394-0.533-0.768-0.246c0.172,0.182,0.344,0.364,0.516,0.547l0,0c0.563,0.806,1.178,1.582,1.675,2.427
		c0.493,0.838,0.703,1.746,0.099,2.66c-1.052,1.591-1.726,3.329-2.045,5.211c-0.09,0.528-0.275,0.917-0.988,0.926
		c-4.395,0.053-8.789,0.175-13.184,0.236c-0.893,0.012-1.466-0.296-1.717-1.393c-1.857-8.124-3.18-16.349-4.775-24.522
		c-0.281-1.439-0.691-2.93-0.16-4.325c0.248-0.653,0.171-1.002-0.13-1.49c-1.682-2.726-3.384-5.441-5.009-8.201
		c-0.472-0.801-0.874-0.95-1.783-0.643c-5.893,1.99-11.521,4.586-17.057,7.387c-2.771,1.402-5.472,2.945-8.208,4.418
		c-5.331,2.87-9.538,6.982-13.083,11.827v1.983c0,0,35.108,35.31,89.046,14.534c29.268-13.112,41.2-35.008,41.2-35.008
		L130.97,95.649z M108.33,70.42c-0.165,0.582-0.581,0.584-0.992,0.499c-1.018-0.212-1.676-0.876-1.834-1.885
		c-0.064-0.406-0.666-1.549,0.783-0.957c0.521,0.213,0.367-0.305,0.331-0.623c-0.061-0.533-0.609-0.969-0.326-1.578
		C107.434,66.419,108.664,69.242,108.33,70.42z M106.579,51.946c-0.015-0.317-0.017-0.757,0.345-0.858
		c0.497-0.14,0.607,0.362,0.736,0.682c1.174,2.923,1.803,6.015,2.754,9.008c0.157,0.495,0.278,1.279-0.794,0.825
		c-0.47-0.199-0.514,0.212-0.52,0.564c-0.011,0.614,0.005,1.231-0.056,1.84c-0.063,0.629-0.348,1.058-1.102,0.974
		c-0.699-0.078-1.177-0.326-1.124-1.127c0.091-1.382-0.003-2.722-0.717-3.967c-0.209-0.364-0.296-0.834,0.15-1.136
		c0.457-0.31,0.765,0.018,1.11,0.294c0.281,0.224,0.43,0.877,0.929,0.538c0.439-0.299,0.088-0.773-0.014-1.163
		c-0.27-1.031-0.886-1.847-1.59-2.623c-0.561-0.617-1.29-1.107-1.669-2.169C106.404,53.751,106.627,52.976,106.579,51.946z
		 M22.795,74.443c-0.239,0.152-0.365-0.026-0.48-0.13c-0.689-0.619-0.927-3.528-0.276-4.615c0.247,1.456,0.457,2.778,1.005,4.008
		C23.153,73.949,23.096,74.251,22.795,74.443z M32.66,68.498c0.171,0.68,0.017,1.136-0.777,1.102
		c-1.172-0.051-2.374-0.209-1.207,1.578c0.289,0.442-0.018,0.973-0.363,1.421c-1.506,1.958-1.32,4.306-1.162,6.514
		c0.121,1.692,1.687,2.589,3.353,3.722c-0.275-2.198,0.17-3.968,0.658-5.734c0.238-0.86,0.08-1.765-0.254-2.5
		c-0.557-1.226-0.358-2.382-0.11-3.935c0.951,2.204,1.875,4.076,2.483,6.084c0.066,0.218,0.149,0.511,0.059,0.683
		c-1.021,1.961-0.254,3.589,0.822,5.242c1.324,2.033,1.061,4.097-0.1,6.139c-0.523,0.921-1.224,1.111-2.129,0.705
		c-1.983-0.889-3.418-2.478-4.953-3.937c-0.175-0.167-0.342-0.404-0.174-0.61c0.21-0.257,0.538-0.198,0.759,0.007
		c0.417,0.385,0.818,0.801,1.366,0.979c0.478,0.155,1.01,0.157,1.113-0.474c0.082-0.504-0.132-1.002-0.768-0.897
		c-1.045,0.173-1.839-1.057-2.953-0.487c-0.088,0.045-0.403-0.217-0.527-0.396c-1.373-1.972-2.732-3.954-4.081-5.943
		c-0.094-0.139-0.074-0.355-0.107-0.538c0.534-0.375,0.858,0.27,1.404,0.184c0.133-1.435-0.246-2.849-0.385-4.267
		c-0.152-1.559-0.182-3.111-0.167-4.669c0.004-0.366-0.097-0.847,0.309-1.02c0.475-0.202,0.744,0.249,1.018,0.55
		c0.708,0.776,1.198,1.815,2.638,1.296c0.947-0.341,0.732-0.625,0.227-1.119c-1.083-1.059-2.324-1.913-3.556-2.783
		c-0.98-0.692-1.832-0.612-2.615,0.289c-0.236,0.272-0.474,0.544-0.776,0.89c0.089-2.387,0.907-2.973,2.893-2.173
		c0.842,0.339,1.649,0.498,2.596,0.343C29.797,64.317,32.005,65.896,32.66,68.498z"/>
	<path d="M92.896,41.694c0.401-0.131,0.769,0.629,1.122,0.093c0.271-0.411-0.112-0.811-0.285-1.18
		c-0.64-1.365-1.205-2.815-2.208-3.931c-2.71-3.015-5.881-5.283-10.182-5.146c-2.168,0.069-4.33,0.332-6.493,0.524
		c-2.684,0.238-5.303,0.595-6.348,3.68c-0.07,0.206-0.258,0.415-0.448,0.53c-1.448,0.878-1.384,2.184-1.115,3.606
		c0.766,4.045,2.078,7.914,3.917,11.582c1.153,2.3,2.566,4.444,5.615,4.487c0.463,0.007,0.922,0.284,1.507,0.478
		c-0.349-1.022-1.041-1.59-1.716-2.156c-1.416-1.185-2.784-2.416-3.9-3.897c-1.617-2.147-1.515-2.471,0.996-3.312
		c0.132-0.044,0.171-0.082-0.069-0.397c-0.456-0.25-1.374-0.358-1.622-1.251c-0.291-1.049,1.247-3.684,2.419-4.185
		c-1.266,2.462-1.321,2.655-1.129,4.085c0.595-1.013,1.257-1.794,2.575-0.965c-0.102-0.56-0.27-0.963-0.224-1.339
		c0.085-0.694,0.548-1.183,1.159-1.504c0.451-0.236,0.709,0.061,0.911,0.405c1.049,1.794,2.609,1.662,4.332,1.264
		c1.033-0.239,1.671-1.265,2.512-1.397c0.897-0.141,1.365,1.354,2.372,1.554c1.743,0.345,3.502,0.603,5.358,0.915
		c-0.033-0.494-0.341-0.938-0.068-1.359c0.564-0.02,0.93,0.714,1.585,0.387c-0.093-0.68-0.758-0.929-1.171-1.564
		C92.616,41.7,92.768,41.736,92.896,41.694z M74.224,38.602c3.296-2.673,9.046-2.982,12.489-0.682
		C82.49,38.15,78.405,38.373,74.224,38.602z"/>
	<path d="M44.37,52.409c0.739-0.117,1.174-0.474,1.169-1.422c-0.005-1.115,0.823-1.458,1.732-0.895
		c1.79,1.108,4.65,0.131,5.322-1.876c0.211-0.631,0.602-0.699,0.894-0.327c1.16,1.479,2.549,0.186,3.791,0.413
		c-0.698-0.539-1.395-1.079-2.261-1.748c1.245-0.19,2.029,0.608,3.005,0.502c-0.37-1.882-1.683-2.394-3.305-2.507
		c-0.252-0.018-0.617,0.113-0.709-0.268c-0.082-0.337,0.223-0.509,0.444-0.653c0.949-0.612,1.901-1.222,2.881-1.783
		c0.777-0.445,0.645-1.032,0.41-1.703c-0.239-0.684-0.211-1.519-1.255-1.603c-3.069-0.245-6.09-0.063-9.036,0.898
		c-5.032,1.642-8.838,4.558-10.323,9.903c-0.135,0.488-0.25,0.947-0.028,1.529c1.603-0.918,2.867-2.037,3.912-3.377
		c2.143-2.746,5.049-3.61,8.367-3.512c0.3,0.009,0.753-0.167,0.863,0.238c0.131,0.483-0.384,0.601-0.687,0.75
		c-1.516,0.746-3.089,1.384-4.571,2.191c-2.465,1.342-3.797,3.532-4.622,6.404c1.212-0.512,1.329-1.699,2.255-2.22
		c0.12,0.919-0.727,1.417-0.619,2.288C42.859,53.272,43.458,52.553,44.37,52.409z"/>
	<path d="M58.535,81.837c-0.903,0.73-1.584,1.667-1.896,2.913c0.232,0,0.375,0.035,0.492-0.005c2.08-0.725,3.773-2.298,5.996-2.734
		c0.262-0.051,0.517-0.409,0.673-0.683c0.78-1.364,2.026-2.066,3.461-2.506c3.131-0.96,6.447-1.262,9.457-2.661
		c0.243-0.113,0.557-0.089,0.839-0.102c0.722-0.031,1.595-0.037,1.846,0.701c0.261,0.767-0.862,0.67-1.194,1.265
		c1.197,0.589,2.387,0.24,3.366-0.293c1.5-0.817,3.033-0.882,4.645-0.823c2.174,0.079,2.175,0.06,2.699-2.229
		c-1.004,0.453-1.945,0.205-2.872-0.17c-1.87-0.756-3.73-1.538-5.608-2.272c-2.025-0.791-4.091-1.452-6.306-1.279
		c-1.237,0.097-2.667,0.246-3.037,1.615c-0.353,1.31-1.185,1.406-2.165,1.445c-1.427,0.057-2.835,0.013-3.732,1.479
		c-0.275,0.449-0.538,0.365-0.688,0.008c-0.251-0.597-0.275-0.631-0.734-0.314c-1.172,0.809-2.252,1.703-2.756,3.118
		C60.522,79.711,59.713,80.885,58.535,81.837z"/>
	<path d="M66.893,64.964c0.667,1.156,2.085,0.69,3.139,0.499c2.043-0.372,4.056-0.842,5.94-0.485
		c1.728,0.069,3.052-0.495,4.302-1.28c0.569-0.357,1.047-0.998,0.602-1.522c-0.879-1.033-0.611-2.849-2.276-3.296
		c-0.164-0.044-0.366,0.072-0.553,0.093c-1.077,0.12-2.152,0.252-3.232,0.336c-0.332,0.026-0.677,0.132-0.942-0.351
		c-0.825-1.504-1.426-1.598-2.649-0.352c-1.088,1.108-2.039,2.35-3.083,3.502C67.387,62.939,66.197,63.757,66.893,64.964z"/>
	<path d="M82.54,78.896c-1.63,0-2.979,0.025-4.326-0.008c-1.034-0.026-1.901,0.239-2.71,0.942c-2.018,1.753-4.298,2.896-7.081,2.676
		c-0.196-0.016-0.469-0.077-0.558,0.347c1.356,0.475,2.718,0.957,4.083,1.428c1.394,0.481,2.727,0.715,3.899-0.577
		c0.32-0.353,0.889-0.563,1.38-0.665C79.606,82.547,80.909,80.726,82.54,78.896z"/>
	<path d="M60.597,66.061c1.082-0.013,3.57-0.647,4.301-1.151c0.628-0.433,1.285-0.926,0.79-1.828
		c-0.512-0.932-2.489-1.461-3.351-0.825c-0.9,0.664-1.706,1.465-2.502,2.258c-0.28,0.279-0.608,0.713-0.371,1.13
		C59.679,66.021,60.156,66.084,60.597,66.061z"/>
	<path d="M61.655,137.216c0.285-1.638,0.656-3.22,1.619-4.606c0.678-0.977,1.857-1.249,2.736-1.938
		c0.42-0.329,1.175-0.606,0.486-1.415c-0.564-0.662-1.054-0.839-1.732-0.175c-0.749,0.732-1.357,1.57-1.915,2.442
		c-2.009,3.141-2.71,6.541-1.909,10.236C61.621,140.323,61.39,138.735,61.655,137.216z"/>
	<path d="M82.608,85.97c1.896-0.308,3.252-1.381,4.032-3.128c0.158-0.354,0.412-0.873,0.042-1.195
		c-0.415-0.362-0.711,0.168-1.045,0.348c-0.864,0.468-1.681,1.18-2.6,1.352c-1.547,0.288-2.126,1.159-2.257,2.639
		C81.397,85.984,82.017,86.065,82.608,85.97z"/>
	<path d="M77.973,86.044c-1.469,1.276-3.204,2.064-4.891,2.959c1.507,0.312,2.846-0.119,4.159-0.598
		c0.792-0.289,1.335-0.912,1.417-1.777C78.693,86.271,78.536,85.556,77.973,86.044z"/>
	<path d="M90.008,76.069c0.981-2.388-0.123-5.065-2.154-5.359C88.638,72.491,89.683,74.129,90.008,76.069z"/>
	<path d="M84.325,43.716c-1.412,0.295-2.815,0.63-4.221,0.952c1.415,0.144,2.909,0.282,4.378-0.131
		c0.361-0.102,0.841-0.167,0.702-0.661C85.07,43.474,84.608,43.657,84.325,43.716z"/>
	<path d="M49.264,102.103c-0.081,0.076-0.162,0.151-0.242,0.227c0.116,0.12,0.232,0.239,0.348,0.359
		C49.52,102.461,49.492,102.264,49.264,102.103z"/>
</g>
<g>
</g>
<g>
</g>
<g>
</g>
<g>
</g>
<g>
</g>
<g>
</g>
<g>
</g>
<g>
</g>
<g>
</g>
<g>
</g>
<g>
</g>
<g>
</g>
<g>
</g>
<g>
</g>
<g>
</g>
</svg>
