<?xml version="1.0" encoding="iso-8859-1"?>
<!-- Generator: Adobe Illustrator 19.1.0, SVG Export Plug-In . SVG Version: 6.00 Build 0)  -->
<svg version="1.1" id="Capa_1" xmlns="http://www.w3.org/2000/svg" xmlns:xlink="http://www.w3.org/1999/xlink" x="0px" y="0px"
	 viewBox="0 0 149.707 149.707" style="enable-background:new 0 0 149.707 149.707;" xml:space="preserve">
<g id="bruce_lee">
	<path id="XMLID_165_" d="M69.507,0c1.708,0.284,3.437,0.419,5.127,0.832c1.583,0.386,3.107,0.908,4.556,1.658
		c0.245,0.127,0.554,0.476,0.811,0.137c0.214-0.282,0.137-0.662-0.135-0.949C79.572,1.367,78.94,1.016,79.444,0.6
		c0.583-0.482,1.044,0.069,1.384,0.577c0.15,0.224,0.323,0.436,0.454,0.671c0.359,0.648,0.674,1.322,1.341,0.218
		c0.264-0.438,0.63-0.303,0.974-0.003c0.93,0.811,1.873,1.608,2.815,2.405c1.414,1.196,2.944,1.736,4.814,1.088
		c1.049-0.363,2.175-0.507,3.272-0.723c0.293-0.058,0.652-0.106,0.856,0.185c0.214,0.306-0.016,0.584-0.17,0.849
		c-0.078,0.133-0.17,0.259-0.241,0.395c-0.709,1.376-0.432,1.861,1.117,2.005c2.785,0.259,5.545-0.247,8.321-0.256
		c0.192-0.001,0.386-0.052,0.576-0.039c0.291,0.019,0.671-0.068,0.739,0.364c0.052,0.324-0.201,0.464-0.457,0.587
		c-0.474,0.229-0.962,0.45-1.259,1.105c0.787,0.106,1.413,0.164,2.06-0.259c0.956-0.626,1.985-0.493,2.767,0.245
		c1.973,1.862,4.308,3.103,6.744,4.2c0.807,0.363,1.642,0.634,1.545,1.841c-0.052,0.652,0.69,0.757,1.172,0.944
		c1.476,0.574,2.963,1.124,4.229,2.111c0.363,0.283,0.701,0.608,1.007,0.952c0.213,0.24,0.643,0.535,0.344,0.865
		c-0.347,0.382-0.797,0.137-1.121-0.167c-0.466-0.437-0.853-0.984-1.614-1.044c0.095,0.454,0.462,0.566,0.725,0.757
		c4.082,2.969,6.005,7.097,6.566,12.005c0.321,2.811,0.223,5.625,0.221,8.439c-0.013,24.313-0.049,48.627-0.041,72.94
		c0,1.32-0.283,2.306-1.3,3.239c-1.167,1.07-2.185,2.272-3.734,2.838c-0.818,0.299-1.348,0.25-1.409-0.77
		c-0.014-0.229-0.083-0.454-0.129-0.681c-0.723-3.561-0.428-3.238-3.99-2.564c-0.86,0.163-1.674,0.578-2.505,0.887
		c-0.49,0.182-0.73,0.052-0.723-0.497c0.011-0.879-0.003-1.693,0.574-2.513c1.116-1.587,1.416-3.49,1.538-5.387
		c0.321-4.981-0.278-9.859-1.862-14.597c-0.274-0.82-0.126-1.382,0.473-1.957c1.141-1.095,2.205-2.273,3.363-3.349
		c2.438-2.266,3.824-5.083,4.547-8.286c1.073-4.756,1.424-9.532,0.362-14.331c-0.423-1.911-1.216-3.672-2.818-4.925
		c-0.293-0.229-0.682-0.773-1.05-0.339c-0.291,0.344,0.213,0.656,0.5,0.903c1.904,1.641,2.426,3.878,2.618,6.227
		c0.091,1.112,0.028,2.237,0.032,3.356c0.001,0.154,0.005,0.312-0.027,0.461c-0.156,0.75-0.791,1.176-1.386,1.213
		c-0.703,0.045-0.462-0.762-0.504-1.186c-0.103-1.047-0.332-2.053-0.693-3.035c-0.063-0.171-0.089-0.42-0.328-0.427
		c-0.286-0.008-0.404,0.256-0.428,0.465c-0.089,0.803-0.156,1.609-0.189,2.416c-0.087,2.157,0.14,4.319-0.12,6.477
		c-0.077,0.636-0.27,1.079-0.851,1.385c-1.091,0.575-2.143,1.225-3.242,1.784c-0.538,0.274-0.833,0.592-0.841,1.23
		c-0.041,3.378-1.057,6.448-3.007,9.204c-0.445,0.629-0.682,1.1,0.451,1.015c0.829-0.062,0.859,0.449,0.705,1.055
		c-0.087,0.343-0.252,0.653-0.54,0.869c-0.246,0.184-0.498,0.372-0.773,0.505c-0.979,0.474-2.107,1.069-3.071,0.852
		c-1.257-0.283-0.719-1.8-1.049-2.746c-0.36-1.032-0.533-2.129-0.84-3.418c-0.927,1.322-1.011,2.654-1.339,3.896
		c-0.375,1.419-1.165,2.4-2.62,2.807c-0.719,0.201-1.212,0.164-1.264-0.75c-0.031-0.537-0.143-1.069-0.224-1.602
		c-0.098-0.647-0.262-1.208-1.111-1.184c-0.628,0.017-0.704-0.465-0.748-0.957c-0.213-2.379-0.404-4.761-0.662-7.135
		c-0.287-2.636-0.677-5.258-1.448-7.814c-0.531,0.064-0.434,0.44-0.491,0.711c-0.455,2.196-0.977,4.372-2.107,6.339
		c-0.233,0.405-0.404,1.117-0.976,0.973c-0.52-0.131-0.256-0.801-0.295-1.234c-0.228-2.546-0.633-5.027-1.793-7.366
		c-0.687-1.386-1.813-1.78-3.155-1.985c-1.937-0.297-1.951-0.3-2.355-2.242c-0.84-4.041-1.686-8.072-3.328-11.895
		c-1.125-2.618-2.796-4.487-5.754-4.947c-1.904-0.296-3.127-1.557-4.136-3.087c-0.765-1.161-1.538-2.316-2.716-3.122
		c-1.132-0.774-1.345-0.686-1.643,0.645c-0.096,0.429-0.033,1.015-0.564,1.172c-0.532,0.157-0.654-0.429-0.927-0.72
		c-0.472-0.502-0.956-0.786-1.589-0.233c-0.266,0.233-0.613,0.406-0.959,0.338c-1.561-0.303-2.324,0.729-3.066,1.793
		c-0.82,1.174-1.605,2.356-3.049,2.894c-0.719,0.268-1.168,0.205-1.669-0.455c-1.07-1.412-2.183-2.8-3.627-3.874
		c-0.62-0.462-1.192-0.729-1.778,0.029c-0.067,0.087-0.18,0.162-0.286,0.191c-1.087,0.293-1.805,0.866-1.738,2.12
		c0.011,0.204-0.172,0.423-0.28,0.627c-0.125,0.236-0.236,0.522-0.568,0.498c-0.351-0.026-0.369-0.328-0.431-0.594
		c-0.061-0.261-0.108-0.543-0.244-0.765c-0.235-0.385-0.524-0.462-0.748,0.033c-0.096,0.211-0.162,0.435-0.262,0.643
		c-1.007,2.085-1.664,2.378-3.938,2.071c-1.985-0.268-3.988-0.401-5.983-0.593c-0.571-0.055-0.995-0.001-1.261,0.682
		c-0.268,0.69-0.758,0.844-1.415,0.191c-0.769-0.764-1.647-0.509-2.086,0.505c-0.902,2.079-1.186,4.302-1.477,6.52
		c-0.175,1.337-0.296,2.682-0.492,4.015c-0.095,0.643,0.04,0.906,0.731,1.122c2.364,0.74,4.795,1.158,7.201,1.702
		c2.478,0.56,4.877,1.313,6.299,3.684c1.027,1.712,1.305,3.619,1.252,5.568c-0.025,0.939-0.64,1.737-1.36,2.196
		c-2.267,1.445-4.432,1.85-6.581-0.048c-0.202-0.179-0.403-0.36-0.601-0.543c-1.178-1.089-1.221-1.082-2.091,0.324
		c-0.802,1.296-2.409,1.242-3.219-0.108c-0.857-1.43-0.334-2.968,1.208-3.572c1.212-0.475,2.421-0.959,3.841-1.522
		c-1.798-0.513-3.364-0.74-4.992-0.435c-1.75,0.328-2.143,0.126-2.96-1.433c-1.005-1.916-1.504-4.012-1.554-6.124
		c-0.134-5.708-1.712-11.041-4.043-16.158c-2.605-5.718-2.278-11.295,0.285-16.881c2.363-5.151,4.482-10.426,7.917-15.016
		c2.763-3.691,6.057-6.759,10.018-9.148c1.973-1.19,4.159-1.395,6.316-1.665c1.795-0.225,3.119-0.974,4.123-2.423
		c0.285-0.411,0.66-0.758,0.949-1.167c1.574-2.228,3.619-3.646,6.418-3.815c0.42-0.025,0.831-0.164,1.25-0.227
		C60.953,0.563,60.232,0.23,60.245,0C63.332,0,66.42,0,69.507,0z"/>
	<path id="XMLID_164_" d="M76.456,149.677c-0.733-0.001-1.466,0.002-2.199-0.001c-2.607-0.01-3.94-0.949-4.867-3.429
		c-0.556-1.488-0.805-3.054-1.146-4.595c-0.247-1.117-0.63-1.587-1.957-1.316c-3.567,0.73-7.196,0.731-10.824,0.491
		c-1.11-0.073-2.05-0.369-2.842-1.271c-1.267-1.443-2.884-2.578-3.812-4.319c-0.182-0.341-0.637-0.757-0.179-1.11
		c0.41-0.316,0.865-0.08,1.221,0.298c1.072,1.139,2.478,1.53,3.965,1.654c2.278,0.191,4.553,0.107,6.79-0.397
		c2.867-0.646,5.807-0.729,8.7-1.181c3.511-0.55,6.394-1.99,7.957-5.393c0.182-0.395,0.494-0.566,0.904-0.623
		c1.427-0.199,2.585-0.955,3.704-1.796c1.662-1.248,3.19-2.709,5.164-3.478c0.771-0.301,1.626-0.913,2.399,0.089
		c0.199,0.257,0.4,0.035,0.575-0.122c3.591-3.219,7.606-5.929,11.091-9.274c1.421-1.364,2.784-2.78,3.946-4.379
		c0.153-0.211,0.274-0.53,0.583-0.494c0.393,0.046,0.401,0.451,0.45,0.725c0.223,1.238,0.056,2.449-0.282,3.655
		c-0.721,2.571-1.882,4.975-2.83,7.459c-0.347,0.909-0.212,1.156,0.794,1.457c1.993,0.595,3.576,0.157,5.122-1.115
		c0.701-0.577,1.598-0.918,2.417-1.346c0.258-0.135,0.592-0.408,0.836-0.099c0.254,0.322,0.154,0.743-0.071,1.079
		c-0.103,0.153-0.286,0.256-0.443,0.367c-5.019,3.56-9.424,7.836-13.948,11.974c-5.635,5.155-11.271,10.308-16.573,15.811
		c-0.459,0.477-0.965,0.713-1.637,0.689C78.463,149.652,77.459,149.678,76.456,149.677z"/>
	<path id="XMLID_87_" d="M59.882,78.977c-2.56,0.785-3.573-1.398-4.833-3.171c-0.29-0.409-0.295-0.853-0.074-1.317
		c0.073-0.153,0.096-0.421,0.01-0.541c-0.19-0.263-0.405-0.005-0.604,0.07c-2.036,0.762-4.103,0.407-6.167,0.168
		c-0.385-0.045-0.6-0.309-0.775-0.627c-0.617-1.122-1.134-2.277-1.305-3.564c-0.095-0.712-0.2-1.405,0.665-1.747
		c0.1-0.04,0.248-0.144,0.25-0.221c0.038-1.468,1.256-1.317,2.151-1.536c4.159-1.017,8.159-2.601,12.36-3.467
		c2.602-0.537,5.172-0.816,7.688,0.457c0.684,0.346,0.84,0.698,0.569,1.343c-0.015,0.035-0.017,0.075-0.027,0.112
		c-0.678,2.515-0.677,2.525-3.23,2.673c-1.189,0.069-2.255,0.489-3.271,1.064c-2.009,1.137-3.859,2.574-6.129,3.215
		c-0.34,0.096-0.51,0.327-0.449,0.697c0.088,0.532,0.163,1.066,0.26,1.596c0.161,0.881,0.698,0.982,1.337,0.531
		c4.584-3.233,9.502-2.83,14.519-1.365c1.153,0.337,2.235,0.854,3.248,1.497c0.268,0.17,0.741,0.317,0.584,0.736
		c-0.122,0.325-0.551,0.19-0.838,0.166c-1.037-0.086-2.083-0.141-3.102-0.333c-1.319-0.249-2.427-0.078-3.318,1.034
		c-0.546,0.681-1.333,1.027-2.168,1.262c-0.985,0.277-1.828,0.25-2.296-0.87c-0.198-0.475-0.612-0.784-1.052-1.045
		c-1.158-0.687-2.661,0.139-2.731,1.493c-0.016,0.314,0.148,0.409,0.4,0.437c0.348,0.039,0.697,0.071,0.962,0.335
		c0.165,0.164,0.345,0.348,0.289,0.597c-0.063,0.275-0.324,0.312-0.556,0.316C61.555,78.984,60.86,78.977,59.882,78.977z"/>
	<path id="XMLID_86_" d="M42.365,116.982c0.058-0.418,0.129-0.952,0.207-1.484c0.208-1.417,0.302-1.489,1.613-0.886
		c0.556,0.256,0.884-0.004,1.218-0.334c1.148-1.137,2.458-1.309,4.034-1.022c4.245,0.772,8.545,1.117,12.855,1.31
		c0.651,0.029,1.147-0.048,1.137-0.887c-0.008-0.673,0.498-0.667,0.988-0.627c1.317,0.106,2.585,0.392,3.777,0.987
		c0.585,0.292,1.169,0.652,1.795,0.781c0.99,0.205,1.253,0.828,1.372,1.702c0.194,1.433-0.747,2.43-2.119,1.995
		c-4.811-1.526-9.777-1.636-14.744-1.713c-1.922-0.03-3.842,0.206-5.753,0.454c-1.775,0.23-3.158,1.183-4.408,2.357
		c-0.766,0.719-1.176,0.453-1.51-0.375C42.548,118.553,42.423,117.836,42.365,116.982z"/>
	<path id="XMLID_85_" d="M123.815,149.685c-1.232,0-2.464,0.004-3.697-0.001c-1.1-0.004-1.372-0.459-0.827-1.432
		c0.243-0.434,0.559-0.83,0.856-1.232c1.302-1.767,2.638-3.509,3.901-5.303c0.622-0.884,1.281-1.321,2.456-1.243
		c2.051,0.135,2.058,0.034,2.058,2.127c0,1.964-0.024,3.928,0.011,5.891c0.015,0.859-0.216,1.274-1.179,1.208
		c-1.188-0.081-2.386-0.019-3.58-0.019C123.815,149.682,123.815,149.683,123.815,149.685z"/>
	<path id="XMLID_84_" d="M53.297,121.564c1.041,0,2.098,0.114,3.12-0.025c1.933-0.262,2.716,1.105,3.616,2.345
		c0.1,0.137,0.155,0.497,0.108,0.522c-0.919,0.487-1.095,1.762-2.242,2.027c-2.154,0.498-4.361,0.474-6.541,0.69
		c-1.161,0.115-3.79-3.125-3.588-4.276c0.122-0.697,0.452-1.306,1.363-1.286c1.387,0.03,2.776,0.008,4.164,0.008
		C53.297,121.568,53.297,121.566,53.297,121.564z"/>
	<path id="XMLID_83_" d="M44.025,102.82c1.114,0.21,2.27,0.157,3.424,0.167c0.665,0.006,1.343-0.058,1.913-0.364
		c3.278-1.76,6.514-0.499,9.76,0.077c0.475,0.084,0.744,0.388,0.686,0.904c-0.066,0.583-0.522,0.632-0.945,0.607
		c-2.948-0.172-5.639,0.575-8.087,2.215c-0.459,0.307-0.848,0.259-1.374,0.011c-1.038-0.489-2.153-0.819-3.241-1.2
		c-0.914-0.32-1.787-0.718-2.547-1.324c-0.259-0.207-0.655-0.425-0.53-0.814C43.221,102.673,43.667,102.859,44.025,102.82z"/>
</g>
<g>
</g>
<g>
</g>
<g>
</g>
<g>
</g>
<g>
</g>
<g>
</g>
<g>
</g>
<g>
</g>
<g>
</g>
<g>
</g>
<g>
</g>
<g>
</g>
<g>
</g>
<g>
</g>
<g>
</g>
</svg>
