<?xml version="1.0" encoding="iso-8859-1"?>
<!-- Generator: Adobe Illustrator 19.1.0, SVG Export Plug-In . SVG Version: 6.00 Build 0)  -->
<svg version="1.1" id="Capa_1" xmlns="http://www.w3.org/2000/svg" xmlns:xlink="http://www.w3.org/1999/xlink" x="0px" y="0px"
	 viewBox="0 0 154.919 154.919" style="enable-background:new 0 0 154.919 154.919;" xml:space="preserve">
<g id="Charlie_Sheen">
	<path id="XMLID_173_" d="M140.441,123.749c-1.923,0.534-3.848,1.06-5.769,1.603c-9.286,2.627-18.155,6.226-26.303,11.455
		c-4.874,3.128-9.263,6.785-12.883,11.387c-3.072,3.906-7.408,5.764-12.253,6.445c-7.139,1.004-13.851-0.834-20.447-3.24
		c-5.909-2.156-11.45-5.107-17.023-8c-7.903-4.102-16.385-6.618-25.003-8.703c-2.073-0.501-4.162-0.934-6.243-1.399
		c-0.014-0.127-0.028-0.253-0.041-0.38c1.779-0.608,3.56-1.206,5.335-1.824c9.123-3.178,18.084-6.727,26.362-11.786
		c1.675-1.024,3.228-2.246,4.872-3.324c2.275-1.491,2.97-3.856,3.094-6.274c0.273-5.306-1.863-9.99-4.521-14.391
		c-1.307-2.163-2.296-4.376-2.889-6.802c-0.086-0.353-0.224-0.694-0.385-1.183c-1.336,1.171-2.813,1.574-4.455,1.542
		c-0.947-0.018-1.559-0.41-2.066-1.187c-2.363-3.618-4.4-7.399-5.973-11.431c-0.805-2.063-0.612-4.139-0.235-6.224
		c0.199-1.103,0.531-2.182,0.756-3.281c0.16-0.78,0.54-1.323,1.366-1.354c1.02-0.039,0.862-0.596,0.614-1.226
		c-0.909-2.309-1.85-4.606-2.724-6.928c-1.341-3.562-2.423-7.172-2.319-11.056c0.058-2.141,0.694-4.094,1.432-6.043
		c-2.094,2.873-2.61,6.116-2.068,9.73c-1.177-0.468-1.381-1.403-1.548-2.276c-0.622-3.241-0.089-6.325,1.408-9.253
		c0.104-0.204,0.198-0.414,0.287-0.625c0.013-0.031-0.025-0.084-0.072-0.225c-2.044,0.247-3.567,1.412-4.964,2.814
		c-0.276,0.277-0.447,0.92-0.923,0.658c-0.488-0.27-0.234-0.854-0.063-1.274c1.209-2.963,3.391-5.122,5.871-7.025
		c0.441-0.339,0.918-0.63,1.532-1.048c-1.566,0.103-2.826,0.639-4.106,1.117c-0.365,0.136-0.817,0.611-1.127,0.209
		c-0.354-0.458,0.195-0.844,0.463-1.194c0.777-1.014,1.785-1.795,2.797-2.546c1.611-1.195,3.28-2.313,5.023-3.533
		c-1.566-0.626-2.979-1.375-3.225-3.409c1.48,0.499,2.789,1.37,4.4,0.768c-1.87-2.752-4.135-5.306-3.58-8.955
		c1.497,1.683,2.384,3.795,4.347,5.335c-0.377-2.352-0.997-4.484-0.478-6.688c0.568,1.046,0.797,2.206,1.611,3.07
		c0.416,0.441,0.821,1.007,1.507,0.857c0.669-0.147,0.666-0.834,0.785-1.365c0.606-2.692,1.061-5.425,2.377-7.905
		c1.046-1.972,2.52-3.479,4.598-4.348c0.598-0.25,1.204-0.508,2.16-0.303c-1.842,1.838-3.473,3.678-4.435,5.953
		c-0.949,2.243-1.764,4.535-0.41,6.983c0.622-0.37,0.666-0.971,0.859-1.472c1.216-3.148,2.469-6.282,4.258-9.158
		c0.89-1.43,1.841-2.851,3.524-3.498c0.38-0.146,0.856-0.437,1.179-0.064c0.396,0.458-0.172,0.738-0.403,1.038
		c-1.419,1.842-2.668,3.754-2.641,6.203c0.005,0.448-0.157,1.101,0.341,1.262c0.592,0.193,0.676-0.521,0.873-0.891
		c1.462-2.734,3.129-5.331,5.113-7.716C58.507,0.78,58.99,0.137,59.866,0c0.248,0.683-0.252,1.029-0.465,1.457
		c-1.147,2.301-2.511,4.529-2.635,7.191c-0.039,0.83-0.346,2.092,0.827,2.216c0.974,0.103,1.04-1.135,1.282-1.9
		c0.342-1.083,0.336-2.212,0.325-3.341c-0.012-1.179,0.376-1.441,1.44-0.929c1.619,0.779,2.454,2.287,3.185,3.803
		c0.484,1.005,0.791,1.139,1.634,0.306c2.568-2.536,5.249-4.952,8.305-6.904c1.045-0.668,2.144-1.24,3.674-1.348
		c-0.754,1.213-1.95,1.85-2.126,3.427c1.46-0.664,2.337-1.768,3.42-2.574c0.322-0.239,0.569-0.786,1.028-0.559
		c0.515,0.255,0.327,0.83,0.235,1.268c-0.387,1.86-1.281,3.509-2.198,5.147c-0.429,0.767-0.839,1.545-1.408,2.598
		c3.947-1.382,7.224-3.666,11.178-4.173c-1.774,1.646-4.142,2.446-5.965,4.386c2.674,0.471,5.134,0.978,7.363,2.182
		c2.22,1.199,4.225,2.617,4.976,5.247c-2.325-1.097-4.455-2.524-7.109-2.84c0.574,0.346,1.153,0.685,1.722,1.038
		c4.103,2.545,8.224,5.075,11.394,8.817c1.261,1.488,2.249,3.128,2.132,5.199c-0.028,0.507-0.009,1.03-0.568,1.562
		c-0.753-1.527-1.327-3.061-2.331-4.34c-0.46-0.587-0.948-1.156-1.461-1.697c-0.252-0.266-0.641-0.592-0.979-0.337
		c-0.412,0.311,0.009,0.676,0.179,0.974c1.046,1.829,2.182,3.61,3.151,5.478c2.068,3.985,3.071,8.145,1.664,12.6
		c-0.134,0.425-0.155,0.939-0.709,1.242c-0.638-0.715-0.533-1.755-1.299-2.838c0.074,1.495,0.112,2.659,0.193,3.82
		c0.168,2.386,0.32,4.777-0.109,7.144c-0.112,0.618,0.01,1.871-1.397,1.111c-0.504-0.272-0.491,0.333-0.507,0.583
		c-0.18,2.721-0.007,5.425,1.936,7.536c2.43,2.64,2.991,5.555,2.107,8.967c-0.623,2.405-0.548,4.924-0.731,7.397
		c-0.069,0.932-0.055,1.883-0.245,2.791c-0.319,1.525-1.274,2.166-2.78,1.782c-0.93-0.237-1.185,0.082-1.29,0.877
		c-0.11,0.835-0.271,1.664-0.37,2.5c-0.031,0.262,0.001,0.577,0.124,0.803c0.324,0.598,3.67,1.974,4.309,1.802
		c0.707-0.19,0.922-0.738,0.952-1.392c0.118-2.613,0.905-2.903,3.512-2.354c0.364,0.077,0.718,0.214,1.068,0.345
		c2.121,0.789,3.183,2.164,2.81,3.627c-0.562,2.208-2.719,3.628-4.912,3.23c-2.438-0.442-4.555-1.681-6.749-2.727
		c-1.54-0.734-1.523-0.733-1.911,0.877c-0.131,0.542-0.275,1.116-0.565,1.579c-1.087,1.733-0.892,3.531-0.514,5.41
		c0.494,2.448,0.851,4.924,1.297,7.562c0.441-0.516,0.32-0.903,0.343-1.253c0.135-1.979,0.305-2.121,2.031-1.267
		c2.289,1.134,4.471,2.42,5.429,5.01c0.123,0.333,0.379,0.527,0.674,0.681c7.051,3.684,13.81,7.935,21.252,10.861
		c4.514,1.775,9.17,2.95,13.969,3.598c0.265,0.036,0.525,0.105,0.788,0.159C140.442,123.528,140.441,123.639,140.441,123.749z
		 M87.602,83.392l0.09,0.098c1.806,0.887,3.61,1.778,5.419,2.659c2.048,0.997,2.008,0.987,2.329-1.346
		c0.928-6.749,0.843-13.537,0.84-20.323c0-0.37-0.022-0.761-0.136-1.108c-1.251-3.815-1.767-7.73-1.865-11.739
		c-0.043-1.782-0.567-3.572-1.97-4.816c-0.61-0.541-0.77-1.046-0.817-1.781c-0.255-4.031-2.04-7.385-4.671-10.346
		c0.184,0.515,0.46,0.985,0.731,1.458c1.448,2.533,2.653,5.164,3.15,8.065c0.119,0.696,0.332,1.447-0.344,2.102
		c-2.128-6.9-6.612-11.588-12.036-12.44c3.767,2.267,6.343,5.522,9.272,8.445c-3.401-1.04-6.456-2.802-9.72-4.133
		c2.127,2.089,4.571,3.807,6.531,6.072c-9.71-4.958-19.988-8.487-29.977-12.763c1.095,2.326,3.03,3.924,4.595,5.838
		c-3.08-1.046-5.895-2.461-8.271-4.651c-0.295-0.272-0.551-0.819-1.005-0.635c-1.079,0.437-1.837,1.281-2.34,2.317
		c-0.395,0.815,0.035,1.447,0.623,1.979c0.981,0.888,1.503,2.026,1.765,3.285c0.555,2.664,0.347,5.308-0.336,7.922
		c-0.316,1.211-0.353,2.399,0.079,3.587c0.334,0.917,0.889,1.285,1.834,0.782c1.322-0.704,2.774-1.234,3.942-2.135
		c1.147-0.885,2.112-0.919,3.296-0.291c0.605,0.321,1.674,0.844,1.896,0.522c0.656-0.953,1.262-0.315,1.807-0.156
		c1.255,0.366,2.48,0.843,3.695,1.332c0.628,0.253,1.083,0.277,1.314-0.47c0.069-0.221,0.136-0.493,0.413-0.504
		c0.361-0.015,0.4,0.339,0.512,0.574c0.699,1.454,0.785,1.462,1.774,0.185c0.376-0.486,0.689-0.999,0.884-1.586
		c0.081-0.245,0.058-0.61,0.449-0.608c0.32,0.001,0.48,0.264,0.623,0.504c0.708,1.189,0.545,2.434,0.19,3.674
		c-0.181,0.633-0.316,1.224-0.172,1.914c0.476,2.278,0.443,4.584-0.154,6.824c-0.813,3.052-0.583,5.735,2.075,7.855
		c0.678,0.541,1.11,2.104,2.028,0.215c0.089-0.184,0.493-0.281,0.759-0.3c1.188-0.084,2.108-0.63,2.946-1.452
		c0.645-0.632,1.457-0.744,2.083,0.038c0.955,1.194-0.189,3.879-1.697,4.092c-0.245,0.035-0.484,0.055-0.609-0.191
		c-0.135-0.265,0.045-0.461,0.252-0.573c0.58-0.315,1.153-0.622,1.273-1.656c-1.245,0.685-3.184-0.147-3.216,2.185
		c-0.004,0.28-0.273,0.362-0.517,0.358c-1.261-0.02-2.465,0.777-3.798,0.063c-0.904-0.484-1.33,0.05-1.069,1.004
		c0.267,0.975,0.604,1.93,0.949,3.016c-1.229-0.209-1.659-1.147-2.19-1.915c-0.381-0.55-0.736-0.876-1.473-0.761
		c-1.242,0.194-2.273-0.375-3.234-1.094c-2.165-1.62-2.23-2.81-0.21-4.581c1.097-0.962,2.079-2.02,2.954-3.186
		c1.799-2.395,1.654-4.971,0.687-7.598c-0.332-0.903-0.915-1.664-1.977-1.794c-1.876-0.229-3.517,0.282-4.843,1.664
		c-1.154,1.202-2.85,1.522-4.337,0.701c-0.466-0.257-0.851-0.368-1.295-0.101c-0.694,0.417-1.542,0.951-1.293,1.8
		c0.308,1.047,1.182,0.267,1.775,0.146c0.579-0.118,1.014-0.167,1.246,0.479c0.212,0.59-0.035,1.007-0.53,1.296
		c-0.536,0.313-1.136,0.445-1.749,0.462c-1.971,0.055-3.955,0.174-5.524-1.407c-0.299-0.301-0.764-0.394-1.18-0.183
		c-0.125,0.063-0.271,0.377-0.223,0.445c0.985,1.381,0.043,2.829,0.165,4.239c0.533,6.123,1.452,12.169,3.376,18.027
		c0.379,1.155,0.878,2.264,1.666,3.237c0.442-0.385,0.354-0.734,0.396-1.05c0.094-0.716-0.255-1.923,0.483-2.001
		c0.864-0.091,0.834,1.175,1.059,1.878c0.757,2.367,1.498,4.731,2.909,6.816c0.771,1.139,1.808,1.791,3.208,1.595
		c3.714-0.521,6.689-2.265,8.782-5.429c0.609-0.92,0.391-1.409-0.692-1.657c-1.842-0.421-3.542-1.196-5.12-2.24
		c-0.744-0.492-0.713-0.848,0.087-1.273c1.322-0.702,2.597-1.493,3.907-2.219c1.438-0.797,2.969-1.822,4.565-1.619
		c1.664,0.212,3.064,0.001,4.684-0.335c2.31-0.478,4.673,0.593,6.893,1.502c0.26,0.107,0.55,0.262,0.55,0.576
		c0,0.327-0.319,0.404-0.572,0.532c-0.441,0.223-1.022,0.18-1.438,0.834C85.765,82.564,86.684,82.978,87.602,83.392z M93.048,97.01
		c-1.185,1.366-2.108,2.54-3.144,3.603c-2.208,2.265-4.555,4.209-7.907,4.709c-3.884,0.579-7.687,1.591-11.429,2.837
		c-1.997,0.665-3.082,1.959-3.604,3.911c-0.709,2.649,0.949,4.824,3.719,4.711c0.922-0.037,1.831-0.346,2.749-0.512
		c1.86-0.335,2.562,0.142,2.409,1.986c-0.327,3.928-1.432,7.532-4.789,10.062c-0.812,0.612-1.203,0.561-1.372-0.474
		c-0.24-1.477-0.514-2.948-0.749-4.426c-0.407-2.556-1.741-4.153-4.427-4.473c-0.877-0.105-1.744-0.346-2.598-0.587
		c-1.01-0.285-1.262,0.087-1.092,1.045c0.369,2.072,0.951,4.148,0.977,6.229c0.044,3.49,1.765,5.381,4.853,6.649
		c2.938,1.207,5.887,2.215,9.068,2.164c4.88-0.078,8.654-2.617,11.827-5.997c4.766-5.076,6.654-11.499,7.908-18.152
		c0.068-0.359,0.074-0.766-0.021-1.115C94.373,105.293,93.75,101.322,93.048,97.01z M69.395,83.083
		c2.06,0.31,3.858,0.594,5.659,0.849c1.862,0.264,3.726,0.302,5.583-0.065c0.444-0.088,0.93-0.35,1.227,0.247
		c0.282,0.565,0.179,1.103-0.212,1.571c-0.437,0.522-1.029,0.806-1.688,0.934c-1.654,0.321-3.305,0.579-5.008,0.349
		c-0.495-0.067-1.381-0.421-1.351,0.631c0.035,1.236-0.591,2.136-1.297,3.018c-0.848,1.059-1.773,2.06-2.564,3.158
		c-1.203,1.672-1.16,2.842,0.027,4.491c1.432,1.99,3.506,2.522,5.8,2.509c0.383-0.002,1.01,0.216,1.084-0.31
		c0.075-0.534-0.565-0.661-0.991-0.824c-0.213-0.082-0.46-0.071-0.69-0.111c-0.311-0.053-0.734-0.005-0.756-0.445
		c-0.019-0.372,0.317-0.57,0.634-0.665c2.186-0.654,4.472-0.896,6.312,0.593c1.861,1.505,3.581,1.034,5.364,0.256
		c1.92-0.837,3.109-2.333,3.293-4.484c0.139-1.633,0.522-3.177,1.448-4.582c0.033,1.287-0.355,2.539-0.251,3.815
		c0.034,0.424-0.216,1.034,0.439,1.171c0.498,0.104,0.896-0.223,1.169-0.634c0.756-1.138,1.34-2.356,1.691-3.682
		c0.516-1.948,0.43-2.123-1.416-3.016c-2.781-1.345-5.546-2.725-8.338-4.047c-2.387-1.131-4.671-2.295-7.509-2.395
		C74.366,81.32,71.968,81.62,69.395,83.083z M80.64,150.653c3.875,0.203,7.914-1.3,11.291-4.574
		c0.586-0.568,1.037-1.182,0.369-1.929c-0.641-0.717-1.099,0.075-1.543,0.349c-5.956,3.677-12.242,4.621-18.954,2.434
		c-3.311-1.079-6.387-2.653-9.422-4.322c-2.909-1.601-5.8-3.235-8.715-4.827c-0.292-0.16-0.689-0.678-1.038-0.02
		c-0.635,1.197-0.284,2.452,0.92,3.21c3.289,2.072,6.687,3.952,10.232,5.545C68.887,148.812,74.124,150.633,80.64,150.653z
		 M77.851,143.893c4.028,0.013,7.065-0.968,10.635-3.435c0.688-0.476,1.289-0.908,0.702-1.917c-0.645-1.109-1.3-0.369-1.875-0.069
		c-7.155,3.73-14.135,3.221-21.007-0.767c-4.114-2.387-7.687-5.499-11.4-8.423c-0.304-0.239-0.649-0.813-1.031-0.468
		c-0.376,0.34-0.284,0.967-0.019,1.445c0.134,0.241,0.346,0.441,0.539,0.645c2.745,2.899,5.695,5.569,9.004,7.811
		C67.766,141.676,72.433,143.846,77.851,143.893z M101.007,68.821c-0.156-2.001-0.756-3.588-2.048-4.865
		c-0.275-0.272-0.553-0.801-1.009-0.351c-0.323,0.319-0.232,0.819,0.034,1.169c0.22,0.29,0.551,0.497,0.841,0.731
		c1.397,1.126,1.938,2.555,1.667,4.344c-0.194,1.278-0.676,2.43-1.297,3.532c-1.172,2.077-1.803,4.281-1.842,6.678
		c-0.018,1.1,0.422,1.979,1.424,2.068c1.062,0.094,0.865-1.008,0.921-1.704c0.195-2.421,0.292-4.85,0.544-7.265
		C100.402,71.63,100.77,70.125,101.007,68.821z M58.293,53.484c-2.526,0.108-5.137,2.203-5.706,4.448
		c-0.11,0.434-0.193,0.811,0.317,1.069c0.525,0.266,0.881,0.102,1.194-0.34c1.633-2.306,4.026-3.221,6.684-3.675
		c0.338-0.058,0.999,0.222,0.929-0.457c-0.049-0.477-0.595-0.517-1.03-0.509c-0.904,0.017-1.732,0.341-2.566,0.644
		c-0.361,0.131-0.701,0.485-1.153,0.173C57.122,54.151,57.891,54.099,58.293,53.484z M53.515,95.736
		c-2.83-3.495-4.279-7.63-5.476-11.877c-1.191-4.225-1.858-8.554-2.481-12.883C46.104,79.924,47.086,88.733,53.515,95.736z
		 M97.719,73.918c0.753-1.232,1.565-2.479,1.838-3.971c0.222-1.217,0.047-2.33-0.809-3.272c-0.183-0.201-0.381-0.485-0.688-0.412
		c-0.424,0.101-0.341,0.489-0.341,0.809C97.719,69.354,97.719,71.636,97.719,73.918z"/>
	<path id="XMLID_171_" d="M84.72,52.842c2.456,0.195,4.341,1.084,6.026,2.381c0.582,0.448,1.627,0.849,1.23,1.789
		c-0.344,0.814-1.221,1.228-2.258,1.175c-0.081-0.476,0.832-0.787,0.166-1.298c-0.748-0.574-1.536-1.343-2.485-1.025
		c-1.736,0.582-3.43-0.079-5.141,0.076c-0.469,0.043-1.349,0.015-0.717-1.019c0.464-0.758-0.358-0.672-0.603-0.539
		c-1.712,0.931-3.368,0.8-5.22-0.447c1.003,3.208,3.628,5.304,3.689,8.5c-0.731-2.06-2.101-3.716-3.33-5.464
		c-1.4-1.991-2.282-4.162-2.295-6.655c-0.005-0.829-0.273-1.655-0.402-2.485c-0.09-0.58-0.245-1.177,0.231-1.87
		c0.633,1.099,1.183,2.095,1.775,3.066c0.365,0.599,0.776,1.209,1.404,1.539c0.513,0.269,1.207,0.438,1.034-0.581
		c-0.17-1.002,0.502-0.94,1.004-0.733c2.063,0.85,3.95,0.026,5.869-0.511c0.349-0.097,0.869-0.256,0.954-0.508
		c0.45-1.325,1.362-0.845,2.169-0.61c3.057,0.89,5.315,3.659,5.202,6.507C90.537,52.372,88.207,49.8,84.72,52.842z"/>
	<path id="XMLID_170_" d="M87.602,83.392c1.291-1.915,1.004-3.92,0.274-5.914c-1.075-2.936-3.009-5.375-4.685-7.963
		c-0.481-0.743-0.901-1.528-1.321-2.309c-0.194-0.361-0.19-0.754,0.222-0.972c0.404-0.214,0.761-0.031,0.939,0.343
		c1.788,3.747,4.581,6.974,5.702,11.071c0.394,1.439,0.521,2.848,0.05,4.277c-0.206,0.627-0.446,1.241-1.092,1.566
		C87.693,83.49,87.602,83.392,87.602,83.392z"/>
</g>
<g>
</g>
<g>
</g>
<g>
</g>
<g>
</g>
<g>
</g>
<g>
</g>
<g>
</g>
<g>
</g>
<g>
</g>
<g>
</g>
<g>
</g>
<g>
</g>
<g>
</g>
<g>
</g>
<g>
</g>
</svg>
