<?xml version="1.0" encoding="iso-8859-1"?>
<!-- Generator: Adobe Illustrator 19.1.0, SVG Export Plug-In . SVG Version: 6.00 Build 0)  -->
<svg version="1.1" id="Capa_1" xmlns="http://www.w3.org/2000/svg" xmlns:xlink="http://www.w3.org/1999/xlink" x="0px" y="0px"
	 viewBox="0 0 164.47 164.47" style="enable-background:new 0 0 164.47 164.47;" xml:space="preserve">
<g id="charlie_chaplin">
	<path id="XMLID_385_" d="M32.433,87.478c-2.362-1.042-4.454-2.208-5.936-4.214c-0.432-0.585-0.785-1.201-0.838-1.95
		c-0.045-0.632-0.073-1.403,0.434-1.72c0.503-0.315,0.786,0.483,1.183,0.758c1.481,1.026,3.881,0.291,4.512-1.424
		c0.311-0.847-0.243-1.252-0.871-1.555c-1.59-0.767-3.327-0.997-5.039-1.314c-0.291-0.054-0.582-0.111-0.855-0.164
		c-0.092-0.484,0.256-0.418,0.459-0.506c2.912-1.278,4.825-3.386,5.506-6.549c0.161-0.748,0.243-1.625,0.69-2.177
		c0.968-1.195,0.234-1.59-0.674-2.105c-1.758-0.995-3.673-1.545-5.595-2.09c-0.541-0.153-1.086-0.304-1.609-0.508
		c-1.558-0.607-2.287-1.84-2.461-3.433c-0.17-1.56,0.583-2.661,1.857-3.46c2.574-1.613,5.5-1.938,8.417-2.146
		c2.151-0.153,4.33-0.229,6.472,0.196c0.98,0.194,1.304-0.02,1.241-1.131c-0.454-8.016-1.028-16.024-1.015-24.064
		c0.012-7.319,2.062-13.649,7.954-18.388c3.527-2.838,7.518-4.77,11.793-6.149c6.353-2.049,12.906-2.912,19.549-3.219
		c9.024-0.418,17.999-0.177,26.764,2.305c5.251,1.487,10.076,3.805,14.02,7.71c4.461,4.416,6.67,9.807,6.804,16.025
		c0.207,9.63,0.431,19.261,0.303,28.893c-0.015,1.1,0.158,1.447,1.388,1.346c3.959-0.327,7.918-0.275,11.804,0.736
		c0.049,0.013,0.104,0.005,0.153,0.018c2.657,0.75,4.202,2.27,4.304,4.233c0.104,2.014-1.214,3.678-3.749,4.735
		c-1.136,0.474-2.312,0.812-3.666,1.014c1.429,2.353,0.572,4.14-1.246,5.702c-1.211,1.04-2.415,2.088-3.605,3.152
		c-1.338,1.198-2.006,2.696-1.958,4.506c0.03,1.124,0.241,2.23,1.278,2.808c1.076,0.599,1.625-0.514,2.32-1.042
		c1.097,1.531,1.123,2.998,0.015,4.577c-1.665,2.373-4.075,3.595-6.86,3.966c-1.097,0.146-1.346,0.509-1.379,1.507
		c-0.189,5.831,0.219,11.632,0.819,17.423c0.88,8.489,0.844,16.859-3.346,24.637c-1.848,3.431-3.899,6.752-5.817,10.146
		c-2.447,4.329-4.884,8.664-7.265,13.029c-1.679,3.078-3.673,5.57-7.447,6.301c-9.741,1.887-18.247-1.005-26.15-6.414
		c-3.452-2.363-6.626-5.096-9.37-8.244c-3.678-4.219-8.155-7.547-12.185-11.369c-0.448-0.425-0.878-0.871-1.331-1.291
		c-1.596-1.481-3.269-2.828-2.352-5.505c0.337-0.983-0.151-2.221-0.606-3.275c-2.205-5.115-4.254-10.263-8.289-14.388
		c-3.264-3.336-5.643-7.334-6.458-12.045c-0.214-1.24-0.633-2.152-1.528-3.099C30.694,95.851,29.268,91.081,32.433,87.478z
		 M73.708,76.006c-1.458-2.594,0.187-4.403,1.543-6.29c-4.352-0.583-7.873,1.28-9.76,5.033c-0.795,1.58-1.076,3.297-1.495,4.985
		c-1.338,5.4-3.379,10.2-9.912,10.996c0.472,1.033,1.053,1.925,1.312,2.986c0.728,2.987-0.132,5.806-0.787,8.652
		c-0.321,1.396-1.1,2.926-0.432,4.2c0.978,1.864-0.332,1.802-1.323,1.939c-0.712,0.098-0.934,0.346-1.04,1.003
		c-0.548,3.413-1.001,6.813,0.186,10.196c0.358,1.021,0.506,2.087,0.575,3.172c0.338,5.305,1.295,10.468,4.825,14.665
		c4.737,5.633,9.657,11.116,15.283,15.9c1.88,1.599,3.833,3.118,6.151,4.138c-2.979-3.674-5.25-7.717-6.788-12.144
		c-1.516-4.363-2.972-8.759-2.17-13.486c0.263,0.148,0.339,0.329,0.37,0.517c1.506,9.262,5.476,17.365,11.741,24.295
		c2.439,2.698,5.144,5.194,9.033,5.766c2.107,0.31,4.2,0.115,6.305,0.112c5.162-0.009,8.352-2.46,10.597-7.101
		c3.259-6.736,7.122-13.178,11.029-19.566c4.023-6.577,5.279-13.696,4.818-21.253c-0.422-6.93-1.346-13.827-1.294-20.789
		c0.013-1.775-1.8-2.694-3.293-1.739c-0.429,0.274-0.844,0.601-1.184,0.978c-1.262,1.395-2.49,2.821-3.849,4.37
		c0.619,0,1.125-0.029,1.628,0.005c2.416,0.165,4.372,1.089,5.386,3.434c0.145,0.335,0.636,0.92-0.138,1.12
		c-1.098,0.284-2.261,0.832-3.163-0.49c-0.452-0.663-1.057-1.193-2.005-1.07c0.332,2.236,0.068,2.718-1.606,3.059
		c-0.959,0.195-1.909,0.4-2.888,0.031c-1.134-0.427-1.141-1.503-1.413-2.578c-0.733,0.768-1.688,1.229-1.461,2.345
		c0.22,1.079,1.196,1.315,2.091,1.564c0.392,0.109,0.832,0.073,1.203,0.221c0.981,0.394,2.173-0.006,3.262,0.873
		c-1.715,0-3.211,0.117-4.682-0.028c-1.994-0.197-3.829-0.872-4.92-2.734c-0.352-0.601-0.787-1.397,0.162-1.84
		c1.918-0.895,3.395-2.481,5.501-3.29c-0.629-0.202-1.143-0.294-1.586-0.523c-1.117-0.579-1.177-1.638-0.211-2.443
		c1.423-1.186,2.82-2.403,4.237-3.596c1.142-0.962,2.313-1.893,3.693-2.495c1.68-0.734,3.194-0.472,4.527,0.829
		c0.302,0.295,0.431,0.803,0.953,0.874c0.371-2.217,1.668-4.213,1.261-6.582c-0.225-1.311-0.163-2.669-0.322-3.995
		c-0.329-2.747-0.479-5.529-1.48-8.156c-0.304-0.799-0.509-1.612-1.57-0.596c-0.367,0.352-1.023,0.445-1.567,0.563
		c-2.547,0.552-5.137,0.359-7.7,0.263c-6.732-0.252-13.451-1.014-20.192-0.806C85.047,71.687,78.873,71.877,73.708,76.006z
		 M123.078,54.673c0.042,0,0.084,0,0.127,0c0-1.49-0.058-2.984,0.022-4.469c0.048-0.897-0.214-1.143-1.106-1.084
		c-2.462,0.163-4.93,0.305-7.396,0.328c-9.527,0.09-19.014-0.617-28.494-1.479c-8.296-0.754-16.589-1.56-24.898-2.134
		c-5.841-0.404-11.693-1.002-17.567-0.44c-2.214,0.212-2.213,0.184-2.056,2.471c0.049,0.719,0.113,1.441,0.099,2.16
		c-0.027,1.341,0.638,1.759,1.927,1.913c4.794,0.571,9.573,1.264,14.356,1.925c9.415,1.301,18.82,2.682,28.245,3.898
		c8.568,1.106,17.169,1.939,25.796,2.429c3.082,0.175,6.174,0.15,9.261,0.236c1.221,0.034,1.888-0.295,1.718-1.741
		C122.956,57.365,123.078,56.012,123.078,54.673z M25.291,58.072c0.356,0.016,0.585,0.094,0.752,0.025
		c2.926-1.212,6.008-1.291,9.101-1.256c11.096,0.125,21.995,2.084,32.94,3.596c6.822,0.943,13.631,2.013,20.494,2.587
		c10.199,0.853,20.409,1.58,30.619,2.3c5.086,0.359,10.185,0.518,15.236-0.419c2.146-0.398,4.276-0.931,5.919-3.294
		c-4.02,1.757-7.859,1.777-11.706,1.818c-9.018,0.095-17.993-0.676-26.979-1.259c-8.112-0.526-16.215-1.122-24.266-2.266
		c-11.601-1.648-23.161-3.621-34.863-4.452c-3.801-0.27-7.623-0.362-11.407,0.234C29.069,56.011,27.017,56.473,25.291,58.072z
		 M37.452,94.704c-0.189,0.043-0.302,0.035-0.364,0.087c-0.801,0.681-0.95,1.372-0.748,2.519c0.162,0.922-0.376,2.07-0.244,3.155
		c0.448,3.688,2.205,6.806,4.396,9.686c1.711,2.249,3.59,4.371,5.387,6.556c0.687,0.835,1.222,1.763,1.748,2.709
		c0.481,0.864,1.427,1.144,2.264,0.779c0.808-0.353,0.064-1.046-0.022-1.575c-0.304-1.885-0.47-3.758-0.25-5.679
		c0.18-1.577,0.897-3.227,0.429-4.725c-1.313-4.204-2.908-8.314-5.407-12.007c-0.534-0.79-1.01-0.803-1.775-0.382
		c-1.867,1.028-3.021,2.6-3.594,4.599c-0.298,1.041-0.423,2.132-0.692,3.55C36.39,100.872,37.197,97.756,37.452,94.704z
		 M51.793,129.45c-0.417,2.672-0.59,4.906,2.135,6.193C53.213,133.686,52.219,131.902,51.793,129.45z M49.298,123.437
		c0.65,1.523,1.298,3.04,2.011,4.709C51.314,123.938,51.265,123.828,49.298,123.437z"/>
	<path id="XMLID_302_" d="M110.335,124.827c0.133,2.019,0.102,3.787-0.274,5.537c-0.161,0.749-0.751,1.208-1.307,1.662
		c-2.503,2.043-5.428,3.099-8.596,3.381c-3.607,0.321-7.169-0.027-10.651-1.129c-2.909-0.921-3.893-2.061-3.796-5.089
		c0.099-3.091,0.915-5.975,3.114-8.303c0.414-0.439,0.817-0.945,1.637-0.93c-0.281,1.412-0.39,2.807,0.544,4.031
		c0.83,1.088,1.973,1.706,3.294,1.764c3.009,0.133,5.844,0.954,8.678,1.871c3.496,1.131,4.396,0.816,6.731-2.099
		C109.854,125.342,110.02,125.176,110.335,124.827z"/>
	<path id="XMLID_301_" d="M62.219,98.084c2.747-0.351,4.979-1.693,7.069-3.301c3.317-2.551,6.864-4.419,11.189-4.617
		c3.132-0.143,6.015,0.465,8.717,1.992c1.612,0.911,3.189,1.892,5.09,2.063c0.752,0.068,0.657,0.405,0.414,0.918
		c-1.363,2.883-6.877,4.147-9.14,2.022c-2.229-2.094-4.787-1.753-7.396-1.175c-3.75,0.832-7.371,2.175-11.169,2.825
		C64.922,99.166,63.639,99.005,62.219,98.084z"/>
	<path id="XMLID_300_" d="M84.353,101.805c-0.059,1.279,0.537,2.722-0.853,3.301c-1.667,0.694-3.509,0.932-5.224,0.096
		c-0.713-0.347-0.925-1.28-0.892-2.027c0.051-1.161-0.422-0.886-1.044-0.536c-0.579,0.326-1.178,0.618-1.742,0.967
		c-1.356,0.841-1.401,1.55-0.118,2.54c1.048,0.809,2.293,1.121,3.597,1.148c1.454,0.031,2.91,0.007,4.372,0.138
		c-2.176,1.325-4.589,1.262-6.939,1.026c-3.133-0.314-6.178-1.058-8.627-3.274c-0.421-0.381-1.011-0.778-0.898-1.336
		c0.111-0.546,0.859-0.426,1.318-0.527c2.521-0.555,4.774-1.789,7.139-2.736c4.072-1.63,8.239-2.486,12.635-1.665
		c2.382,0.445,4.03,1.909,5.409,3.778c0.232,0.315,0.343,0.534,0.005,0.912c-1.317,1.477-3.309,1.606-4.757,0.255
		C86.772,102.971,85.932,101.871,84.353,101.805z"/>
	<path id="XMLID_297_" d="M110.858,133.209c-1.259,2.651-2.957,4.626-5.141,6.189c-3.658,2.619-7.827,3.886-12.249,3.981
		c-5.381,0.116-10.23-4.013-11.876-9.745C91.316,136.314,101.017,138.497,110.858,133.209z M100.375,139.854
		c-5.382-0.597-10.673-1.58-15.736-3.522c0.082,2.119,1.399,2.888,3.007,3.396C91.868,141.061,96.106,140.942,100.375,139.854z"/>
	<path id="XMLID_296_" d="M82.854,142.806c2.02,1.067,4.003,1.701,6.038,2.178c0.296,0.069,0.582,0.081,0.828,0.329
		c3.767,3.804,8.22,4.416,13.146,2.803c0.037-0.012,0.094,0.034,0.295,0.115c-4.084,3.114-8.494,4.118-13.314,2.546
		C86.078,149.547,83.728,146.906,82.854,142.806z"/>
	<path id="XMLID_295_" d="M80.267,146.172c-1.843-2.838-3.042-5.957-3.863-9.225c-0.25-0.993-0.368-2.02-0.555-3.029
		c-0.348-1.872,0.506-3.31,1.73-4.56c1.62-1.655,3.298-3.254,4.966-4.862c1.632-1.573,3.08-3.287,4.159-5.36
		c0.17,1.044,0.077,1.444-0.512,2.681c-1.219,2.558-3.053,4.72-5.174,6.452c-3.543,2.892-3.476,6.426-2.659,10.317
		C78.892,141.133,79.597,143.629,80.267,146.172z"/>
	<path id="XMLID_293_" d="M113.658,136.444c0.662-2.122,1.152-4.33,1.526-6.588c0.586-3.538-0.604-6.345-3.332-8.385
		c-1.506-1.126-1.684-2.325-1.367-4.075c2.591,1.744,4.766,3.701,6.175,6.402c0.686,1.314,0.326,2.734,0.195,4.078
		c-0.229,2.348-0.754,4.656-1.826,6.787C114.684,135.345,114.474,136.169,113.658,136.444z"/>
	<path id="XMLID_292_" d="M47.209,105.096c-0.057,0.355-0.041,0.529-0.112,0.655c-1.408,2.512-0.417,4.726,0.846,6.908
		c0.025,0.044,0.046,0.091,0.066,0.138c0.369,0.909,0.802,1.836,0.023,2.732c-0.308,0.355-0.777,0.593-1.25,0.37
		c-0.965-0.455-1.093-1.46-1.284-2.332c-0.296-1.352-0.477-2.734-0.624-4.112c-0.085-0.798-0.349-1.143-1.219-1.217
		c-2.423-0.207-3.798-2.179-3.09-4.43c0.627-1.995,1.967-3.586,3.229-5.208c0.27-0.347,0.63-0.513,0.828-0.031
		C45.534,100.786,46.394,103.027,47.209,105.096z"/>
</g>
<g>
</g>
<g>
</g>
<g>
</g>
<g>
</g>
<g>
</g>
<g>
</g>
<g>
</g>
<g>
</g>
<g>
</g>
<g>
</g>
<g>
</g>
<g>
</g>
<g>
</g>
<g>
</g>
<g>
</g>
</svg>
