<?xml version="1.0" encoding="iso-8859-1"?>
<!-- Generator: Adobe Illustrator 19.1.0, SVG Export Plug-In . SVG Version: 6.00 Build 0)  -->
<svg version="1.1" id="Capa_1" xmlns="http://www.w3.org/2000/svg" xmlns:xlink="http://www.w3.org/1999/xlink" x="0px" y="0px"
	 viewBox="0 0 160.24 160.24" style="enable-background:new 0 0 160.24 160.24;" xml:space="preserve">
<g>
	<path d="M137.982,75.038c-0.28-1.831-0.627-3.637-1.498-5.295c-0.501-0.954-1.2-1.875-2.272-1.973
		c-1.157-0.106-1.123-0.693-1.076-1.499c0.18-3.123,0.314-6.247,0.273-8.497c0.041-6.049-0.186-11.208-0.865-16.336
		c-0.285-2.154-0.669-4.301-1.138-6.423c-3.085-13.953-10.97-23.949-24.316-29.453c-7.853-3.238-16.068-4.836-24.494-5.406
		C72.481-0.526,62.698,0.985,53.392,5.085c-4.649,2.048-9.008,4.725-11.576,9.224c-1.805,3.163-4.11,5.824-6.4,8.56
		c-0.878,1.05-1.676,2.176-2.424,3.324c-6.473,9.927-7.541,20.993-6.734,32.428c0.223,3.162,0.661,6.309,0.962,9.466
		c0.032,0.333,0.429,0.911-0.282,1.039c-2.464,0.446-3.264,2.435-3.927,4.403c-1.635,4.853-1.385,9.714,0.657,14.373
		c2.683,6.123,5.884,12.015,8.025,18.381c0.542,1.611,1.687,3.015,3.442,3.29c1.953,0.306,1.967,1.596,2.057,3.004
		c0.194,3.022,0.464,6.036,0.99,9.023c1.186,6.744,4.806,12.152,9.443,16.951c5.439,5.628,11.58,10.494,17.344,15.771
		c2.955,2.705,6.284,4.695,10.306,5.26c3.854,0.542,7.742,0.536,11.627,0.648c6.54,0.188,11.729-2.282,15.873-7.282
		c3.567-4.305,7.355-8.421,11.068-12.602c4.278-4.816,7.232-10.376,8.641-16.699c1.05-4.712,1.658-9.5,2.374-14.268
		c0.084-0.561,0.15-0.92,0.806-1.099c3.408-0.932,5.1-3.417,5.764-6.7c0.774-3.823,1.952-7.507,3.849-10.909
		C138.018,85.755,138.824,80.555,137.982,75.038z M130.593,65.462c0-2.125,0-4.25,0-6.374c0.069,0,0.138-0.001,0.206-0.001
		c0,2.123,0,4.245,0,6.367c0.139,1.791-0.214,3.529-0.624,5.267C130.306,68.965,130.084,67.189,130.593,65.462z M29.737,49.493
		c0.494-5.833,1.797-11.451,4.293-16.767c1.972-4.201,4.6-7.916,8.145-10.944c0.406-0.347,0.738-0.716,0.902-1.23
		c2.001-6.288,6.519-9.938,12.531-12.107c8.074-2.913,16.377-3.98,24.93-3.469c2.368,0.141,4.711,0.46,7.069,0.66
		c1.738,0.147,2.822,1.508,4.154,2.341c5.76,3.601,10.068,8.546,12.897,14.746c0.115,0.253,0.199,0.523,0.274,0.791
		c0.018,0.063-0.059,0.152-0.088,0.219C98.478,12.386,89.633,4.963,75.788,5.401c3.711,2.367,6.925,5.27,9.688,8.667
		c2.765,3.4,5.141,7.022,6.395,11.259c-3.52-7.447-8.584-13.537-15.648-17.864c-3.529-2.162-7.597-2.418-11.47-0.88
		c7.784,3.28,12.507,9.159,14.807,17.103c-1.152-2.585-2.375-5.149-4.118-7.432c-3.38-4.428-7.572-7.613-13.152-8.745
		c-0.869-0.176-1.66-0.168-2.498,0.097c-1.655,0.523-3.327,0.994-5.143,1.869c3.668,1.107,6.568,3.069,8.95,5.721
		c2.342,2.609,4.183,5.541,4.865,9.073c-2.304-5.699-6-10.085-11.722-12.61c-1.045-0.461-2.158-0.696-3.271-0.865
		c-2.435-0.371-3.964,1.287-5.479,2.729c-2.012,1.915-3.382,4.291-4.29,6.928c-0.194,0.564-0.371,1.134-0.885,1.565
		c-5.848,4.905-9.149,11.372-10.959,18.609c-2.618,10.471-2.333,20.99,0.089,31.474c0.095,0.411,0.265,0.808,0.044,1.281
		c-0.727-0.178-0.648-0.846-0.761-1.321C29.465,64.623,29.094,57.093,29.737,49.493z M35.957,105.845
		c1.007-2.455,0.451-4.319-1.508-5.049c0.614,1.073,1.237,2.087,0.944,3.312c-0.107,0.447-0.214,0.995-0.761,1.108
		c-0.524,0.108-0.674-0.427-0.937-0.734c-0.641-0.748-0.877-1.686-1.017-2.609c-0.409-2.704-1.4-5.178-2.672-7.579
		c-1.702-3.213-3.628-6.327-4.586-9.887c-0.422-1.567-0.591-3.152-0.326-4.798c0.238,2.618,0.71,5.179,2.204,7.533
		c0-1.335-0.053-2.672,0.011-4.004c0.138-2.889,1.152-5.171,4.451-5.814c-1.971-0.969-3.536-2.516-5.688-2.795
		c0.67-1.73,0.746-1.761,2.477-0.743c1.352,0.796,2.548,1.794,3.718,2.836c2.472,2.203,2.521,5.244,3.025,8.227
		c-0.646-0.047-0.528-0.654-0.948-0.892c-0.515,0.936-0.987,1.899-1.555,2.801c-0.708,1.124-1.187,1.139-2.03,0.081
		c-0.482-0.604-0.866-1.286-1.51-2.258c0.035,2.571-0.174,4.758,0.243,6.956c0.21,1.108,0.804,1.547,1.766,1.168
		c0.989-0.39,1.227,0.169,1.521,0.838c0.247,0.562,0.474,1.138,0.78,1.667c0.339,0.587,0.931,0.45,1.383,0.23
		c0.483-0.234,0.172-0.64,0.008-0.973c-0.629-1.281-0.949-2.668-1.373-4.019c-0.057-0.18-0.095-0.368-0.115-0.556
		c-0.098-0.916,1.253-3.22,1.762-2.965c0.876,0.44,0.713,1.502,0.826,2.329c0.666,4.917,1.247,9.845,1.956,14.755
		C38.268,105.835,36.949,105.475,35.957,105.845z M121.029,116.777c-0.66,7.558-3.41,14.063-8.174,19.88
		c-3.815,4.659-7.543,9.383-11.96,13.504c-0.581,0.542-1.194,1.052-1.767,1.603c-3.917,3.77-8.56,5.506-14.023,5.416
		c-4.863-0.08-9.618-0.723-14.328-1.854c-0.391-0.094-0.689-0.27-0.977-0.527c-6.677-5.972-13.463-11.828-19.996-17.953
		c-3.937-3.692-7.159-8.087-8.199-13.521c-0.906-4.733-1.354-9.562-1.805-14.368c-0.211-2.251-0.886-4.385-1.187-6.599
		c-0.479-3.514-0.932-7.032-1.403-10.547c-0.062-0.462-0.164-0.918-0.248-1.376c-0.453-2.879-0.019-5.743,0.066-8.618
		c0.049-1.665-0.474-3.351-0.781-5.02c-0.486-2.641-1.059-5.268-1.489-7.918c-0.202-1.245,0.409-2.393,0.88-3.516
		c1.117-2.663,2.42-5.251,4.078-7.604c1.166-1.655,1.555-3.379,1.415-5.431c-2.314,1.761-3.517,4.322-5.131,6.558
		c0.937-2.788,2.308-5.301,4.302-7.45c1.413-1.523,1.695-2.165,2.021-4.648c-2.939,1.655-5.117,3.968-7.161,6.437
		c1.116-2.634,3.993-5.841,7.044-7.87c0.717-0.477,1.137-1.047,1.43-1.83c0.643-1.723,1.394-3.406,2.025-5.133
		c0.222-0.607,0.512-0.736,1.132-0.745c3.144-0.048,6.179-0.675,9.232-1.941c-4.632-2.917-7.836-6.811-9.257-12.036
		c0.094-0.092,0.188-0.184,0.281-0.276c0.459,0.532,0.903,1.079,1.381,1.594c6.621,7.136,14.969,11.216,24.234,13.657
		c7.266,1.914,14.69,2.599,22.174,2.9c4.354,0.175,8.703,0.5,13.047,0.855c1.693,0.138,3.369,0.516,5.04,0.846
		c0.436,0.086,1.032,0.202,1.166,0.703c0.281,1.048,1.18,1.408,1.937,1.932c2.2,1.52,4.103,3.351,5.766,5.438
		c0.284,0.356,0.707,0.67,0.427,1.257c-2.061-2.326-4.3-4.393-7.219-5.619c0.388,0.957,0.576,1.906,0.851,2.829
		c0.113,0.38,0.315,0.673,0.697,0.96c1.99,1.494,3.528,3.421,4.89,5.491c0.234,0.356,0.463,0.72,0.181,1.253
		c-1.369-1.844-2.797-3.585-4.884-4.826c0.552,2.003,1.112,4.003,1.653,6.009c0.337,1.249,0.922,2.219,2.017,3.069
		c4.912,3.812,4.997,4.134,4.714,10.44c-0.083,1.847-0.18,3.693-0.23,5.541c-0.047,1.735-0.299,3.483,0.515,5.158
		c0.202,0.415,0.013,1.02,0.004,1.537c-0.519,4.849-1.439,9.636-2.236,14.442C122.187,104.8,121.551,110.793,121.029,116.777z
		 M133.52,87.287c-1.567,3.593-3.657,6.969-4.539,10.849c-0.334,1.471-0.27,3.036-0.972,4.417c-0.278,0.548-0.425,1.47-1.308,1.2
		c-0.794-0.243-0.896-1.106-0.96-1.844c-0.022-0.254,0.199-0.52,0.231-0.79c0.026-0.217,0.007-0.577-0.118-0.645
		c-0.284-0.156-0.5,0.071-0.674,0.33c-0.612,0.91-0.38,2.625,0.531,3.792c-2.067,0.237-2.501-0.077-2.228-1.823
		c0.859-5.496,1.766-10.984,2.684-16.659c0.867,0.904,1.424,1.656,1.049,2.913c-0.404,1.356-0.633,2.765-1.19,4.08
		c-0.14,0.331-0.437,0.762,0.104,0.95c0.415,0.144,0.956,0.314,1.289-0.191c0.205-0.311,0.339-0.678,0.455-1.036
		c0.354-1.096,0.601-2.207,2.25-1.574c0.76,0.291,1.064-0.444,1.175-1.075c0.396-2.248,0.182-4.49-0.024-7.104
		c-0.666,1.041-1.106,1.783-1.602,2.486c-0.488,0.691-0.979,0.734-1.571,0.021c-0.643-0.775-1.055-1.676-1.579-2.515
		c-0.084-0.154-0.252-0.316-0.239-0.462c0.24-2.767,0.882-5.435,2.062-7.959c0.089-0.191,0.335-0.308,0.508-0.46
		c1.149-0.878,2.178-1.929,3.529-2.517c0.918-0.4,1.658,0.138,1.61,1.144c-0.006,0.128-0.102,0.365-0.118,0.362
		c-1.938-0.388-2.904,1.465-4.467,1.925c-0.087,0.026-0.187,0.004-0.281,0.005c-0.271,0.248-0.724,0.311-0.784,0.774
		c3.253,0.647,4.525,2.082,4.783,5.382c0.113,1.452-0.009,2.923,0.367,4.556c1.148-2.458,1.522-4.904,1.753-7.387
		C135.744,81.597,134.756,84.455,133.52,87.287z"/>
	<path d="M106.783,79.42c-1.917-0.53-3.86-0.911-5.827-1.129c-4.079-0.451-7.811,0.166-10.748,3.447
		c-0.807,0.902-0.674,1.791-0.592,2.758c0.053,0.629,0.484,0.184,0.75,0.205c0.099-0.043,0.198-0.086,0.297-0.129
		c-0.029,0.107-0.059,0.213-0.087,0.32c-0.68,1.556-0.325,2.626,1.264,3.464c1.611,0.85,3.356,1.236,5.213,1.252
		c-1.119-0.53-1.915-1.386-2.561-2.376c-0.218-0.334-0.519-0.737-0.28-1.185c0.277-0.519,0.729-0.248,1.134-0.191
		c3.524,0.5,7.05,0.781,10.578,0.032c0.549-0.117,1.087-0.19,1.484-0.693c0.705-0.894,1.697-1.151,2.79-1.07
		c0.438,0.032,1.036-0.229,1.227,0.383c0.151,0.484,0.166,1.033-0.206,1.484c-0.171,0.207-0.342,0.413-0.593,0.717
		c2.196,0.121,0.784-2.718,2.724-2.689C111.474,81.752,109.446,80.156,106.783,79.42z M94.418,82.993
		c-0.661-0.283-0.531-0.662-0.073-1.022c0.765-0.601,1.582-1.1,2.683-1.264c-0.13,1.148-0.3,2.222,0.446,3.341
		C96.206,83.92,95.335,83.385,94.418,82.993z M98.471,82.018c-0.588-0.013-0.998-0.24-0.973-0.611
		c0.011-0.958,0.379-1.218,0.983-1.226c0.675-0.008,0.912,0.448,0.904,0.997C99.377,81.705,99.032,82.031,98.471,82.018z
		 M104.952,84.052c-0.13,0.049-0.268,0.079-0.529,0.155c0.185-0.853,0.354-1.634,0.562-2.592c0.763,0.435,1.945,0.64,1.915,1.339
		C106.869,83.677,105.684,83.779,104.952,84.052z"/>
	<path d="M51.689,81.352c0.075,0.177-0.018,0.293-0.165,0.39c-0.277,0.49-0.549,0.983-0.834,1.468
		c-0.811,1.38-0.232,2.412,1.429,2.596c0.091-0.53-1.066-0.767-0.506-1.181c0.472-0.349,1.121-0.939,1.921-0.629
		c0.438,0.169,0.879,0.333,1.318,0.499c1.725,0.656,3.475,1.253,5.326,1.381c1.236,0.085,2.482,0.016,3.974,0.016
		c-0.634,1.007-1.088,1.729-1.647,2.617c2.956-0.634,5.248-2.114,7.509-3.651c0.26-0.177,0.425-0.674,0.761-0.53
		c1.335,0.573,1.086-0.43,1.195-1.119c0.224-1.42-0.697-2.152-1.681-2.858c-4.116-2.953-8.709-3.319-13.532-2.544
		c-3.465,0.557-6.565,1.742-8.695,4.739c-0.261,0.367-0.554,0.684-0.109,1.094c0.45,0.414,0.791,0.268,1.203-0.134
		c0.702-0.685,1.321-1.485,2.266-1.882C51.512,81.534,51.601,81.443,51.689,81.352z M65.868,81.335
		c0.298,0.3,0.606,0.662,0.261,1.103c-0.298,0.381-0.717,0.595-1.216,0.616c-0.576,0.023-0.396-0.4-0.379-0.686
		c0.041-0.699,0.012-1.389-0.219-2.223C65.113,80.386,65.451,80.916,65.868,81.335z M58.281,79.614
		c0.63-0.017,0.885,0.393,1.062,0.875c-0.027,0.648-0.435,1.022-0.957,1.043c-0.514,0.021-0.986-0.279-0.996-0.928
		C57.38,80.003,57.632,79.631,58.281,79.614z M56.745,79.996c-0.362,1.525-0.203,2.737,0.787,3.957
		c-1.67-0.148-2.938-0.625-4.105-1.571C54.412,81.427,55.443,80.726,56.745,79.996z"/>
	<path d="M99.767,122.058c-1.681,0.053-3.267-0.506-4.919-0.549c-6.668-0.175-13.337-0.324-20.004-0.528
		c-3.269-0.1-6.339,0.886-9.462,1.586c-2.725,0.611-2.717,0.644-4.232-1.779c0.09,2.991,1.981,4.574,4.233,5.744
		c9.307,4.835,18.849,5.251,28.612,1.407c2.517-0.991,4.469-2.604,6.029-4.748C100.305,122.802,100.915,122.022,99.767,122.058z
		 M95.266,125.282c-2.009,1.45-4.206,2.6-6.634,3.002c-1.82,0.301-3.572,1.005-5.457,0.943c-1.88-0.061-3.763-0.031-5.641-0.115
		c-1.19-0.053-2.244-0.679-3.532-0.655c-1.202,0.022-2.423-0.763-3.63-1.162c-0.755-0.25-1.877-0.717-2.364-1.409
		c-0.583-0.83-0.655-2.018-0.975-3.146c0.787,0.157,1.381,0.434,1.905,0.902c0.341-0.315-0.179-1.051,0.525-1.112
		c0.768-0.067,1.488,0.327,1.791,0.922c0.391,0.766,0.175,0.309,0.442-0.038c1.174-1.529,2.999-0.926,3.809,1.212
		c1.195-3.085,2.361-3.099,5.388-0.061c1.693-2.141,2.437-2.312,4.695-0.791c0.68,0.458,0.882,0.058,1.271-0.265
		c1.382-1.148,2.969-0.643,3.429,1.104c0.318-1.13,1.119-1.791,2.165-2.029c0.986-0.224,1.263,0.758,1.794,1.532
		c0.111-0.51,0.126-0.872,0.269-1.173c0.239-0.503,0.645-0.534,1.02-0.145C95.958,123.236,95.758,124.927,95.266,125.282z"/>
	<path d="M54.824,73.74c5.721,1.628,11.445,3.238,17.219,4.669c1.34,0.332,1.466,0.181,1.17-1.149
		c-0.417-1.877-1.414-3.114-3.388-3.562c-5.699-1.293-11.371-2.705-17.079-3.954c-1.481-0.324-3.049-1.051-4.578-0.314
		c-3.188,1.537-5.11,4.138-5.939,7.576c1.01-1.114,2.041-2.141,3.415-2.699C48.634,73.094,51.741,72.863,54.824,73.74z"/>
	<path d="M106.391,70.383c-4.259,0.887-8.41,2.188-12.632,3.203c-2.238,0.538-3.372,1.749-3.941,3.901
		c-0.349,1.318,0.153,1.189,1.017,0.957c5.199-1.393,10.406-2.761,15.596-4.188c1.596-0.439,3.167-0.455,4.773-0.173
		c3.049,0.536,5.648,1.941,7.991,4.349c-0.044-0.489-0.026-0.678-0.081-0.841C117.441,72.637,111.527,69.312,106.391,70.383z"/>
	<path d="M70.582,109.075c-2.006,0.24-2.76-0.283-3.099-2.571c-0.204,2.549,0.392,3.305,2.526,3.55
		c0.469,0.054,0.948,0.05,1.421,0.034c2.524-0.081,4.772,0.598,7.014,1.846c2.286,1.273,5.002,1.436,7.373,0.27
		c2.167-1.066,4.244-2.021,6.71-1.927c0.7,0.027,1.527,0.034,1.958-1.012c-0.943,0.178-1.755,0.08-2.574,0.008
		c-2.223-0.197-4.339,0.242-6.295,1.338c-2.054,1.151-4.347,0.997-6.135-0.008C76.599,108.985,73.692,108.703,70.582,109.075z"/>
	<path d="M58.621,115.78c2.051-2.902,3.709-6.081,5.537-9.141c-0.676,0.321-1.149,0.779-1.587,1.269
		c-2.851,3.185-5.577,6.451-6.917,10.623c-0.162,0.505-0.306,0.955-0.05,1.496c0.907,1.92,1.851,3.817,3.276,5.496
		c-0.319-0.979-0.493-2.038-0.983-2.921C56.513,120.111,57.019,118.047,58.621,115.78z"/>
	<path d="M99.595,125.31c-0.528-0.338-0.721,0.167-0.907,0.555c-1.862,3.873-5.061,6.036-9.126,7.018
		c-4.889,1.181-9.825,1.122-14.861,0.344c3.596,1.286,14.361,1.272,18.557-0.931c2.681-1.407,4.84-3.283,6.217-6.001
		C99.628,125.992,100.058,125.606,99.595,125.31z"/>
	<path d="M83.485,82.517c-0.523,6.768-0.806,13.528,0.597,20.239C83.758,96.013,84.143,89.25,83.485,82.517z"/>
	<path d="M111.737,114.461c0.784,5.62-2.369,10.057-4.332,14.941c0.484-0.024,0.598-0.381,0.767-0.641
		c1.759-2.71,3.229-5.562,4.046-8.704c0.432-1.662,0.656-3.354,0.108-5.046C112.233,114.727,112.178,114.351,111.737,114.461z"/>
	<path d="M55.98,129.853c-3.221-3.758-4.295-8.398-5.769-12.858C50.154,121.272,52.897,128.809,55.98,129.853z"/>
	<path d="M94.45,151.934c0.463-3.906,2.482-7.397,3.113-11.258C95.809,144.237,93.82,147.736,94.45,151.934z"/>
	<path d="M106.485,121.433c2.245-3.208,2.222-4.282-0.066-5.988c-1.943-2.129-4.033-4.104-6.226-5.972
		c-0.239-0.203-0.379-0.599-0.767-0.201c-0.377,0.387-0.006,0.596,0.205,0.804c2.055,2.025,4.15,4.003,6.548,5.629c0,0,0,0,0,0
		c1.873,1.919,1.87,1.918,0.91,4.013C106.851,120.237,106.507,120.725,106.485,121.433z"/>
	<path d="M73.349,132.874c0.021,0.003,0.044,0.007,0.065,0.011c-0.016-0.009-0.03-0.022-0.047-0.029L73.349,132.874z"/>
	<path d="M73.962,132.976c-0.202-0.034-0.375-0.063-0.548-0.092C73.571,132.976,73.704,133.173,73.962,132.976z"/>
	<path d="M73.349,132.874l0.018-0.018c-0.021-0.006-0.042-0.012-0.063-0.018C73.317,132.854,73.33,132.87,73.349,132.874z"/>
	<path d="M73.101,132.779c0.068,0.019,0.135,0.039,0.203,0.058C73.253,132.773,73.223,132.654,73.101,132.779z"/>
</g>
<g>
</g>
<g>
</g>
<g>
</g>
<g>
</g>
<g>
</g>
<g>
</g>
<g>
</g>
<g>
</g>
<g>
</g>
<g>
</g>
<g>
</g>
<g>
</g>
<g>
</g>
<g>
</g>
<g>
</g>
</svg>
