<?xml version="1.0" encoding="iso-8859-1"?>
<!-- Generator: Adobe Illustrator 19.1.0, SVG Export Plug-In . SVG Version: 6.00 Build 0)  -->
<svg version="1.1" id="Capa_1" xmlns="http://www.w3.org/2000/svg" xmlns:xlink="http://www.w3.org/1999/xlink" x="0px" y="0px"
	 viewBox="0 0 166.578 166.578" style="enable-background:new 0 0 166.578 166.578;" xml:space="preserve">
<g id="Joseph_Stalin">
	<path id="XMLID_316_" d="M166.578,156.128L0,156.39v-16.783c5.953-3.375,12.396-5.638,18.873-7.673
		c7.848-2.466,15.586-5.205,23.273-8.111c0.861-0.325,1.632-0.713,2.117-1.556c0.911-1.579,2.194-2.842,3.564-4.014
		c1.587-1.358,2.859-2.935,3.647-4.89c0.473-1.174,1.102-2.252,2.596-2.182c1.599,0.074,1.536,1.497,1.889,2.529
		c0.29,0.848,0.367,1.773,0.699,2.6c1.561,3.899,3.105,7.763,5.513,11.304c2.929,4.309,7.186,7.077,10.855,10.535
		c4.133,3.896,7.891,3.712,13.092,0.529c3.505-2.145,6.856-4.524,10.043-7.118c1.545-1.258,3.311-2.336,4.418-4.441
		c-1.256,0.483-1.934,1.264-2.717,1.894c-1.36,1.095-2.771,2.304-4.518,2.447c-4.148,0.341-8.316,0.465-12.479,0.593
		c-1.41,0.043-1.775-0.844-1.299-2.08c0.541-1.403,1.477-2.544,2.515-3.61c0.985-1.011,2.013-1.985,2.72-3.232
		c1.108-1.954,0.842-2.44-1.374-2.533c-4.003-0.167-7.819-1.39-11.72-2.129c-0.68-0.129-1.743-0.33-1.583-1.326
		c0.126-0.786,1.083-0.801,1.77-0.859c1.474-0.125,2.953-0.087,4.416,0.158c2.026,0.338,4.062,0.635,6.07,1.06
		c2.963,0.626,5.763,0.106,8.44-1.131c3.392-1.567,6.344-3.886,9.523-5.817c1.955-1.187,1.554-3.809-0.545-4.806
		c-1.009-0.479-2.098-0.631-3.199-0.427c-1.765,0.329-3.532,0.666-5.279,1.079c-2.857,0.676-5.706,0.934-8.555,0.026
		c-1.16-0.37-2.156-0.974-2.079-2.407c0.076-1.399,0.912-2.237,2.218-2.571c0.676-0.173,1.393-0.207,2.095-0.249
		c2.296-0.137,4.432,0.544,6.575,1.257c0.881,0.293,2.158,0.671,2.12-0.902c-0.036-1.468-0.801-2.969-2.351-3.157
		c-3.609-0.436-7.191-1.397-10.9-0.683c-4.752,0.914-9.368,2.202-13.689,4.423c-1.147,0.59-2.297,1.159-3.615,1.237
		c-0.776,0.046-1.351-0.275-1.768-0.938c-0.4-0.637-0.038-1.097,0.306-1.563c1.119-1.517,1.856-3.233,2.461-4.993
		c1.109-3.225,3.327-5.18,6.504-6.321c4.594-1.65,9.262-2.827,14.678-2.74c-1.042-0.544-1.624-0.805-2.162-1.137
		c-1.079-0.666-2.61-1.253-2.419-2.69c0.185-1.392,1.875-0.982,2.891-1.392c0.059-0.024,0.126-0.025,0.188-0.039
		c3.209-0.727,4.044-1.753,3.105-4.875c-1.601-5.328-1.694-10.747-1.593-16.215c0.064-3.442,0.038-3.438,3.122-4.719
		c0.77-0.32,1.542-0.646,2.279-1.034c4.688-2.466,9.495-2.971,14.981-0.678c-0.914-1.633-2.059-2.244-3.126-2.899
		c-1.813-1.114-2.288-2.666-1.695-4.629c0.223-0.737,0.476-1.465,0.724-2.195c1.318-3.885,0.448-6.048-3.491-6.987
		c-4.165-0.993-8.32-2.123-12.807-0.953c-4.014,1.047-8.173,1.12-11.474-2.353c-0.948-0.997-2.332-1.146-3.613-0.71
		c-2.605,0.887-5.282,0.94-7.985,0.994c-5.148,0.103-8.267,3.737-7.303,8.796c1.097,5.762-0.217,10.664-4.39,14.807
		c-0.868,0.862-1.719,1.856-1.68,3.155c0.147,4.921,0.027,9.882,2.414,14.452c2.606,4.989,3.396,10.124,1.391,15.608
		c-0.971,2.656-0.652,5.434,0.642,8.046c2.714,5.48,6.617,9.892,11.716,13.26c0.55,0.364,1.466,0.636,0.974,1.564
		c-0.41,0.775-1.196,0.608-1.889,0.37c-0.423-0.145-0.851-0.311-1.228-0.546c-8.04-5.017-12.786-12.034-13.342-21.689
		c-0.431-7.494-1.764-14.869-3.298-22.206c-0.247-1.179-0.828-2.349-2.213-2.252c-1.143,0.08-1.102-0.448-1.138-1.21
		c-0.068-1.456,0.267-2.952-0.511-4.34c-0.937-1.671-0.956-3.461-0.372-5.226c0.736-2.222,0.625-4.392,0.044-6.627
		c-1.603-6.17-1.861-12.244,1.216-18.145c0.766-1.469,1.555-2.769,2.964-3.666c1.412-0.898,2.769-1.86,3.652-3.354
		c1.476-2.498,3.596-4.331,6.095-5.75c3.628-2.06,7.3-4.039,10.804-6.314c1.988-1.29,4.203-1.829,6.604-1.68
		c2.887,0.179,5.764,0.072,8.643-0.333c4.381-0.616,8.771-1.309,13.209-0.416c5.75,1.156,11.48,2.311,15.909,6.659
		c2.989,2.935,5.723,6.067,8.032,9.568c1.417,2.148,2.179,4.474,2.188,7.064c0.006,1.541,0.078,3.133,0.676,4.549
		c1.881,4.457,2.14,9.038,1.603,13.785c-0.648,5.726-1.306,11.374-5.622,15.803c-1.048,1.076-1.278,2.624-1.366,4.133
		c-0.403,6.918-1.037,13.821-1.244,20.753c-0.075,2.508-0.564,4.934-1.663,7.264c-1.107,2.345-0.873,5.033-1.495,7.52
		c-0.115,0.458,0.134,0.878,0.413,1.244c1.464,1.919,2.308,4.149,3.111,6.382c1.069,2.977,3.131,5.178,5.113,7.568
		c2.571,3.103,5.683,4.109,9.421,4.911c6.964,1.494,13.671,4.021,20.295,6.648c5.308,2.106,10.813,3.715,15.952,6.241V156.128z
		 M102.086,66.48c1.087-0.441,2.023-0.439,2.724-0.998c0.716-0.572,0.855-1.266,0.411-2.04c-0.393-0.685-0.924-0.791-1.599-0.303
		c-0.808,0.584-1.59,0.188-2.356-0.166c-0.881-0.407-1.443-0.416-1.454,0.844c-0.014,1.681-1.479,2.05-2.58,1.871
		c-1.157-0.188-2.516-0.875-3.207-1.784c-1.022-1.345-1.547-0.782-2.347,0.012c-1.855,1.841-1.854,2.176,0.055,4.216
		c0.324,0.347,1.003,0.591,0.735,1.203c-0.201,0.459-0.797,0.295-1.225,0.347c-1.369,0.167-1.666,1.038-1.449,2.207
		c0.336,1.807,1.194,3.395,2.307,4.817c1.223,1.563,2.607,3.001,3.836,4.56c1.299,1.647,2.111,3.33,0.526,5.387
		c-0.483,0.627-1.219,2.007,0.495,2.418c3.368,0.808,5.74,2.705,6.995,5.978c0.467,1.219,1.196,0.924,1.874,0.159
		c1.074-1.212,1.48-2.676,1.508-4.261c0.071-4.019-1.551-7.494-3.622-10.778c-0.674-1.069-0.603-1.418,0.658-1.5
		c1.922-0.124,3.841-0.282,5.624-1.129c2.565-1.217,3.878-3.862,3.402-6.892c-0.392-2.498-1.665-3.509-4.957-3.806
		c-1.013-0.091-2.045,0.01-3.068,0.031C104.376,66.898,103.361,67.083,102.086,66.48z M92.676,58.825
		c0.089,0.079,0.171,0.218,0.264,0.224c0.251,0.018,0.511,0.008,0.758-0.039c2.457-0.466,4.859-0.269,7.157,0.712
		c1.239,0.529,2.283,0.456,3.221-0.551C100.973,56.329,96.626,56.201,92.676,58.825z"/>
	<path id="XMLID_315_" d="M63.681,54.452c4.088-0.018,7.29,1.347,10.679,1.614c1.155,0.091,2.237,0.981,1.956,2.391
		c-0.275,1.38-1.434,2.059-2.754,1.854c-2.076-0.323-4.207-0.481-6.174-1.332c-3.591-1.554-5.642-1.054-8.056,1.946
		c-0.83,1.032-1.735,2.12-3.171,0.961c-1.313-1.06-0.827-2.283-0.015-3.4C58.164,55.708,60.754,54.061,63.681,54.452z"/>
	<path id="XMLID_312_" d="M78.484,65.243c1.203,5.624,1.837,11.062,1.236,16.59c-0.038,0.351-0.102,0.788-0.414,0.737
		c-1.461-0.237-3.028,0.639-4.412-0.552c-1.26-1.085-1.388-2.342-1.004-3.821c0.659-2.537,1.556-5.055,0.681-7.737
		c-0.176-0.541,0.144-0.992,0.496-1.387C76.167,67.837,77.27,66.604,78.484,65.243z"/>
	<path id="XMLID_306_" d="M71.243,62.943c-0.304,2.318-1.783,2.526-3.647,2.675c-2.725,0.217-5.666-0.522-8.098,1.461
		c-0.329,0.268-0.889,0.422-1.246,0.042c-0.419-0.445,0.125-0.799,0.275-1.188c1.872-4.828,9.214-6.62,13.183-5.057
		c2.46,0.969,3.157,3.267,1.531,5.382c-1.094,1.423-2.625,2.004-4.337,2.204c-0.502,0.059-1.095,0.143-1.216-0.578
		c-0.092-0.543,0.079-1.061,0.598-1.309c0.692-0.33,1.446-0.532,2.136-0.866C71.601,65.139,72.099,64.286,71.243,62.943z"/>
	<path id="XMLID_305_" d="M120.701,77.603c-0.571-2.1,0.137-5.092-1.206-7.786c-0.334-0.67-0.304-1.384,0.307-1.935
		c0.526-0.474,1.146-0.563,1.78-0.249c0.813,0.403,0.662,1.124,0.58,1.839c-0.349,3.052,0.543,6.085-0.02,9.176
		c-0.434,2.386-1.973,4.488-1.703,7.03c0.027,0.258-0.22,0.515-0.496,0.404c-0.201-0.081-0.392-0.335-0.466-0.554
		c-0.397-1.168-0.072-2.279,0.376-3.352C120.375,80.927,120.877,79.684,120.701,77.603z"/>
	<path id="XMLID_304_" d="M119.643,79.308c-0.067,0.342-0.091,0.802-0.252,1.207c-0.342,0.86-0.603,2.163-1.775,1.834
		c-1.101-0.309-0.582-1.503-0.414-2.337c0.243-1.212,0.125-2.403-0.048-3.603c-0.073-0.504-0.156-1.115,0.469-1.294
		c0.588-0.168,0.914,0.346,1.164,0.792C119.361,76.928,119.522,78.062,119.643,79.308z"/>
	<path id="XMLID_303_" d="M44.99,70.392c-2.671,4.289-2.04,8.843-1.032,13.695C40.681,80.626,41.994,72.644,44.99,70.392z"/>
	<path id="XMLID_291_" d="M66.93,87.202c1.133-2.797,2.32-5.531,4.301-7.812c0.319-0.367,0.762-0.931,1.265-0.567
		c0.555,0.401,0.026,0.938-0.216,1.339C70.753,82.696,69.43,85.386,66.93,87.202z"/>
</g>
<g>
</g>
<g>
</g>
<g>
</g>
<g>
</g>
<g>
</g>
<g>
</g>
<g>
</g>
<g>
</g>
<g>
</g>
<g>
</g>
<g>
</g>
<g>
</g>
<g>
</g>
<g>
</g>
<g>
</g>
</svg>
