<?xml version="1.0" encoding="iso-8859-1"?>
<!-- Generator: Adobe Illustrator 19.1.0, SVG Export Plug-In . SVG Version: 6.00 Build 0)  -->
<svg version="1.1" id="Capa_1" xmlns="http://www.w3.org/2000/svg" xmlns:xlink="http://www.w3.org/1999/xlink" x="0px" y="0px"
	 viewBox="0 0 158.9 158.9" style="enable-background:new 0 0 158.9 158.9;" xml:space="preserve">
<g id="jawaharlal_nehru">
	<path id="XMLID_323_" d="M81.93,151.52c-1.795,1.1-2.814,2.727-4.111,4.059c-0.603,0.619-1.202,1.82-2.141,1.276
		c-1.189-0.69,0.194-1.508,0.308-2.294c0.32-2.208,1.486-3.921,2.891-5.59c-1.563,1.194-3.088,2.442-4.703,3.56
		c-0.912,0.631-2.123,1.871-3.067,0.772c-0.933-1.085,0.47-2.155,1.203-2.965c1.207-1.334,2.612-2.49,3.985-3.769
		c-0.947-0.239-1.496,0.594-2.25,0.811c-1.056,0.303-2.171,0.811-3.073-0.091c-1.031-1.032-0.383-2.208,0.103-3.278
		c0.216-0.474,0.57-0.886,1.256-1.924c-1.76,1.276-2.986,1.973-4.644,1.896c-1.586-0.075-2.453,1.417-3.266,2.597
		c-0.785,1.139-1.397,2.305-3.089,2.228c-1.041-0.047-1.474,0.948-2.029,1.642c-2.349,2.939-5.362,5.076-8.317,7.35
		c-1.854,1.427-3.795,0.092-5.531,1.059c-0.44,0.245-0.733-0.743-0.535-1.237c0.4-1.001,0.847-2.01,1.446-2.901
		c4.755-7.071,10.312-13.333,18.186-17.416c-0.845-0.724-1.362-0.207-1.818,0.038c-6.085,3.268-11.979,6.823-17.175,11.435
		c-0.933,0.828-1.787,2.29-3.371,0.718c-0.592-0.588-0.847,0.276-1.132,0.674c-0.572,0.799-1.39,0.855-2.195,0.586
		c-0.935-0.312-0.828-1.173-1.006-1.992c-0.505-2.329,0.612-3.792,2.242-5.131c3.495-2.871,7.077-5.648,10.383-9.35
		c-2.532,0.612-4.305,3.215-6.947,1.359c-0.507-0.356-0.991,0.595-1.436,1.018c-0.535,0.508-0.815,1.762-1.811,1.115
		c-0.736-0.478-0.383-1.501-0.196-2.293c0.12-0.51,0.306-1.005,0.476-1.548c-1.366-0.274-1.628,1.581-3.141,1.153
		c1.184-2.811-0.15-3.177-2.53-2.513c-0.898,0.25-1.919,0.257-2.327-0.802c-0.387-1.006,0.346-1.789,1.032-2.336
		c2.905-2.317,5.798-4.662,8.845-6.782c2.097-1.459,2.505-2.706,0.637-4.687c-1.25-1.326-1.783-3.159-2.05-4.973
		c-1.496-10.154-3.499-20.141-7.63-29.653c-2.266-5.218-3.056-10.783-1.3-16.48c0.615-1.994,0.043-4.039-1.195-5.685
		c-1.749-2.323-1.86-4.859-1.341-7.501c0.35-1.783,0.615-3.549,0.728-5.37c0.147-2.347,0.488-4.536-1.336-6.583
		c-0.945-1.061-0.5-2.783-0.282-4.231c0.721-4.784,2.543-9.258,3.887-13.867c1.496-5.13,3.148-10.209,3.693-15.583
		c0.37-3.65,2.381-5.431,6.391-5.84c3.694-0.377,7.415-0.492,11.124-0.731c7.597-0.489,15.187-1.146,22.791-1.429
		c7.359-0.274,14.651,0.737,21.856,2.177c4.289,0.857,6.001,4.221,8.319,7.696c4.097,6.141,6.195,13.042,9.382,19.497
		c1.853,3.753,3.1,7.761,3.227,11.999c0.039,1.308,0.793,2.178,1.335,3.201c1.509,2.849,2.369,5.505-0.025,8.546
		c-2.133,2.709-1.641,4.16,1.17,6.449c1.54,1.254,2.126,2.999,2.126,4.829c-0.002,7.131-1.85,13.587-7.222,18.674
		c-1.838,1.741-3.777,3.419-4.48,6.03c-0.217,0.804-0.704,1.617-1.591,1.696c-1.263,0.113-2.572-0.128-3.059,1.529
		c-0.55,1.87-0.96,3.881-0.036,5.576c1.948,3.578,4.233,6.961,5.577,10.865c0.448,1.301,1.979,1.498,3.131,1.974
		c4.195,1.735,8.374,3.511,12.146,6.072c2.865,1.945,2.808,2.222-0.18,3.766c-17.007,8.791-31.892,20.397-45.212,34.081
		c-0.545,0.56-1.123,1.64-1.928,1.062c-0.932-0.668,0.209-1.393,0.495-2.076C81.825,153.131,82.414,152.686,81.93,151.52z
		 M117.355,38.037c0.18,1.09-0.21,1.624-1.332,1.219c-0.586-0.212-1.107-0.606-1.654-0.924c-2.108-1.23-4.131-2.647-6.547-3.236
		c-2.374-0.579-3.004,0.058-2.276,2.35c0.33,1.038,0.427,1.932-0.436,2.735c-1.081,1.006-0.733,2.122-0.229,3.239
		c0.605,1.341,1.629,2.373,2.533,3.505c2.318,2.902,5.983,4.386,7.894,7.759c0.658,1.162,1.834,0.997,2.401-0.48
		c0.566-1.475,0.688-2.984,0.496-4.538c-0.068-0.554-0.059-1.152,0.596-1.347c0.814-0.243,1.116,0.29,1.305,0.981
		c0.083,0.303-0.131,0.946,0.921,0.706c-0.844-4.139-3.882-7.596-3.678-11.964c-0.561-4.303-2.481-8.139-4.239-12.01
		C110.616,20.54,108.16,15.065,105.1,9.8c-2.002-3.445-4.129-5.704-7.734-6.354c-4.713-0.85-9.502-1.558-14.28-1.723
		C69.65,1.258,56.301,2.994,42.912,3.761c-3.625,0.208-5.069,1.707-5.352,5.253c-0.212,2.65-0.791,5.201-1.517,7.724
		c-1.754,6.099-3.732,12.138-5.331,18.276c-0.63,2.418-2.205,5.286,1.028,7.326c0.208,0.131,0.228,0.68,0.21,1.028
		c-0.168,3.151,0.302,6.312-0.688,9.452c-0.896,2.841-0.821,5.709,1.242,8.237c0.568,0.696,0.911,0.983,1.72,0.393
		c2.894-2.108,5.836-1.444,8.716,0.027c1.61,0.822,3.142,1.795,4.709,2.7l0.005,0.004c-0.829,2.278-3.21,2.072-5.079,3.161
		c0.552,0,0.888-0.018,1.222,0.004c0.669,0.043,1.587-0.586,1.939,0.321c0.353,0.908-0.44,1.516-1.141,1.935
		c-2.125,1.272-4.407,1.772-6.757,0.769c-1.749-0.746-2.299-1.909-0.473-3.352c-1.216-0.563-2.318-1.074-3.286-1.522
		c-2.402,6.133-1.697,12.085,0.785,17.661c3.209,7.209,5.121,14.735,6.367,22.43c0.934,5.77,2.087,11.295,5.957,15.95
		c1.661,1.998,3.504,3.148,6.128,3.527c6.691,0.967,10.271-3.995,15.56-7.642c-4.499-0.17-8.114-0.765-11.472-2.404
		c-0.297-0.145-0.717-0.041-1.079-0.049c-2.531-0.052-4.84,0.402-5.766-3.398c-0.568-2.333,0.003-2.23,1.509-2.311
		c1.356-0.073,2.72-0.002,4.081-0.006c1.023-0.003,1.998-0.203,2.778-0.914c0.775-0.707,1.384-1.6,0.895-2.639
		c-0.458-0.973-1.475-0.925-2.396-0.714c-0.882,0.202-1.756,0.447-2.62,0.718c-1.47,0.461-2.909,0.406-4.174-0.478
		c-1.784-1.247-3.7-1.87-5.878-1.701c-0.512,0.04-1.213,0.175-1.312-0.561c-0.074-0.552,0.344-1.024,0.824-1.322
		c1.808-1.12,3.652-1.024,5.381,0.096c1.813,1.175,3.481,1.278,5.266-0.059c1.372-1.027,3.063-1.344,4.672-0.946
		c2.018,0.5,3.416-0.316,5.14-1.642c-2.093-1.078-3.88-2.11-5.755-2.941c-4.06-1.798-6.875-5.728-11.451-6.629
		c-0.666-0.131-1.735-0.111-1.588-1.081c0.156-1.029,1.207-0.906,2.018-0.821c0.953,0.1,2.423,0.712,2.538-0.592
		c0.255-2.87,2.367-5.131,1.976-8.278c-0.754-6.062,0.602-11.922,3.194-17.419c2.496-5.293,6.65-8.255,12.688-8.184
		c2.63,0.031,5.261,0.028,7.891,0.059c0.914,0.011,1.944,0.158,2.579-0.568c1.886-2.155,3.608-1.416,5.392,0.093
		c0.391,0.33,0.891,0.689,1.559-0.147c-1.777-1.879-3.606-3.726-5.996-4.869c-1.281-0.613-1.464-1.157-0.37-2.124
		c1.671-1.476,2.823-3.314,3.414-5.463c0.226-0.819,0.659-1.161,1.485-1.31c2.216-0.401,4.055-2.72,4.01-4.874
		c-0.024-1.123-0.591-1.692-1.669-1.709c-6.982-0.109-13.943-0.269-20.64,2.387c-8.059,3.197-16.376,5.345-25.142,5.174
		c-1.076-0.021-2.294,0.205-3.452-1.137c8.527-0.225,16.382-1.976,23.985-4.73c4.536-1.643,9.102-3.074,13.837-3.96
		c11.513-2.153,22.899-2.302,33.894,2.466C112.195,33.77,115.217,35.279,117.355,38.037z M69.534,67.757
		c1.918-1.286,3.954-0.632,5.871-0.981c0.539-0.098,1.141-0.125,1.286-0.777c0.156-0.701-0.262-1.211-0.77-1.624
		c-0.91-0.74-1.672-0.182-2.472,0.278c-1.238,0.712-2.481,1.777-4.001,0.827c-2.033-1.27-3.669-0.193-5.27,0.804
		c-1.218,0.758-1.587,1.987-0.186,2.813c1.756,1.035,1.609,2.423,1.254,3.987c-0.609,2.688-0.921,5.422,0.028,8.05
		c1.686,4.665,5.088,8.295,7.794,12.343c0.347,0.519,0.998,0.823,1.689,0.611c0.825-0.253,1.054-0.947,1.068-1.711
		c0.027-1.449-0.084-2.907,0.037-4.347c0.283-3.375,0.609-6.966,3.618-9.034c4.266-2.931,7.644-6.928,12.069-9.625
		c0.553-0.337,1.169-0.682,0.682-1.477c-0.439-0.718-1.089-0.955-1.858-0.547c-0.833,0.442-1.291,1.244-1.788,2.003
		c-0.501,0.764-1.153,1.87-2.031,1.546c-2.871-1.059-4.526,0.802-6.523,2.181c-1.566,1.082-3.384,1.849-5.832,0.175
		c2.177-0.63,3.728-1.022,5.234-1.54c0.722-0.248,1.24-0.874,0.969-1.704c-0.239-0.73-1.064-0.926-1.593-0.661
		C75.289,71.112,72.816,67.168,69.534,67.757z"/>
	<path id="XMLID_310_" d="M47.65,64.176c-3.591-4.106-10.684-6.542-14.042-4.823c-0.144-2.925,0.947-4.402,3.678-4.454
		c4.112-0.078,7.8,1.529,11.28,3.511c1.466,0.835,1.662,2.543,1.446,4.131c-0.176,1.298-1.065,1.821-2.358,1.639L47.65,64.176z"/>
	<path id="XMLID_307_" d="M47.328,19.494c-2.707-2.727-2.413-5.565-2.865-8.134c-0.302-1.716,0.027-3.439,0.34-5.137
		c0.163-0.884,0.594-1.601,1.643-1.343c0.845,0.207,1.785,0.972,1.439,1.695C45.982,10.538,46.64,14.647,47.328,19.494z"/>
</g>
<g>
</g>
<g>
</g>
<g>
</g>
<g>
</g>
<g>
</g>
<g>
</g>
<g>
</g>
<g>
</g>
<g>
</g>
<g>
</g>
<g>
</g>
<g>
</g>
<g>
</g>
<g>
</g>
<g>
</g>
</svg>
