<?xml version="1.0" encoding="iso-8859-1"?>
<!-- Generator: Adobe Illustrator 19.1.0, SVG Export Plug-In . SVG Version: 6.00 Build 0)  -->
<svg version="1.1" id="Capa_1" xmlns="http://www.w3.org/2000/svg" xmlns:xlink="http://www.w3.org/1999/xlink" x="0px" y="0px"
	 viewBox="0 0 141.178 141.178" style="enable-background:new 0 0 141.178 141.178;" xml:space="preserve">
<g>
	<path d="M126.114,64.297c-0.69-0.371-0.417-0.664,0.079-0.965c0.593-0.36,1.164-0.755,1.787-1.161
		c-0.43-0.347-0.786-0.139-1.123-0.15c-0.35-0.012-0.711,0.09-1.079-0.143c-0.083-0.504,1.711-0.807,0.085-1.456
		c0.586-0.368,1.07-0.659,1.54-0.973c0.229-0.153,0.576-0.281,0.539-0.602c-0.044-0.384-0.437-0.267-0.695-0.329
		c-0.724-0.174-1.448-0.344-2.189-0.52c0.045-0.116,0.05-0.189,0.089-0.219c0.291-0.228,0.928-0.205,0.849-0.658
		c-0.082-0.464-0.664-0.231-1.022-0.311c-1.008-0.225-2.023-0.42-3.028-0.657c-0.344-0.081-0.801-0.198-0.245-0.656
		c0.051-0.042,0.116-0.151,0.099-0.176c-0.614-0.887-0.401-1.617,0.29-2.385c0.198-0.22-0.331-0.473-0.603-0.606
		c-0.785-0.384-0.635-0.696,0.02-1.066c0.911-0.515,1.798-1.072,2.871-1.718c-0.899-0.305-1.854-0.204-2.091-0.77
		c-0.28-0.668,0.778-0.914,1.052-1.499c0.119-0.255,0.336-0.462,0.472-0.711c0.25-0.459,0.841-0.964,0.564-1.412
		c-0.317-0.514-0.96-0.004-1.462,0.039c-0.208,0.018-0.455,0.156-0.595-0.053c-0.175-0.263,0.092-0.454,0.216-0.657
		c1.155-1.886,1.542-3.216,1.321-4.638c-0.517,0.031-0.638,0.513-0.883,0.808c-0.835,1.003-1.862,1.518-3.181,1.41
		c-1.058-0.087-1.259-0.371-0.91-1.357c0.225-0.635,0.482-1.259,0.786-2.048c-0.82,0.276-1.35-0.151-1.938-0.44
		c-0.719-0.353-0.787-1.028-0.982-1.673c-0.815-2.697-2.351-5.022-3.852-7.363c-0.365-0.57-0.736-1.139-1.141-1.681
		c-0.508-0.68-1.04-1.276,0.092-1.933c0.479-0.278,0.62-0.817-0.178-1.066c-3.09-0.961-5.081-3.217-6.692-5.846
		c-1.229-2.003-2.357-4.072-3.451-6.153c-1.223-2.326-3.09-3.871-5.488-4.842c-1.357-0.549-2.759-0.965-4.177-1.314
		c-2.183-0.536-4.321-1.199-6.436-1.964c-3.122-1.13-6.415-1.314-9.687-1.427c-3.273-0.113-6.553-0.043-9.83-0.031
		c-1.962,0.007-3.828,0.421-5.472,1.544c-1.503,1.027-3.165,1.205-4.909,1.032c-0.354-0.035-0.768-0.026-0.879-0.454
		c-0.107-0.412,0.239-0.638,0.511-0.864c1.027-0.849,2.234-1.391,3.405-1.996c0.206-0.106,0.547-0.15,0.491-0.467
		c-0.055-0.31-0.39-0.261-0.623-0.292c-2.87-0.387-5.362,0.358-7.391,2.485c-0.184,0.193-0.308,0.583-0.642,0.453
		c-0.361-0.14-0.269-0.549-0.275-0.854c-0.02-1.125,0.747-1.735,1.584-2.238c0.79-0.475,1.636-0.854,2.458-1.276
		c-0.998,0-1.996,0-2.995,0c-2.248,0.546-4.063,1.611-4.619,4.054c-0.226,0.996-0.01,2.23-0.533,2.98
		c-0.498,0.715-1.888,0.649-2.593,1.354c-2.703,2.704-6.257,4.444-8.689,7.392c-2.026,2.457-3.676,5.233-5.225,8.034
		c-2.008,3.63-3.707,7.391-4.382,11.534c-0.017,0.105-0.073,0.21-0.067,0.313c0.234,3.994-1.44,7.671-1.917,11.547
		c-0.135,1.095-0.343,2.182-0.451,3.279c-0.094,0.953-0.036,1.867,0.362,2.812c0.635,1.506,0.625,3.129,0.298,4.731
		c-0.169,0.828-0.691,1.233-1.536,1.401c-1.722,0.343-3.408-0.055-5.109-0.12c-0.241-0.009-0.483-0.157-0.775,0.064
		c0.353,0.687,1.235,0.602,1.804,1.279c-1.014,0-1.905,0-2.796,0c0.933,1.208,2.202,1.728,3.581,2.364
		c-1.818,0.645-3.593,0.438-5.327,0.564c0.007,0.555,0.405,0.56,0.666,0.67c1.444,0.61,2.899,1.194,4.346,1.797
		c0.216,0.09,0.543,0.12,0.534,0.437c-0.008,0.29-0.312,0.359-0.524,0.474c-0.498,0.269-1.069,0.305-1.769,0.442
		c1.175,0.902,2.416,0.899,3.907,0.93c-1.207,0.736-2.387,0.34-3.598,0.833c1.205,1.039,2.612,0.82,3.851,1.109
		c0.137,0.429-0.25,0.555-0.418,0.795c-0.194,0.276-0.667,0.469-0.472,0.866c0.182,0.371,0.64,0.195,0.978,0.215
		c0.457,0.026,0.917,0.006,1.356,0.006c0.04,0.151,0.094,0.239,0.07,0.277c-0.618,0.975-0.564,1.092,0.593,1.203
		c0.283,0.027,0.571,0.015,0.854,0.042c1.194,0.111,1.258,0.184,0.858,1.293c-0.23,0.637-0.023,0.911,0.6,0.821
		c1.208-0.175,1.65,0.413,1.978,1.514c1.016,3.411,0.929,6.902,0.89,10.384c-0.019,1.718-0.018,3.411,0.315,5.104
		c0.568,2.879,2.241,4.723,5.083,5.43c0.905,0.225,1.237,0.655,1.364,1.585c0.747,5.483,1.899,10.876,3.8,16.09
		c1.736,4.763,5.199,8.197,8.867,11.46c1.65,1.468,3.363,2.867,5.064,4.278c0.701,0.582,1.121,1.246,1.07,2.203
		c-0.048,0.9,0.386,1.491,1.326,1.63c0.035,0.005,0.07,0.012,0.105,0.016c0.889,0.116,0.627,1.243,1.122,1.44
		c0.648,0.258,1.324,0.321,1.444,1.143c0.043,0.298,0.167,0.573,0.407,0.505c1.192-0.336,1.697,0.678,2.459,1.182
		c0.609,0.403,1.218,0.974,1.316-0.409c0.037-0.523,0.395-0.506,0.728-0.134c0.213,0.239,0.434,0.477,0.682,0.677
		c0.605,0.49,1.196,1.023,1.683-0.174c0.231-0.567,0.74-0.615,1.243-0.243c0.287,0.212,0.58,0.416,0.852,0.646
		c0.401,0.34,0.727,0.446,0.967-0.17c0.374-0.958,0.92-0.854,1.497-0.192c0.397,0.456,0.755,0.946,1.13,1.421
		c0.143,0,0.285,0,0.428,0c0.302-0.303,0.608-0.6,0.903-0.909c0.276-0.289,0.65-0.446,0.964-0.242
		c1.018,0.662,1.574,0.015,2.132-0.672c0.805-0.991,1.06-1.037,1.877-0.094c0.422,0.487,0.822,0.478,1.317,0.243
		c0.495-0.235,0.838-0.656,1.235-1.011c0.264-0.237,0.516-0.49,0.938-0.357c1.307,0.41,2.036,0.035,2.461-1.305
		c0.156-0.492,0.367-0.925,0.755-1.262c0.285-0.247,0.642-0.448,0.956-0.143c0.591,0.575,1.086,0.228,1.302-0.248
		c1.495-3.29,4.699-4.884,7.123-7.241c2.35-2.285,4.786-4.48,7.073-6.834c1.949-2.007,3.055-4.458,3.884-7.051
		c1.611-5.039,2.602-10.21,3.104-15.476c0.027-0.283,0.112-0.564,0.112-0.847c0-0.909,0.425-1.254,1.334-1.196
		c1.037,0.066,2.066-0.115,3.058-0.417c2.093-0.636,3.472-2.004,4.166-4.092c0.74-2.224,1.029-4.52,1.041-6.84
		c0.017-3.441,0.71-6.796,1.14-10.185c0.098-0.772,0.412-0.763,0.988-0.502c1.315,0.595,2.691,0.928,4.149,0.843
		c0.425-0.025,0.852-0.03,1.422-0.476c-1.498-0.469-2.916-0.77-4.255-1.753c1.088-0.115,1.956-0.205,2.823-0.302
		c0.206-0.023,0.469-0.007,0.541-0.252c0.088-0.298-0.214-0.319-0.385-0.412c-0.522-0.283-1.507-0.446-1.434-0.908
		c0.099-0.635,1.07-0.411,1.648-0.609c0.728-0.248,1.525-0.323,2.233-0.885c-0.625-0.532-1.476-0.083-2.07-0.692
		c0.548-0.499,1.427-0.372,1.946-0.934c-1.739-0.887-1.738-0.885-0.037-2.003c0.297-0.196,0.581-0.413,0.867-0.625
		C126.721,65.072,126.824,64.679,126.114,64.297z M34.228,70.753c0.223-5.629,0.645-11.237,1.617-16.791
		c0.19-1.083,0.539-2.138,0.826-3.203c0.063-0.233,0.105-0.557,0.385-0.586c0.348-0.036,0.447,0.32,0.547,0.567
		c0.794,1.962,0.615,3.833-0.594,5.581c-0.298,0.431-0.66,0.818-1.026,1.267c1.882-0.076,3.491-1.463,4.138-3.515
		c0.664-2.103,0.498-4.227,0.092-6.343c-0.232-1.21-0.532-2.408-0.866-3.896c1.974,1.268,1.628,3.061,1.708,4.944
		c1-1.119,1.381-2.189,1.239-3.446c-0.09-0.791-0.412-1.513-0.757-2.216c-1.425-2.902-1.298-5.853-0.316-8.837
		c0.328-0.998,1.012-1.494,2.069-1.539c1.444-0.062,2.638,0.462,3.609,1.491c0.475-0.266,0.12-0.697,0.348-1.055
		c0.669,0.487,0.91,1.093,0.706,1.894c-0.058,0.23-0.24,0.518-0.013,0.7c0.264,0.212,0.532-0.036,0.779-0.152
		c0.913-0.429,1.442-1.222,1.905-2.241c0.498,0.942-0.247,1.459-0.406,2.194c1.138-0.104,1.569-1.083,2.302-1.637
		c0.453,0.451,0.125,0.888,0.056,1.316c-0.037,0.228-0.344,0.466-0.08,0.677c0.258,0.207,0.557,0.037,0.784-0.129
		c0.371-0.271,0.712-0.582,1.211-0.996c-0.176,0.588-0.314,1.05-0.518,1.73c1.45-0.549,2.24-1.601,3.185-2.579
		c0.26,0.513,0.024,0.926-0.076,1.349c-0.054,0.227-0.328,0.481-0.081,0.685c0.266,0.22,0.534-0.028,0.771-0.164
		c0.654-0.375,1.152-0.937,1.726-1.501c0.2,0.53-0.407,0.74-0.362,1.17c0.377,0.21,0.555-0.165,0.824-0.277
		c0.23-0.096,0.507-0.929,0.75,0.042c0.052,0.208,0.518-0.049,0.757-0.175c0.877-0.466,1.741-0.957,2.746-1.514
		c-0.188,0.87-0.899,1.349-1.151,2.231c1.292-0.655,2.135-1.639,3.374-2.488c-0.584,1.554-1.667,2.554-2.242,3.872
		c2.034-1.097,3.939-2.317,5.007-4.587c0.461,0.609,0.319,1.312,0.686,1.969c0.663-0.879,0.484-1.995,0.984-2.854
		c0.488,0.315,0.182,1.263,0.818,1.219c0.487-0.034,0.342-0.852,0.712-1.335c0.443,0.779,0.362,1.706,0.951,2.44
		c0.628-0.885,0.638-1.93,1.119-2.888c0.478,0.6,0.38,1.416,0.984,1.995c0.323-0.624,0.088-1.241,0.224-1.83
		c0.393,0.223,0.292,0.751,0.62,0.953c0.503,0.31,0.57-0.428,1.034-0.446c0.074,1.297,0.637,0.738,1.176,0.282
		c0.218-0.184,0.449-0.355,0.647-0.559c0.62-0.635,1.12-0.882,1.391,0.287c0.055,0.238,0.331,0.462,0.556,0.618
		c3.631,2.519,7.245,5.062,10.758,7.746c0.137,0.104,0.279,0.224,0.709,0.07c-2.557-3.264-5.918-5.527-8.967-8.188
		c0.446-0.211,0.757,0.037,1.057,0.158c3.963,1.586,7.429,3.901,10.326,7.057c1.42,1.548,2.355,3.389,3.266,5.243
		c1.108,2.256,2.167,4.536,3.061,6.942c-1.262-0.74-2.525-1.48-3.787-2.22c0.314,1.154,1.068,1.91,1.688,2.753
		c0.845,1.148,1.714,2.281,2.633,3.37c0.607,0.719,0.462,1.104-0.39,1.345c-0.068,0.019-0.128,0.065-0.196,0.084
		c-0.88,0.246-1.059,0.653-0.646,1.556c1.364,2.98,2.605,6.016,3.931,9.014c0.329,0.744,0.186,1.111-0.467,1.661
		c-2.376,2.003-4.835,2.458-7.961,1.788c-5.732-1.228-11.596-1.366-17.435-0.525c-2.523,0.363-4.935,1.111-7.146,2.413
		c-0.79,0.465-1.643,0.734-2.535,0.753c-2.992,0.064-5.986,0.08-8.98,0.091c-0.363,0.001-0.77,0.064-1.166-0.256
		c0.177,0,0.275-0.011,0.37,0.002c0.339,0.046,0.77,0.297,0.978-0.088c0.226-0.421-0.168-0.748-0.468-0.973
		c-0.564-0.421-0.716-1.114-1.099-1.593c-1.348-1.688-3.029-3.011-5.201-3.547c-0.088-0.022-0.195,0.032-0.303,0.052
		c0.011,0.465,0.54,0.466,0.679,0.888c-0.424,0.17-0.813-0.068-1.187-0.144c-0.976-0.199-1.931-0.52-2.913-0.671
		c-0.695-0.107-1.493-0.652-2.113,0.251c-0.073,0.106-0.413,0.069-0.62,0.037c-1.902-0.295-3.648,0.605-5.489,0.818
		c-1.296,0.15-3.244,0.362-3.474,2.609c1.665-0.15,3.42-0.241,5.15-0.501c0.552-0.083,1.09-0.242,1.664-0.224
		c1.364,0.041,2.697,0.106,4.095-0.084c2.024-0.274,3.906,0.836,5.794,1.56c-6.513-1.415-13.027-0.828-19.534-0.038
		C34.322,71.761,34.195,71.591,34.228,70.753z M80.755,89.778c0.049,0.722-0.045,0.865-0.772,0.675
		c-4.228-1.102-6.771-3.879-7.961-7.977c-0.316-1.087-0.528-2.227-0.605-3.355c-0.105-1.519,0.806-2.611,1.897-3.524
		c0.474-0.397,1.059-0.662,1.665-0.9c-0.64,0.651-0.987,1.492-1.599,2.13c-0.446,0.465-0.288,0.772,0.263,0.905
		c2.253,0.543,4.344,1.598,6.592,2.125c1.335,0.313,0.577,1.15,0.562,1.737c-0.022,0.882-0.667,0.348-1.025,0.282
		c-1.02-0.186-1.985-0.547-2.904-1.039c-0.722-0.386-1.454-0.76-2.209-1.073c-0.478-0.198-1.162-0.808-1.472-0.17
		c-0.253,0.523,0.661,0.534,1.042,0.791c0.353,0.238,0.729,0.443,1.095,0.664c1.838,1.109,3.733,2.072,6.012,2.257
		c-0.626,0.694-0.653,1.441-0.645,2.199C80.707,86.932,80.659,88.36,80.755,89.778z M78.151,75.394
		c0.564-0.404,0.944-0.454,1.094,0.363c0.063,0.343,0.164,0.689,0.315,1.001c0.147,0.305,0.38,0.569,0.732,1.078
		c-0.943-0.219-1.545-0.494-2.11-0.843C77.222,76.402,77.233,76.052,78.151,75.394z M40.325,77.077
		c0.602,0.984,1.528,1.569,2.507,2.093c0.282,0.151,0.578,0.274,0.867,0.412c2.219,1.059,2.287,1.217,1.523,3.683
		c-0.046,0.149-0.093,0.323,0.034,0.381c0.976,0.45,0.508,1.275,0.52,1.965c0.031,1.67,0.177,3.344-0.091,5.007
		c-0.057,0.353,0.199,0.584,0.34,0.988c-5.265-0.878-8.938-4.924-9.339-10.085c-0.083-1.06-0.227-2.094-0.103-3.177
		c0.283-2.473,1.719-3.895,3.944-4.677c1.628-0.572,3.333-0.687,5.039-0.775c0.349-0.018,0.699-0.003,1.064-0.003
		c0.087,0.118-0.02,0.168-0.118,0.177c-1.664,0.16-3.002,1.028-4.3,1.98c-0.435,0.319-0.896,0.594-1.424,0.71
		C39.898,75.953,39.929,76.429,40.325,77.077z M29.214,76.105c0.464-0.109,0.414,0.466,0.594,0.738
		c0.117,0.177,0.211,0.452,0.373,0.503c1.197,0.376,0.917,1.178,0.662,2.027c-0.265,0.882,0.201,1.736,0.123,2.649
		c-0.598-0.4-0.506-1.021-0.509-1.594c-0.003-0.46,0.057-0.923,0.12-1.381c0.073-0.528-0.141-1.076-0.576-1.121
		c-0.553-0.057-0.48,0.574-0.495,0.973c-0.088,2.381,0.221,4.683,1.334,6.836c0.817,1.58,1.636,3.162,2.362,4.785
		c0.203,0.455,0.665,1.225,0.098,1.532c-0.599,0.323-1.167-0.301-1.587-0.801c-0.442-0.526-0.662-1.173-0.945-1.787
		c-1.324-2.876-2.161-5.83-1.825-9.058c0.113-1.083-0.123-2.199-0.167-3.301C28.759,76.716,28.801,76.202,29.214,76.105z
		 M33.324,96.88c-1.276-0.01-2.235-0.636-3.002-1.596c-0.801-1.001-1.17-2.19-1.394-3.426c-0.305-1.677-0.181-3.349-0.036-5.303
		c0.676,0.934,0.843,1.738,1.021,2.517c0.398,1.746,1.163,3.204,2.84,4.044c1.32,0.661,1.264,1.959,1.384,3.145
		C34.188,96.775,33.747,96.883,33.324,96.88z M105.955,95.094c-0.528,4.567-0.975,9.133-2.024,13.617
		c-0.284,1.213-0.649,2.408-0.945,3.619c-1.038,4.253-3.524,7.559-6.691,10.462c-2.548,2.336-5.074,4.695-7.712,6.932
		c-0.183,0.155-0.325,0.387-0.672,0.385c-0.314-0.717-0.226-1.669-0.817-2.093c-1.412,1.475-2.223,3.254-3.394,5.01
		c0.318-2.014,2.236-3.587,0.925-5.859c-0.668,1.941-1.963,3.402-2.717,5.176c0.278-0.867,0.547-1.737,0.837-2.6
		c0.133-0.396,0.243-0.861-0.185-1.04c-0.508-0.213-0.45,0.404-0.636,0.65c-0.453,0.597-0.837,1.239-1.051,1.968
		c-0.029,0.1-0.072,0.252-0.144,0.277c-1.483,0.514-1.549,2.096-2.525,3.343c0.191-0.588,0.224-0.983,0.424-1.255
		c0.811-1.105,0.038-2.103-0.183-3.123c-0.084-0.387-0.411-0.142-0.569,0.033c-0.353,0.39-0.508,0.862-0.385,1.385
		c0.086,0.365,0.173,0.849-0.181,0.967c-1.137,0.378-1.34,1.475-2.096,2.23c0.196-0.568,0.389-1.138,0.589-1.704
		c0.164-0.464,0.263-1.025-0.232-1.229c-0.483-0.2-0.542,0.429-0.731,0.73c-0.263,0.42-0.474,0.873-0.862,1.26
		c0.282-0.798,0.569-1.594,0.842-2.396c0.102-0.301,0.22-0.612,0.236-0.923c0.016-0.314-0.053-0.689-0.429-0.776
		c-0.331-0.076-0.51,0.213-0.635,0.468c-0.313,0.639-0.603,1.29-0.901,1.937c-0.206,0.446-0.532,0.66-0.883,0.213
		c-0.504-0.642-0.666-0.172-0.886,0.203c-0.41,0.698-0.817,1.398-1.425,2.008c0.366-1.013,0.678-2.051,1.113-3.033
		c0.408-0.921,0.17-1.736-0.189-2.564c-0.11-0.255-0.24-0.566-0.584-0.542c-0.354,0.024-0.371,0.378-0.489,0.627
		c-0.598,1.265-0.813,2.604-0.884,4.012c-0.096-0.643-0.195-1.287-0.288-1.931c-0.063-0.439-0.24-0.739-0.752-0.707
		c-0.359,0.023-0.748,0.002-0.946,0.367c-0.251,0.461,0.117,0.707,0.402,0.978c0.892,0.849,0.956,1.471,0.198,2.39
		c-0.25,0.303-0.52,0.562-0.221,1.123c-2.205-1.361-2.858-3.63-4.092-5.49c-0.397,0.402-0.206,0.671-0.159,0.938
		c0.057,0.321,0.121,0.661-0.225,0.86c-0.33,0.19-0.611-0.027-0.895-0.172c-0.401-0.205-0.614-0.712-1.295-0.728
		c0.277,1.097,1.125,1.796,1.47,2.801c-0.532-0.594-1.06-1.192-1.599-1.779c-0.161-0.175-0.32-0.452-0.61-0.307
		c-0.266,0.133-0.173,0.434-0.193,0.674c-0.06,0.736,0.534,1.223,0.588,1.982c-1.043-1.231-2.086-2.462-3.318-3.916
		c-0.042,1.302-0.228,2.279,0.397,3.187c-0.742-0.693-1.162-1.665-2.035-2.212c-0.299-0.187-0.612-0.528-0.907-0.516
		c-1.297,0.054-2.087-0.792-2.95-1.518c-1.718-1.445-3.431-2.896-5.136-4.356c-4.631-3.966-7.103-9.128-8.562-14.951
		c-1.355-5.406-1.873-10.95-3.018-16.379c-0.932-4.423-1.2-8.882-1.427-13.362c-0.017-0.342-0.106-0.702,0.116-1.114
		c0.425,0.423,0.512,0.933,0.615,1.444c0.594,2.945,1.338,5.832,3.015,8.393c2.113,3.227,5.106,4.839,8.932,5.044
		c2.365,0.127,4.705,0.103,6.97-0.688c3.767-1.316,6.147-4.016,7.517-7.672c0.703-1.875,1.126-3.821,1.275-5.827
		c0.118-1.586,0.607-2.115,2.184-2.428c0.951-0.188,1.921-0.16,2.875-0.043c1.126,0.139,1.618,0.921,1.804,1.961
		c0.327,1.824,0.675,3.64,1.316,5.391c2.055,5.615,5.946,8.377,11.902,8.454c2.77,0.036,5.468-0.303,8.066-1.313
		c3.967-1.542,5.984-4.535,6.484-8.662c0.129-1.06,0.219-2.121,0.246-3.193c0.052-2.072,1.007-3.25,2.998-3.744
		c0.75-0.186,1.385-0.513,1.975-0.999c1.292-1.065,2.623-2.085,3.914-3.152c0.563-0.466,0.858-0.363,1.026,0.325
		c0.271,1.115,0.368,2.255,0.398,3.39C107.094,82.396,106.69,88.743,105.955,95.094z M113.665,92.961
		c-0.355,0.56-0.979,0.838-1.601,1.008c-1.361,0.373-2.752,0.328-4.141,0.182c-0.317-0.033-0.672-0.08-0.687-0.518
		c-0.012-0.362,0.01-0.747,0.395-0.923c1.092-0.497,1.994-1.364,3.252-1.557c0.959-0.147,1.647-0.738,2.151-1.601
		c0.625-1.069,1.299-2.118,2.319-2.962C115.284,88.852,114.892,91.025,113.665,92.961z M115.807,80.334
		c-0.07,1.015-0.639,1.804-1.005,2.681c-0.779,1.867-1.363,3.833-2.642,5.463c-0.441,0.562-0.887,1.114-1.444,1.567
		c-0.575,0.469-1.211,0.856-1.948,0.47c-0.72-0.377-1.075-1.09-1.024-1.872c0.083-1.259,0.293-2.509,0.482-4.014
		c0.557,0.846,0.634,1.513,0.505,2.217c-0.096,0.524-0.236,1.042-0.314,1.569c-0.086,0.582,0.204,0.869,0.742,0.6
		c1.493-0.746,2.418-2.055,3.232-3.451c0.054-0.093,0.024-0.304-0.05-0.387c-0.173-0.195-0.381-0.044-0.587-0.002
		c-0.549,0.114-0.96,1.084-1.53,0.496c-0.354-0.365-0.292-1.137-0.41-1.727c-0.195-0.977-0.339-1.968-0.593-2.929
		c-0.169-0.64-0.064-1.102,0.547-1.506c0.62,0.92,0.826,1.971,1.598,2.89c0.235-1.06-0.28-1.953-0.158-2.943
		c0.722,0.332,0.925,1.171,1.686,1.409c0.185-0.529-0.108-0.931-0.224-1.351c-0.448-1.619-0.853-3.233-0.523-4.942
		c0.182-0.94,0.742-1.596,1.423-2.191c0.391-0.342,0.713-0.236,0.714,0.257c0.002,1.497,0.579,2.883,1.082,4.202
		C115.822,78.04,115.891,79.126,115.807,80.334z"/>
	<path d="M83.155,110.782c0.519-1.088-0.731-0.697-0.969-1.157c-0.232-0.447-1.511-0.134-0.893-1.222
		c0.012-0.021-0.18-0.204-0.301-0.249c-1.187-0.445-2.324-0.983-3.261-1.857c-0.734-0.684-1.241-1.561-2.015-2.248
		c-0.424-0.376-0.697-1.18-1.153-1.72c-1.121-1.331-1.12-1.359,0.244-2.504c1.987-1.668,2.317-3.249,1.114-5.567
		c-0.409-0.789-0.889-1.543-1.358-2.3c-0.2-0.324-0.467-0.816-0.883-0.532c-0.388,0.264,0.045,0.636,0.226,0.906
		c0.537,0.8,1.077,1.598,1.47,2.481c0.818,1.84,0.386,3.24-1.312,4.309c-0.271,0.171-0.544,0.34-0.823,0.498
		c-0.882,0.501-1.088,1.171-0.524,2.04c0.264,0.406,0.534,0.809,0.918,1.391c-1.119-0.811-2.257-1.243-2.755-2.608
		c-0.316,0.872,0.291,1.463,0.016,2.078c-0.415-0.052-0.512-0.51-0.969-0.451c0.141,1.153,0.881,2.107,1.128,3.301
		c-0.915-0.642-1.262-1.699-2.19-2.244c-0.101,0.402,0.11,0.632,0.179,0.899c0.065,0.251,0.363,0.469,0.145,0.775
		c-1.233-0.383-1.349-0.269-1.323,1.057c0.013,0.638,0.255,1.068,0.794,1.4c0.579,0.356,1.127,0.78,1.382,1.443
		c0.151,0.394,0.301,0.814-0.302,1.051c-1.342,0.528-2.665,1.041-4.121,0.373c-0.559-0.257-1.169-0.305-1.782-0.182
		c-0.703,0.141-0.877-0.267-0.889-0.852c-0.013-0.673,0.346-1.156,0.838-1.537c0.873-0.675,1.784-1.302,2.651-1.985
		c0.24-0.189,0.722-0.702,0.249-0.796c-1.203-0.237-0.567-0.824-0.419-1.354c0.047-0.167,0.153-0.356,0.002-0.5
		c-0.194-0.185-0.394-0.018-0.588,0.049c-0.394,0.137-0.714,0.469-1.167,0.464c-0.192-0.341,0.191-0.705-0.101-1.074
		c-0.724,0.165-1.141,0.888-1.892,1.162c0.048-0.727,0.741-1.164,0.685-2.061c-0.636,0.765-1.075,0.384-1.439-0.034
		c-0.565-0.648-1.28-0.982-2.077-1.238c-1.99-0.641-2.827-2.208-2.317-4.26c0.255-1.025,0.846-1.877,1.413-2.741
		c0.333-0.508,0.664-1.02,0.699-1.653c0.01-0.181-0.021-0.369-0.206-0.455c-0.217-0.101-0.37,0.065-0.411,0.221
		c-0.38,1.451-1.492,2.504-2.066,3.847c-1.101,2.573-0.247,4.653,2.35,5.701c0.198,0.08,0.403,0.146,0.596,0.237
		c0.624,0.296,0.947,0.89,0.863,1.481c-0.184,1.296-0.165,2.625-0.565,3.887c-0.091,0.286-0.057,0.783-0.435,0.767
		c-0.432-0.018-0.993,0.083-1.294-0.313c-0.239-0.314,0.089-0.666,0.214-0.991c0.121-0.316,0.44-0.574,0.282-1.038
		c-0.85,0.157-1.117,0.906-1.552,1.467c-0.193,0.249-0.439,0.74-0.57,0.711c-1.261-0.283-0.925,0.768-1.047,1.294
		c-0.153,0.66-0.202,1.325-0.813,1.861c-0.104-0.602,0.232-1.216-0.181-1.821c-0.744,0.743-0.528,1.908-1.385,2.546
		c-0.179-0.455-0.004-0.783,0.063-1.123c0.045-0.228,0.169-0.537-0.159-0.642c-0.279-0.089-0.482,0.144-0.586,0.365
		c-0.266,0.565-0.493,1.149-0.74,1.737c-0.253-0.155-0.191-0.562-0.529-0.523c-0.314,0.036-0.346,0.33-0.392,0.565
		c-0.097,0.488-0.165,0.981-0.262,1.579c-0.235-0.281-0.104-0.721-0.487-0.79c-1.454,2.127-0.196,6.732,2.033,7.425
		c0.135-0.348-0.073-0.638-0.216-0.897c-0.529-0.96-0.253-1.578,0.684-2.076c1.42-0.753,2.834-1.529,4.406-1.896
		c5.167-1.208,10.419-1.548,15.707-1.425c1.031,0.024,2.058,0.226,3.294,0.369c-1.163,1.121-2.532,1.063-3.729,1.577
		c0.434,0.417,0.805,0.291,1.146,0.299c1.176,0.029,2.252-0.365,3.265-0.895c1.281-0.671,2.547-0.467,3.831-0.083
		c0.232,0.069,0.557,0.32,0.663,0.244c0.931-0.674,1.353,0.177,1.866,0.614c0.841,0.717,1.625,1.501,2.458,2.28
		c0.19-0.352,0.088-0.551,0.016-0.747c-0.276-0.748-0.806-1.487,0.159-2.175c0.308-0.219,0.032-0.517-0.162-0.726
		c-0.242-0.261-0.511-0.497-0.75-0.762c-0.378-0.42-0.237-0.625,0.293-0.631c0.484-0.005,0.968-0.001,1.66-0.001
		c-0.891-0.941-1.922-1.122-2.85-1.496C83.681,110.994,83.418,110.888,83.155,110.782z M61.394,110.828
		c-1.667,0.719-3.263,1.588-4.859,2.49c0.534-0.61,0.629-1.505,1.712-1.755c0.78-0.18,1.277-1.077,1.926-1.959
		c0.107,1.116,0.425,1.097,0.887,0.436c0.138-0.198,0.266-0.403,0.44-0.669C62.042,109.973,62.382,110.402,61.394,110.828z
		 M74.671,110.892c-0.271-0.124-0.323-0.316-0.177-0.604c0.189-0.374,0.322-0.776,0.505-1.231c0.399,0.181,0.605,0.56,0.646,0.884
		c0.112,0.887,1.096,1.019,1.383,1.732c0.061,0.151,0.219,0.075,0.363,0.039c0.834-0.208,1.736,0.477,2.03,1.573
		C77.66,112.782,76.27,111.624,74.671,110.892z"/>
	<path d="M71.906,119.902c-0.008,0.02-0.216,0.007-0.285-0.048c-0.733-0.59-0.567,0.195-0.637,0.49
		c-0.526-0.15-0.695-0.76-1.225-0.657c-0.064,0.013-0.049,0.431-0.07,0.66c-0.576-0.1-0.81-1.969-1.648-0.215
		c-0.191-0.372-0.277-0.778-0.527-0.964c-0.34-0.254-0.429,0.46-0.86,0.417c0.115-0.51,0.356-0.965,0.026-1.767
		c-0.452,0.644-0.791,1.126-1.153,1.64c-0.231-0.342,0.049-0.769-0.245-0.681c-0.494,0.147-1.135,0.057-1.458,0.31
		c-1.236,0.964-2.565,1.725-4.039,2.299c1.02,0.422,1.937-0.029,3.127-0.336c-0.422,0.574-0.699,0.93-0.953,1.301
		c-0.125,0.183-0.396,0.519,0.079,0.509c0.937-0.018,0.278,0.417,0.175,0.593c-0.292,0.499-0.643,0.963-1.11,1.645
		c1.086-0.335,1.53-1.078,2.179-1.543c0.217,0.269-0.406,0.554,0.056,0.836c0.138-0.095,0.278-0.2,0.427-0.289
		c0.227-0.135,0.421-0.51,0.716-0.275c0.242,0.193,0.071,0.532,0.04,0.81c-0.047,0.422-0.432,0.802-0.204,1.342
		c0.839-0.454,1.159-1.226,1.527-1.935c0.299-0.577,0.529-0.566,0.893-0.075c0.172,0.233,0.281,0.597,0.741,0.557
		c0.063-0.251,0.126-0.505,0.206-0.823c0.821,0.849,1.413,1.842,2.763,2.369c-0.524-0.975-0.918-1.708-1.341-2.495
		c0.463,0.079,0.578,0.659,1.095,0.487c0.095-0.463-0.402-0.868-0.219-1.382c0.642,0.423,0.88,1.245,1.76,1.414
		c-0.154-0.784-0.714-1.328-0.684-2.156c1.018,0.572,1.707,1.55,2.913,1.594c0.06-0.651-0.783-0.783-0.676-1.387
		c0.472-0.139,0.875,0.387,1.355,0.089c-0.048-0.601-0.807-0.752-0.888-1.345c0.734-0.032,1.371,0.5,2.2,0.168
		c-0.777-0.62-1.637-0.879-2.436-1.182C73.069,119.707,72.407,118.627,71.906,119.902z"/>
	<path d="M58.891,98.849c0.024,0.24,0.245,0.263,0.406,0.243c1.332-0.166,2.283,0.657,3.328,1.248
		c1.214,0.686,2.446,1.333,4.097,1.323c0.942,0.059,1.894-0.327,2.658-1.184c1.021-1.145,2.258-1.83,3.839-1.791
		c0.301,0.007,0.763,0.072,0.777-0.349c0.014-0.418-0.441-0.373-0.746-0.395c-1.676-0.122-3.179,0.345-4.48,1.4
		c-0.986,0.8-2.079,0.974-3.311,0.82c-1.536-0.192-2.825-0.946-4.146-1.642c-0.705-0.372-1.406-0.505-2.132-0.08
		C59.028,98.53,58.87,98.645,58.891,98.849z"/>
	<path d="M78.293,69.941c2.372-0.186,4.737-0.339,7.02-1.076c0.252-0.081,0.53-0.129,0.687,0.108
		c0.349,0.524,0.859,0.405,1.347,0.407c1.67,0.006,3.371-0.263,4.99,0.284c1.704,0.576,3.543,0.031,5.451,1.015
		c-0.376-0.917-0.682-1.443-1.24-1.802c-0.24-0.154-0.445-0.322-0.605-0.58c-0.825-1.33-1.646-2.695-3.603-2.084
		c-0.096,0.03-0.24,0.041-0.312-0.01c-1.008-0.713-2.055-0.307-3.094-0.124c-0.204,0.036-0.513,0.214-0.596,0.027
		c-0.459-1.027-1.177-0.506-1.663-0.195c-1.738,1.11-3.896,1.099-5.628,2.193c-0.037,0.024-0.125-0.031-0.268-0.073
		c0.324-0.439,0.813-0.593,1.191-0.886c0.244-0.189,0.706-0.307,0.618-0.649c-0.114-0.446-0.606-0.277-0.925-0.253
		c-3.685,0.275-6.901,1.884-10.08,3.588c-0.186,0.1-0.442,0.317-0.234,0.483c0.604,0.482,0.008,0.722-0.159,1.037
		c-0.203,0.385-0.631,0.671-0.55,1.242c0.463,0.007,0.774-0.255,1.119-0.409C73.87,71.239,75.943,70.125,78.293,69.941z"/>
</g>
<g>
</g>
<g>
</g>
<g>
</g>
<g>
</g>
<g>
</g>
<g>
</g>
<g>
</g>
<g>
</g>
<g>
</g>
<g>
</g>
<g>
</g>
<g>
</g>
<g>
</g>
<g>
</g>
<g>
</g>
</svg>
