<?xml version="1.0" encoding="iso-8859-1"?>
<!-- Generator: Adobe Illustrator 19.1.0, SVG Export Plug-In . SVG Version: 6.00 Build 0)  -->
<svg version="1.1" id="Capa_1" xmlns="http://www.w3.org/2000/svg" xmlns:xlink="http://www.w3.org/1999/xlink" x="0px" y="0px"
	 viewBox="0 0 184.987 184.987" style="enable-background:new 0 0 184.987 184.987;" xml:space="preserve">
<g id="john_kennedy">
	<path id="XMLID_254_" d="M33.092,120.447c3.861-1.139,7.74-2.224,11.58-3.43c5.497-1.726,10.836-3.797,15.631-7.112
		c1.544-1.067,1.898-1.997,0.842-3.641c-0.754-1.174-1.704-2.133-2.589-3.168c-2.99-3.498-4.698-7.569-4.935-12.131
		c-0.149-2.878-1.454-4.995-3.589-6.594c-2.628-1.969-3.707-4.628-4.152-7.707c-0.555-3.844-1.273-7.679-0.393-11.581
		c0.858,0.936,0.87,0.936,0.893,2.372c0.052,3.215,0.266,6.42,0.77,9.595c0.369,2.322,1.505,4.15,3.485,5.57
		c3.206,2.299,4.748,5.444,4.857,9.503c0.074,2.778,0.997,5.5,2.523,7.935c-1.811-9.009-3.694-17.992-3.874-27.341
		c0.786,2.76,3.313,3.802,5.105,5.548c2.101,2.047,2.396,4.736,1.848,7.27c-1.193,5.513,1.059,9.749,4.356,13.722
		c2.713,3.269,5.353,6.569,7.458,10.294c0.992,1.756,2.712,2.904,4.749,3.339c5.312,1.135,10.619,1.79,16.043,0.504
		c3.378-0.801,6.09-2.33,7.081-5.769c1.325-4.596,4.297-7.994,7.435-11.375c3.309-3.564,4.777-7.92,4.879-12.75
		c0.035-1.644,0.027-3.289,0.003-4.933c-0.05-3.399,0.843-6.456,2.967-9.178c2.602-3.334,4.307-7.101,5.059-11.288
		c0.127-0.707,0.114-1.347-0.18-1.996c-2.293-5.069-3.145-10.411-3.01-15.949c1.1-0.116,0.561,1.062,1.274,1.518
		c0.02-2.22-0.177-4.304-1.23-6.121c-2.067-3.567-1.762-7.046,0.005-10.564c0.89-1.773,1.779-3.547,2.687-5.312
		c0.735-1.429,1.88-1.87,3.423-1.419c0.878,0.257,1.669,0.679,2.319,1.279c4.388,4.052,6.869,8.868,6.451,15.058
		c-0.299,4.435-0.466,8.87-1.383,13.235c-0.028,0.134-0.027,0.274-0.056,0.407c-0.458,2.084-0.2,5.896,0.51,7.702
		c0.192,0.488,0.582,0.959,0.211,1.57c-0.914,0.055-0.875-0.889-1.337-1.297c-0.441-0.389-0.894-1.234-1.467-0.726
		c-0.598,0.53-1.175,1.402-0.558,2.357c0.331,0.512,0.782,0.952,1.077,1.481c0.718,1.288,0.362,2.332-1.024,2.757
		c-2.048,0.628-1.996,1.762-1.285,3.457c1.074,2.561,1.001,5.13-0.895,7.516c0-1.11,0.035-2.221-0.016-3.328
		c-0.022-0.49-0.292-0.984-0.845-1.011c-0.493-0.024-0.609,0.504-0.755,0.865c-0.783,1.933-1.262,3.966-0.904,6.022
		c0.487,2.799,0.401,5.567-0.11,8.955c1.621-2.399,3.452-3.767,5.2-5.242c2.508-2.117,2.287-5.267,2.779-8.125
		c0.104-0.603-0.06-1.28,0.143-1.834c1.1-3.001,1.037-6.012,0.293-9.066c-0.078-0.321-0.403-0.781,0.293-1.178
		c1.321,2.895,1.468,5.92,1.102,8.942c-0.37,3.047-1.005,6.064-1.574,9.084c-0.429,2.279-1.41,4.238-3.269,5.759
		c-3.503,2.865-6.343,6.118-6.572,11.016c-0.117,2.505-1.273,4.7-2.735,6.758c-3.922,5.519-7.106,11.533-11.313,16.867
		c-3.719,4.715-7.331,9.524-12.545,12.741c10.158-6.511,18.362-14.688,22.288-26.919c1.063,2.024,0.507,3.549-0.012,5.042
		c-2.899,8.33-7.842,15.064-15.119,20.195c-3.843,2.709-7.976,4.78-12.145,6.834c-1.273,0.627-1.436,1.202-0.855,2.501
		c1.604,3.584,3.574,6.921,5.932,10.055c0.891,1.183,1.572,2.525,2.439,3.942c4.014-7.958,8.133-15.757,12.874-23.205
		c3.243-5.096,6.143-10.356,8.1-16.105c0.616-1.809,1.492-3.527,2.222-5.298c0.528-1.283,1.183-1.783,2.796-1.524
		c6.099,0.979,11.961,2.834,17.89,4.454c3.156,0.863,6.326,1.725,9.66,1.151c0,0.274,0,0.548,0,0.822
		c-3.063,8.549-8.232,15.66-14.589,22.075c-7.332,7.398-15.101,14.328-22.578,21.568c-7.044,6.82-13.404,14.27-20.147,21.366
		c-2.645,2.783-5.487,5.334-8.458,7.752c-0.274,0-0.548,0-0.822,0c3.42-9.444,6.614-18.978,10.676-28.173
		c0.898-2.032,1.658-3.581-0.787-5.003c-0.768-0.447-1.227-1.446-1.792-2.218c-1.13-1.544-2.215-3.121-3.36-4.654
		c-0.653-0.875-1.235-0.913-1.798,0.183c-0.529,1.029-1.151,2.032-2.162,2.695c-1.732,1.135-2.238,2.855-2.269,4.788
		c-0.016,1.024,0.112,2.057,0.019,3.071c-0.797,8.702-1.612,17.403-2.462,26.1c-0.264,2.699-0.406,2.798-2.548,1.093
		c-4.247-3.379-7.579-7.676-11.297-11.586c-0.608-0.64-0.287-1.285-0.011-1.902c1.175-2.62,2.468-5.19,3.547-7.848
		c2.613-6.441,6.503-12.507,5.91-19.981c-1.141,1.182-1.82,2.668-2.608,4.077c-1.801,3.222-3.419,6.55-5.54,9.589
		c-0.925,1.325-2.086,2.373-3.553,3.019c-0.654,0.288-1.759,0.597-1.676-0.604c0.162-2.362,0.352-4.763,1.416-7.577
		c0.535,2.091-0.076,3.755,0.986,5.371c2.647-2.998,4.64-6.24,6.119-9.757c1.52-3.614,2.6-7.447,6.296-9.753
		c-5.682-2.707-8.535-7.829-12.312-12.398c0.149,6.527-0.17,12.739-0.996,18.914c-0.824,6.162-2.026,12.257-3.429,18.313
		c-0.153,0.658-0.045,1.612-0.743,1.792c-0.827,0.213-1.194-0.735-1.651-1.301c-6.724-8.337-12.549-17.244-17.333-26.845
		c-2.412-4.841-5.255-9.445-8.852-13.534C33.092,120.721,33.092,120.584,33.092,120.447z M118.174,27.86
		c1.199,2.596,1.646,5.169,2.409,7.999c0.687-1.36-0.294-3.065,0.955-3.297c1.228-0.228,1.52,1.5,2.161,2.425
		c0.054,0.077,0.229,0.071,0.354,0.105c0.429-0.701-0.18-1.642,0.65-2.424c1.296,1.224,1.268,2.955,1.643,4.62
		c1.089-1.598,0.485-3.299,0.924-5.161c0.371,0.603,0.51,0.914,0.725,1.157c0.239,0.27,0.041,0.874,0.648,0.869
		c0.25-2.042,0.25-2.042,2.207-0.936c-0.625-2.967-1.116-5.738-3.646-7.704c-0.408,0.636,0.638,1.245-0.571,1.962
		c-0.599-0.653-1.286-1.402-1.916-2.089c-0.003,0.767,0.909,1.336,0.539,2.414c-1.132-0.526-1.658-1.844-2.965-2.164
		c0.337,1.249,1.379,2.228,1.046,3.64c-1.201-0.281-1.247-1.743-2.394-1.933c-0.08,1.002,0.753,1.895,0.302,3.006
		C120.026,29.831,120.027,28.074,118.174,27.86z"/>
	<path id="XMLID_253_" d="M79.134,0c-0.396,0.89-1.304,0.914-2.051,1.19c-7.5,2.767-14.531,6.339-20.495,11.783
		c-3.654,3.335-5.181,5.798-7.18,11.844c0.683,0.039,1.129-0.82,1.944-0.409c-0.222,1.83-1.137,3.604-0.889,5.537
		c0.058,0.45-0.143,1.067,0.442,1.242c0.422,0.126,0.695-0.346,1.001-0.611c0.569-0.492,1.127-1.001,1.73-1.45
		c0.471-0.35,1.035-0.996,1.59-0.542c0.483,0.395,0.186,1.15,0,1.743c-0.361,1.151-0.721,2.303-1.1,3.513
		c1.182,0.205,1.813-1.123,2.84-0.588c0.622,0.324,0.377,0.935,0.413,1.514c0.467-0.34,0.869-0.696,1.327-0.949
		c0.492-0.272,1.147-0.44,1.512,0.055c0.617,0.836-0.424,0.801-0.749,1.056c-0.975,0.765-1.219,1.606-0.984,2.864
		c0.666,3.571-0.273,7.062-0.835,10.559c-0.091,0.567-0.352,1.406-1.074,1.324c-2.845-0.322-2.573,1.766-2.772,3.465
		c-0.134,1.143,0.16,2.328-0.385,3.434c-0.325,0.659-0.613,1.205-1.534,0.787c-3.959-1.795-3.965-1.781-5.805,1.96
		c-0.576-1.925,0.291-4.132,2.313-4.894c1.502-0.566,1.474-1.299,0.995-2.462c-0.468-1.138-0.834-2.321-1.349-3.436
		c-1.612-3.488-1.765-7.281-2.275-10.983c-0.288-2.088,0.829-3.93,1.896-5.766c0.437,2.56-0.053,5.195,0.65,7.804
		c0.844-0.617,0.687-1.755,1.745-2.296c0.044,2.143-0.922,4.089-0.67,6.21c1.247-0.509,1.363-1.985,2.686-2.511
		c-0.068,1.74-1.495,3.108-0.911,5.311c1.331-2.523,3.744-3.857,4.289-6.664c-0.896,0.322-0.931,1.518-2.146,1.491
		c0.465-1.773,1.344-3.41,1.365-5.325c-1.535,0.057-1.528,1.994-3,2.145c0.062-2.116,0.937-3.982,1.367-6.23
		c-1.712,1.019-2.705,2.554-4.392,4.192c0.61-3.081,0.018-5.628,0.777-8.443c-1.696,1.166-2.12,2.895-3.421,4.103
		c-0.563-0.986-0.282-1.977-0.186-2.925c0.554-5.484,3.424-9.85,6.754-14.01C59.113,6.454,67.679,1.801,77.9,0
		C78.311,0,78.722,0,79.134,0z"/>
	<path id="XMLID_252_" d="M115.953,14.926c-0.115-0.268-0.143-0.391-0.211-0.484c-0.494-0.68-1.644-1.514-0.974-2.153
		c0.754-0.719,1.733,0.292,2.409,0.93c3.194,3.017,2.858,8.766-0.584,12.654c-4.181,4.722-9.725,6.76-15.639,7.912
		c-10.897,2.122-21.827,2.659-32.784,0.217c-1.636-0.365-3.409-0.101-5.118-0.155c-0.433-0.014-1.304,0.254-1.211-0.299
		c0.412-2.469-1.414-1.517-2.47-1.755c-0.683-0.154-1.638,0.458-2.015-0.465c-0.304-0.745,0.285-1.427,0.679-2.063
		c0.252-0.406,0.531-0.796,0.817-1.18c0.553-0.74,0.627-1.251-0.541-1.23c-1.494,0.026-1.482-0.798-1.107-1.897
		c0.749-2.191,2.548-3.659,4.048-5.75c-2.364,0.491-4.006,1.772-5.861,2.547c-0.517,0.216-1.135,0.829-1.677,0.252
		c-0.514-0.548,0.021-1.197,0.267-1.708c2.452-5.102,6.899-7.781,11.946-9.694c0.614-0.233,1.311-0.252,1.904-0.801
		c-1.443-0.618-2.676,0.279-4.197,0.455c0.698-1.784,2.11-2.43,3.449-3.124c1.406-0.728,2.914-1.203,4.475-1.446
		c1.546-0.24,3.167,0.162,4.69-0.582c-0.613-0.595-1.72-1.307,0.191-1.642c0.939-0.165,1.896-0.56,2.809-0.473
		c2.417,0.229,4.409-1.212,6.675-1.488c3.798-0.463,7.47,0.198,11.129,1.194c1.623,0.442,3.477,1.49,4.751-0.833
		c0.293-0.534,1.124-0.377,1.735-0.203c3.812,1.081,7.679,2.005,11.421,3.292c4.492,1.545,7.572,6.394,7.378,11.07
		c-0.022,0.539-0.054,1.082-0.819,1.712c-0.416-5.424-3.111-8.706-8.231-9.912c-0.541,0.901,0.934,1.252,0.3,1.9
		c-0.519,0.531-1.321,0.345-1.966,0.247c-3.163-0.479-6.315-1.033-9.628-1.586c0.489,1.149,1.772,1.553,2.18,2.827
		c-2.76,0.412-5.102-0.926-7.558-1.33c-0.381,0.283-0.086,0.509,0.005,0.728c0.381,0.909,1.423,1.917,0.696,2.762
		c-0.639,0.743-1.786-0.086-2.677-0.329c-2.439-0.666-4.691-1.759-6.936-3.523c0.148,1.429,0.866,2.22,1.194,3.159
		c0.221,0.631,0.687,1.379,0.137,1.919c-0.615,0.604-1.291-0.047-1.834-0.375c-1.815-1.099-3.635-2.17-5.722-2.751
		c0.012,0.126-0.016,0.26,0.038,0.332c0.625,0.837,2.013,1.545,1.31,2.709c-0.554,0.917-1.905,0.426-2.89,0.34
		c-1.117-0.098-2.216-0.393-3.418-0.621c0.708,0.955,2.569,1.264,2.211,2.259c-0.403,1.119-2.072,0.274-3.153,0.539
		c-0.066,0.016-0.129,0.046-0.51,0.187c2.542,2.175,3.783,5.197,5.886,7.553c3.831,4.29,8.963,5.11,14.486,4.883
		c-5.039-2.016-9.779-4.371-12.731-10.056c4.737,2.511,8.933,4.986,14.337,4.952c-2.745-1.645-5.189-3.11-7.634-4.575
		c0.059-0.226,0.118-0.451,0.178-0.677c4.377,2.379,9.03,3.172,13.87,2.825c-2.129-1.119-4.698-1.773-6.347-4.53
		c2.486,0.451,4.568,0.829,6.706,1.217c-0.077-0.228-0.079-0.392-0.156-0.441c-1.147-0.729-3.003-1.554-2.571-2.802
		c0.483-1.396,2.415-0.407,3.692-0.404c1.06,0.003,2.119,0.423,3.536,0.738c-0.63-0.837-1.107-1.425-1.53-2.05
		c-0.255-0.377-0.743-0.725-0.497-1.261c0.253-0.55,0.827-0.361,1.28-0.39c1.985-0.126,3.752,0.646,5.518,1.392
		C114.016,13.984,114.917,14.441,115.953,14.926z"/>
	<path id="XMLID_251_" d="M75.116,81.03c-2.084,3.878-4.368,7.396-4.924,11.658c-0.042,0.319,0.019,0.749-0.398,0.842
		c-0.526,0.117-0.705-0.364-0.861-0.711c-0.596-1.329-0.405-2.68,0.02-4.007c1.156-3.616,3.431-6.518,6.024-9.183
		c1.15-1.181,1.793-2.475,1.981-4.13c0.412-3.617,2.241-6.895,2.676-10.509c0.173-1.439,0.846-3.013-0.372-4.398
		c-0.888,0.548,0.383,1.36-0.373,1.651c-0.738,0.284-1.213-0.432-1.728-0.859c-1.901-1.578-1.881-1.567-3.012,0.688
		c-0.543,1.084-1.562,1.539-2.704,1.591c-1.377,0.062-2.508-0.48-3.374-1.612c-0.398-0.52,0.233-1.637-0.776-1.635
		c-0.923,0.001-1.916,0.21-2.651,0.934c-0.193,0.19-0.372,0.394-0.663,0.705c3.334,2.193,6.407,4.857,10.816,2.939
		c0.557-0.242,1.509-0.552,1.795,0.274c0.253,0.729-0.715,0.861-1.193,1.146c-3.462,2.072-6.79,2.24-10.004-0.612
		c-1.199-1.064-2.458-1.919-4.364-1.85c-1.67,0.061-2.225-1.651-2.67-3.222c2.784,0.968,2.774,0.962,4.53-1.621
		c0.46-0.677,0.94-1.365,1.528-1.925c0.566-0.539,1.268-1.399,2.08-0.909c0.714,0.431-0.448,1.159-0.105,2.035
		c4.18-0.311,8.467-0.731,12.661,0.684c-2.469-1.641-4.754-3.48-7.858-3.979c-3.055-0.491-5.909-0.058-8.792,1.057
		c0.789-1.763,1.963-3.072,3.691-3.599c3.131-0.954,6.209-1.601,9.633-0.734c2.234,0.566,4.224,1.314,6.162,2.466
		c1.243,0.739,1.69,1.701,1.434,3.073c-1.091,5.831-1.294,11.829-3.34,17.482c-0.511,1.413-0.369,2.491,1.605,2.258
		c0.716-0.085,1.336,0.309,1.799,0.842c1.426,1.639,2.886,1.531,4.45,0.195c1.157-0.988,2.409-1.158,3.788-0.363
		c0.611,0.353,1.308,0.95,2.05,0.249c0.681-0.643,0.603-1.523,0.442-2.32c-0.118-0.584-0.495-1.113-0.734-1.677
		c-0.168-0.395-0.93-0.758-0.41-1.176c0.64-0.514,1.114,0.141,1.49,0.623c2.66,3.403,1.317,7.359-2.858,8.425
		c-0.595,0.152-1.202,0.284-1.812,0.353c-1.49,0.169-2.548,0.623-1.92,2.453c0.081,0.237,0.044,0.575-0.066,0.806
		c-0.447,0.937-0.481,2.539-1.72,2.444c-0.916-0.071-0.871-1.614-0.849-2.48c0.05-1.989-0.646-2.008-2.257-1.377
		C79.776,85.274,77.368,84.323,75.116,81.03z"/>
	<path id="XMLID_250_" d="M74.569,93.389c7.481,5.246,15.087,6.565,23.183,1.756c0.11,1.138-0.566,1.302-1.025,1.644
		c-0.875,0.653-1.825,1.231-2.604,1.983c-4.477,4.322-10.213,4.556-15.114,0.66c-2.498-1.986-4.524-4.615-7.685-5.723
		c-0.579-0.203-0.94-0.627-0.464-1.249c0.581-0.758,0.891-2.265,2.163-1.679c1.618,0.745,2.945,0.189,4.328-0.339
		c2.614-0.998,5.139-1.246,7.658,0.317c1.215,0.754,2.519,0.596,3.674-0.223c1.478-1.048,2.992-1.063,4.667-0.519
		c2.326,0.756,4.803,2.236,6.71-0.804c0.054-0.086,0.374-0.072,0.537-0.013c0.582,0.21,2.599,3.558,2.539,4.143
		c-0.063,0.62-0.459,0.574-0.883,0.458c-5.08-1.382-10.162-0.117-15.243-0.017c-2.733,0.054-5.462,0.231-8.193-0.161
		C77.485,93.433,76.121,93.467,74.569,93.389z"/>
	<path id="XMLID_249_" d="M94.006,58.517c4.882-1.408,9.073-0.418,13.206,0.7c1.86,0.503,3.475,1.634,4.315,3.538
		c0.139,0.315,0.263,0.689-0.052,0.946c-0.336,0.275-0.634,0.011-0.888-0.214c-0.358-0.318-0.686-0.671-1.052-0.981
		c-1.167-0.989-2.238-1.501-3.392,0.144c-0.878,1.252-2.286,1.491-3.7,1.046c-1.284-0.404-2.417-1.11-2.464-2.667
		c-0.034-1.139-0.586-1.223-1.472-0.925c-1.827,0.615-3.57,1.373-4.97,2.757c-0.679,0.672-1.391,1.551-2.44,1.011
		c-0.968-0.499-0.611-1.601-0.555-2.438c0.133-2.001,1.091-3.993-0.096-5.989c-0.25-0.421-0.039-0.898,0.526-0.746
		c2.046,0.551,3.375-0.839,4.798-1.795c4.457-2.993,8.876-3.229,13.35-0.109c1.02,0.711,1.951,1.527,2.503,2.663
		c0.227,0.467,0.549,1.06,0.05,1.522c-0.428,0.397-0.921,0.019-1.333-0.168c-1.495-0.679-2.958-1.427-4.455-2.099
		c-2.583-1.16-5.061-0.933-7.398,0.676C97.149,56.313,95.819,57.252,94.006,58.517z"/>
	<path id="XMLID_221_" d="M47.806,71.046c-1.407-3.408-1.473-6.624-1.142-9.871c0.041-0.401,0.446-0.987,0.802-1.095
		c1.462-0.444,2.091-1.571,2.578-3.117c1.684,2.042,1.778,4.238,2.07,6.507c-2.681-0.865-3.103-0.627-3.565,2.009
		c-0.152,0.866-0.064,1.772-0.189,2.645C48.24,68.962,48.656,69.872,47.806,71.046z"/>
	<path id="XMLID_220_" d="M51.02,77.673c-1.383-1.265-1.36-2.675-1.047-4.102c0.39-1.78,0.512-3.491-0.465-5.155
		c-0.301-0.512-0.482-1.139-0.328-1.779c0.175-0.732,0.287-1.676,1.058-1.864c0.933-0.228,0.808,0.869,1.134,1.384
		c0.974,1.542,2.115,2.967,2.05,5.008c-0.054,1.703-0.188,3.275-1.523,4.483C51.347,76.147,51.45,76.904,51.02,77.673z"/>
	<path id="XMLID_219_" d="M94.499,64.103c2.879,0.135,5.029,1.87,7.681,2.008c2.547,0.133,4.574-1.958,7.433-1.562
		C103.543,69.519,98.269,69.395,94.499,64.103z"/>
	<path id="XMLID_218_" d="M104.5,88.984c-3.332-3.774-6.55-7.642-7.87-12.695C100.229,79.89,102.348,84.439,104.5,88.984z"/>
</g>
<g>
</g>
<g>
</g>
<g>
</g>
<g>
</g>
<g>
</g>
<g>
</g>
<g>
</g>
<g>
</g>
<g>
</g>
<g>
</g>
<g>
</g>
<g>
</g>
<g>
</g>
<g>
</g>
<g>
</g>
</svg>
