<?xml version="1.0" encoding="iso-8859-1"?>
<!-- Generator: Adobe Illustrator 19.1.0, SVG Export Plug-In . SVG Version: 6.00 Build 0)  -->
<svg version="1.1" id="Capa_1" xmlns="http://www.w3.org/2000/svg" xmlns:xlink="http://www.w3.org/1999/xlink" x="0px" y="0px"
	 viewBox="0 0 143.801 143.801" style="enable-background:new 0 0 143.801 143.801;" xml:space="preserve">
<g id="Kim_Jong_Il">
	<path id="XMLID_152_" d="M72.849,143.533c-6.694-0.197-13.128-1.813-18.807-5.193c-13.405-7.98-22.534-19.331-25.683-34.942
		c-0.329-1.629-0.364-3.323-0.464-4.991c-0.048-0.804-0.264-1.311-1.12-1.544c-2.561-0.697-3.547-2.696-3.867-5.076
		c-0.32-2.38-0.865-4.664-1.724-6.922c-2.085-5.481-2.153-11.237-1.803-16.981c0.112-1.845,0.985-3.569,2.493-4.831
		c1.201-1.006,2.406-1.241,3.689-0.112c0.847,0.745,1.747,1.431,2.711,2.214c0.607-1.132,0.089-2.175,0.076-3.189
		c-0.145-11.367-0.654-22.731-0.345-34.103c0.073-2.689,0.262-5.377,0.28-8.066c0.038-5.783,3.108-9.801,7.619-12.835
		c6.708-4.511,14.29-5.437,22.145-4.85c4.065,0.304,8.068,0.973,11.742,2.885c0.813,0.423,1.069-0.131,1.425-0.584
		c0.999-1.274,2.074-2.462,3.364-3.463c1.508-1.169,3.003-1.255,4.628-0.269c2.543,1.544,4.663,3.558,6.455,5.896
		c0.643,0.839,1.063,1.017,1.729,0.154c0.109-0.141,0.251-0.256,0.379-0.382C90.713,3.47,93.974,1.973,98.3,2.909
		c3.927,0.849,7.818,1.642,11.377,3.586c7.109,3.884,10.107,10.376,11.264,17.965c1.145,7.511,0.508,15.03-0.234,22.525
		c-0.611,6.175-1.41,12.331-2.14,18.622c2.144-0.366,3.285,0.962,4.181,2.548c2.219,3.925,2.115,8.113,1.294,12.372
		c-0.487,2.526-1.252,4.973-2.08,7.4c-0.714,2.091-1.334,4.193-1.771,6.369c-0.536,2.667-1.814,4.883-4.842,5.283
		c-1.194,0.158-1.02,1.049-1.136,1.699c-1.102,6.194-2.899,12.176-5.285,17.992c-2.929,7.14-8.085,12.422-14.104,16.994
		c-3.809,2.893-7.803,5.453-12.417,6.891c-0.779,0.243-1.678,0.426-2.467,0.637C76.795,143.853,75.246,143.62,72.849,143.533z
		 M61.314,18.824c3.325-1.173,6.808-1.04,10.438-1.129c-1.924-1.13-4.012-1.486-6.613-1.029c-1.496,0.263-3.028,0.602-3.843,2.145
		l-0.018,0.048L61.314,18.824z M55.617,26.054c-1.046-0.13-1.784-0.035-2.556,0.187c-7.385,2.123-12.701,8.719-13.283,16.684
		c-0.111,1.521-0.598,2.631-1.74,3.701c-4.289,4.023-7.309,8.781-7.888,14.805c-0.234,2.438-0.534,4.875-0.644,7.32
		c-0.201,4.477-0.404,8.956,0.123,13.434c0.536,4.562,1.481,9.094,1.193,13.727c-0.252,4.05,0.405,7.972,1.623,11.817
		c5.771,18.215,21.591,30.993,40.529,32.826c5.53,0.535,10.696-0.276,15.357-3.473c0.836-0.573,1.732-1.059,2.558-1.645
		c7.295-5.177,13.313-11.375,16.336-20.058c1.982-5.693,3.408-11.499,4.511-17.429c1.763-9.481,4.394-18.804,5.102-28.474
		c0.2-2.73,1.08-5.467,0.437-8.191c-1.25-5.289-3.181-10.342-6.036-14.99c-0.643-1.047-0.837-2.02-0.602-3.187
		c0.49-2.433,0.41-4.874-0.119-7.293c-1.032-4.717-4.892-8.728-9.145-8.398c-3.115,0.242-5.433-0.769-8.052-1.966
		c-4.197-1.917-8.777-2.605-13.361-3.054c-2.726-0.267-5.45-0.734-8.173,0.14c-5.873,1.887-11.411,4.47-16.478,7.991
		c-3.075,2.137-6.006,4.465-7.314,8.22C48.586,33.441,51.577,29.552,55.617,26.054z M27.582,72.181c0-0.864,0.076-1.591-0.015-2.296
		c-0.224-1.739-0.654-3.405-2.33-4.375c-0.856-0.495-1.583-0.435-2.07,0.558c-0.383,0.78-0.984,1.415,0.26,2.148
		c1.303,0.768,2.065,2.042,1.387,3.653c-2.203,5.236-1.477,10.081,1.854,14.606c0.07,0.095,0.096,0.222,0.169,0.312
		c0.563,0.698,0.434,1.147-0.297,1.739c-1.273,1.031-0.871,4.365,0.533,5.189c0.732,0.429,1.208,0.421,1.149-0.66
		c-0.134-2.441-0.213-4.885-0.321-7.328c-0.01-0.235,0.004-0.521-0.12-0.692c-1.946-2.686-1.264-5.813-1.487-8.785
		c-0.017-0.227,0.035-0.624,0.16-0.673C28.307,74.85,27.332,73.249,27.582,72.181z M119.959,81.506
		c0.009-1.81-0.225-3.577-0.695-5.314c-0.162-0.601-0.075-1.426-1.023-1.415c-0.956,0.012-0.857,0.793-0.941,1.429
		c-0.836,6.321-1.681,12.641-2.503,18.964c-0.053,0.409-0.535,0.982,0.088,1.23c0.614,0.244,1.162-0.147,1.517-0.678
		c0.537-0.802,0.785-1.717,0.976-2.657c0.141-0.697,0.252-1.428,0.552-2.06C119.364,87.991,119.724,84.764,119.959,81.506z
		 M46.277,6.793c4.122-1.282,7.781-1.069,11.473-0.621c3.61,0.438,7.114,1.394,11.126,2.326C64.437,5.263,51.344,2.645,46.277,6.793
		z M105.422,10.495c-3.463-3.486-10.575-3.307-16.77,0.623C94.512,9.751,99.896,8.221,105.422,10.495z M89.114,8.426
		c5.318-1.89,10.69-3.167,16.591-1.364C101.686,3.703,94.913,4.303,89.114,8.426z M122.402,74.285
		c0.021-2.112-0.384-3.77-1.393-5.216c-0.481-0.689-1.261-1.214-2.131-1.05c-0.937,0.177-0.664,1.12-0.767,1.776
		c-0.09,0.571-0.085,1.156-0.132,1.902C120.635,70.336,121.121,72.658,122.402,74.285z M71.952,12.806
		c-2.068-2.694-4.888-3.544-7.261-2.418c1.165,0.38,2.287,0.741,3.406,1.113C69.251,11.886,70.403,12.281,71.952,12.806z
		 M66.187,13.546c1.866,1.055,3.622,1.805,5.654,1.961C70.623,13.694,68.751,13.007,66.187,13.546z"/>
	<polygon id="XMLID_118_" points="61.314,18.824 61.278,18.858 61.295,18.81 	"/>
	<path id="XMLID_117_" d="M90.279,112.254c-1.489-0.551-3.038-0.981-4.455-1.677c-3.286-1.613-6.83-1.495-10.324-1.744
		c-2.444-0.174-4.879-0.144-7.331,0.075c-1.822,0.163-1.472,0.905-0.767,1.876c1.615,2.226,3.973,3.164,6.57,3.575
		c1.414,0.224,2.849,0.219,4.291,0.126c3.626-0.234,6.445,2.785,5.912,6.5c-2.725-1.945-5.675-3.092-8.981-3
		c-3.276,0.091-6.16,1.229-8.646,3.551c-0.784-0.874-0.599-1.885-0.472-2.833c0.085-0.636,0.418-1.235,0.585-1.866
		c0.319-1.201,1.524-2.417,0.375-3.649c-1.381-1.481-3.232-1.941-5.233-1.747c-0.352,0.034-0.668,0.148-0.976,0.387
		c-0.266,0.207-0.09,1.061-0.756,0.628c-0.403-0.261-0.561-0.792-0.485-1.281c0.2-1.294,1.029-2.102,2.162-2.66
		c2.614-1.288,5.374-2.358,7.788-3.952c2.003-1.323,3.858-1.754,6.087-1.049c0.495,0.157,1.105,0.195,1.602,0.063
		c2.451-0.654,4.084,0.572,5.763,2.13c2.36,2.19,4.91,4.175,7.378,6.247C90.337,112.054,90.308,112.154,90.279,112.254z"/>
	<path id="XMLID_116_" d="M65.037,85.048c-0.343,1.586-0.609,2.847-0.156,4.164c0.814,2.37,3.358,3.457,5.451,2.084
		c1.025-0.672,1.637-0.622,2.412,0.254c0.506,0.571,1.147,1.054,1.801,1.456c1.818,1.117,3.324,1.001,4.884-0.436
		c1.303-1.2,2.524-1.337,3.963-0.214c1.294,1.01,2.841,0.473,3.437-1.063c0.638-1.643,0.277-3.25-0.251-4.922
		c2.127,1.424,5.668,8.435,5.972,11.86c-1.537-1.745-2.407-3.793-4.124-5.508c-1.7,3.411-5.21,2.748-8.034,3.613
		c-1.407,0.431-2.203,0.813-1.89,2.455c0.175,0.92,0.031,1.9,0.031,2.849c-2.218,0.061-2.244-1.627-2.379-3.044
		c-0.104-1.087-0.385-1.567-1.565-1.545c-1.124,0.021-2.252-0.248-3.38-0.36c-3.244-0.323-6.059-1.342-7.347-4.826
		c-1.914,1.97-3.309,3.971-4.831,5.94C58.79,94.892,62.292,87.275,65.037,85.048z"/>
	<path id="XMLID_115_" d="M41.005,59.356c3.524-3.544,7.624-5.044,12.198-5.322c5.193-0.316,10.18,0.779,15.064,2.449
		c0.547,0.187,1.377,0.242,0.95,1.067c-1.051,2.032-0.098,3.93,0.206,5.878c0.174,1.111,0.626,2.179,0.522,3.544
		C62.396,56.582,52.438,55.498,41.005,59.356z"/>
	<path id="XMLID_114_" d="M61.794,66.762c-0.291,1.397-0.583,2.536-1.628,3.317c-2.68,2.002-5.892,0.719-6.729-2.689
		c-0.095-0.386,0.33-1.091-0.47-1.103c-0.474-0.007-0.909,0.326-1.17,0.744c-0.218,0.349-0.313,0.772-0.514,1.134
		c-0.394,0.71-0.167,1.905-1.369,1.994c-1.219,0.09-4.435-1.602-4.696-2.346c-0.2-0.57,0.247-0.77,0.564-0.975
		c4.879-3.147,10.183-4.484,15.86-2.999c2.595,0.679,4.157,2.879,5.19,5.359c0.278,0.666,0.198,1.208-0.372,1.569
		c-0.645,0.409-1.117-0.05-1.54-0.504C63.918,69.184,63.26,67.792,61.794,66.762z"/>
	<path id="XMLID_106_" d="M82.162,66.08c0-2.904,0.001-5.807-0.001-8.711c0-0.437,0.032-0.752,0.619-0.861
		c6.183-1.143,12.376-2.21,18.633-0.639c2.053,0.515,3.911,1.492,4.834,3.809c-9.607-3.75-17.907-2.831-23.782,6.932
		C82.364,66.434,82.263,66.257,82.162,66.08z"/>
	<path id="XMLID_105_" d="M95.391,64.049c3.646,0.305,6.852,2.087,9.613,4.807c0.763,0.752,0.436,1.188-0.34,1.611
		c-1.551,0.846-2.887,0.559-3.96-0.89c-0.32-0.431-0.632-0.87-0.981-1.277c-0.47-0.547-0.965-1.151-1.795-0.949
		c-0.947,0.23-0.492,1.1-0.601,1.664c-0.338,1.744-1.3,2.72-2.945,2.796c-1.9,0.087-3.098-0.774-3.548-2.556
		c-0.121-0.48,0.116-1.197-0.645-1.278c-0.577-0.061-0.992,0.372-1.306,0.825c-0.373,0.537-0.673,1.127-1.07,1.645
		c-0.714,0.933-1.534,0.421-2.215-0.006c-0.918-0.576,0.017-1.004,0.281-1.378C88.119,65.881,91.189,64.189,95.391,64.049z"/>
	<path id="XMLID_104_" d="M67.405,130.114c6.937,2.588,13.359,2.092,19.848-1.024c-0.371,1.388-1.343,1.952-2.261,2.509
		c-2.963,1.796-6.201,2.984-9.437,4.166c-0.323,0.118-0.762,0.259-1.028,0.135C71.769,134.616,69.026,133.293,67.405,130.114z"/>
</g>
<g>
</g>
<g>
</g>
<g>
</g>
<g>
</g>
<g>
</g>
<g>
</g>
<g>
</g>
<g>
</g>
<g>
</g>
<g>
</g>
<g>
</g>
<g>
</g>
<g>
</g>
<g>
</g>
<g>
</g>
</svg>
