<?xml version="1.0" encoding="iso-8859-1"?>
<!-- Generator: Adobe Illustrator 19.1.0, SVG Export Plug-In . SVG Version: 6.00 Build 0)  -->
<svg version="1.1" id="Capa_1" xmlns="http://www.w3.org/2000/svg" xmlns:xlink="http://www.w3.org/1999/xlink" x="0px" y="0px"
	 viewBox="0 0 144.869 144.869" style="enable-background:new 0 0 144.869 144.869;" xml:space="preserve">
<g id="decaprio">
	<path id="XMLID_148_" d="M2.329,144.821c6.259-2.411,12.321-5.257,18.351-8.185c7.739-3.758,15.44-7.615,23.608-10.403
		c0.12-0.041,0.238-0.087,0.357-0.131c4.055-1.474,4.749-2.499,4.816-6.854c0.019-1.219-0.274-2.233-1.199-3.055
		c-0.615-0.546-1.139-1.206-1.794-1.691c-7.529-5.578-11.597-13.198-12.504-22.355c-0.839-8.468-3.41-16.441-5.896-24.477
		c-2.187-7.068-4.437-14.123-5.496-21.488c-1.261-8.766-0.013-16.999,4.787-24.588c2.266-3.582,4.339-7.285,6.996-10.611
		c5.396-6.757,12.36-9.582,20.935-8.435c1.131,0.151,2.262,0.279,3.381-0.112C74.214-3.001,87.77,0.986,99.99,11.199
		c5.688,4.753,10.673,10.085,13.588,17.052c1.982,4.737,2.331,9.431-0.462,14.016c-0.448,0.736-0.506,1.555-0.481,2.385
		c0.079,2.592,0.175,5.183,0.245,7.775c0.019,0.707,0.13,1.205,1.03,1.231c1.515,0.044,2.171,1.083,2.548,2.401
		c0.587,2.054,0.393,4.154,0.308,6.229c-0.236,5.77-0.909,11.482-2.967,16.932c-1.174,3.11-2.975,5.614-6.647,5.989
		c-0.908,0.093-1.13,0.73-1.157,1.468c-0.207,5.741-0.772,11.535,2.422,16.791c0.362,0.595,0.592,1.308,1.34,1.516
		c2.484,0.693,3.756,2.669,4.994,4.674c1.396,2.261,2.74,4.555,4.145,6.81c3.117,5.006,7.934,7.837,13.085,10.287
		c3.77,1.794,7.535,3.637,10.535,6.667c0,3.478-0.029,6.957,0.022,10.434c0.012,0.784-0.116,1.134-0.958,0.973
		c-0.305-0.059-0.631-0.009-0.947-0.009C94.532,144.821,48.431,144.821,2.329,144.821z M74.97,98.546l-0.133-0.131
		c-1.587-1.015-3.296,0.017-4.938-0.303c-3.346-0.651-6.503-1.781-10.191-0.985c-1.89,0.408-4.238,0.156-6.39,0.423
		c-2.895,0.359-4.357,1.897-4.224,4.749c0.117,2.505,0.754,4.854,2.016,7.032c0.967,1.669,2.36,2.768,4.223,3.28
		c0.631,0.174,1.24,0.253,1.81-0.165c1.352-0.992,2.933-1.105,4.518-1.121c2.146-0.022,4.287-0.011,6.431,0.244
		c3.357,0.399,5.877-0.646,6.738-3.01C76.022,105.284,75.971,101.899,74.97,98.546z M51.25,118.635
		c-0.361,2.611-0.745,4.72-1.448,6.748c-0.822,2.371-1.36,4.804-0.71,7.263c0.968,3.661,0.629,6.943-2.131,9.749
		c-0.171,0.174-0.279,0.425-0.368,0.659c-0.109,0.286,0.06,0.441,0.315,0.573c1.542,0.796,6.026-0.275,7.046-1.685
		c1.301-1.798,2.628-3.575,4.5-4.842c2.175-1.473,3.684-0.96,4.301,1.487c0.327,1.298,0.842,2.514,1.392,3.727
		c0.417,0.919,1.038,1.325,2.063,1.321c6.773-0.03,13.546-0.042,20.319-0.01c1.128,0.005,1.715-0.472,2.158-1.451
		c1.043-2.31,2.279-4.516,3.713-6.614c2.687-3.931,5.865-7.458,8.98-11.039c2.702-3.106,5.43-6.201,7.018-10.08
		c1.151-2.81,1.438-5.528-0.225-8.356c-1.274-2.167-2.752-4.359-3.213-6.845c-0.893-4.813-0.562-9.713-0.492-14.584
		c0.015-1.026,0.491-1.378,1.46-1.011c1.206,0.457,2.374,0.365,3.459-0.315c1.326-0.831,2.221-2.05,2.907-3.434
		c3.09-6.224,3.388-12.98,3.769-19.722c-0.635,1.754-0.279,3.712-1.066,5.492c-0.697-0.466-0.598-1.157-0.736-1.747
		c-0.317-1.354-0.375-2.837-1.183-3.979c-1.216-1.718-0.426-2.769,0.888-3.816c0.293-0.233,1.03-0.203,0.739-0.863
		c-0.204-0.462-0.733-0.432-1.176-0.433c-0.665-0.001-1.233,0.237-1.689,0.731c-1.846,2.002-3.799,3.95-4.792,6.548
		c-0.745,1.95-2.306,1.888-3.908,1.885c-1.651-0.003-1.845-1.241-2.065-2.453c-0.684-3.772-2.524-6.855-5.536-9.226
		c-0.661-0.52-1.235-1.045-1.395-1.941c-1.27-7.078-5.03-13.046-8.582-19.101c-0.605-1.031-1.585-1.615-2.737-1.901
		c-2.512-0.622-5.005-0.608-7.484,0.197c-4.934,1.602-9.895,3.127-14.804,4.804c-4.585,1.567-8.949,1.297-13.176-1.1
		c-2.147-1.217-4.307-2.411-6.468-3.602c-1.988-1.096-4.087-1.377-6.221-0.562c-1.612,0.616-2.991,1.691-3.007,3.549
		c-0.047,5.81-1.595,11.389-2.42,17.077c-1.118,7.71-1.328,15.321,1.689,22.786c2.064,5.108,3.409,10.463,3.897,15.994
		c0.346,3.915,0.906,7.79,2.315,11.496c1.816,4.773,4.71,8.789,8.497,12.183c0.319,0.286,0.646,0.776,1.104,0.597
		c0.63-0.246,0.341-0.888,0.285-1.342c-0.149-1.191-0.397-2.37-0.582-3.557c-0.484-3.121-1.139-6.223-0.519-9.419
		c0.256-1.316,0.69-2.228,2.202-2.376c1.42-0.138,2.892-0.694,3.7-1.765c2.208-2.928,5.143-2.736,8.344-2.874
		c3.625-0.157,7.145-0.904,10.322,1.589c0.447,0.35,1.208,0.307,1.828,0.428c1.179,0.23,2.382,0.369,3.537,0.684
		c2.701,0.737,3.733,2.032,4.085,4.8c0.546,4.29,0.518,8.591,0.135,12.881c-0.129,1.437,0.456,1.754,1.673,1.834
		c3.408,0.223,6.493-0.871,8.999-2.955c4.756-3.954,8.798-8.564,11.184-14.411c0.158-0.388,0.203-0.952,0.844-1.103
		c0,0.322,0.033,0.513-0.007,0.687c-0.099,0.431-0.231,0.855-0.35,1.281c-1.669,5.951-5.225,10.631-9.897,14.52
		c-3.696,3.077-7.319,6.274-11.236,9.048c-6.24,4.42-13.106,6.538-20.794,4.3C56.869,123.978,53.979,121.786,51.25,118.635z"/>
	<path id="XMLID_134_" d="M88.004,69.062c-6.042-2.359-12.028,0.753-18.075-0.085c1.9,1.719,4.362,2.057,7.033,3.028
		c-2.246,0.78-3.989-0.144-6.019-0.376c1.12,2.788,3.446,4.138,5.387,5.829c-0.344,0.422-0.628,0.142-0.85,0.01
		c-3.663-2.18-7.047-4.725-9.929-7.88c-1.843-2.018-1.551-3.094,1.001-3.984c6.25-2.179,12.369-2.554,18.179,1.343
		c0.52,0.349,1.136,0.553,1.698,0.842C86.98,68.071,87.635,68.177,88.004,69.062z"/>
	<path id="XMLID_132_" d="M49.322,70.056c-3.851-0.158-7.227-0.146-10.607,0.174c-0.524,0.05-1.224,0.491-1.523-0.181
		c-0.263-0.589,0.404-0.996,0.76-1.413c1.331-1.557,2.978-2.5,5.069-2.635c3.7-0.239,7.152,0.605,10.403,2.329
		c1.366,0.724,1.687,1.65,0.747,3.076c-2.333,3.54-5.252,6.472-8.715,8.884c-0.289,0.201-0.569,0.535-1.222,0.212
		c1.54-2.24,3.397-4.259,4.832-7.109c-3.13,0.75-5.735,1.648-8.534,1.684C43.504,73.796,46.692,72.932,49.322,70.056z"/>
	<path id="XMLID_131_" d="M72.988,56.125c6.171,0.133,10.392,1.934,14.457,4.206c0.533,0.298,1.226,0.705,0.879,1.457
		c-0.343,0.745-1.106,0.503-1.686,0.301c-2.264-0.788-4.421-1.852-6.82-2.282c-4.786-0.858-9.292,0.294-13.783,1.703
		c-1.283,0.403-2.956,1.392-3.627-0.416c-0.603-1.627,1.399-1.833,2.381-2.352C67.774,57.167,70.917,56.008,72.988,56.125z"/>
	<path id="XMLID_130_" d="M104.397,104.106c-1.376,3.419-3.525,6.359-5.993,9.064c-7.13,7.814-16.019,13.109-25.469,17.563
		c-2.402,1.132-4.874,2.121-7.338,3.117c-3.41,1.379-6.402,0.857-8.963-1.942c-1.58-1.727-3.116-3.468-4.53-5.756
		c1.01,0.245,1.344,0.861,1.781,1.31c0.529,0.544,1.021,1.124,1.532,1.686c3.164,3.478,6.8,4.262,11.312,2.643
		c15.127-5.431,27.939-13.882,36.956-27.482c0.104-0.157,0.183-0.332,0.274-0.499C104.105,103.908,104.251,104.007,104.397,104.106z
		"/>
	<path id="XMLID_129_" d="M112.387,75.259c-2.752-2.335-2.752-2.335-5.208-0.066c0.626-3.022,0.113-5.532-0.564-8.06
		c-0.379-1.415,1.67-2.983,3.151-2.635c0.738,0.173,1.525,0.243,2.201,0.552c1.435,0.656,2.471,1.707,1.902,3.43
		C113.142,70.679,112.127,72.794,112.387,75.259z"/>
	<path id="XMLID_128_" d="M39.084,58.879c3.014,0.169,6.364,1.687,9.718,3.181c0.319,0.142,0.784,0.311,0.583,0.808
		c-0.171,0.425-0.628,0.349-0.995,0.367c-2.118,0.104-4.111-0.655-6.174-0.949c-3.164-0.451-5.747,0.241-7.782,2.781
		c-0.448,0.559-0.958,1.436-1.831,0.989c-0.951-0.487-0.776-1.504-0.596-2.382C32.659,60.496,34.848,58.849,39.084,58.879z"/>
	<path id="XMLID_127_" d="M72.065,45.374c-1.349,0-2.698,0.02-4.046-0.005c-1.794-0.034-3.591,0.163-5.215,0.856
		c-4.623,1.972-9.399,2.386-14.322,1.785c-2.875-0.352-5.758-0.493-8.678-0.364c0.943-0.73,2.034-0.933,3.169-0.897
		c2.78,0.089,5.562,0.181,8.339,0.337c3.658,0.205,7.174-0.355,10.61-1.632C65.258,44.213,68.66,44.205,72.065,45.374z"/>
	<path id="XMLID_92_" d="M67.711,80.175c2.835,1.926,4.978,4.464,6.734,7.408c-1.192-1.045-2.385-2.09-3.66-3.208
		c-0.331,5.174-3.673,6.4-9.481,3.664c1.018-0.776,3.118-0.987,4.883-0.491c2.285,0.643,3.659-0.63,3.264-3.002
		C69.188,82.97,68.094,81.757,67.711,80.175z"/>
	<path id="XMLID_91_" d="M71.699,38.851c-3.832-0.678-7.077,1.108-10.397,2.4c-3.432,1.336-6.742,1.84-10.281,0.273
		c-2.163-0.958-4.476-0.409-6.697,0.25c-0.83,0.247-1.588,0.776-3.055,0.683c3.53-1.612,6.654-3.159,10.059-1.79
		c3.466,1.394,6.642,0.94,9.906-0.42c2.041-0.85,4.076-1.727,6.232-2.281C69.034,37.563,70.394,37.924,71.699,38.851z"/>
	<path id="XMLID_90_" d="M51.243,82.009c-0.151,1.597-0.802,2.939-0.687,4.396c0.149,1.886,0.569,2.17,2.184,1.338
		c0.745-0.384,3.472,0.999,3.626,1.839c0.106,0.577-0.352,0.559-0.698,0.657c-1.921,0.544-4.565-0.444-5.519-2.061
		C49.039,86.298,49.419,83.853,51.243,82.009z"/>
	<path id="XMLID_89_" d="M42.267,51.888c4.153,0.113,8.12,1.041,11.985,2.447c0.648,0.236,0.988,0.766,1.184,1.392
		c0.625,1.996,1.062,4.017,0.744,6.693c-0.402-1.871-0.75-3.2-0.962-4.549c-0.277-1.765-1.233-2.674-2.955-3.222
		C48.959,53.597,45.551,52.973,42.267,51.888z"/>
	<path id="XMLID_88_" d="M74.97,98.546c-0.696,1.423-1.915,1.968-3.414,1.937c-1.326-0.028-2.65-0.144-3.975-0.227
		c-0.756-0.048-1.618-0.373-2.25-0.12c-3.948,1.582-8.179,0.061-12.152,1.212c-1.006,0.291-2.026,0.27-2.809-0.597
		c-0.148-0.164-0.271-0.453-0.235-0.654c0.053-0.293,0.375-0.276,0.624-0.249c3.424,0.372,6.744-0.691,10.136-0.895
		c3.426-0.206,6.744-0.315,10.109,0.245c1.367,0.228,2.631-0.149,3.833-0.782L74.97,98.546z"/>
</g>
<g>
</g>
<g>
</g>
<g>
</g>
<g>
</g>
<g>
</g>
<g>
</g>
<g>
</g>
<g>
</g>
<g>
</g>
<g>
</g>
<g>
</g>
<g>
</g>
<g>
</g>
<g>
</g>
<g>
</g>
</svg>
