<?xml version="1.0" encoding="iso-8859-1"?>
<!-- Generator: Adobe Illustrator 19.1.0, SVG Export Plug-In . SVG Version: 6.00 Build 0)  -->
<svg version="1.1" id="Capa_1" xmlns="http://www.w3.org/2000/svg" xmlns:xlink="http://www.w3.org/1999/xlink" x="0px" y="0px"
	 viewBox="0 0 155.673 155.673" style="enable-background:new 0 0 155.673 155.673;" xml:space="preserve">
<g>
	<path d="M131.733,87.345c-1.604,0.623-3.159,1.777-5.063,1.479c-0.708-0.111-1.704,0.078-1.754-0.961
		c-0.04-0.828,0.877-0.8,1.457-0.998c1.647-0.562,3.677-0.491,4.422-2.552c-0.18-0.189-0.263-0.342-0.328-0.335
		c-5.246,0.578-5.199,0.586-4.397-4.696c0.29-1.912,0.195-3.882,0.455-5.801c0.237-1.756-1.201-4.329,2.176-4.75
		c0.632-0.079,0.12-0.927,0.203-1.375c0.27-1.46-1.481-3.258,0.692-4.412c0.125-0.066,0.187-0.384,0.165-0.571
		c-0.144-1.238-3.625-2.13-0.375-3.719c-2.836-5.59-2.174-11.937-3.967-17.838c-3.464-11.396-8.774-21.527-16.73-30.353
		c-6.016-6.674-10.892-7.853-19.125-4.22c-1.311,0.579-2.076,0.149-2.715-0.852C85.349,3.04,83.08,1.564,80.882,0
		c-6.27,0-12.54,0-18.811,0c-7.674,4.327-14.139,9.938-18.062,17.965c-4.219,8.632-8.01,17.444-9.392,27.085
		c-0.305,2.125-0.901,4.209-1.371,6.309c-0.047,0.208-0.259,0.428-0.217,0.599c1.593,6.494-1.762,12.713-1.029,19.192
		c0.348,3.08-0.184,6.231,0.736,9.308c0.7,2.342-0.793,2.508-2.553,2.195c-0.725-0.129-1.295-1.613-2.126-0.416
		c-0.531,0.764,0.22,1.63,0.34,2.45c0.129,0.883,2.457,1.475,0.382,2.673c-2.976,1.72-2.963,1.742-4.58-0.645
		c-1.358,1.67-1.351,3.11,0.343,4.426c2.647,2.057,11.266,2.242,14.17,0.33c-1.182,3.443-3.614,5.865-6.705,7.519
		c-1.839,0.984-1.955,1.836-0.998,3.539c1.324,2.357,2.281,4.754,2.427,7.684c0.134,2.696,1.758,5.337,2.84,7.956
		c0.316,0.766,1.278,0.771,2.019,0.75c1.373-0.039,2.743-0.195,4.644-0.344c-2.191,1.869-4.274,1.925-6.738,1.157
		c2.125,3.081,3.512,3.81,6.636,2.645c3.082-1.149,2.984,0.287,2.73,2.491c-0.382,3.309-1.487,6.526-1.135,10.099
		c-0.903-0.956-0.044-2.402-1.485-3.059c-1.316,1.936-0.621,3.915,0.011,5.746c2.495,7.232,7.672,12.098,14.21,15.702
		c1.414,0.78,2.836,1.545,4.254,2.317c3.243,0,6.486,0,9.73,0c-1.808-1.106-3.923-1.122-5.897-1.621
		c-3.852-0.973-7.465-2.41-10.635-4.848c1.246,0.305,2.408,0.818,3.604,1.231c0.514,0.178,1.115,0.118,1.266-0.585
		c0.115-0.534-0.315-0.735-0.718-0.915c-0.691-0.308-1.409-0.565-2.067-0.932c-5.869-3.271-9.52-7.853-9.435-14.98
		c0.098-8.209,1.032-16.392,0.705-24.613c-0.045-1.126-0.315-2.326,0.271-3.425c1.098,0.332,1.072,2.239,3.075,1.747
		c-2.862-4.785-3.898-9.886-4.476-15.168c-0.309-2.826,0.938-5.718-0.805-8.516c-2.013-3.233-1.46-6.576,0.409-9.81
		c0.821-1.42,0.808-3.098,1.005-4.714c0.203-1.658,0.173-3.51,1.968-5.088c0.128,1.314,0.189,2.166,0.3,3.011
		c0.115,0.873,0.308,1.757,1.266,2.092c1.031,0.36,1.549-0.409,2.13-1.066c3.887-4.389,6.823-4.936,12.402-2.31
		c-2.86,1.226-6.17,1.484-8.278,4.124c-0.599,0.751-1.404,1.449-1.16,2.544c0.232,1.04,5.626,3.726,7.016,3.556
		c-0.798-1.28-3.073-1.217-3.092-3.925c4.62,3.818,8.437,2.826,11.792-1.717c-0.152,2.653,2.96,3.131,2.868,5
		c-0.124,2.53,0.716,5.071-1.076,7.712c-1.351,1.99-1.765,4.765-3.146,6.985c-1.073,1.726-0.686,3.483,0.214,5.237
		c0.773,1.506,1.635,3.071,1.901,4.701c0.204,1.253-0.537,2.688,1.652,2.505c1.358-0.114,3.171,1.151,3.993-0.097
		c2.136-3.241,6.352-2.155,8.596-4.894c-0.867,2.627-0.07,3.615,3.761,4.058c-3.49-1.747-2.159-2.899-0.173-4.107
		c0.793-0.482,1.767-1.209,1.09-2.343c-0.508-0.85-1.545-0.721-2.374-0.511c-0.825,0.208-1.817,0.432-2.347,1.007
		c-2.266,2.457-5.643,1.753-8.282,3.096c-0.88,0.448-1.615-0.223-1.761-0.93c-0.269-1.306,0.821-0.281,1.229-0.541
		c0.996-0.636,0.602-1.296-0.004-1.816c-1.237-1.063-2.589-2.068-4.333-1.815c-0.765,0.111-1.439,0.53-1.936-0.396
		c-0.416-0.773-0.234-1.505,0.281-2.109c3.538-4.143,4.466-9.474,6.348-14.33c2.772-7.153,2.135-8.063-5.077-10.479
		c-0.09-0.03-0.103-0.288-0.123-0.348c0.853-0.072,1.725-0.03,2.527-0.245c0.875-0.234,2.366,0.409,2.523-0.798
		c0.173-1.331-1.394-1.271-2.32-1.699c-4.254-1.97-8.826-2.312-13.382-2.994c-4.97-0.744-7.793,0.378-9.542,4.946
		c-0.762-1.042-0.527-2.168-0.042-3.025c1.318-2.328,2.404-4.91,4.52-6.617c3.627-2.926,6.964-6.146,10.279-9.401
		c0.604-0.593,1.628-0.993,1.471-2.615c-2.526,2.052-4.731,3.843-6.936,5.635c0.456-1.197,1.181-2.098,2-2.903
		c4.35-4.269,10.233-6.426,14.67-10.591c0.325-0.305,1.111-0.474,1.5-0.299c2.417,1.088,3.473-0.299,4.603-2.11
		c0.385-0.617,0.688-1.769,2.073-1.614c6.351,0.708,10.551,3.75,12.745,10.013c2.526,7.21,4.265,14.701,7.887,21.766
		c-1.032,0.046-1.78,0.012-2.506,0.123c-3.807,0.583-7.722-0.487-11.49,0.795c-0.912,0.31-2.063,0.267-2.278,1.453
		c-0.239,1.32,1.179,1.494,1.869,2.21c-2.039,1.244-4.69,2.049-4.647,4.866c0.014,0.91,1.622,1.806,2.974,2.036
		c1.865,0.317,1.273-1.54,2.01-2.405c1.764,2.225,3.889,4.546,6.386,1.992c1.975-2.02,3.235-2.201,5.229-0.526
		c0.753,0.633,1.657,0.957,2.501-0.177c0.878-1.18,0.483-2.03-0.481-2.749c-1.259-0.938-2.596-1.772-3.94-2.679
		c3.739-2.708,7.637-1.515,11.259-0.5c2.289,0.641,0.376,3.347,1.224,5.081c2.587,5.288,1.738,10.694-0.072,16.057
		c-0.337,0.999-1.396,2.663,0.147,3.03c1.341,0.32,0.71-1.651,1.147-2.529c0.84-1.686,0.495-4.157,2.111-5.173
		c3.398-2.136,4.311-5.773,1.41-8.32c-1.443-1.267-1.499-2.759-1.709-4.321c-0.092-0.685,0.206-1.337,1.01-1.396
		c0.998-0.073,2.005-0.023,3.008-0.026c-0.401,2.911,1.857,5.356,1.799,7.959c-0.111,4.962-1.168,9.886-4.379,13.992
		c-1.161,1.484-2.037,3.471-4.619,2.438c-1.143-0.457-1.482,0.574-1.7,1.424c-1.45,5.659-3.123,11.23-6.1,16.32
		c-0.096,0.165,0.109,0.506,0.224,0.969c0.813-0.585,1.46-1.052,2.473-1.781c0.271,7.927,0.599,15.451,0.746,22.978
		c0.048,2.452-1.283,4.542-2.678,6.496c-3.869,5.422-9.394,8.46-15.454,10.749c-0.927,0.35-2.226,0.183-2.862,2.173
		c7.708-1.613,13.841-5.187,19.13-10.437c-2.775,4.429-6.34,7.203-10.979,9.32c-3.562,1.625-7.562,1.723-11.068,3.451
		c3.027,0,6.054,0,9.081,0c3.432-2.213,7.357-3.628,10.333-6.59c3.5-3.483,6.4-7.296,7.588-12.204
		c0.441-1.821,0.437-3.455-0.401-5.301c-1.797-3.956-0.383-8.961,3.23-11.821c1.645-1.302,0.192-1.65-0.51-2.45
		c1.727-0.711,3.435-1.277,5.011-2.098c1.903-0.991,1.816-1.092,0.046-2.443c-0.543-0.415-0.816-1.183-1.331-1.969
		c1.702-0.251,3.235-0.272,4.607-0.751c0.899-0.314,3.412-0.271,1.316-2.532c-0.826-0.891,0.527-0.935,0.917-1.013
		c2.319-0.465,1.896-2.445,1.912-3.841c0.019-1.598-1.709-1.284-2.773-1.556c-1.201-0.307-2.554-0.176-3.493-1.384
		c1.53-0.607,3.26,0.252,4.793-0.885c-0.964-1.334-2.446-1.038-3.542-1.567c-1.089-0.526-2.067-1.139-3.109-2.346
		c3.091-0.36,6.031,0.143,8.844-1.05C133.281,92.432,132.631,90.108,131.733,87.345z M35.503,80.528
		c-1.811-1.95-2.365-3.945-0.669-6.357c3.176-4.516,3.235-9.06-1.402-13.771c2.425,0.477,2.464,1.747,2.995,2.566
		c1.066,1.646,2.102,3.346,4.116,3.903c2.369,0.655,1.606,2.717,2.046,4.223c0.505,1.73-0.865,1.523-1.903,1.995
		c-1.313,0.598-2.571,1.52-3.74,2.354c-1.55,1.106-0.167,2.699,0.466,4.01c0.435,0.9,1.831,1.929,0.594,2.758
		C36.535,83.195,36.224,81.304,35.503,80.528z M43.861,91.791c-0.957,0.939-2.042,0.343-2.98-0.179
		c-0.73-0.406-1.413-0.424-2.154-0.16c0.309-1.126-0.078-2.149-0.595-3.089c-0.614-1.115-1.179-1.654,0.882-1.802
		c1.488-0.106,0.402-2.222,0.862-3.436c2.327,1.216,3.47,3.091,4.132,5.321C44.344,89.573,44.869,90.802,43.861,91.791z"/>
	<path d="M53.982,122.542c4.937,8.1,14.165,9.14,21.615,13.108c0.174,0.093,0.429,0.079,0.639,0.055
		c4.485-0.52,9.064-0.573,13.292-2.445c4.908-2.173,8.791-5.459,11.086-10.542c-6.024,6.884-13.123,11.132-22.583,9.798
		c-9.179-1.294-15.231-7.423-21.2-13.892c-0.508,2.47,1.691,3.819,2.145,6.001c-2.105-0.438-2.777-2.963-5.006-2.879
		C53.971,122.144,53.892,122.394,53.982,122.542z"/>
	<path d="M85.452,110.338c3.202-0.412,6.377-0.952,10.422-0.085c-2.687-2.627-4.235-3.128-7.629-2.611
		c-5.183,0.789-10.312,0.921-15.392-0.669c-0.801-0.251-1.707-0.253-2.56-0.224c-0.722,0.025-1.693,0.015-1.821,0.966
		c-0.141,1.052,0.856,1.077,1.559,1.22C75.119,109.969,80.226,111.01,85.452,110.338z"/>
	<path d="M78.711,138.001c-8.602-2.464-16.493-5.123-22.605-11.32C57.407,132.827,71.746,140.009,78.711,138.001z"/>
</g>
<g>
</g>
<g>
</g>
<g>
</g>
<g>
</g>
<g>
</g>
<g>
</g>
<g>
</g>
<g>
</g>
<g>
</g>
<g>
</g>
<g>
</g>
<g>
</g>
<g>
</g>
<g>
</g>
<g>
</g>
</svg>
