<?xml version="1.0" encoding="iso-8859-1"?>
<!-- Generator: Adobe Illustrator 19.1.0, SVG Export Plug-In . SVG Version: 6.00 Build 0)  -->
<svg version="1.1" id="Capa_1" xmlns="http://www.w3.org/2000/svg" xmlns:xlink="http://www.w3.org/1999/xlink" x="0px" y="0px"
	 viewBox="0 0 143.438 143.438" style="enable-background:new 0 0 143.438 143.438;" xml:space="preserve">
<g>
	<path d="M131.672,98.754c-1.001-0.467-2.179-1.529-2.406-2.519c-1.267-5.533-4.444-9.618-8.917-12.9
		c-1.397-1.025-2.533-2.404-3.929-3.43c-4.473-3.286-7.378-8.907-13.685-9.071c-0.152-3.784,1.886-6.239,3.998-8.776
		c3.359-4.038,5.192-8.67,4.103-14.033c-0.874-4.301-4.328-5.549-7.933-3.026c-0.42,0.294-1.223,0.496-1.59,0.287
		c-0.37-0.211-0.601-0.998-0.57-1.514c0.08-1.33,0.565-2.663,0.487-3.971c-0.301-5.045-0.673-10.09-1.198-15.117
		c-0.218-2.09-0.409-4.414-1.428-6.154C91.169,5.843,79.952-0.3,65.262,0.011c-2.5,0.053-5.049,0.292-7.476,0.864
		c-8.652,2.036-14.695,7.843-19.739,14.668c-1.637,2.215-2.584,5.269-2.919,8.05c-0.679,5.627-0.624,11.338-1.088,16.997
		c-0.143,1.743-0.954,3.431-1.476,5.143c-1.051-0.232-2.17-0.315-3.126-0.752c-2.453-1.121-4.454-0.162-4.777,2.482
		c-0.472,3.863,0.713,7.359,2.723,10.547c2.776,4.403,5.804,8.648,8.57,13.057c1.014,1.616,2.13,2.564,4.027,2.02
		c1.622-0.465,2.361,0.618,2.543,1.712c0.116,0.698-0.625,1.792-1.291,2.312c-1.295,1.01-3.098,1.473-4.169,2.642
		c-2.159,2.356-3.87,5.116-5.943,7.558c-3.314,3.903-4.159,9.645-9.229,12.242c-1.749,0.896-3.333,2.11-5.078,3.016
		c-1.892,0.983-3.026,2.457-3.571,4.473c-0.947,3.502-1.847,7.018-2.923,10.48c-0.302,0.971-0.985,2.304-1.78,2.552
		c-0.391,0.122-0.735,0.277-1.059,0.448c5.085,4.912,10.8,9.17,17.022,12.637c1.661-1.184,3.291-2.427,4.896-3.711
		c3.719-2.975,7.2-6.247,10.842-9.431c-3.664-0.997-7.503-2.041-11.342-3.086c0.038-0.139,0.076-0.278,0.114-0.418
		c0.67,0.138,1.351,0.239,2.009,0.42c5.885,1.616,11.529,0.973,16.94-1.804c2.734-1.404,5.52-2.728,8.149-4.311
		c2.486-1.497,2.36-2.784-0.164-4.244c-0.675-0.39-1.353-0.774-2.317-1.325c3.5,0,6.715,0,9.755,0
		c0.072-0.096-0.198,0.265-0.863,1.16c4.395-1.295,7.991-2.883,11.43-4.949c4.005-2.406,7.211-5.394,9.426-9.647
		c1.471-2.824,3.928-5.116,5.757-7.775c2.052-2.981,4.067-6.015,5.754-9.207c0.873-1.652,2.017-2.423,3.638-2.403
		c1.793,0.022,3.61,0.301,5.356,0.718c0.518,0.124,1.172,1.091,1.175,1.676c0.008,1.402,0.027,2.993-0.591,4.178
		c-3.51,6.721-9.111,11.277-16.218,15.164c2.414-4.04,4.488-7.509,6.562-10.979c-0.364-0.215-0.727-0.429-1.091-0.644
		c-2.851,3.743-5.66,7.52-8.578,11.211c-0.958,1.212-2.159,2.246-3.32,3.281c-4.988,4.448-10.607,7.77-16.829,10.317
		c-4.365,1.787-8.436,4.375-12.442,6.915c-1.562,0.99-1.829,3.285-3.721,4.434c-3.256,1.976-6.202,4.462-9.278,6.734
		c-0.158-0.187-0.315-0.374-0.473-0.561c1.733-1.414,3.466-2.828,5.199-4.243c-2.578,0.766-5.038,1.39-7.221,3.433
		c-3.601,3.371-7.145,6.796-10.898,9.993c1.486,0.783,3,1.516,4.538,2.209c2.771-2.726,5.555-5.439,8.484-7.983
		c5.708-4.958,11.661-9.634,17.519-14.42c0.752-0.614,1.559-1.16,2.639-1.958c-1.919,2.602-3.447,4.938-5.239,7.048
		c-3.887,4.578-7.829,9.115-11.894,13.535c-1.881,2.045-3.739,4.107-5.575,6.185c1.815,0.65,3.665,1.227,5.537,1.749
		c1.667-2.054,3.333-4.11,5.003-6.163c5.182-6.37,10.089-12.998,15.66-19.01c7.842-8.465,17.73-14.442,27.359-20.608
		c5.02-3.215,10.824-5.266,15.021-9.691c1.95-2.057,4.072-2.098,6.449-1.588c1.151,0.247,2.247,0.743,3.383,1.073
		c5.603,1.628,9.032,5.06,9.396,11.471c-1.49-0.39-2.885-0.581-4.135-1.112c-7.641-3.247-14.222-1.128-20.004,4.124
		c-7.903,7.179-15.756,14.424-23.383,21.893c-3.415,3.344-6.228,7.302-9.315,10.981c0.872-0.847,1.714-1.728,2.628-2.528
		c0.611-0.535,1.323-0.954,1.99-1.426c-0.014,0.508,0.185,1.22-0.075,1.492c-2.47,2.579-5.008,5.094-7.562,7.59
		c-0.225,0.22-0.702,0.182-1.062,0.263c-2.196,1.74-3.912,3.788-5.345,6.016c1.974,0.143,3.96,0.241,5.97,0.241
		c0.438,0,0.87-0.026,1.306-0.033c0.338-0.189,0.676-0.375,1.021-0.549c1.75-0.88,2.956-1.654,3.25-3.487
		c0.781-4.878,2.791-9.047,6.559-12.345c1.118-0.978,2.029-2.202,2.977-3.361c0.405-0.495,0.662-1.111,1.024-1.737
		c-2.366,1.409-4.554,2.712-6.742,4.015c4.224-4.14,8.36-8.375,12.695-12.395c5.392-4.999,10.791-10.015,16.509-14.624
		c2.423-1.953,5.572-3.726,8.564-4.066c3.528-0.402,7.242,0.836,11.317,1.427c-1.132,1.593-1.868,2.696-2.67,3.748
		c-3.261,4.275-6.121,8.971-9.947,12.664c-3.172,3.062-4.048,6.652-4.986,10.499c1.199-2.66,2.399-5.32,3.598-7.98
		c0.182,0.068,0.365,0.136,0.547,0.205c-0.506,1.56-1.013,3.12-1.519,4.68c0.193,0.109,0.386,0.218,0.578,0.328
		c0.9-1.043,1.89-2.022,2.679-3.143c1.089-1.546,1.748-3.495,3.082-4.749c3.487-3.278,7.236-6.278,10.889-9.378
		c2.219-1.883,4.757-2.241,7.561-1.703c0.919,0.176,1.843,0.326,2.769,0.467c0.248-0.439,0.508-0.871,0.748-1.315
		C134.517,99.996,133.078,99.41,131.672,98.754z M39.259,57.526c-2.198-3.901-4.396-7.802-6.598-11.7
		c0.358,0.033,0.829,0.003,0.929,0.181c2.099,3.723,4.143,7.476,6.199,11.224C39.613,57.329,39.436,57.428,39.259,57.526z
		 M19.5,116.784c-1.831-3.038-3.424-6.238-2.863-9.991c0.289-1.935,1.578-2.089,3.127-1.173
		C17.629,109.36,19.882,113.007,19.5,116.784z M21.13,128.183c0.642-3.082,3.444-2.562,5.196-3.786
		c0.136,0.192,0.273,0.384,0.409,0.576C24.866,126.043,22.998,127.113,21.13,128.183z M34.622,108.929
		c-1.22-1.207-0.963-1.783,0.312-2.991c0.621-0.588,0.63-1.822,1.063-3.251c0.802,3.558,1.505,6.673,2.147,9.519
		C37.229,111.359,35.888,110.182,34.622,108.929z M50.64,40.541c1.178,0.574,3.113-0.607,4.712-0.645
		c2.504-0.059,5.025,0.085,7.517,0.344c0.679,0.071,1.283,0.862,2.172,1.504c-0.309-1.76-0.719-2.645-2.56-2.63
		c-3.466,0.028-6.934-0.449-10.401-0.444c-2.595,0.003-5.969-3.629-4.564-6.337c7.191,0.683,14.42,3.307,22.319,0.986
		c-6.743-0.234-13.507,1.141-18.595-4.091c0.846-0.535,1.704-1.079,2.571-1.628c-1.521-1.112-2.724-1.99-3.926-2.869
		c0.149-0.242,0.298-0.484,0.447-0.726c0.586,0.188,1.171,0.376,2.024,0.65c-0.638-0.873-1.129-1.545-1.604-2.196
		c2.481-3.013,4.92-5.976,7.359-8.939c-0.2-0.178-0.401-0.357-0.601-0.535c-0.763,0.879-1.525,1.757-2.288,2.636
		c-0.092-0.047-0.184-0.094-0.276-0.141c0.304-0.562,0.505-1.223,0.931-1.67c2.065-2.17,4.092-4.393,6.332-6.372
		c1.274-1.126,2.663-2.132,4.82-1.478c1.271,0.385,2.9-0.623,4.377-0.662c5.145-0.135,10.164,0.47,15.243,3.565
		c-3.255-3.867-7.856-3.411-11.248-5.513c3.344-0.167,9.839,2.197,13.133,5.546c3.469,3.526,6.478,7.516,9.544,11.418
		c0.678,0.863,0.975,2.186,1.062,3.327c0.452,5.974,0.899,11.953,1.111,17.938c0.145,4.087-1.447,7.708-3.867,10.962
		c-0.705,0.948-1.493,1.369-2.514,0.345c-0.8-0.802-1.662-1.543-2.967-2.745c2.219,0,3.847,0,5.869,0
		c-0.509-0.557-0.887-0.81-0.85-0.958c0.231-0.933,0.671-1.92-1.005-1.055c-0.246,0.127-0.812,0.051-0.95-0.137
		c-0.173-0.236-0.216-0.844-0.042-1.016c2.079-2.061-0.306-2.856-1.228-3.83c-0.545-0.575-1.74-0.726-2.645-0.732
		c-3.459-0.024-6.749,0.647-9.84,2.369c-3.042,1.695-5.739,0.668-7.651-2.49c-0.278-0.459-1.151-0.557-1.569-0.742
		c-0.346,1.268-1.199,3.03-0.056,5.409c0.797,1.66,0.338,3.926,0.431,5.922c0.02,0.436,0.003,0.874,0.408,1.457
		c0.407-0.734,0.813-1.468,1.22-2.201c0.264,0.087,0.528,0.174,0.793,0.262c-0.39,1.086-0.781,2.171-1.171,3.257
		c-0.018,0.012-0.036,0.028-0.054,0.041c-1.493-0.357-2.979-0.779-4.494-1.034c-0.917-0.154-1.881-0.028-3.451-0.028
		c0.267-2.854,0.529-5.658,0.769-8.229c-1.217-0.61-2.202-1.105-3.188-1.597c-0.264-0.132-0.53-0.357-0.799-0.363
		c-1.543-0.036-3.094,0.07-4.63-0.044c-1.834-0.136-3.663-0.4-5.48-0.696c-0.909-0.148-1.786-0.489-2.729-0.757
		c0-0.009,0,0.306,0,0.474c-1.727-0.388-3.4-0.764-5.556-1.248C45.723,40.273,47.735,39.124,50.64,40.541z M89.087,61.46
		c1.722,0.922,1.403,2.083,0.213,3.206c-1.969,1.858-5.786,2.306-8.201,1.088c-1.486-0.75-1.96-1.835-0.582-2.862
		c1.6-1.191,3.486-1.999,5.247-2.973c-1.884,0.585-3.781,1.119-5.631,1.782c-1.133,0.406-2.015,2.339-3.412,0.869
		c-1.228-1.292-2.827-2.692-1.618-4.899c0.142-0.26,0.258-0.583,0.245-0.871c-0.177-4.186,2.478-7.544,6.528-8.223
		c4.191-0.703,9.46,1.991,10.069,5.617c0.372,2.213-0.296,4.601-0.49,6.824c-2.286-0.453-4.03-0.799-5.774-1.145
		C86.821,60.398,87.985,60.871,89.087,61.46z M65.508,65.902c-2.083-4.432-1.554-8.169,1.285-9.266
		c2.237-0.865,4.652,0.548,5.323,3.003c0.625,0.191,1.486,0.2,1.653,0.545c1.127,2.332,2.238,4.689,3.096,7.129
		c0.708,2.013-0.186,3.264-2.642,4.017c0.145-0.753,0.267-1.394,0.393-2.034c0.119-0.607,0.243-1.214,0.071-1.917
		c-0.566,1.407-1.035,2.866-1.738,4.201c-0.341,0.646-1.502,1.598-1.645,1.497c-1.53-1.083-4.781,0.937-4.64-3.036
		c-0.729,0.61-1.113,0.933-1.529,1.281c-1.466-2.488,0.741-4.028,2.1-6.357C66.247,65.5,65.879,65.7,65.508,65.902z M62.853,56.118
		c2.976-1.518,6.333-1.024,9.701-0.42c-0.216,0.161-0.432,0.397-0.65,0.4C68.818,56.128,65.731,56.118,62.853,56.118z M71.2,75.963
		c2.625-0.735,5.276-1.472,7.971-0.778c0.026,0.377,0.052,0.753,0.078,1.13c-2.768,0.34-5.537,0.68-8.665,1.063
		C70.842,76.753,70.932,76.038,71.2,75.963z M77.433,71.362c0.276-1.206,0.636-2.778,1.001-4.37
		c4.187,2.594,6.868,6.602,6.466,9.151C82.489,74.6,79.95,72.974,77.433,71.362z M44.315,61.151c-0.955-2.539-1.003-5.226,0.26-7.76
		c1.18-2.369,3.123-4.086,5.978-3.905c3.349,0.212,6.276,1.409,8.219,4.394c1.445,2.219,1.182,6.494-0.511,8.533
		c-1.544,1.86-2.595-0.227-3.744-0.403c0.341,1.123,1.26,2.65,0.861,3.174c-0.628,0.824-2.115,1.233-3.287,1.36
		c-3.621,0.393-5.648-0.713-7.148-3.868c1.592-0.735,3.181-1.469,5.115-2.363C48.055,60.605,46.347,60.854,44.315,61.151z
		 M45.531,94.384c2.991,2.567,5.899,5.063,8.725,7.489C49.348,101.925,47.25,100.167,45.531,94.384z M53.43,73.154
		c-0.016,0.706-1.235,1.401-1.942,2.068c-0.527,0.498-1.103,0.945-2.3,1.96c1.254-4.69-2.568-7.249-4.227-11.367
		c4.829,2.587,8.909,3.019,12.683-0.55c0.182,0.137,0.363,0.275,0.544,0.412c-1.113,1.578-2.08,3.292-3.391,4.684
		C53.98,71.227,53.459,71.858,53.43,73.154z M93.876,73.574c-0.015,0.544,0.085,1.168-0.141,1.618
		c-4.693,9.372-11.003,16.966-21.932,19.129c-1.999,0.395-4.143,0.056-6.225-0.46c2.11-0.175,4.22-0.351,6.33-0.526
		c-0.016-0.221-0.032-0.441-0.047-0.662c-2.866,0.325-5.76,1.04-8.587,0.833c-1.802-0.132-3.504-1.628-5.252-2.513
		c0.101-0.215,0.201-0.43,0.302-0.645c1.49,0.225,2.981,0.451,5.003,0.757c-2.585-2.461-2.585-2.461-2.211-5.443
		c1.401,0.069,2.809,0.138,4.558,0.224c-0.533-0.747-0.899-1.261-1.292-1.811c1.965-0.369,3.852-0.724,5.74-1.079
		c-0.013-0.282-0.025-0.565-0.038-0.847c-0.761-0.046-1.523-0.076-2.282-0.141c-1.491-0.127-3.005-0.162-4.458-0.474
		c-0.472-0.101-0.784-0.948-1.169-1.454c0.54-0.28,1.134-0.867,1.61-0.783c1.616,0.283,3.209,1.2,4.776,1.129
		c1.765-0.08,3.463-1.133,5.245-1.463c1.988-0.369,4.039-0.401,6.062-0.58c-0.081,0.157-0.161,0.314-0.242,0.471
		c-1.84,1.02-3.679,2.041-5.682,3.151c2.437,1.116,4.323-2.95,6.519-0.068c1.67-0.777,3.273-1.884,5.029-2.243
		c1.96-0.401,1.872-1.459,1.553-2.789c-0.867-3.615-3.438-6.114-5.848-8.705c-0.584-0.628-1.253-1.176-2.313-2.162
		c3.592,1.146,6.783,1.939,9.617,0.129c1.678-1.072,3.686-2.821,4.02-4.558c0.731-3.812,4.436-5.294,5.56-8.647
		c1.054,3.726,0.549,7.268-1.389,10.334C94.658,66.513,93.975,69.919,93.876,73.574z M96.175,71.174
		c0.232-0.87,0.385-1.71,0.677-2.499c2.01-5.418,3.123-11.006,3.38-16.781c0.122-2.729,1.72-4.783,3.717-6.371
		c2.043-1.625,4.965-0.417,5.846,2.117c1.431,4.113-0.53,7.568-2.258,10.971c-1.8,3.546-4.029,6.871-5.905,10.381
		C100.418,71.266,98.735,71.888,96.175,71.174z"/>
	<path d="M83.208,37.73c2.474-1.022,4.846-1.751,7.624,0.078c-1.88-2.867-1.881-2.867-6.13-2.305
		c1.019,0.165,1.705,0.277,2.691,0.437c-3.632,0.947-6.919,1.803-9.921,2.586C79.252,39.771,81.28,38.526,83.208,37.73z"/>
	<path d="M67.914,19.995c-0.496,0-1.112,0-1.799,0C66.803,20.107,67.414,20.139,67.914,19.995z"/>
	<path d="M56.956,19.401c0.021,0.198,0.043,0.396,0.064,0.595c3.368,0,6.722,0,9.094,0C63.725,19.608,60.341,18.212,56.956,19.401z"
		/>
	<path d="M65.557,8.3c2.701-0.297,5.261-0.578,7.895-0.868C70.68,6.512,68.108,6.695,65.557,8.3z"/>
	<path d="M102.008,54.289c-0.166,0.131-0.333,0.263-0.499,0.394c-0.056-0.957-0.112-1.914-0.169-2.871
		c-0.115,0.015-0.229,0.029-0.344,0.044c0.204,3.671,0.408,7.343,0.603,10.857c1.63-1.377,4.026-2.9,3.123-5.97
		C104.429,55.745,102.946,55.097,102.008,54.289z"/>
	<path d="M108.43,54.809c1.79-4.011,0.09-9.163-3.447-8.954C108.099,48.127,109.242,51.079,108.43,54.809z"/>
</g>
<g>
</g>
<g>
</g>
<g>
</g>
<g>
</g>
<g>
</g>
<g>
</g>
<g>
</g>
<g>
</g>
<g>
</g>
<g>
</g>
<g>
</g>
<g>
</g>
<g>
</g>
<g>
</g>
<g>
</g>
</svg>
