<?xml version="1.0" encoding="iso-8859-1"?>
<!-- Generator: Adobe Illustrator 19.1.0, SVG Export Plug-In . SVG Version: 6.00 Build 0)  -->
<svg version="1.1" id="Capa_1" xmlns="http://www.w3.org/2000/svg" xmlns:xlink="http://www.w3.org/1999/xlink" x="0px" y="0px"
	 viewBox="0 0 159.85 159.85" style="enable-background:new 0 0 159.85 159.85;" xml:space="preserve">
<g>
	<path d="M136.116,114.899c-10.203-4.487-20.53-8.691-30.624-13.43c-1.695-0.796-2.131-2.232-2.976-3.75c0.806,0,1.364,0,1.922,0
		c0.259,0,0.517-0.011,0.776-0.002c7.789,0.265,13.027-3.599,16.206-10.384c1.755-3.745,3.717-7.373,5.554-11.07
		c1.633-3.285,3.775-6.35,4.003-10.231c0.088-1.494,0.184-3.003,0.337-4.5c0.371-3.62,0.371-7.326-0.4-10.799
		c-1.513-6.817-3.102-13.679-7.032-19.685c-1.505-2.3-2.441-4.998-4.292-7.046c-2.916-3.228-5.63-6.632-8.68-9.743
		c-3.819-3.895-7.438-8.043-13.149-9.231c-0.042-0.009-0.08-0.032-0.12-0.047c-3.436-1.233-6.813-2.651-10.62-2.258
		c-1.847,0.191-3.674-0.219-5.475-0.717c-2.321-0.642-4.691-1.112-7.006-1.775c-1.355-0.388-2.556-0.278-3.866,0.231
		c-9.148,3.552-18.314,7.061-27.493,10.531c-1.097,0.415-1.997,0.737-2.111,2.137c-0.07,0.861-0.77,1.517-1.379,2.135
		c-1.278,1.298-2.774,2.31-4.303,3.283c-1.598,1.016-3.263,1.933-4.683,3.209c-0.893,0.802-1.636,1.736-1.651,2.965
		c-0.036,2.777-1.17,5.185-2.417,7.549c-1.145,2.17-2.383,4.291-3.598,6.423c-0.712,1.249-0.779,2.351,0.28,3.522
		c1.069,1.182,1.467,2.703,1.539,4.294c0.07,1.558-0.131,3.086-0.409,4.618c-0.43,2.362-1.329,4.685-1.111,7.109
		c0.329,3.647,2.204,6.648,4.478,9.401c0.41,0.496,0.675,0.911,0.662,1.573c-0.04,2.025,0.034,4.052-0.032,6.075
		c-0.034,1.02,0.248,1.631,1.208,2.136c3.314,1.745,6.573,3.594,9.844,5.42c1.362,0.76,2.796,1.334,4.292,1.749
		c1.644,0.456,1.649,0.437,1.209,2.066c-0.506,1.874,0.8,5.286,2.421,6.042c0.741,0.346,1.127,0.835,1.386,1.557
		c0.526,1.464,1.291,2.811,2.084,4.146c1.392,2.341,3.314,4.292,4.868,6.642c-0.264,0.133-0.447,0.251-0.647,0.324
		c-8.451,3.064-16.832,6.328-25.404,9.049c-1.323,0.42-2.152,1.17-2.747,2.321c-1.562,3.022-1.823,6.259-1.481,9.565
		c0.624,6.037,2.688,11.627,5.359,17.029c2.514,5.084,6.333,8.861,11.341,11.46c6.522,3.385,13.564,4.643,20.812,4.966
		c7.247,0.323,14.45-0.271,21.655-1.039c5.494-0.586,10.788-1.561,15.553-4.61c5.586-3.574,11.233-7.056,16.917-10.472
		c3.024-1.818,6.162-3.45,9.737-3.992c1.304-0.198,2.446-0.827,3.454-1.669c2.298-1.921,3.58-4.482,4.498-7.26
		c1.467-4.439,2.009-9.044,2.504-13.666C137.43,115.929,137.2,115.375,136.116,114.899z M94.279,128.208
		c-0.323,0.025-0.622-0.114-0.664-0.473c-0.042-0.361,0.206-0.553,0.542-0.594c0.349-0.042,0.568,0.142,0.673,0.478
		C94.825,127.978,94.612,128.182,94.279,128.208z M94.508,130.793c-0.022,0.368-0.248,0.529-0.582,0.528
		c-0.364-0.001-0.711-0.113-0.67-0.558c0.031-0.343,0.327-0.449,0.651-0.457C94.252,130.297,94.474,130.426,94.508,130.793z
		 M92.743,118.755c-1.755-3.495-3.467-7.013-5.268-10.485c-0.421-0.811-0.361-1.312,0.333-1.861
		c0.468-0.371,0.872-0.832,1.265-1.287c2.344-2.713,5.168-4.76,8.661-6.166c-0.901,2.694-1.693,5.32-2.665,7.878
		c-0.667,1.756-0.61,3.43-0.083,5.168c0.564,1.86,1.339,3.63,2.2,5.365c0.212,0.427,0.454,0.825,0.257,1.335
		c-0.633,1.635-1.23,3.285-2.183,4.962C94.379,121.949,93.548,120.358,92.743,118.755z M90.082,130.391
		c0.34,0.233,1.024-0.018,1.016,0.689c-0.003,0.28-0.227,0.435-0.518,0.471c-0.814,0.101-0.637-0.597-0.819-1.006
		c-0.967-0.095-1.391,0.791-2.255,1.056c0.223,0.21,0.297,0.327,0.401,0.37c0.354,0.149,0.795,0.215,0.659,0.766
		c-0.056,0.228-0.232,0.358-0.471,0.374c-0.454,0.03-0.748-0.14-0.781-0.635c-0.055-0.84-0.534-0.431-0.874-0.269
		c-1.092,0.519-2.223,0.928-3.379,1.275c-0.639,0.192-0.848,0.049-0.734-0.658c0.89-5.522,1.751-11.049,2.633-16.573
		c0.038-0.24,0.152-0.626,0.299-0.662c0.437-0.106,0.674,0.289,0.909,0.588c1.658,2.115,2.798,4.54,4.073,6.882
		c0.556,1.02,1.049,2.075,1.613,3.09c0.444,0.799,1.007,1.51-0.113,2.28c-0.478,0.329-0.066,0.549,0.338,0.577
		c0.309,0.021,0.641,0.032,0.635,0.448c-0.002,0.142-0.125,0.342-0.25,0.409c-0.281,0.152-0.629,0.152-0.837-0.098
		c-0.966-1.158-1.2-0.114-1.582,0.505C90.056,130.312,90.054,130.372,90.082,130.391z M90.389,133.619
		c0.006,0.43-0.343,0.522-0.689,0.557c-0.338-0.053-0.584-0.218-0.552-0.57c0.031-0.345,0.295-0.49,0.626-0.481
		C90.098,133.133,90.385,133.27,90.389,133.619z M88.118,135.227c-0.002,0.336-0.285,0.482-0.61,0.507
		c-0.315-0.023-0.613-0.122-0.632-0.476c-0.018-0.33,0.197-0.539,0.545-0.558C87.799,134.68,88.12,134.809,88.118,135.227z
		 M85.203,133.992c0.014-0.366,0.335-0.446,0.627-0.505c0.351,0.009,0.596,0.153,0.601,0.519c0.005,0.351-0.199,0.549-0.556,0.558
		C85.486,134.573,85.186,134.422,85.203,133.992z M85.784,136.374c-0.027,0.387-0.342,0.587-0.732,0.544
		c-0.338-0.038-0.546-0.258-0.509-0.614c0.038-0.366,0.317-0.47,0.629-0.5C85.473,135.905,85.809,136.031,85.784,136.374z
		 M84.337,134.827c-0.031,0.339-0.219,0.518-0.563,0.534c-0.328,0.015-0.594-0.101-0.653-0.443c-0.078-0.451,0.25-0.6,0.603-0.609
		C84.032,134.3,84.278,134.474,84.337,134.827z M83.027,137.195c-0.011,0.346-0.258,0.502-0.554,0.52
		c-0.363-0.003-0.639-0.109-0.682-0.463c-0.056-0.47,0.299-0.56,0.649-0.566C82.759,136.681,83.039,136.827,83.027,137.195z
		 M92.203,131.904c0.328,0.035,0.518,0.236,0.546,0.577c-0.083,0.329-0.305,0.491-0.634,0.486c-0.33-0.005-0.601-0.176-0.594-0.513
		C91.528,132.063,91.808,131.862,92.203,131.904z M95.629,125.002c0.337-0.023,0.557,0.153,0.64,0.464
		c-0.036,0.379-0.245,0.557-0.584,0.573c-0.335,0.015-0.599-0.123-0.622-0.486C95.041,125.184,95.303,125.025,95.629,125.002z
		 M96.094,128.553c0.316,0,0.573,0.15,0.622,0.515c-0.041,0.342-0.241,0.559-0.573,0.569c-0.38,0.012-0.674-0.19-0.677-0.596
		C95.465,128.665,95.787,128.552,96.094,128.553z M96.683,123.47c0.005-0.377,0.293-0.471,0.618-0.478
		c0.328,0.014,0.628,0.159,0.639,0.487c0.014,0.418-0.32,0.542-0.699,0.537C96.88,124.01,96.678,123.81,96.683,123.47z
		 M97.662,126.321c0.195,0.016,0.467,0.184,0.471,0.518c0.005,0.416-0.32,0.595-0.698,0.563c-0.314-0.027-0.598-0.213-0.544-0.576
		C96.939,126.512,97.166,126.304,97.662,126.321z M97.89,121.294c-0.042-0.393,0.224-0.629,0.617-0.635
		c0.326-0.005,0.571,0.146,0.595,0.599c0.004,0.289-0.217,0.459-0.549,0.481C98.232,121.763,97.926,121.629,97.89,121.294z
		 M101.039,113.23c0.323,0.003,0.57,0.118,0.603,0.487c-0.03,0.355-0.248,0.525-0.578,0.529c-0.369,0.004-0.682-0.133-0.658-0.567
		C100.427,113.308,100.726,113.227,101.039,113.23z M100.851,111.752c-0.001-0.402,0.314-0.58,0.696-0.56
		c0.338,0.017,0.536,0.213,0.553,0.561c-0.044,0.379-0.313,0.497-0.625,0.5C101.153,112.254,100.851,112.09,100.851,111.752z
		 M100.53,114.962c0.332-0.007,0.606,0.133,0.616,0.508c0.01,0.38-0.254,0.511-0.593,0.531c-0.338-0.004-0.612-0.113-0.615-0.499
		C99.936,115.132,100.195,114.969,100.53,114.962z M100.104,116.62c0.342-0.011,0.543,0.199,0.631,0.508
		c-0.034,0.374-0.28,0.551-0.591,0.573c-0.311,0.022-0.626-0.125-0.671-0.46C99.416,116.818,99.721,116.633,100.104,116.62z
		 M99.817,119.037c-0.036,0.378-0.35,0.42-0.636,0.458c-0.323-0.064-0.578-0.182-0.56-0.562c0.018-0.372,0.255-0.506,0.587-0.505
		C99.603,118.43,99.858,118.613,99.817,119.037z M99.34,124.381c0.396-0.003,0.675,0.175,0.656,0.588
		c-0.017,0.37-0.353,0.422-0.56,0.479c-0.424-0.026-0.7-0.178-0.688-0.526C98.759,124.605,98.983,124.384,99.34,124.381z
		 M99.945,122.836c0.039-0.365,0.366-0.396,0.566-0.482c0.378,0.098,0.66,0.216,0.628,0.583c-0.029,0.331-0.246,0.531-0.588,0.517
		C100.171,123.439,99.899,123.258,99.945,122.836z M100.648,121.06c-0.047-0.374,0.212-0.528,0.547-0.536
		c0.315-0.008,0.613,0.077,0.637,0.458c0.022,0.359-0.221,0.52-0.555,0.578C100.957,121.539,100.691,121.401,100.648,121.06z
		 M101.72,119.742c-0.313-0.008-0.614-0.136-0.608-0.498c0.006-0.408,0.293-0.577,0.685-0.55c0.339,0.023,0.538,0.199,0.547,0.56
		C102.279,119.595,102.044,119.75,101.72,119.742z M102.192,117.805c-0.331,0.002-0.602-0.1-0.61-0.48
		c-0.008-0.365,0.239-0.511,0.608-0.539c0.273,0.024,0.591,0.08,0.637,0.444C102.884,117.68,102.575,117.803,102.192,117.805z
		 M102.657,116.012c-0.342,0.006-0.573-0.174-0.584-0.522c-0.012-0.366,0.242-0.503,0.574-0.526
		c0.334-0.015,0.637,0.134,0.665,0.447C103.345,115.8,103.044,116.005,102.657,116.012z M103.167,114.249
		c-0.397,0.008-0.669-0.191-0.615-0.597c0.044-0.333,0.344-0.445,0.666-0.426c0.333,0.02,0.542,0.186,0.576,0.532
		C103.724,114.102,103.489,114.243,103.167,114.249z M103.424,112.562c-0.316,0.029-0.607-0.109-0.647-0.454
		c-0.048-0.414,0.231-0.616,0.61-0.629c0.334-0.012,0.539,0.19,0.599,0.511C103.975,112.368,103.736,112.533,103.424,112.562z
		 M103.359,107.95c0.342-0.008,0.575,0.147,0.613,0.539c-0.123,0.361-0.389,0.501-0.779,0.498c-0.355-0.003-0.447-0.208-0.432-0.494
		C102.78,108.127,103.018,107.958,103.359,107.95z M103.022,109.632c0.213-0.126,0.5-0.01,0.669,0.231
		c0.14,0.2,0.14,0.401-0.019,0.582c-0.181,0.205-0.441,0.348-0.679,0.196c-0.503-0.319-0.913-0.416-1.459-0.003
		c-0.239,0.181-0.673-0.125-0.652-0.551c0.018-0.359,0.314-0.47,0.739-0.47C102.024,110.044,102.5,109.943,103.022,109.632z
		 M105.764,67.455c0.92-1.866,1.322-1.989,3.252-1.247c0.12,0.046,0.235,0.107,0.355,0.153c1.969,0.754,1.969,0.754,1.46,2.946
		c-1.948-2.312-1.556-2.252-3.572-0.286c-0.398,0.388-0.802,0.77-1.302,1.251C105.738,69.298,105.307,68.381,105.764,67.455z
		 M42.013,64.734c0-1.249-0.007-2.122,0.003-2.994c0.004-0.332,0.177-0.601,0.515-0.62c0.305-0.018,0.385,0.288,0.47,0.526
		C43.388,62.735,42.987,63.608,42.013,64.734z M42.911,58.612c-0.129,0.143-0.353,0.2-0.686,0.377c0-0.421-0.024-0.635,0.005-0.842
		c0.05-0.361-0.145-0.808,0.291-1.037c0.076-0.04,0.308,0.104,0.395,0.218C43.237,57.747,43.282,58.202,42.911,58.612z
		 M42.638,55.593c-0.209-0.803-0.215-1.342,0.151-1.961C43.39,54.297,43.349,54.841,42.638,55.593z M43.009,50.789
		c0.17-0.74,0.339-1.479,0.58-2.53C44.044,49.465,43.915,50.21,43.009,50.789z M55.566,101.548c-0.601-0.162-1.13-0.355-1.534-0.862
		c-1.041-1.306-1.835-2.781-2.792-4.145c-1.745-2.487-2.573-5.41-2.812-8.47c-0.046-0.587-0.21-1.165-0.36-1.968
		c-0.472,0.966-0.505,1.771-0.512,2.575c-0.004,0.492-0.141,0.854-0.675,0.926c-0.506,0.068-0.653-0.328-0.807-0.684
		c-0.291-0.672-0.317-1.398,0.047-2.001c0.51-0.844,0.364-1.606,0.048-2.44c-0.196-0.517-0.442-1.101-0.375-1.617
		c0.513-3.964-0.715-7.695-1.539-11.462c-0.538-2.461-0.48-4.75,0.618-7.031c1.215-2.526,0.697-5.346,1.252-7.99
		c0.996-4.747,0.385-9.523,0.21-14.289c-0.022-0.594,0.075-1.084,0.39-1.579c1.411-2.215,2.815-4.434,4.192-6.671
		c0.334-0.543,0.781-0.863,1.337-1.148c3.181-1.636,6.809-2.084,9.966-3.855c0.985-0.553,2.452-0.374,3.689-0.318
		c1.476,0.067,2.714-0.344,3.77-1.32c1.338-1.237,2.705-1.339,4.117-0.177c0.816,0.672,1.745,0.447,2.604,0.301
		c3.542-0.6,6.932-0.077,10.274,1.124c1.5,0.539,2.835,1.209,3.606,2.704c0.277,0.536,0.681,1.001,1.267,1.248
		c1.976,0.833,2.604,2.599,3.118,4.459c0.611,2.212,0.663,4.357-0.163,6.575c-0.778,2.089-1.257,4.289-1.887,6.435
		c-0.197,0.671-0.117,1.161,0.412,1.725c3.275,3.492,5.789,7.563,7.658,11.893c0.822,1.903,0.961,4.563-1.016,6.462
		c-0.402,0.386-0.755,0.828-1.101,1.267c-0.198,0.251-0.594,0.518-0.298,0.876c0.24,0.291,0.649,0.189,0.973,0.069
		c1.332-0.493,2.666-0.984,3.98-1.521c0.598-0.244,0.881-0.142,0.946,0.526c0.062,0.64,0.191,1.274,0.271,1.913
		c0.118,0.94,0.077,1.82-0.95,2.294c-0.112,0.052-0.21,0.154-0.291,0.253c-0.464,0.569-1.136,1.296-0.647,1.92
		c0.603,0.769,1.175-0.193,1.725-0.481c0.493-0.258,0.912-0.683,1.424-0.872c0.71-0.263,1.589-0.632,2.159,0.104
		c0.555,0.716,0.769,1.63,0.278,2.543c-1.329,2.469-2.204,5.109-2.988,7.789c-0.463,1.582-1.61,2.43-2.99,2.358
		c-1.046-0.055-1.481-0.949-2.169-1.5c-0.319-0.256-0.532-0.818-1.017-0.645c-0.397,0.141-0.282,0.684-0.343,1.034
		c-0.317,1.819-0.541,3.653-0.85,5.473c-0.411,2.417-0.446,2.425-3.046,2.486c-0.136-0.435,0.186-0.725,0.366-1.039
		c0.786-1.368,0.444-2.705-0.951-3.502c-0.663-0.379-1.177-0.311-1.578,0.461c-1.436,2.764-3.691,4.855-5.907,6.956
		c-1.137,1.078-3.525,1.026-4.774,0.018c-0.823-0.665-1.228-0.88-2.301,0.093c-5.6,5.08-12.391,6.926-19.78,3.477
		c-1.035-0.483-1.659-1.32-1.998-2.408c-0.653-2.096-0.925-4.16-0.031-6.286c0.427-1.017,0.679-2.1,0.519-3.275
		c-0.118-0.868,0.617-1.184,1.369-1.148c1.074,0.051,2.142,0.214,3.214,0.312c0.336,0.031,0.758,0.186,0.994-0.084
		c0.358-0.41-0.37-0.595-0.292-1.228c3.486,0.688,6.955,0.641,10.506,0.573c-0.294,0.796-1.043,0.801-1.405,1.265
		c-0.13,0.166-0.36,0.303-0.271,0.541c0.127,0.343,0.428,0.207,0.651,0.14c1.195-0.362,2.389-0.725,3.571-1.125
		c0.583-0.197,1.003-0.173,1.202,0.503c0.76,2.585,2.284,4.721,4.057,6.74c-0.083-1.203-0.459-2.407-1.126-3.31
		c-1.386-1.878-0.392-3.723-0.18-5.545c0.12-1.023,1.96-1.39,2.972-0.798c0.458,0.268,0.897,1.25,1.434,0.544
		c0.514-0.675,0.065-1.559-0.51-2.201c-0.168-0.188-0.409-0.313-0.627-0.452c-4.112-2.628-7.107-6.212-9.119-10.64
		c-0.231-0.508-0.558-0.977-0.753-1.497c-0.595-1.579-1.918-1.963-3.385-2.146c-0.417-0.052-0.809-0.058-0.837,0.501
		c-0.021,0.437-0.014,0.897,0.552,1.015c0.294,0.061,0.602,0.054,0.897,0.112c1.439,0.28,2.2,1.412,1.955,2.845
		c-0.112,0.658-0.468,0.813-0.995,0.49c-1.983-1.218-4.092-1.441-6.332-0.931c-0.448,0.102-0.952,0.068-1.412-0.01
		c-1.451-0.246-2.189,0.731-2.971,1.654c-0.283,0.334-0.162,0.64,0.08,0.926c0.623,0.739,1.326,1.366,2.333,1.495
		c0.565,0.072,1.113,0.198,1.579,0.52c0.666,0.461,1.291,0.335,1.933-0.023c0.334-0.186,0.673-0.505,1.016-0.513
		c2.533-0.057,4.401-1.266,5.88-3.506c1.447,3.962,3.383,7.488,3.774,11.548c0.092,0.95-0.061,1.153-0.989,0.791
		c-1.921-0.75-3.891-1.37-5.811-2.122c-1.121-0.439-2.15-0.415-3.228,0.096c-0.398,0.189-0.831,0.429-1.342,0.13
		c-2.428-1.42-4.435-0.116-6.44,1.062c-0.499,0.293-0.925,0.709-1.633,1.263c0.087-1.047,0.915-1.095,1.147-1.741
		C58.956,86.184,58.17,86,57.905,85.01c-0.224-0.837-0.141-1.613,0.023-2.417c0.269-1.315,0.546-2.688,1.344-3.745
		c1.187-1.573,1.359-3.367,1.583-5.181c0.042-0.344,0.287-0.836-0.17-1.034c-0.417-0.181-0.556,0.32-0.742,0.568
		c-2.412,3.203-4.697,6.488-6.312,10.184c-1.048,2.399-0.276,3.901,2.281,4.229c0.752,0.097,1.032,0.386,1.21,1.028
		c0.442,1.585,0.593,3.258-0.231,4.655c-1.43,2.425-1.253,4.817-0.375,7.274C56.927,101.719,56.545,101.812,55.566,101.548z
		 M77.085,137.596c0.328,0.03,0.608,0.19,0.616,0.515c0.01,0.412-0.316,0.57-0.688,0.54c-0.313-0.026-0.59-0.189-0.546-0.552
		C76.505,137.774,76.751,137.606,77.085,137.596z M76.353,136.363c-0.333-0.058-0.646-0.129-0.695-0.474
		c-0.063-0.436,0.256-0.591,0.617-0.604c0.32-0.011,0.588,0.156,0.605,0.503C76.897,136.142,76.603,136.259,76.353,136.363z
		 M72.508,133.737c-0.813-0.176-0.959-0.543-0.88-1.354c0.508-5.224,0.943-10.455,1.433-16.031c1.998,2.565,3.82,4.896,5.628,7.238
		c0.237,0.306,0.381,0.677,0.379,1.08c-0.013,2.925,0.177,5.854-0.256,8.769c-0.099,0.664-0.44,0.819-1.05,0.836
		C75.984,134.325,74.243,134.113,72.508,133.737z M74.803,137.6c0.349-0.029,0.54,0.179,0.633,0.488
		c-0.01,0.373-0.238,0.538-0.561,0.569c-0.323,0.031-0.623-0.1-0.678-0.434C74.126,137.802,74.431,137.631,74.803,137.6z
		 M73.683,136.324c-0.343,0.005-0.675-0.148-0.651-0.579c0.02-0.356,0.319-0.487,0.615-0.5c0.322-0.015,0.549,0.164,0.576,0.519
		C74.233,136.136,73.986,136.32,73.683,136.324z M58.147,126.798c-0.262-0.076-0.383-0.339-0.273-0.62
		c0.104-0.265,0.334-0.365,0.546-0.368c0.286,0.03,0.624,0.214,0.568,0.296c-0.692,1.008,0.905,1.34,0.616,2.172
		c-0.078,0.225-0.401,0.298-0.672,0.199c-0.322-0.117-0.546-0.374-0.367-0.682C58.893,127.225,58.735,126.968,58.147,126.798z
		 M57.206,112.865c0.313-0.014,0.601,0.133,0.622,0.493c0.021,0.352-0.218,0.523-0.546,0.577c-0.332,0.007-0.615-0.122-0.679-0.448
		C56.519,113.049,56.844,112.881,57.206,112.865z M56.775,111.173c-0.014-0.387,0.248-0.526,0.584-0.538
		c0.33-0.012,0.615,0.087,0.636,0.478c0.021,0.391-0.248,0.511-0.583,0.539C57.095,111.63,56.789,111.575,56.775,111.173z
		 M56.863,114.954c0.35-0.203,0.672-0.109,0.918,0.183c0.162,0.192,0.24,0.46,0.562,0.454c0.441-0.009,0.978-0.009,0.904,0.598
		c-0.072,0.587-0.622,0.445-1.042,0.421c-0.176-0.01-0.183,0.123-0.205,0.243c-0.306,0.836,0.303,0.538,0.664,0.528
		c0.35-0.009,0.705-0.036,0.851,0.381c0.082,0.234-0.024,0.433-0.23,0.535c-0.339,0.168-0.702,0.137-0.927-0.169
		c-0.214-0.291-0.342-0.534-0.795-0.381c-0.408,0.138-0.98,0.143-0.963-0.454c0.016-0.552,0.524-0.566,0.989-0.449
		c0.108,0.027,0.235-0.025,0.354-0.041c0.01-0.697,0.017-0.73-0.633-0.865c-0.321-0.067-0.585-0.145-0.703-0.46
		C56.516,115.235,56.674,115.064,56.863,114.954z M66.354,117.75c-0.284-1.125-0.602-2.241-0.92-3.357
		c-0.143-0.503-0.435-1.061,0.471-1.078c0.603-0.011,1.432-0.509,1.518,0.687c0.132,1.845,0.323,3.687,0.436,5.534
		c0.233,3.824,0.432,7.65,0.641,11.475c0.016,0.284,0.002,0.569,0.002,1.087c-3.295-2.027-5.514-4.659-6.834-8.044
		c-1.235-3.165-1.497-6.52-1.801-9.859c-0.182-2-0.282-4.007-0.419-6.01c1.527,0.907,2.612,2.073,2.971,3.938
		c0.332,1.723,0.976,3.387,1.488,5.075c0.112,0.371,0.212,0.751,0.376,1.099c0.403,0.855,1.293,1.24,2.014,1.031
		C66.977,119.135,66.491,118.294,66.354,117.75z M62.021,127.117c-0.032,0.412-0.28,0.584-0.583,0.612
		c-0.388,0.036-0.659-0.157-0.63-0.588c0.024-0.351,0.253-0.52,0.599-0.493C61.727,126.674,61.951,126.836,62.021,127.117z
		 M57.03,119.658c-0.274,0.009-0.458-0.208-0.445-0.54c0.224-0.494,0.703-0.623,1.022-0.285c0.39,0.414,0.678,0.675,1.265,0.432
		c0.249-0.103,0.499,0.093,0.614,0.35c0.098,0.22,0.029,0.428-0.169,0.562c-0.227,0.154-0.603,0.242-0.703,0.026
		C58.252,119.428,57.637,119.639,57.03,119.658z M57.816,121.081c-0.048,0.35-0.318,0.499-0.653,0.461
		c-0.318-0.035-0.603-0.185-0.558-0.558c0.043-0.361,0.349-0.443,0.665-0.462C57.598,120.569,57.867,120.704,57.816,121.081z
		 M59.153,121.097c0.329-0.005,0.575,0.153,0.595,0.529c-0.052,0.348-0.236,0.535-0.604,0.522c-0.348-0.012-0.601-0.169-0.601-0.525
		C58.543,121.26,58.83,121.101,59.153,121.097z M59.679,122.87c0.303,0.035,0.572,0.166,0.536,0.609
		c-0.05,0.3-0.312,0.454-0.614,0.444c-0.363-0.012-0.664-0.196-0.59-0.632C59.072,122.937,59.369,122.834,59.679,122.87z
		 M60.188,124.831c0.344,0.002,0.567,0.163,0.564,0.576c-0.044,0.357-0.323,0.427-0.642,0.424c-0.352-0.004-0.568-0.172-0.555-0.546
		C59.569,124.872,59.88,124.829,60.188,124.831z M57.268,122.289c0.343,0.02,0.596,0.177,0.56,0.553
		c-0.037,0.384-0.348,0.462-0.669,0.446c-0.337-0.017-0.554-0.192-0.596-0.509C56.682,122.392,56.936,122.27,57.268,122.289z
		 M57.754,124.053c0.343,0.023,0.604,0.161,0.576,0.543c-0.028,0.38-0.314,0.477-0.649,0.462c-0.345-0.015-0.607-0.179-0.585-0.54
		C57.119,124.147,57.424,124.054,57.754,124.053z M60.184,128.975c0.328,0.012,0.601,0.118,0.548,0.741
		c-0.024,0.182-0.299,0.248-0.626,0.244c-0.35-0.004-0.589-0.131-0.564-0.527C59.567,129.024,59.867,128.963,60.184,128.975z
		 M61.278,130.576c0.393,0,0.673,0.172,0.644,0.585c-0.024,0.341-0.303,0.475-0.63,0.484c-0.32-0.045-0.599-0.179-0.588-0.532
		C60.714,130.792,60.918,130.576,61.278,130.576z M61.889,128.837c0.01-0.375,0.302-0.483,0.614-0.475
		c0.314,0.008,0.569,0.139,0.596,0.509c-0.016,0.355-0.213,0.534-0.557,0.542C62.154,129.421,61.877,129.26,61.889,128.837z
		 M62.775,132.049c0.324,0.032,0.59,0.218,0.544,0.59c-0.044,0.355-0.324,0.473-0.596,0.499c-0.389-0.075-0.635-0.233-0.594-0.609
		C62.169,132.161,62.447,132.017,62.775,132.049z M63.304,130.5c0.011-0.379,0.31-0.45,0.634-0.459
		c0.347-0.009,0.56,0.129,0.61,0.418c-0.071,0.434-0.311,0.552-0.647,0.544C63.565,130.995,63.294,130.869,63.304,130.5z
		 M64.083,133.495c0.331-0.038,0.574,0.126,0.675,0.433c0.007,0.405-0.223,0.579-0.549,0.623c-0.34,0.045-0.61-0.105-0.659-0.461
		C63.498,133.718,63.758,133.532,64.083,133.495z M64.666,131.91c0.052-0.351,0.323-0.458,0.626-0.498
		c0.312,0.08,0.596,0.22,0.589,0.566c-0.009,0.436-0.35,0.547-0.711,0.516C64.845,132.466,64.612,132.279,64.666,131.91z
		 M66,134.918c0.332,0.035,0.601,0.171,0.58,0.541c-0.021,0.375-0.31,0.467-0.64,0.462c-0.346-0.005-0.606-0.142-0.569-0.52
		C65.406,135.06,65.644,134.889,66,134.918z M66.294,133.5c-0.057-0.349,0.141-0.581,0.468-0.617
		c0.358-0.039,0.675,0.096,0.713,0.518c0.034,0.373-0.242,0.493-0.542,0.57C66.603,133.968,66.35,133.842,66.294,133.5z
		 M67.574,136.058c0.287,0.026,0.589,0.136,0.621,0.479c0.039,0.427-0.279,0.594-0.653,0.593c-0.332-0.001-0.6-0.211-0.601-0.536
		C66.94,136.266,67.205,136.085,67.574,136.058z M68.193,134.613c0.006-0.418,0.349-0.538,0.72-0.511
		c0.342,0.024,0.554,0.216,0.522,0.574c-0.033,0.376-0.306,0.462-0.633,0.448C68.468,135.107,68.188,134.944,68.193,134.613z
		 M69.718,137.036c0.32,0.008,0.564,0.128,0.626,0.417c-0.021,0.43-0.25,0.584-0.579,0.586c-0.359,0.003-0.7-0.085-0.673-0.542
		C69.112,137.131,69.394,137.028,69.718,137.036z M70.339,135.196c0.051-0.347,0.265-0.503,0.604-0.493
		c0.387,0.012,0.659,0.18,0.609,0.606c-0.042,0.366-0.344,0.453-0.651,0.425C70.594,135.706,70.333,135.577,70.339,135.196z
		 M72.115,137.272c0.322,0.021,0.578,0.135,0.563,0.526c-0.03,0.37-0.259,0.507-0.596,0.505c-0.394-0.001-0.669-0.163-0.62-0.597
		C71.502,137.338,71.795,137.251,72.115,137.272z M78.74,135.243c0.31,0.017,0.562,0.176,0.614,0.513
		c-0.038,0.383-0.298,0.533-0.606,0.559c-0.32,0.027-0.614-0.115-0.645-0.469C78.065,135.422,78.349,135.223,78.74,135.243z
		 M79.879,137.257c0.344,0.034,0.578,0.177,0.549,0.565c-0.029,0.389-0.297,0.503-0.628,0.482c-0.335-0.021-0.587-0.184-0.562-0.563
		C79.264,137.353,79.562,137.281,79.879,137.257z M29.481,118.815c0.344-0.978,1.081-1.317,1.994-1.611
		c5.615-1.805,11.047-4.089,16.478-6.372c0.507-0.213,1.018-0.415,1.629-0.663c0.074,0.925,0.081,1.637-0.829,2.029
		c-6.07,2.619-12.098,5.34-18.276,7.705c-0.41,0.157-0.866,0.618-1.28,0.154C28.785,119.595,29.334,119.232,29.481,118.815z
		 M28.548,123.532c0.073-2.316,0.094-2.241,2.191-2.824c5.054-1.406,9.97-3.233,14.885-5.056c0.726-0.269,1.44-0.576,2.18-0.798
		c0.388-0.116,0.932-0.722,1.189-0.058c0.216,0.557,0.158,1.313-0.483,1.735c-0.317,0.209-0.703,0.315-1.06,0.462
		c-5.887,2.429-11.78,4.843-17.656,7.299C28.792,124.711,28.417,124.504,28.548,123.532z M28.926,127.97
		c-0.086-0.465-0.143-0.935-0.214-1.402c-0.175-0.906,0.209-1.252,1.091-1.534c5.781-1.848,11.533-3.789,17.308-5.659
		c0.422-0.137,1.116-0.828,1.381,0.066c0.2,0.674,0.065,1.426-0.818,1.806c-2.135,0.919-4.242,1.906-6.359,2.868
		c-3.517,1.599-7.036,3.194-10.548,4.802C29.233,129.62,29.235,129.634,28.926,127.97z M30.537,134.311
		c-0.029-0.081-0.069-0.158-0.101-0.238c-1.436-3.676-1.446-3.706,2.243-4.906c4.951-1.611,9.818-3.454,14.703-5.248
		c0.961-0.353,1.194-0.172,1.16,0.893c0.052,0.542-0.305,0.816-0.745,1.061c-5.325,2.969-10.649,5.941-15.967,8.923
		C31.172,135.165,30.779,134.976,30.537,134.311z M32.901,140.212c-0.443-1.166-0.971-2.299-1.47-3.444
		c-0.277-0.635-0.104-1.041,0.54-1.334c5.381-2.448,10.755-4.911,16.127-7.379c0.677-0.311,1.163-0.317,1.277,0.585
		c-0.054,0.433-0.424,0.616-0.729,0.841c-4.012,2.975-8.029,5.944-12.042,8.917c-0.923,0.684-1.836,1.381-2.763,2.06
		C33.445,140.748,33.137,140.832,32.901,140.212z M34.964,144.1c-0.361-0.912-1.512-1.448-1.28-2.607
		c0.045-0.223,0.42-0.42,0.681-0.555c5.309-2.755,10.199-6.18,15.175-9.467c0.144-0.095,0.295-0.177,0.439-0.271
		c0.487-0.316,0.932-0.617,1.431,0.049c0.506,0.675,0.078,0.992-0.375,1.363c-2.661,2.185-5.308,4.385-7.977,6.56
		c-2.193,1.787-4.409,3.545-6.614,5.317c-0.2,0.16-0.397,0.324-0.58,0.474C35.305,144.91,35.11,144.469,34.964,144.1z
		 M44.425,152.321c-2.898-1.43-5.443-3.278-7.605-5.674c-0.703-0.779-0.695-1.154,0.306-1.814
		c5.15-3.394,10.221-6.909,15.308-10.399c0.604-0.415,1.07-0.768,1.782-0.09c0.769,0.731,0.944,1.191,0.054,2.03
		c-4.223,3.975-8.376,8.025-12.68,12.169c1.024,0.206,1.472-0.335,1.965-0.715c4.187-3.226,8.139-6.729,11.957-10.377
		c0.831-0.794,1.258-0.417,1.914,0.122c0.782,0.642,0.336,1.083-0.094,1.598c-3.523,4.221-7.07,8.422-10.541,12.686
		C46.04,152.78,45.475,152.839,44.425,152.321z M51.186,154.827c-1.361-0.233-2.643-0.73-3.913-1.261
		c-0.713-0.298-0.332-0.656-0.013-0.955c3.614-3.39,6.799-7.177,10.069-10.884c0.625-0.709,1.27-1.405,1.852-2.148
		c0.598-0.764,1.087-0.338,1.637,0.041c0.601,0.415,0.574,0.837,0.193,1.409c-2.932,4.403-5.842,8.819-8.76,13.231
		C52.001,154.64,51.701,154.931,51.186,154.827z M58.167,156.144c-1.667-0.143-3.348-0.506-5.033-0.849
		c-0.676-0.138-0.959-0.352-0.351-0.969c3.696-3.755,6.741-8.027,9.718-12.347c0.615-0.893,1.3-0.676,2.016-0.389
		c0.859,0.344,0.29,0.955,0.125,1.407c-1.519,4.148-3.085,8.278-4.595,12.429C59.676,156.443,58.901,156.092,58.167,156.144z
		 M66.196,156.65c-0.678-0.078-1.373-0.015-2.006-0.015c-0.999-0.072-1.94-0.151-2.884-0.204c-0.711-0.039-0.915-0.305-0.564-0.976
		c0.91-1.739,1.825-3.476,2.677-5.244c1.138-2.359,2.303-4.712,3.29-7.135c0.535-1.314,1.346-0.653,2.106-0.583
		c0.933,0.086,0.746,0.746,0.651,1.348c-0.613,3.857-1.262,7.71-1.813,11.576C67.515,156.396,67.174,156.763,66.196,156.65z
		 M72.833,156.559c-0.73,0.004-1.46,0.001-2.19,0.001c-2.733,0.12-2.679,0.135-1.907-2.518c0.996-3.421,1.905-6.868,2.826-10.31
		c0.171-0.64,0.332-1.194,1.168-0.938c0.668,0.205,1.612-0.024,1.542,1.233c-0.218,3.901-0.372,7.805-0.534,11.709
		C73.713,156.36,73.378,156.557,72.833,156.559z M80.121,155.972c-1.455,0.136-2.91,0.264-3.899,0.353
		c-2.25,0.128-2.26,0.125-1.894-1.574c0.798-3.698,1.615-7.391,2.404-11.09c0.146-0.684,0.291-1.225,1.201-1.153
		c0.838,0.066,1.144,0.402,1.261,1.254c0.515,3.743,1.102,7.477,1.707,11.207C81.018,155.687,80.728,155.915,80.121,155.972z
		 M80.572,135.393c0.019-0.358,0.313-0.455,0.637-0.471c0.349-0.018,0.563,0.123,0.62,0.494c-0.012,0.354-0.241,0.512-0.572,0.519
		C80.894,135.943,80.548,135.842,80.572,135.393z M86.789,155.161c-1.584,0.166-3.163,0.378-4.742,0.583
		c-0.86,0.112-0.745-0.469-0.699-0.987c0.14-3.614,0.348-7.228,0.391-10.843c0.023-1.908,1.455-1.268,2.382-1.542
		c1.058-0.313,0.959,0.601,1.08,1.162c0.766,3.532,1.484,7.075,2.255,10.605C87.599,154.79,87.493,155.088,86.789,155.161z
		 M94.576,153.443c-1.851,0.915-3.81,1.321-5.834,1.531c-0.731,0.076-0.732-0.379-0.73-0.894c0.009-2.024,0.003-4.049,0.003-5.669
		c-0.266-2.294-0.194-4.192-0.265-6.085c-0.034-0.906,0.226-1.398,1.168-1.453c0.297-0.018,0.597-0.098,0.88-0.195
		c0.94-0.321,1.453-0.106,1.801,0.938c1.129,3.391,2.352,6.751,3.6,10.1C95.514,152.56,95.438,153.016,94.576,153.443z
		 M110.932,143.605c-1.822,1.147-3.64,2.301-5.449,3.469c-0.335,0.217-0.63,0.225-0.956,0.031c0.021,0.751-0.581,1.001-1.082,1.302
		c-2.025,1.214-4.08,2.379-6.085,3.625c-0.984,0.612-1.215,0.242-1.361-0.721c-0.577-3.819-1.211-7.63-1.812-11.445
		c-0.074-0.472-0.396-1.02,0.311-1.334c0.618-0.274,1.129-0.229,1.624,0.295c1.473,1.56,2.919,3.153,4.488,4.614
		c1.203,1.12,2.082,2.598,3.624,3.35c-0.218-1.318-1.126-2.293-1.73-3.414c-0.959-1.78-2.074-3.476-3.048-5.249
		c-0.257-0.468-1.139-1.073-0.245-1.616c0.832-0.506,1.618-1.568,2.855-0.616c1.763,1.356,3.587,2.632,5.373,3.959
		c1.161,0.863,2.284,1.776,3.455,2.625C111.447,142.882,111.593,143.189,110.932,143.605z M116.836,140.112
		c-1.351,0.755-2.677,1.555-4.016,2.331c-0.184,0.107-0.384,0.186-0.51,0.246c-0.534,0.022-0.772-0.308-1.021-0.596
		c-2.195-2.54-4.579-4.9-6.896-7.325c-0.36-0.376-1.232-0.765-0.555-1.412c0.557-0.531,1.176-1.364,2.22-0.726
		c2.422,1.481,4.86,2.936,7.295,4.396c1.132,0.679,2.273,1.344,3.406,2.021C117.279,139.359,117.639,139.664,116.836,140.112z
		 M122.547,137.46c-0.751,0.321-1.618,0.477-2.247,0.952c-1.779,1.343-3.024,0.424-4.332-0.757
		c-2.417-2.182-4.884-4.309-7.317-6.475c-0.315-0.28-1.008-0.503-0.598-1.073c0.383-0.532,0.841-1.103,1.665-1.202
		c0.23,0.114,0.504,0.231,0.76,0.379c4.065,2.35,8.128,4.704,12.19,7.059c0.256,0.148,0.601,0.284,0.566,0.623
		C123.2,137.311,122.81,137.347,122.547,137.46z M129.582,134.117c-1.176,1.597-2.713,2.468-4.679,2.645
		c-0.599,0.043-0.988-0.424-1.419-0.734c-3.694-2.649-7.358-5.339-11.044-7.999c-0.556-0.401-1.057-0.686-0.595-1.527
		c0.45-0.82,0.98-0.485,1.521-0.266c5.257,2.134,10.505,4.288,15.768,6.405C129.99,132.986,130.179,133.306,129.582,134.117z
		 M132.347,127.816c-0.388,1.37-0.915,2.682-1.427,4.002c-0.286,0.737-0.693,0.95-1.479,0.531
		c-5.072-2.703-10.165-5.364-15.249-8.042c-0.481-0.254-1.138-0.443-0.691-1.208c0.42-0.718,0.457-1.794,1.474-1.901
		c2.715,0.826,5.264,1.601,7.813,2.376c2.858,0.869,5.707,1.765,8.578,2.588C132.303,126.43,132.63,126.819,132.347,127.816z
		 M132.918,125.405c-0.137,0.742-0.514,0.687-1.113,0.449c-4.895-1.944-9.564-4.384-14.373-6.518
		c-0.621-0.276-1.41-0.441-1.178-1.52c0.318-1.478,0.392-1.561,1.837-1.088c4.737,1.553,9.478,3.093,14.218,4.637
		c0.565,0.184,1.246,0.249,1.154,1.125C133.28,123.462,133.097,124.433,132.918,125.405z M133.879,118.829
		c-0.372,2.512,0.182,2.833-2.419,1.501c-4.481-2.295-8.995-4.527-13.492-6.792c-0.442-0.223-0.963-0.347-0.942-1.057
		c0.044-1.525,0.349-1.747,1.76-1.123c4.681,2.072,9.359,4.148,14.036,6.227C133.364,117.827,134.013,117.999,133.879,118.829z"/>
	<path d="M70.012,60.228c-0.193,2.461,1.454,5.02,3.73,5.938c0.964,0.389,1.968,0.662,2.99,0.762
		c1.446,0.141,2.903,0.556,4.563,0.091c-0.842-0.765-1.868-0.57-2.759-1.103c3.974,0.179,7.594-1.467,11.433-1.072
		c0.685,0.07,1.638-0.242,2.115-1.22c-0.588-0.049-1.033-0.086-1.503-0.125c0.195-0.558,0.935-0.584,0.926-1.233
		c-0.449-0.158-0.804,0.09-1.092,0.293c-1.106,0.779-2.065,0.629-3.153-0.135c-1.12-0.787-2.41-1.327-3.593-2.032
		c-2.437-1.452-4.96-1.833-7.667-0.828c-0.232,0.086-0.576,0.459-0.916,0.096c1.539-1.173,3.9-1.537,6.191-1.017
		c0.469,0.106,1.115,0.635,1.411,0.113c0.293-0.517-0.265-1.127-0.555-1.635c-0.358-0.628-0.917-0.22-1.392-0.125
		c-0.639,0.127-1.204-0.086-1.391-0.655c-0.226-0.686,0.631-0.35,0.851-0.677c0.063-0.094,0.15-0.171,0.302-0.34
		c-0.56-0.228-1.051-0.212-1.554-0.184c-1.821,0.102-3.576,0.545-5.27,1.161c-0.958,0.349-1.683,0.43-2.353-0.469
		c-0.603-0.81-1.149-0.309-1.736,0.128c-0.614,0.456-0.76,0.916-0.243,1.493C70.075,58.266,70.092,59.206,70.012,60.228z
		 M81.349,63.269c-1.675,0.139-3.398,0.42-4.884-0.702C78.093,62.801,79.721,63.035,81.349,63.269z M81.744,64.716
		c-2.029,0.221-4.149-0.252-6.216,0.348c-0.594,0.172-0.94-0.224-1.254-0.987C76.873,64.705,79.384,64.009,81.744,64.716z"/>
	<path d="M55.977,67.665c2.657,0.219,4.779-0.738,6.152-2.713c0.552-0.794,0.821-1.588,0.677-2.639
		c-0.286-2.08-0.286-4.171,1.848-5.486c0.107-0.066,0.193-0.172,0.275-0.271c0.218-0.265,0.515-0.563,0.235-0.901
		c-0.29-0.35-0.726-0.143-0.906,0.099c-0.672,0.903-2.188,0.008-2.66,1.285c-0.019,0.05-0.243,0.036-0.371,0.033
		c-1.449-0.031-2.93,0.178-4.275-0.612c-0.326-0.191-0.727-0.433-1.081-0.128c-1.138,0.981-2.247,1.997-3.509,3.127
		c1.736,0.208,3.076-0.564,4.519-0.664c2.483-0.172,4.038,0.244,4.789,2.333c-0.189-0.016-0.376,0.017-0.514-0.051
		c-2.512-1.224-5.107-0.815-7.699-0.394c-1.286,0.209-2.307,0.86-3.109,1.901c-0.812,1.054-1.578,2.156-2.655,2.978
		c-0.197,0.15-0.462,0.298-0.34,0.612c0.116,0.298,0.411,0.268,0.662,0.273c0.344,0.007,0.733,0.094,1.025-0.032
		c2.061-0.89,4.164-0.261,6.246-0.212C56.593,66.235,56.728,66.535,55.977,67.665z M58.386,66.532
		c-0.213,0.129-0.428,0.078-0.536-0.158c-0.122-0.269,0.055-0.385,0.286-0.452c0.559-0.163,1.118-0.328,1.85-0.542
		C59.468,66.02,58.891,66.226,58.386,66.532z M57.524,64.271c1.37-0.078,2.536-1.219,4.144-0.808
		c-1.873,1.541-6.88,2.106-8.59,0.987C54.641,64.434,56.084,64.353,57.524,64.271z"/>
	<path d="M101.788,87.836c0.78,0.505,1.547-0.35,2.516-0.947c-2.481-0.338-3.026-1.098-2.866-3.177
		c0.117-1.53,1.329-1.553,2.29-1.821c0.915-0.256,0.822,0.773,1.159,1.239c0.186,0.258,0.151,0.686,0.662,0.739
		c0.177-0.703,0.835-1.42,0.024-2.095c-0.452-0.377-0.713-0.814-0.972-1.315c-0.575-1.115-3.086-1.169-3.829-0.165
		c-0.969,1.312-1.397,2.736-1.18,4.354C99.785,86.083,100.696,87.129,101.788,87.836z"/>
	<path d="M104.284,146.842c-0.028,0.165,0.03,0.245,0.206,0.209C104.485,146.918,104.45,146.815,104.284,146.842z"/>
</g>
<g>
</g>
<g>
</g>
<g>
</g>
<g>
</g>
<g>
</g>
<g>
</g>
<g>
</g>
<g>
</g>
<g>
</g>
<g>
</g>
<g>
</g>
<g>
</g>
<g>
</g>
<g>
</g>
<g>
</g>
</svg>
