<?xml version="1.0" encoding="iso-8859-1"?>
<!-- Generator: Adobe Illustrator 19.1.0, SVG Export Plug-In . SVG Version: 6.00 Build 0)  -->
<svg version="1.1" id="Capa_1" xmlns="http://www.w3.org/2000/svg" xmlns:xlink="http://www.w3.org/1999/xlink" x="0px" y="0px"
	 viewBox="0 0 139.251 139.251" style="enable-background:new 0 0 139.251 139.251;" xml:space="preserve">
<g id="Michael_Schumacher">
	<path id="XMLID_599_" d="M94.756,7.755c-1.134,0.324-2.234-0.039-3.518,0.509c1.666,0.897,2.879,2.13,4.562,2.589
		c2.466,0.672,4.957,1.267,7.243,2.461c0.567,0.296,1.189,0.555,1.626,1.266c-1.187,0.131-2.304-0.308-3.386,0.334
		c0.957,1.154,2.339,1.237,3.588,1.562c0.818,0.213,1.687,0.243,1.45,1.468c-0.058,0.303,0.174,0.529,0.426,0.652
		c1.216,0.591,2.109,1.976,3.765,1.506c0.291-0.083,0.665,0.049,0.803,0.369c0.108,0.25-0.148,0.423-0.326,0.571
		c-0.589,0.489-0.46,1.006-0.104,1.564c0.591,0.929,1.106,1.913,1.756,2.797c0.713,0.97,0.81,2.018,0.667,3.137
		c-0.229,1.798-0.522,3.594,0.605,5.24c0.223,0.326,0.304,0.711-0.299,0.72c-1.152,0.017-0.838,0.716-0.377,1.084
		c1.101,0.879,0.889,1.969,0.777,3.108c-0.496,5.086-1.596,10.087-2.178,15.156c-0.413,3.596-0.155,7.227,0.134,10.837
		c0.072,0.898,0.565,0.434,0.865,0.224c0.917-0.643,1.808-0.886,2.82-0.179c0.797,0.557,1.288,1.221,1.276,2.24
		c-0.024,2.046-0.012,4.092,0.003,6.138c0.004,0.533-0.163,0.988-0.416,1.448c-0.739,1.344-1.375,2.736-1.982,4.148
		c-0.682,1.589-0.268,3.277-0.64,4.885c-1.09,4.71-3.805,8.299-7.661,11.079c-0.834,0.602-1.837,0.933-2.9,0.804
		c-0.677-0.082-0.813,0.233-0.811,0.804c0.01,3.62-0.234,7.229-0.486,10.836c-0.117,1.684-0.302,3.364-0.492,5.042
		c-0.106,0.931-0.61,1.7-1.2,2.395c-2.266,2.668-4.56,5.313-6.82,7.986c-1.4,1.655-2.624,3.437-3.716,5.312
		c-2.364,4.057-5.549,7.233-9.943,9.044c-1.666,0.687-3.156,1.78-4.978,2.11c-2.685,0.486-5.342,0.21-7.958-0.382
		c-2.103-0.476-4.182-0.526-6.308-0.288c-5.225,0.585-9.432-1.598-12.127-5.778c-2.718-4.215-5.876-7.95-9.341-11.502
		c-2.313-2.371-4.48-4.865-5.903-7.905c-1.423-3.04-1.523-6.325-1.664-9.578c-0.124-2.859-0.049-5.727-0.049-8.59
		c0-0.427-0.076-0.747-0.513-0.952c-3.085-1.442-4.664-4.18-5.741-7.162c-1.793-4.968-2.39-10.156-2.256-15.432
		c0.039-1.537-0.199-3.055-0.473-4.564c-0.211-1.163-0.612-2.409,0.55-3.266c1.155-0.852,2.137-0.024,3.324,0.803
		c-0.65-1.972-0.714-3.749-0.73-5.532c-0.073-8.063,0.37-16.117,0.45-24.176c0.028-2.77,1.026-5.114,2.452-7.367
		c1.178-1.861,2.308-3.755,3.55-5.573c0.539-0.788,0.494-1.317-0.231-1.875c-0.278-0.214-0.524-0.479-0.754-0.746
		c-0.614-0.714-0.36-1.683,0.437-2.188c0.811-0.514,1.373-1.289,1.581-2.245c0.122-0.56,0.41-0.799,0.935-1.052
		c2.107-1.013,4.119-2.375,5.549-4.11c0.999-1.211,2.084-1.543,3.316-2.022c0.949-0.369,1.843-0.88,2.751-1.348
		c1.076-0.555,2.167-0.889,3.403-0.58c0.631,0.158,1.255,0.179,1.396-0.756c0.097-0.644,0.746-0.633,1.221-0.741
		c2.058-0.469,4.142-0.398,6.223-0.196c0.554,0.054,1.093,0.106,1.636-0.04c0.404-0.109,0.955-0.031,1.083-0.548
		c0.119-0.483-0.359-0.736-0.626-1.062c-0.236-0.287-0.686-0.381-0.792-0.999c1.147,0.435,2.196,0.833,3.245,1.232
		c1.697,0.646,1.975,0.467,2.066-1.322c0.01-0.189,0.054-0.377,0.096-0.656c0.196,0.108,0.352,0.15,0.445,0.25
		c1.646,1.772,2.348,1.878,4.464,0.603c0.264-0.159,0.322,0.025,0.466,0.122c1,0.675,1.968,0.596,2.9-0.142
		c0.37-0.293,0.736-0.592,1.105-0.885c0.619-0.492,1.121-0.8,1.548,0.283c0.275,0.697,0.994,0.848,1.712,0.512
		c0.391-0.183,0.767-0.4,1.149-0.604c0.204-0.109,0.425-0.295,0.641-0.113c0.215,0.182,0.049,0.445,0.012,0.665
		c-0.245,1.456,0.664,2.315,2.219,2.019c1.08-0.206,2.14-0.514,3.211-0.766c0.382-0.09,0.837-0.235,1.138,0.036
		c0.36,0.323-0.102,0.622-0.215,0.922c-0.326,0.866,0.242,1.247,0.856,1.553c1.244,0.619,2.612,0.845,3.948,1.168
		c1.069,0.259,2.144,0.5,3.203,0.796C93.923,7.043,94.414,7.14,94.756,7.755z M53.098,13.423c1.593,2.352,3.516,4.43,5.43,6.516
		c0.983,1.072,1.939,2.17,2.89,3.27c0.279,0.322,0.495,0.757-0.171,0.842c-1.311,0.168-2.577,0.399-3.745-0.716
		c-2.812-2.683-5.68-5.304-8.199-8.283c1.778,2.772,4.071,5.129,6.196,7.652c-2.323-1.183-4.745-1.755-7.293-1.812
		c-0.629-0.014-1.004-0.366-1.349-0.822c-1.137-1.504-2.283-3.003-3.425-4.504c0.459,1.06,1.056,2.03,1.594,3.032
		c0.351,0.654,1.148,1.271,0.994,1.936c-0.151,0.654-1.228,0.642-1.78,1.132c-0.677,0.603-1.16,0.348-1.609-0.345
		c-0.808-1.247-1.67-2.46-2.51-3.687c0.334,0.997,0.786,1.935,1.293,2.844c1.211,2.17,1.153,2.097-0.559,3.833
		c-1.235,1.253-2.616,2.002-4.317,2.429c-2.145,0.538-4.073,1.614-5.767,3.078c2.29-1.035,4.531-2.195,7.268-2.815
		c-0.841,1.327-1.577,2.388-2.2,3.511c-0.361,0.651-0.793,1.115-1.462,1.452c-1.281,0.645-2.542,1.341-3.814,2.477
		c1.283-0.613,2.329-1.128,3.391-1.606c0.243-0.109,0.609-0.341,0.719,0.207c0.179,0.889-0.587,2.525-1.41,2.989
		c-0.61,0.344-1.217,0.694-1.825,1.041c0.66-0.022,1.201-0.241,1.742-0.461c0.66-0.269,1.006-0.172,1.041,0.663
		c0.046,1.08-0.179,1.907-1.25,2.411c-0.629,0.296-1.179,0.759-1.764,1.147c0.445-0.04,0.809-0.26,1.203-0.382
		c0.547-0.168,1.202-1.014,1.62-0.331c0.413,0.676,0.452,1.681-0.121,2.458c-0.253,0.343-0.611,0.611-0.927,0.906
		c-0.824,0.768-1.651,1.533-2.477,2.299c1.057-0.521,1.99-1.176,2.94-1.807c0.231-0.153,0.478-0.486,0.803-0.105
		c0.578,0.677,0.223,2.984-0.524,3.49c-0.708,0.479-1.495,0.856-2.268,1.773c0.63-0.348,0.978-0.581,1.357-0.741
		c0.583-0.246,1.318-1.078,1.743-0.515c0.52,0.688,0.686,1.752,0.169,2.678c-0.133,0.239-0.321,0.447-0.475,0.675
		c-1.83,2.718-3.199,5.579-3.147,8.978c0.024,1.566-0.14,3.141-0.299,4.703c-0.481,4.73-1.091,9.448-1.024,14.218
		c0.015,1.087,0.251,2.078,0.774,3.044c1.462,2.697,2.253,5.601,2.573,8.648c0.08,0.766-0.024,1.613,0.536,2.257
		c0.563,0.648,0.633,1.391,0.629,2.2c-0.02,4.365-0.11,8.731,0.452,13.078c0.29,2.243,0.927,4.477,2.532,5.978
		c1.38,1.29,2.305,2.837,3.491,4.219c1.576,1.837,3.275,3.569,4.922,5.347c-1.443-3.881-3.141-7.597-4.969-11.264
		c1.035,1.111,1.703,2.44,2.454,3.717c2.574,4.379,4.218,9.228,6.875,13.568c2.29,3.741,5.449,5.91,9.989,5.657
		c2.27-0.127,4.537-0.45,6.796,0.201c0.899,0.259,1.867,0.271,2.781,0.492c3.44,0.834,6.408-0.471,9.344-1.982
		c0.456-0.235,0.702-0.623,0.912-1.045c1.747-3.505,3.044-7.16,3.656-11.042c0.037-0.234-0.042-0.57,0.44-0.633
		c-0.221,3.833-1.194,7.476-2.498,11.36c0.868-0.668,1.726-0.928,1.751-1.866c0.092-3.506,1.333-6.69,2.733-9.819
		c1.253-2.8,2.635-5.542,3.904-8.335c1.223-2.69,2.45-5.391,2.269-8.478c0.543,1.632,0.328,3.371-0.622,6.09
		c-1.338,3.83-3.166,7.458-4.626,11.237c-0.762,1.974-1.487,3.959-1.774,6.085c1.883-4.403,4.699-8.263,7.045-12.39
		c0.351-0.617,0.649-1.257,0.761-1.97c0.369-2.369,0.883-4.724,1.085-7.107c0.38-4.485,0.581-8.991-1.853-13.088
		c-0.535-0.901-0.258-1.39,0.584-1.87c5.393-3.076,6.406-10.318,4.495-15.472c-0.125-0.338-0.293-0.769-0.714-0.636
		c-2.003,0.629-4.255,0.309-6.085,1.605c-0.41,0.29-0.852,0.587-1.532,0.514c0.64-0.845,1.83-1.167,1.602-2.539
		c-2.176,1.15-4.363,1.916-7.036,1.945c0.532-0.423,0.902-0.495,1.272-0.593c1.184-0.314,2.32-0.764,3.358-1.416
		c0.409-0.257,1.175-0.441,1.027-0.974c-0.16-0.579-0.894-0.29-1.371-0.258c-1.097,0.074-2.192,0.196-3.282,0.341
		c-3.533,0.471-7.045-0.319-10.574-0.177c-0.406,0.016-1.135-0.177-0.535-0.849c2.465-2.758,5.32-4.681,9.273-4.091
		c0.428,0.064,0.857,0.117,1.288,0.157c0.421,0.038,0.829,0.315,1.384,0.08c-2.585-0.849-5.131-0.823-7.688-0.655
		c-0.331,0.022-0.604,0.18-0.843,0.388c-1.009,0.878-2.065,1.711-3.002,2.66c-1.592,1.613-1.623,3.302-0.161,5.01
		c0.856,1,1.763,1.958,2.646,2.934c-1.446-0.525-2.473-1.725-4.074-2.206c0.449,2.18,0.641,4.257-0.075,6.274
		c-0.291,0.818-0.086,1.303,0.538,1.818c1.711,1.412,3.184,3.058,4.36,4.934c0.786,1.254,1.67,2.539,2.047,3.935
		c0.478,1.771,0.723,3.615,1.293,5.377c0.251,0.775,0.327,1.562-0.047,2.389c0.215-1.523-0.863-2.488-1.45-3.659
		c-0.494-0.985-1.401-0.654-2.083-0.499c-0.776,0.176-0.11,0.777-0.043,1.149c0.227,1.245-0.127,1.638-1.368,1.268
		c-0.914-0.272-1.711-0.122-2.464,0.39c-0.52,0.353-1.017,0.741-1.514,1.126c-1.162,0.9-1.412,0.912-2.238-0.306
		c-0.904-1.334-2.034-1.745-3.638-1.533c-1.515,0.2-3.045-0.123-4.489-0.718c-0.407-0.168-0.612-0.418-0.701-0.852
		c-0.343-1.669-1.511-2.502-3.057-2.924c-0.607-0.166-1.225-0.293-1.823-0.486c-1.168-0.377-1.479-0.898-1.072-2.046
		c0.995-2.803,2.639-5.265,4.216-7.757c0.046-0.073,0.195-0.081,0.376-0.15c0.055,0.519-0.243,0.856-0.432,1.218
		c-0.833,1.606-1.722,3.185-2.503,4.816c-1.164,2.43-1.138,2.464,1.454,3.261c1.877,0.576,3.35,1.56,3.889,3.569
		c0.133,0.496,0.507,0.647,0.92,0.812c1.142,0.456,2.192-0.189,3.288-0.267c1.228-0.088,2.092-0.645,2.343-2.029
		c0.178-0.982,0.798-1.774,1.756-2.248c1.055-0.521,1.507-1.447,1.589-2.581c0.165-2.253-0.728-4.231-1.642-6.196
		c-0.294-0.633-0.679-0.749-1.04-0.003c-0.406,0.839-1.022,1.49-1.849,1.925c-0.234,0.123-0.502,0.365-0.762,0.188
		c-0.341-0.233-0.103-0.568-0.021-0.854c1.59-5.501,2.012-11.04,0.533-16.638c-0.193-0.729,0.013-0.817,0.686-0.576
		c1.068,0.382,2.024,0.107,2.774-0.752c0.828-0.948,1.623-1.924,2.446-2.876c1.096-1.268,2.416-2.106,4.147-2.212
		c1.96-0.12,3.919-0.272,5.876-0.436c1.329-0.111,2.758-0.024,3.908-0.719c1.211-0.731,2.149-0.414,3.161,0.226
		c2.145,1.356,3.975,3.077,5.746,4.876c0.356,0.362,0.613,1.267,1.319,0.8c0.78-0.517,0.165-1.198-0.126-1.766
		c-0.178-0.347-0.427-0.661-0.666-0.972c-1.227-1.598-2.61-3.048-4.187-4.305c-0.493-0.393-0.667-0.762-0.405-1.406
		c2.896-7.083,3.864-14.475,3.436-22.077c-0.128-2.274-0.754-4.395-1.992-6.343c-0.442-0.696-1.639-1.099-1.3-2.036
		c0.272-0.752,1.086-1.317,1.685-1.941c1.672-1.741,3.357-3.47,5.037-5.203c-0.465,0.114-0.789,0.381-1.097,0.664
		c-1.737,1.599-3.449,3.226-5.21,4.798c-1.761,1.571-1.12,1.407-3.127,0.308c-1.013-0.555-0.925-0.966-0.255-1.751
		c1.649-1.934,3.173-3.97,4.578-6.232c-0.47,0.132-0.569,0.455-0.746,0.688c-1.404,1.851-2.927,3.602-4.437,5.366
		c-0.607,0.709-1.147,0.864-1.851,0.181c-0.915-0.889-2.083-1.252-3.296-1.461c-1.199-0.206-2.407-0.375-3.618-0.497
		c-0.726-0.074-0.977-0.339-0.755-1.069c0.796-2.606,1.762-5.139,3.251-7.435c0.686-1.059,1.518-1.979,2.685-2.592
		c1.234-0.649,2.368-0.265,3.535,0.15c-1.813-1.139-3.382-1.022-4.971,0.316c-1.795,1.512-2.897,3.509-3.849,5.593
		c-0.637,1.394-1.164,2.837-1.752,4.253c-0.096,0.232-0.145,0.612-0.537,0.464c-0.275-0.104-0.189-0.408-0.161-0.626
		c0.109-0.857,0.254-1.71,0.365-2.566c0.367-2.835,0.726-5.671,1.087-8.506c-0.812,3.494-1.544,6.993-2.214,10.505
		c-0.18,0.946-0.587,1.31-1.575,1.283c-2.456-0.067-2.418-0.02-2.04-2.529c0.407-2.703,0.732-5.418,1.092-8.128
		c-0.185,0.325-0.277,0.665-0.348,1.009c-0.584,2.849-1.192,5.694-1.734,8.552c-0.225,1.185-1.025,1.137-1.866,1.002
		c-0.881-0.142-0.83-0.789-0.679-1.458c0.104-0.46,0.197-0.923,0.277-1.388c0.481-2.779,1.04-5.546,1.234-8.366
		c-0.616,2.847-1.278,5.679-2.055,8.483c-0.086,0.311-0.023,0.833-0.453,0.87c-0.437,0.037-0.439-0.475-0.566-0.779
		c-0.727-1.742-1.421-3.499-2.162-5.235c-0.883-2.071-1.895-4.076-3.282-5.877c1.76,3.845,3.521,7.691,5.281,11.536
		c-0.097,0.057-0.194,0.113-0.291,0.17c-2.805-2.344-5.34-4.966-7.721-7.749c0.07,0.25,0.191,0.452,0.329,0.641
		c2.165,2.964,4.65,5.644,7.275,8.2c0.215,0.21,0.593,0.376,0.46,0.742c-0.136,0.375-0.54,0.209-0.834,0.26
		c-1.661,0.289-2.999-0.131-3.92-1.653c-0.278-0.46-0.724-0.828-1.124-1.204C58.278,18.597,55.547,16.161,53.098,13.423z
		 M98,112.838c0.806-0.924,0.836-0.968,1.055-2.103c0.856-4.439,1.532-8.902,1.978-13.405c0.15-1.514-0.122-3.094,0.505-4.546
		c1.896-4.394,3.11-8.989,3.953-13.68c0.335-1.864,0.974-3.524,2.129-5.033c1.713-2.237,3.601-4.272,6.012-5.766
		c0.514-0.319,0.825-0.672,0.785-1.319c-0.035-0.572-0.223-0.757-0.698-0.379c-0.553,0.44-1.104,0.891-1.598,1.394
		c-1.847,1.881-3.462,4.077-5.574,5.577c-1.401,0.995-1.317,2.106-1.548,3.336c-0.102,0.541-0.164,1.09-0.263,1.761
		c-0.508-0.532-0.397-1.028-0.433-1.479c-0.094-1.175-0.183-2.351-0.229-3.529c-0.031-0.783-0.266-0.979-1.001-0.575
		c-1.21,0.664-2.507,1.154-3.848,1.468c-1.034,0.242-1.198,0.599-0.727,1.595c2.512,5.307,1.723,12.423-2.898,16.377
		c-0.32,0.273-0.551,0.529-0.34,1c1.655,3.691,2.066,7.575,1.577,11.541c-0.604,4.899-0.899,9.917-4.293,13.97
		c-0.03,0.036,0.007,0.129,0.005,0.109c3.55-2.984,5.565-6.77,5.473-11.584C98.332,109.245,98.358,110.892,98,112.838z
		 M101.611,66.313c0.01,0.732-0.322,1.344-0.675,1.944c-0.923,1.57-2.081,2.953-3.37,4.236c-0.301,0.3-0.881,0.529-0.518,1.144
		c0.323,0.548,0.83,0.335,1.275,0.265c1.324-0.207,2.601-0.595,3.879-0.994c0.826-0.259,1.223-0.718,1.191-1.618
		c-0.064-1.847,0.031-3.704-0.113-5.543c-0.156-1.989-0.296-4.017-1.306-5.821c-0.326-0.584-0.753-1.226-1.521-1.107
		c-0.726,0.113-1.131,0.763-1.24,1.436c-0.282,1.735-0.472,3.485-0.698,5.229c0.069,0.014,0.139,0.029,0.208,0.043
		c0.562-0.829,1.125-1.658,1.687-2.487c0.014,0.681-0.175,1.266-0.464,1.796c-0.828,1.518-1.853,2.949-2.51,4.535
		c-0.811,1.959-2.515,2.579-4.184,3.345c-0.213,0.098-0.467,0.237-0.646,0.012c-0.171-0.215-0.011-0.469,0.132-0.641
		c0.657-0.795,0.344-1.54-0.08-2.287c-0.598-1.055-1.434-1.871-2.513-2.421c-2.9-1.477-6.003-1.755-9.182-1.467
		c-0.787,0.071-1.647,0.045-2.273,0.747c0.33,0.315,0.7,0.163,1.031,0.189c3.408,0.27,6.695,0.945,9.625,2.833
		c1.332,0.858,2.247,1.946,2.098,3.675c-0.043,0.495-0.23,1.289,0.627,1.229c0.586-0.041,1.724,0.655,1.657-0.836
		c-0.012-0.26,0.281-0.358,0.486-0.465C97.323,71.659,99.752,69.319,101.611,66.313z M31.385,91.282
		c0.267-1.162,0.035-1.881-0.433-2.535c-0.845-1.182-1.653-2.396-2.585-3.506c-0.87-1.037-1.143-2.105-0.655-3.364
		c0.734-1.891,0.477-3.871,0.519-5.824c0.004-0.184-0.06-0.527-0.109-0.53c-1.04-0.066-0.585-0.848-0.587-1.316
		c-0.005-0.938,0.136-1.876,0.176-2.816c0.059-1.368,0.261-2.798-1.013-3.798c-0.461-0.362-0.987-1.235-1.49-0.792
		c-0.506,0.446-0.285,1.397,0,2.112c0.056,0.14,0.18,0.256,0.285,0.373c1.175,1.306,1.406,2.798,1.074,4.5
		c-0.276,1.414-0.771,2.832-0.521,4.301c0.42,2.475,0.869,4.948,1.617,7.352C28.342,87.623,29.694,89.372,31.385,91.282z
		 M109.086,47.068c-1.056,3.129-1.385,6.411-1.559,9.689c-0.161,3.018-0.063,6.05-0.051,9.076c0.001,0.352-0.198,0.987,0.575,0.852
		c1.187-0.209,1.927-1.342,1.628-2.514C108.24,58.518,108.424,52.817,109.086,47.068z M102.769,41.782
		c-1.187-1.098-2.349-2.172-3.51-3.246c0.069-0.107,0.137-0.214,0.206-0.32c1.732,0.325,3.464,0.651,5.195,0.976
		c-2.18-2.326-4.44-4.438-6.705-6.545c-0.266-0.247-0.504-0.699-0.955-0.229c-0.505,0.527,0.022,0.771,0.314,1.027
		c1.359,1.192,2.745,2.353,4.102,3.547c0.303,0.267,0.773,0.431,0.777,1.087c-1.541-0.223-3.051-0.442-4.616-0.669
		c0.088,0.491,0.366,0.599,0.568,0.769c1.143,0.961,2.292,1.916,3.438,2.873c0.405,0.339,0.732,0.676-0.141,0.991
		C101.918,42.006,102.311,42.129,102.769,41.782z M81.573,73.249c-1.032-0.209-1.947-0.555-2.478-1.542
		c-0.809-1.502-0.808-1.506-2.231-0.397c-0.277,0.216-0.537,0.453-0.796,0.69c-0.507,0.462-0.347,0.735,0.269,0.793
		C78.081,72.958,79.828,73.099,81.573,73.249z M104.335,35.852c-1.36-2.196-2.943-4.23-4.62-6.193
		c-0.223-0.261-0.486-0.623-0.872-0.296c-0.469,0.398-0.055,0.701,0.212,0.961C100.878,32.1,102.569,34,104.335,35.852z"/>
	<path id="XMLID_532_" d="M76.464,109.635c-4.551,2.49-9.433,2.977-14.448,2.925c-3.16-0.033-5.943-0.974-8.39-2.958
		c-0.264-0.214-0.468-0.546-1.205-0.563c2.32,2.407,4.662,4.387,7.411,5.943c-0.435,0.445-0.681,0.127-0.915,0.001
		c-2.753-1.483-5.251-3.32-7.507-5.482c-0.516-0.494-1.015-0.944-1.745-1.137c-0.871-0.231-0.808-0.774-0.212-1.271
		c0.791-0.658,1.719-1.099,2.648-1.533c7.62-3.559,15.381-3.782,23.279-1.012c1.487,0.521,2.981,1.002,4.304,1.897
		c0.544,0.368,0.739,0.669,0.063,1.115c-0.771,0.509-1.184,1.356-1.775,2.036c-1.371,1.578-2.792,3.101-4.522,4.297
		c-0.326,0.225-0.613,0.647-1.378,0.326C73.981,112.998,75.416,111.497,76.464,109.635z M57.906,107.614
		c-0.638-0.397-1.187-1.345-1.74-0.923c-0.849,0.646-1.263,0.186-1.903-0.164c-0.52-0.285-0.957-0.207-0.935,0.629
		c0.024,0.907,0.492,1.466,1.166,1.918c1.349,0.904,2.704,1.591,4.39,1.963c1.534,0.339,3.159,0.983,4.534,0.518
		c1.201-0.407,2.183-0.062,3.256-0.113c1.372-0.066,2.614-0.785,4.006-0.782c0.298,0.001,0.604-0.211,0.749-0.517
		c0.246-0.52,0.534-0.673,1.108-0.377c0.62,0.319,1.216-0.063,1.557-0.51c0.461-0.606,0.048-1.287-0.2-1.891
		c-0.22-0.536-0.742-0.47-1.221-0.489c-0.777-0.031-0.559,0.868-1.052,1.094c-0.833-1.491-1.605-1.572-2.65-0.244
		c-0.359,0.456-0.535,0.336-0.718-0.097c-0.156-0.369-0.317-0.68-0.79-0.772c-1.449-0.283-2.134-0.021-2.93,1.237
		c-0.121-0.098-0.261-0.174-0.351-0.289c-1.126-1.441-1.939-1.522-3.273-0.238c-0.461,0.443-0.573,0.05-0.792-0.201
		C59.171,106.278,58.698,106.322,57.906,107.614z M74.983,105.603c-6.621-2.518-13.276-2.524-19.945-0.216
		C61.676,105.838,68.318,105.894,74.983,105.603z"/>
	<path id="XMLID_529_" d="M51.675,69.013c2.18,0.844,3.915,2.287,5.454,4.009c0.421,0.471,0.634,0.983-0.084,1.162
		c-0.856,0.214-0.678,0.741-0.598,1.252c0.188,1.19-0.217,1.83-1.474,2.023c-3.182,0.488-6.256,1.372-9.203,2.733
		c0.824-0.98,2.043-1.311,3.096-1.941c-2.479-0.634-7.588,0.608-9.114,2.2c0.074-0.88,0.313-1.102,2.042-1.821
		c0.896-0.373,1.804-0.717,2.729-1.082c-1.186-1.406-2.405-0.679-3.587-0.087c-0.219-0.484,0.175-0.522,0.326-0.702
		c0.272-0.324,0.977-0.422,0.652-1.062c-0.342-0.672-0.882-0.248-1.347-0.148c-0.793,0.171-1.582,0.327-2.37-0.097
		c0.158-0.491,0.527-0.343,0.799-0.364c1.026-0.077,1.808-0.438,2.126-1.528c0.093-0.318,0.339-0.634,0.596-0.856
		c2.865-2.457,6.031-4.122,9.968-3.687L51.675,69.013z M46.735,71.843c0.067,0.421,0.091,0.61,0.128,0.796
		c0.055,0.275,0.406,0.635-0.049,0.789c-0.348,0.118-0.508-0.276-0.649-0.556c-0.053-0.105-0.117-0.213-0.135-0.326
		c-0.125-0.781-0.497-0.722-1.055-0.374c-1.05,0.654-2.394,1.575-2.294,2.585c0.109,1.098,1.683,1.585,2.862,1.96
		c0.187,0.06,0.377,0.109,0.568,0.154c2.742,0.647,5.455,0.326,8.17-0.214c0.942-0.187,0.917-0.831,0.842-1.514
		c-0.097-0.887-0.773-0.605-1.272-0.551c-3.097,0.336-6.199,0.139-9.299,0.12c-0.368-0.002-0.924,0.01-0.866-0.515
		c0.051-0.451,0.579-0.266,0.901-0.264c3.063,0.011,6.126,0.042,9.179-0.272c0.57-0.059,1.324,0.057,1.511-0.625
		c0.172-0.629-0.562-0.852-0.945-1.215c-0.057-0.054-0.126-0.094-0.187-0.144c-0.525-0.428-0.869-0.477-1.014,0.349
		c-0.095,0.539-0.171,1.177-0.888,1.383c-0.288-0.634,0.121-1.193,0.061-1.774c-0.037-0.36-0.019-0.739-0.475-0.833
		c-0.447-0.092-0.604,0.222-0.76,0.567C50.041,73.642,48.534,73.886,46.735,71.843z"/>
	<path id="XMLID_528_" d="M50.367,62.806c1.775-0.047,3.531,0.033,5.215,0.694c0.826,0.324,1.372,0.869,1.611,1.736
		c0.207,0.752,0.029,1.035-0.798,0.853c-2.11-0.465-4.242-0.762-6.411-0.783c-4.224-0.042-7.856,1.642-11.313,3.835
		c-0.53,0.336-0.933,0.891-1.57,0.148c-0.697-0.814,0.124-1.082,0.492-1.496c0.62-0.698,1.486-1.163,1.906-2.058
		c0.068-0.144,0.31-0.302,0.464-0.294c0.848,0.046,1.3-0.217,1.33-1.171c0.019-0.606,0.698-0.559,1.128-0.634
		C45.05,63.177,47.684,62.749,50.367,62.806z"/>
	<path id="XMLID_527_" d="M46.023,117.72c-1.754-1.23-2.346-3.083-2.654-5.038c-0.581-3.683-0.263-7.381,0.035-11.061
		c0.121-1.499,1.043-2.788,1.825-4.06c1.922-3.126,4.226-5.968,6.601-8.755c0.411-0.483,0.892-0.879,1.451-1.19
		c0.486-0.27,0.911-0.431,1.356,0.089c0.399,0.467,0.565,0.905,0.224,1.488c-0.263,0.45-0.599,0.825-0.963,1.184
		c-2.383,2.352-4.635,4.819-6.646,7.501c-1.428,1.904-2.63,3.831-2.714,6.378c-0.084,2.539-0.628,5.055-0.445,7.625
		C44.244,113.999,44.593,116.018,46.023,117.72z"/>
	<path id="XMLID_526_" d="M51.687,69.02c-4.173-0.794-7.62,0.738-10.722,3.356c-0.443,0.374-0.848,0.792-1.318,1.235
		c0.07-2.336,4.463-5.617,8.245-6.249c4.395-0.735,9.175,1.702,10.625,5.686c-2.15-1.944-4.106-3.697-6.841-4.034L51.687,69.02z"/>
	<path id="XMLID_525_" d="M83.892,100.336c1.483,3.293,2.093,6.664,0.883,10.195C84.797,107.101,84.246,103.729,83.892,100.336z"/>
</g>
<g>
</g>
<g>
</g>
<g>
</g>
<g>
</g>
<g>
</g>
<g>
</g>
<g>
</g>
<g>
</g>
<g>
</g>
<g>
</g>
<g>
</g>
<g>
</g>
<g>
</g>
<g>
</g>
<g>
</g>
</svg>
