<?xml version="1.0" encoding="iso-8859-1"?>
<!-- Generator: Adobe Illustrator 19.1.0, SVG Export Plug-In . SVG Version: 6.00 Build 0)  -->
<svg version="1.1" id="Capa_1" xmlns="http://www.w3.org/2000/svg" xmlns:xlink="http://www.w3.org/1999/xlink" x="0px" y="0px"
	 viewBox="0 0 144.429 144.429" style="enable-background:new 0 0 144.429 144.429;" xml:space="preserve">
<g>
	<path d="M131.709,85.469c-1.094-4.628-2.1-9.277-3.154-13.915c-0.098-0.431-0.068-0.954-0.762-1.288
		c-0.38,1.839-0.704,3.625-1.123,5.387c-1.063,4.472-2.274,8.905-4.849,12.795c-1.721,2.6-3.918,4.484-7.342,3.94
		c-2.101-0.334-3.807-1.5-5.428-2.791c-1.301-1.036-1.277-1.041-1.941,0.507c-1.792,4.174-3.587,8.344-5.933,12.254
		c-0.839,1.398-1.913,2.278-3.607,2.248c-0.413-0.008-0.913,0.305-1.212-0.091c-0.302-0.401,0.106-0.803,0.27-1.178
		c1.292-2.944,2.603-5.88,3.399-9.011c0.124-0.487,0.359-1.033-0.16-1.427c-0.512-0.389-1.106-0.395-1.717-0.218
		c-0.7,0.203-0.984,0.778-1.286,1.35c-4.591,8.724-9.499,17.272-14.351,25.851c-0.733,1.296-1.784,1.891-3.163,2.123
		c-0.841,0.142-1.266,0.105-1.021-1.016c0.906-4.138,1.706-8.299,2.538-12.452c0.115-0.574,0.443-1.242-0.077-1.699
		c-0.582-0.51-1.3-0.182-1.96-0.002c-0.73,0.199-0.931,0.776-1.133,1.419c-1.385,4.416-2.882,8.792-4.566,13.105
		c-0.325,0.832-0.785,1.243-1.712,1.192c-1.068-0.059-2.147,0.052-3.213-0.029c-1.177-0.089-1.668,0.43-1.927,1.535
		c-0.759,3.236-2.13,6.22-3.794,9.098c-1.812,3.133-4.213,5.198-7.94,5.805c-3.558,0.58-7.079,1.278-10.705,1.022
		c-0.555-0.039-1.21-0.073-1.334-0.755c-0.122-0.669,0.468-0.964,0.962-1.212c1.124-0.563,2.349-0.976,3.577-0.95
		c2.03,0.043,3.163-1.06,4.043-2.643c0.416-0.749,0.809-1.512,1.174-2.287c0.193-0.41,0.617-0.902,0.286-1.299
		c-0.368-0.442-0.872,0.021-1.294,0.156c-4.965,1.596-9.976,2.36-15.185,1.256c-2.587-0.548-4.065-2.064-5.043-4.423
		c-1.735-4.183-0.847-8.367-0.313-12.85c0.555,0.97,0.945,1.725,1.404,2.435c0.601,0.93,0.919,1.856,0.683,3.012
		c-0.335,1.647-0.284,3.32,0.124,4.967c0.577,2.328,1.925,3.361,4.298,3.45c4.442,0.165,8.794-0.504,13.14-1.284
		c0.715-0.128,1.25-0.477,1.751-0.983c3.177-3.211,6.008-6.694,8.4-10.53c0.615-0.987,0.897-0.97,1.42,0.091
		c0.853,1.732,0.768,3.571,0.553,5.415c-0.067,0.576-0.311,1.15,0.04,1.743c0.612-0.174,0.716-0.732,0.933-1.163
		c0.968-1.928,1.156-3.992,1.126-6.124c-0.029-2.074-0.917-3.482-2.766-4.38c-1.875-0.911-3.874-1.379-5.902-1.722
		c-5.374-0.91-10.796-1.215-16.241-1.313c-2.472-0.045-4.978-0.054-7.383-0.798c-1.658-0.513-3.226-1.204-4.783-2.648
		c1.088,0,1.811-0.036,2.528,0.009c0.91,0.057,1.423-0.298,1.689-1.194c0.304-1.024,0.684-2.035,1.136-3.001
		c0.367-0.783,0.628-1.993,1.666-1.878c1.033,0.114,1.036,1.352,1.222,2.191c0.755,3.394,0.732,3.406,4.207,3.812
		c0.551,0.064,1.113,0.06,1.669,0.047c1.635-0.036,2.164-0.691,1.795-2.301c-0.387-1.686-1.129-3.234-2.038-4.697
		c-0.445-0.717-0.259-0.985,0.522-1.254c1.563-0.538,3.059-0.048,4.573,0.123c2.583,0.292,5.066-0.783,6.085-2.729
		c0.529-1.011,0.649-2.116,0.659-3.242c0.003-0.326-0.116-0.755,0.279-0.915c0.419-0.17,0.732,0.141,0.986,0.433
		c0.533,0.615,1.036,1.255,1.566,1.872c2.461,2.868,5.402,5.256,8.012,7.975c2.142,2.231,4.26,4.49,5.561,7.344
		c1.348,2.956,0.766,5.291-1.704,7.332c-0.313,0.258-0.789,0.384-0.846,1.068c2.394-0.136,4.383-0.954,5.946-2.766
		c0.629-0.729,0.792-1.457,0.291-2.341c-0.845-1.491-1.581-3.045-2.457-4.516c-3.608-6.054-7.521-11.883-12.86-16.594
		c-2.937-2.592-6.201-4.584-10.159-5.179c-0.502-0.075-1.252-0.322-1.393,0.451c-0.111,0.609,0.519,0.812,1.028,0.935
		c0.883,0.212,1.575,0.697,2.019,1.473c1.055,1.84,1.303,3.797,0.641,5.82c-0.441,1.349-1.787,2.003-3.221,1.655
		c0.82-1.097,0.753-1.38-0.509-1.726c-1.375-0.377-2.758-0.501-4.193-0.237c-2.027,0.372-3.773,1.373-5.567,2.28
		c-1.111,0.562-2.214,1.099-3.507,1.147c-3.697,0.139-6.761-1.255-9.378-3.774c-1.176-1.132-1.915-2.53-2.296-4.097
		c-0.264-1.085-0.149-2.097,1.25-2.769c-0.269,1.06-0.298,1.946-0.233,2.829c0.081,1.105,0.56,2,1.638,2.405
		c1.057,0.397,1.763-0.176,1.487-1.25c-0.438-1.703-0.029-3.091,1.156-4.363c1.392-1.494,2.232-3.228,2.023-5.36
		c-0.091-0.928,0.307-1.744,0.748-2.549c1.297-2.368,2.636-4.72,3.528-7.281c1.511-4.338,1.119-5.616-2.386-8.599
		c-3.035-2.583-6.222-4.985-9.15-7.696c-0.633-0.586-1.035-1.18-0.907-2.117c0.628-4.587,1.527-9.11,2.82-13.563
		c2.663-9.173,8.022-16.124,16.424-20.804c7.339-4.087,15.205-6.257,23.509-6.721c11.656-0.652,22.987,0.858,33.719,5.804
		c5.494,2.532,9.454,6.329,11.248,12.275c1.559,5.167,2.46,10.43,2.633,15.796c0.153,4.749,0.276,9.511-0.195,14.259
		c-0.044,0.445-0.227,1.035,0.221,1.321c0.477,0.304,0.869-0.213,1.247-0.438c3.17-1.887,6.357-3.749,9.848-4.986
		c3.029-1.074,3.18-0.946,4.64,1.909c0.506,0.991,0.794,2.114,1.552,3.059c0.475-0.578,0.311-1.111,0.314-1.599
		c0.026-4.886-0.098-9.778,0.081-14.658c0.196-5.332,0.071-10.628-0.995-15.858c-0.937-4.595-2.517-8.913-6.069-12.237
		C110.675,5.249,97.591,0.432,82.745,0.028c-9.002-0.245-17.753,1.128-26.339,3.811c-11.114,3.473-20.881,9.069-28.584,17.93
		c-2.649,3.047-4.9,6.343-6.025,10.347c-1.402,4.988-3.051,9.907-4.573,14.861c-0.332,1.079-0.72,2.048-1.698,2.774
		c-1.477,1.097-2.07,2.78-2.6,4.472c-0.384,1.228-0.539,2.417,0.245,3.57c0.242,0.356,0.39,0.795,0.014,1.182
		c-0.534,0.552-0.394,1.173-0.228,1.809c0.397,1.514,1.013,2.97,2.05,4.107c1.094,1.2,1.191,2.443,0.931,3.914
		c-0.613,3.468-1.768,6.798-2.516,10.232c-0.701,3.221-0.561,6.257,1.179,9.177c1.798,3.018,3.386,6.161,5.184,9.178
		c2.956,4.958,5.498,10.085,6.916,15.71c0.933,3.703,1.877,7.465,1.637,11.275c-0.194,3.082,0.657,5.632,2.888,7.439
		c1.809,1.466,2.487,3.235,2.936,5.292c0.128,0.585,0.356,1.155,0.428,1.745c0.222,1.805,1.372,2.706,2.939,3.374
		c2.787,1.19,5.721,1.731,8.681,2.201c2.572,0,5.144,0,7.716,0c5.091-1.009,10.066-2.434,14.989-4.068
		c1.74-0.577,3.245-1.434,4.685-2.567c6.778-5.33,13.552-10.692,22.141-12.935c0.55-0.144,0.983-0.506,1.357-0.938
		c1.996-2.304,4.186-4.419,6.416-6.49c6.029-5.599,12.529-10.672,18.423-16.422c3.444-3.36,6.793-6.812,8.845-11.256
		C131.4,88.423,132.092,87.089,131.709,85.469z M54.729,120.237c-1.591,1.968-3.349,3.827-5.285,5.505
		c-0.787,0.682-1.695,1.143-2.759,1.252c-2.856,0.295-5.649,0.04-8.267-1.183c-2.536-1.185-3.448-2.905-3.148-5.691
		c0.133-1.236,0.529-2.416,0.922-3.593c0.202-0.605,0.515-0.867,1.137-0.548c0.076,0.039,0.156,0.069,0.236,0.099
		c2.234,0.843,2.234,0.843,1.487,3.074c-1.296,3.87-0.773,4.776,3.197,5.438c0.925,0.154,1.865,0.23,2.801,0.297
		c1.134,0.08,2.151-0.068,2.506-1.423c0.147-0.564,0.681-0.722,1.139-0.562c1.734,0.609,2.953-0.347,4.196-1.272
		C53.508,121.171,54.117,120.702,54.729,120.237z M38.963,111.759c3.184,0.35,6.368,0.709,9.555,1.036
		c1.187,0.122,2.191,0.641,3.376,1.315c-0.701,0.293-1.252,0.392-1.829,0.391c-4.686-0.009-9.368,0.258-14.034-0.673
		c-1.787-0.357-2.833-1.341-3.785-2.82C34.485,111.258,36.724,111.512,38.963,111.759z M17.42,60.466
		c0.142-0.471,0.47-0.243,0.73-0.175c2.639,0.695,5.25,1.47,7.722,2.708c-2.017,0.165-4.009,0.354-5.997,0.597
		C18.663,63.744,17.058,61.662,17.42,60.466z M16.933,78.558c-0.02-0.298-0.003-0.599-0.003-0.899
		c0.13-2.776,0.714-5.416,2.269-7.785c0.489-0.745,0.934-0.972,1.754-0.411c1.263,0.862,2.698,1.276,4.245,1.242
		c0.128-0.003,0.26-0.004,0.384,0.022c1.2,0.257,2.584,0.261,3.154,1.619c0.575,1.368-0.245,2.433-0.951,3.536
		c-1.626,2.54-4.1,3.964-6.706,5.194C18.419,82.333,17.128,81.513,16.933,78.558z"/>
	<path d="M89.797,62.387c4.341-1.58,7.404-4.39,8.71-8.914c0.182-0.63,0.625-1.537,0.072-1.891
		c-0.566-0.363-1.036,0.546-1.488,0.955c-1.655,1.498-3.286,3.027-5.417,3.844c-2.339,0.897-4.1,0.26-5.293-1.928
		c-1.457-2.67-2.057-5.546-1.749-8.56c0.179-1.749,0.572-3.486,1.825-4.853c0.964-1.052,1.881-1.205,3.096-0.452
		c1.867,1.157,3.061,2.845,3.617,4.963c0.185,0.707,0.208,1.446,0.007,2.165c-0.275,0.982-1.011,1.526-1.946,1.644
		c-0.972,0.123-1.407-0.644-1.749-1.422c-0.282-0.642-0.32-1.326-0.375-2.011c-0.02-0.247-0.043-0.569-0.345-0.612
		c-0.288-0.041-0.432,0.239-0.55,0.467c-0.52,1.002-0.501,2.09-0.351,3.146c0.243,1.718,0.862,3.31,2.638,3.963
		c1.781,0.655,3.134-0.356,4.369-1.487c0.344-0.315,0.63-0.699,0.912-1.075c1.432-1.913,2.09-4.13,2.319-6.456
		c0.462-4.685-0.384-9.115-4.43-11.945c-7.719-5.399-16.142-6.451-25.011-3.036c-0.601,0.232-1.267,0.465-1.618,1.079
		c0.227,0.286,0.437,0.224,0.645,0.187c2.632-0.468,5.292-0.502,7.942-0.345c2.845,0.169,5.572,0.86,8.07,2.329
		c0.922,0.542,0.771,1.162,0.413,1.943c-0.386,0.841-0.938,0.672-1.589,0.407c-2.632-1.074-5.359-1.83-8.188-2.107
		c-5.983-0.587-11.527,0.547-16.281,4.459c-1.236,1.017-2.266,2.223-2.994,3.71c0.513,0.197,0.709,0.008,0.912-0.137
		c3.777-2.703,7.976-3.841,12.609-3.512c3.733,0.266,7.075,1.599,10.218,3.532c0.364,0.223,0.815,0.506,0.489,1.011
		c-0.59,0.913-0.75,2.112-1.776,2.722c-0.101,0.06-0.38-0.143-0.557-0.255c-4.261-2.676-8.978-3.129-13.742-2.3
		c-7.333,1.277-13.058,5.362-17.679,11.08c-0.343,0.424-0.798,0.866-0.645,1.798c0.611-0.576,1.05-1.024,1.526-1.429
		c0.488-0.416,0.983-0.838,1.526-1.174c6.763-4.184,14.096-6.001,21.99-4.83c5.681,0.843,9.921,3.838,12.126,9.332
		c1.495,3.725,1.692,7.583,1.052,11.492c-0.176,1.074,0.127,1.449,1.166,1.62c1.262,0.208,2.512,0.551,3.733,0.943
		c3.416,1.098,6.447,2.78,8.504,5.866c0.213,0.32,0.287,0.963,0.865,0.706c0.452-0.201,0.355-0.752,0.296-1.163
		c-0.222-1.553-1.159-2.743-2.095-3.918c-1.826-2.292-3.984-4.253-6.279-6.055c-0.851-0.668-1.129-1.51-1.079-2.469
		C88.264,62.478,89.211,62.6,89.797,62.387z"/>
	<path d="M81.345,69.036c-0.476-1.46-1.325-2.681-2.301-3.828c-3.406-4.001-7.594-7.025-12.111-9.625
		c-1.073-0.617-2.173-1.199-3.389-1.523c-0.812-0.216-1.454-0.102-1.777,0.759c-0.896,2.389-2.86,3.014-5.132,3.093
		c-2.225,0.077-4.447,0.182-6.65,0.52c-3.422,0.526-6.674,1.649-8.317,4.882c-0.942,1.855-2.167,1.893-3.727,1.818
		c-0.467-0.022-0.927-0.156-1.394-0.214c-0.289-0.036-0.623-0.122-0.82,0.189c-0.221,0.348-0.063,0.688,0.172,0.94
		c0.317,0.341,0.649,0.723,1.055,0.915c1.609,0.76,3.304,1.269,5.094,0.884c0.926-0.199,1.451,0.08,2.083,0.753
		c1.961,2.091,3.906,4.207,6.15,6.015c6.041,4.868,12.808,5.171,19.934,3.171c0.359-0.101,0.978-0.134,0.909-0.709
		c-0.052-0.431-0.579-0.459-0.939-0.545c-1.976-0.473-3.958-0.921-6.156-1.429c3.627-0.487,7.036-0.584,10.455-0.293
		c0.213,0.018,0.433,0.077,0.639,0.045c0.801-0.123,1.62-0.502,1.79-1.243c0.145-0.629-0.805-0.555-1.235-0.846
		c-0.06-0.041-0.092-0.121-0.171-0.23c1.686-0.125,3.337-0.257,4.846-1.056C81.392,70.932,81.713,70.167,81.345,69.036z
		 M57.713,71.784c-0.279,0.314-0.968,0.022-1.451-0.133c-0.92-0.295-1.93-0.262-2.999-0.802c1.004-0.823,2.045-1.095,3.028-1.472
		c0.854-0.328,0.859,0.479,1.054,0.925C57.555,70.779,58.094,71.354,57.713,71.784z M66.564,69.551
		c-2.714-0.563-5.427-1.131-8.14-1.698c-1.086-0.227-2.173-0.446-3.254-0.692c-0.407-0.092-0.912-0.154-0.979-0.676
		c-0.07-0.538,0.404-0.758,0.799-0.855c3.45-0.841,6.899-1.238,10.258,0.368c1.297,0.62,1.911,1.773,2.221,3.085
		C67.452,69.863,66.966,69.635,66.564,69.551z"/>
	<path d="M86.926,76.712c2.223,0.433,3.981,1.735,5.667,3.143c0.966,0.807,1.901,1.653,2.876,2.504
		c0.329-0.562,0.034-0.893-0.133-1.208c-1.399-2.656-3.295-4.91-5.689-6.711c-1.723-1.296-3.682-1.989-5.881-1.858
		c-1.12,0.066-2.045,0.343-2.617,1.484c-0.497,0.991-1.3,1.792-2.167,2.513c-5.611,4.666-16.542,5.646-22.869,2.047
		c-0.301-0.171-0.639-0.658-0.981-0.256c-0.276,0.325,0.087,0.72,0.286,1.037c0.816,1.302,1.921,2.291,3.292,2.983
		c3.296,1.666,6.809,1.872,10.406,1.574c3.896-0.322,7.707-1.144,11.535-1.878c0.919-0.177,1.85-0.392,2.8-0.219
		c2.445,0.447,4.651,3.06,5.083,6.012c0.325,2.219-1.069,4.533-3.415,5.669c-2.03,0.983-3.787,0.272-4.483-1.866
		c-0.209-0.643-0.36-1.339-0.355-2.01c0.006-0.894,0.095-1.893,1.197-2.161c0.735-0.179,1.67,0.923,1.862,1.997
		c0.091,0.507-0.026,0.946-0.335,1.323c-0.825,1.005,0.044,1.064,0.665,1.114c1.123,0.091,1.995-0.808,2.157-2.109
		c0.37-2.967-2.128-5.325-5.176-4.748c-2.603,0.493-5.152,1.283-7.801,1.52c-3.4,0.305-6.791,0.914-10.228,0.445
		c-0.312-0.043-0.774-0.21-0.914,0.188c-0.149,0.423,0.334,0.538,0.615,0.684c0.493,0.256,1.002,0.492,1.525,0.676
		c3.073,1.079,6.28,1.277,9.492,1.341c3.218,0.064,3.197,0.024,3.952,3.131c0.174,0.716-0.003,0.812-0.656,0.708
		c-1.987-0.314-3.979-0.591-5.971-0.868c-0.271-0.038-0.634-0.255-0.803,0.118c-0.157,0.348,0.185,0.55,0.407,0.718
		c3.704,2.812,7.599,4.96,12.491,5.053c6.093,0.116,10.453-7.092,9.459-11.749c-0.793-3.715-3.165-6.284-6.148-8.387
		c-0.586-0.413-1.004-0.809-0.691-1.564C85.712,76.297,86.376,76.604,86.926,76.712z"/>
	<path d="M126.194,58.996c-0.234-1.53-0.624-1.778-2.165-1.52c-1.916,0.322-3.546,1.224-5.018,2.452
		c-3.08,2.57-5.275,5.823-7.172,9.305c-0.276,0.507-0.388,1.038-0.255,1.611c0.407,1.756,0.809,3.531,1.723,5.094
		c0.542,0.926,0.48,1.644-0.105,2.467c-0.719,1.012-1.391,2.059-2.06,3.106c-0.256,0.4-0.486,0.86-0.096,1.301
		c0.375,0.424,0.866,0.281,1.321,0.152c0.879-0.249,1.393-0.966,1.969-1.594c0.553-0.602,1.081-1.238,1.928-1.429
		c2.699-0.609,4.275-2.205,4.473-5.035c0.163-2.332,0.603-4.682-0.885-6.82c-0.459-0.66-0.701-1.464-0.76-2.296
		c-0.059-0.831,0.161-1.509,0.916-1.975c0.776-0.479,1.47-0.297,2.15,0.176c0.75,0.522,1.37,1.182,1.825,1.963
		c0.646,1.109,1.217,2.261,1.833,3.388c0.151,0.277,0.19,0.779,0.633,0.665c0.407-0.105,0.291-0.573,0.296-0.896
		c0.019-1.028,0.007-2.057,0.007-3.355C126.89,63.657,126.55,61.324,126.194,58.996z"/>
</g>
<g>
</g>
<g>
</g>
<g>
</g>
<g>
</g>
<g>
</g>
<g>
</g>
<g>
</g>
<g>
</g>
<g>
</g>
<g>
</g>
<g>
</g>
<g>
</g>
<g>
</g>
<g>
</g>
<g>
</g>
</svg>
