<?xml version="1.0" encoding="iso-8859-1"?>
<!-- Generator: Adobe Illustrator 19.1.0, SVG Export Plug-In . SVG Version: 6.00 Build 0)  -->
<svg version="1.1" id="Capa_1" xmlns="http://www.w3.org/2000/svg" xmlns:xlink="http://www.w3.org/1999/xlink" x="0px" y="0px"
	 viewBox="0 0 146.533 146.533" style="enable-background:new 0 0 146.533 146.533;" xml:space="preserve">
<g id="Pope_Francis">
	<path id="XMLID_547_" d="M56.334,19.127c3.825-1.122,6.36-4.16,9.574-6.191c-4.42,0.24-7.057,3.132-9.586,6.184
		c-0.206,0.211-0.412,0.422-0.618,0.632c0.08,0.067,0.201,0.208,0.235,0.189C56.255,19.769,56.698,19.635,56.334,19.127z
		 M107.294,53.776l-0.053-0.044c1.603,1.33,3.175,2.69,4.345,4.442c0.072,0.306,0.144,0.613,0.217,0.919
		c0.989,1.244,2.255,0.138,3.361,0.396c0.577,0.22,1.154,0.44,1.73,0.66c0.192,0.31,0.469,0.498,0.775,0.219
		c2.16-1.971,4.784-2.609,7.606-2.725c0.276-0.011,0.879,0.131,0.774-0.262c-0.477-1.793,1.499-1.642,1.983-2.641
		c3.156,0.18,5.471,1.553,6.417,4.703c0.499,1.66,2.19,1.123,3.16,1.883c0.454,0.356,0.792,0.123,0.899-0.324
		c0.583-2.447,1.754-4.795,1.63-7.36c-0.174-3.608-0.519-7.209-0.839-10.808c-0.232-2.617-0.761-5.083-2.433-7.307
		c-2.068-2.751-3.754-5.785-5.718-8.619c-2.62-3.78-4.996-7.813-8.495-10.848C110.556,5.569,96.877,5.642,82.575,10.37
		c-0.402,0.029-0.824-0.013-1.202,0.098c-9.08,2.676-17.54,6.845-26.054,10.878c-1.911,0.905-1.914,2.838-2.762,5.096
		c2.934-1.761,4.998-3.508,7.654-4.145c-2.328,2.255-4.86,4.164-7.422,6.032c-1.624,1.184-2.557,2.669-2.321,4.739
		c-0.195-0.2-0.326-0.192-0.366,0.113c0.113-0.053,0.226-0.106,0.339-0.159c3.273-2.428,6.527-4.883,10.096-6.877
		c0.114,0.165,0.227,0.33,0.341,0.496c-0.657,0.606-1.275,1.261-1.978,1.809c-3.302,2.577-6.673,5.073-9.506,8.191
		c-1.49,1.64-1.55,1.942-1.128,4.244c3.301-3.483,6.786-6.745,11.145-9.998c-0.277,1.768-1.054,2.188-1.615,2.752
		c-2.839,2.853-5.625,5.766-8.589,8.485c-1.645,1.509-2.19,3.142-1.679,5.229l-0.108-0.004l0.062,0.013
		c3.806-3.78,7.395-7.788,11.673-11.071c0.165,0.133,0.329,0.266,0.494,0.399c-3.897,4.211-7.797,8.418-11.686,12.636
		c-0.562,0.609-1.41,1.157-0.703,2.299c0.775-0.682,1.493-1.344,2.25-1.959c0.237-0.193,0.585-0.79,0.871-0.073
		c0.102,0.256-0.087,0.628-0.141,0.952c-0.227,0.134-0.694,0.215-0.471,0.537c0.173,0.25,0.557,0.101,0.656-0.291
		c1.912-0.142,3.183-2.169,5.288-1.93c-0.156,0.947-1.379,1.113-1.203,2.231c1.636,0.285,3.301,0.15,4.967,0.595
		c4.482,1.197,9.092,1.855,13.711,2.364c0.296,0.027,0.592,0.054,0.889,0.08c2.872,1.044,5.613,1.332,8.223-0.823
		c4.642-3.832,10.06-3.07,15.427-2.374C101.066,51.366,104.069,52.953,107.294,53.776z M130.584,63.954
		c-0.556-0.586-1.104-1.196-2.169-0.623c0.66,0.414,1.181,0.741,1.702,1.067c1.872,2.94,2.28,6.294,3.122,9.766
		c-1.431-0.415-1.368-1.329-1.513-2.106c-0.204-1.098-0.685-2.043-1.696-2.54c-0.892-0.439-1.558-0.826-1.163-2.017
		c0.202-0.609-0.199-1.163-0.827-1.288c-0.579-0.115-0.834,0.35-0.97,0.873c-0.59,2.268-1.896,2.295-3.703,1.293
		c-1.42-0.787-2.883-1.641-4.681-1.228c2.743,1.444,4.822,4.405,8.637,3.238c-0.552,2.394-2.537,1.506-3.968,2.072
		c1.461,0.897,3.006,0.759,4.08,1.768c-2.343,1.735-4.447-0.597-6.708-0.42c0.186,1.092,0.773,2.249,0.436,2.98
		c-1.036,2.253,0.492,3.113,1.842,4.12c2.588,1.93,5.68,2.303,8.742,2.793c0.889,0.142,1.071-0.25,1.34-0.955
		c1.256-3.279,2.758-6.437,2.687-10.121c-0.046-2.4-0.169-4.835,0.917-7.219c0.69-1.516-0.491-2.708-2.053-3.324
		c-3.07-1.209-6.241-1.978-9.527-2.208c-1.477-0.103-2.942,0.041-4.216,1.084c2.597,0,4.977,0.08,7.349-0.022
		c2.507-0.108,3.84,1.582,5.231,3.187c0.447,0.516,0.509,1.367-0.001,1.826c-0.82,0.739-1.011-0.355-1.44-0.708
		C131.538,64.831,131.068,64.385,130.584,63.954z M114.725,128.903c0.956-0.227,1.529-0.97,2.056-1.681
		c3.479-4.691,6.564-9.653,8.674-15.093c3.239-8.352,4.49-17.256,6.763-25.88c0.332-1.26-0.214-1.307-1.175-1.442
		c-3.825-0.539-7.496-1.584-10.821-3.744c-0.089,1.741,1.112,3.627,0.153,4.928c-1.761,2.387-0.961,4.605-0.451,6.984
		c0.448,2.086,0.82,4.195,1.085,6.312c0.64,5.111,0.578,5.768-0.533,8.169c-0.534-6.014-1.565-11.532-3.193-16.927
		c-0.136-0.45,0.008-0.825,0.287-1.133c2.308-2.545,1.502-5.535,1.183-8.432c-0.53-4.816-2.289-9.426-2.479-14.295
		c-0.059-1.502-0.451-2.396-2.072-2.792c-1.609-0.393-2.803,0.042-3.671,1.256c-1.047,1.466-1.947,3.044-2.832,4.618
		c-1.963,3.492-4.675,5.905-8.82,6.345c-4.967,0.197-9.858-0.136-14.452-2.264c-3.529-1.634-5.15-4.501-4.78-8.339
		c0.134-1.389,0.201-2.809,0.556-4.147c0.612-2.305-0.549-3.177-2.516-3.594c-5.289-1.123-10.555-2.376-15.873-3.336
		c-2.475-0.447-5.185-1.77-7.466-0.805c-2.822,1.194-5.313,0.924-7.739-0.21c-2.806-1.312-4.58,0.028-6.505,1.811
		c4.153-1.392,7.262-0.223,9.634,3.35c1.883,2.836,1.271,4.29-2.219,4.665c-0.059-1.147,0.905-2.721-0.667-3.277
		c-1.247-0.441-2.005,0.897-2.646,1.822c-3.209,4.632-3.234,14.809,1.606,17.85c0.803,0.504,0.663,1.239,0.617,1.965
		c-0.028,0.449-0.274,0.8-0.736,0.852c-0.881,0.098-1.343-0.493-1.705-1.17c-0.502-0.939-0.913-1.935-1.487-2.827
		c-0.534-0.829-0.454-2.652-1.595-2.334c-1.096,0.305,0.119,1.663,0.145,2.577c0.117,4.225,1.811,7.806,5.068,10.535
		c2.388,2.001,5.093,2.087,6.968,0.398c1.708-1.539,1.966-5.343,0.477-7.637c-1.133,1.132-1.521,2.869-2.806,3.714
		c-2.297-3.889,2.176-4.672,3.006-7.22c2.119,9.803,3.248,19.672,5.381,29.359c-0.159,0.124-0.319,0.248-0.478,0.372
		c-1.833-1.105-2.799-2.917-3.682-4.733c-1.474-3.031-2.196-6.294-2.593-9.627c-0.092-0.768-0.061-1.485-1.222-1.258
		c-2.363,0.464-4.28-0.6-6.096-1.929c-0.146-0.092-0.291-0.184-0.437-0.277c0.016,0.21,0.032,0.42,0.048,0.63
		c1.083,5.724,2.732,11.291,4.612,16.798c1.461,4.28,2.978,8.557,5.377,12.399c3.816,6.109,8.913,10.507,16.478,11.113
		c3.336,0.267,5.564,1.718,6.265,5.177c0.192,0.945,0.639,1.874,1.132,2.715c1.613,2.743,3.307,3.079,5.812,1.228
		c3.231-2.388,6.159-5.213,9.872-6.907c1.124-0.513,2.249-1.206,3.808-0.645c-3.028,3.651-6.475,6.717-8.437,11.341
		c1.834-0.176,2.749-1.171,3.803-1.865c5.875-3.869,11.221-8.58,17.944-11.105C112.615,130.784,113.93,130.157,114.725,128.903z
		 M0,144.229v-32.702c8.663-9.11,17.302-18.194,26.113-27.459c0.47,1.143,0.836,2.031,1.36,3.306
		c2.986-3.352,5.714-6.413,8.441-9.476c2.908-3.265,2.911-3.267,0.739-7.108c-0.564-0.997-1.141-1.989-1.751-2.958
		c-0.444-0.707-0.78-1.428-0.849-2.277c-0.489-6.024,3.727-12.465,9.49-14.334c1.178-0.382,1.679-0.948,1.778-2.21
		c0.288-3.687,0.585-7.382,1.121-11.038c1.645-11.205,6.267-20.752,16.306-26.75c8.946-5.345,18.557-8.954,29.135-9.429
		c2.787-0.125,5.597-1.074,8.348-0.401c10.322,2.527,19.262,7.457,26.014,15.843c3.506,4.354,6.554,9.048,9.7,13.67
		c2.897,4.256,5.316,8.521,5.245,13.978c-0.065,5.044,1.535,10.138-0.636,15.089c-0.725,1.654-0.462,2.662,1.255,3.694
		c1.85,1.111,4.162,2.709,3.817,5.063c-0.766,5.235-2.722,10.18-6.368,14.128c-1.365,1.478-2.555,2.856-3.14,4.786
		c-0.836,2.758-1.739,5.51-4.183,7.363c-0.545,0.414-0.44,1.006-0.527,1.564c-1.655,10.529-5.278,20.289-11.323,29.116
		c-1.499,2.189-3.069,4.319-5.361,5.7c-1.289,0.777-0.829,1.298-0.264,2.263c1.857,3.167,4.589,4.956,7.866,6.618
		c7.693,3.9,15.606,5.629,24.204,4.972L0,144.229z M38.735,76.559c-3.174,3.981-6.08,7.753-9.139,11.397
		c-1.077,1.283-1.277,2.325-0.716,3.947c2.942,8.521,5.719,17.1,8.563,25.655c1.742,5.241,3.501,10.476,5.323,15.924
		c2.464-1.685,4.656-3.183,7.018-4.798c0.565,3.183,1.118,6.004,1.559,8.843c1.235,7.953,1.217,7.956,9.228,7.532
		c0.078-0.004,0.154-0.048,0.471-0.152c-2.047-4.91-4.098-9.802-6.117-14.707c-0.26-0.633-0.707-0.889-1.304-0.932
		c-3.249-0.23-4.195-2.505-4.765-5.21c-0.319-1.514-0.828-2.989-1.251-4.481c-3.109-10.948-6.259-21.881-7.853-33.196
		C39.307,83.217,40.013,79.961,38.735,76.559z M94.159,70.679c0.106-0.874,0.641-0.969,0.994-1.249
		c0.569-0.451,1.436-0.815,1.304-1.644c-0.143-0.899-1.135-0.825-1.813-0.967c-1.686-0.352-3.412-0.524-5.084-0.924
		c-1.772-0.424-3.607-0.84-4.82-2.575c2.062-0.43,3.628,1.526,5.96,0.655c-2.829-2.426-7.868-2.924-6.675-8.35
		c-1.844,3.63-2.112,7.32-2.12,11.095c-0.006,2.729,1.312,4.402,3.603,5.565c3.694,1.875,7.633,2.293,11.71,2.17
		c5.882-0.177,11.405-6.107,11.151-12.467C104.69,66.84,99.555,68.796,94.159,70.679z M109.262,134.454
		c-5.718,1.461-7.945,5.086-7.379,10.657c1.859,0,3.981-0.057,6.097,0.022c1.189,0.045,1.306-0.549,1.295-1.495
		C109.24,140.613,109.262,137.587,109.262,134.454z M94.921,53.381c2.558-0.534,3.952,0.889,5.022,2.211
		c0.715,0.884,1.671,1.378,2.324,2.206c0.417,0.528,0.832,0.915,1.392,0.593c0.689-0.397,0.093-1.018,0.026-1.542
		c-0.049-0.383-0.249-0.798,0.151-1.034c0.725-0.208,1.087,1.136,1.865,0.436c0.064-0.821-0.547-0.858-0.949-1.055
		c-3.576-1.754-7.41-2.502-11.333-2.965c-3.045-0.36-5.014,1.626-7.22,3.116c-0.334,0.225-0.544,0.629-0.367,1.082
		c0.191,0.488,0.648,0.457,1.032,0.415c0.563-0.061,1.118-0.204,1.671-0.332c3.203-0.741,6.401-1.564,9.459,0.531
		c0.271,0.186,0.751,0.067,1.193,0.093C98.379,55.243,96.546,54.644,94.921,53.381z M87.618,59.685
		c5.62,2.913,11.089,1.178,16.37,1.807c-1.961-2.298-6.254,1.332-7.069-3.846C94.593,62.908,90.965,58.876,87.618,59.685z
		 M139.371,64.448c-0.954,0.802-1.503,2.304-1.333,3.276c0.25,1.431,2.117,0.985,3.28,1.293c1.102,0.292,1.256-0.822,1.451-1.545
		C142.935,66.851,140.243,64.408,139.371,64.448z M134.687,83.342c4.323-1.17,4.559-1.91,2.928-7.061
		C136.617,78.687,135.723,80.843,134.687,83.342z M36.431,62.248c-2.227,3.835,1.132,5.936,2.454,8.657
		C38.876,67.786,36.638,65.344,36.431,62.248z M136.631,84.217c-1.113,0.652-2.408-0.011-2.237,1.264
		c0.256,1.907-0.796,3.044-1.757,4.35c-0.308,0.419-0.634,1.096,0.117,1.434c0.547,0.246,0.917-0.228,1.121-0.687
		C134.697,88.728,135.489,86.863,136.631,84.217z M140.87,71.942c-0.142,1.382-0.204,2.427-0.376,3.452
		c-0.07,0.415-0.262,0.823,0.227,1.011c0.533,0.206,0.655-0.292,0.813-0.647C142.11,74.462,141.98,73.266,140.87,71.942z
		 M84.841,54.999c0.296-0.515-0.011-0.739-0.118-0.696c-0.254,0.104-0.489,0.326-0.646,0.558c-0.055,0.081,0.143,0.332,0.226,0.506
		C84.545,55.202,84.786,55.036,84.841,54.999z"/>
	<polygon id="XMLID_516_" points="47.484,47.361 47.422,47.348 47.531,47.352 	"/>
	<path id="XMLID_513_" d="M98.825,77.93c1.481-1.056,3.095-1.345,4.886-0.908c-0.232,1.224-1.078,0.982-1.887,1.003
		c-2.32,0.062-4.311,3.635-3.164,5.649c0.814,1.428,1.824,1.947,3.417,0.918c2.445-1.579,6.28-0.517,6.994,2.15
		c0.699,2.61,2.065,2.219,3.855,1.574c1.287-0.464,2.279-1.593,3.936-1.706c-0.045,1.877-0.891,2.961-2.65,3.183
		c-1.515,0.191-2.519,0.867-2.483,2.44c0.028,1.251-0.52,1.184-1.32,0.815c-1.444-0.665-3.019-0.996-3.453-3.052
		c-0.433-2.05-2.265-2.652-4.199-2.67c-2.13-0.021-4.07-0.222-5.19-2.476c-0.686-1.381-1.6-0.254-2.191,0.185
		c-3.193,2.374-5.851,5.265-7.949,8.657c-0.928,0.176-0.882,1.853-2.327,1.465c2.308-3.928,5.64-6.988,7.958-10.76
		C94.615,81.864,96.354,79.598,98.825,77.93z"/>
	<path id="XMLID_512_" d="M85.491,101.205c1.428-1.89,3.245-2.442,5.597-2.02c2.006,0.359,4.09,0.449,6.132,0.399
		c2.584-0.064,5.03,0.138,7.3,1.544c1.036,0.642,2.201,0.841,3.508,0.784c3.87-0.169,6.546,2.252,9.104,4.698
		c0.86,0.822,0.843,2.119,0.69,3.267c-0.242,1.81-0.591,3.606-1.174,5.409c-0.165-1.863-0.463-3.726-0.461-5.588
		c0.002-2.305-1.252-3.158-3.281-3.488c-2.746-0.446-5.479-0.968-8.212-1.489c-1.784-0.34-3.466-0.953-4.964-2.021
		c-0.898-0.641-1.945-0.881-3.022-0.873c-1.96,0.014-3.85-0.089-5.795-0.637c-2.823-0.795-4.347,1.113-5.439,3.414
		c-0.421-0.035-1.042,0.195-0.754-0.68C85.015,103.029,85.237,102.112,85.491,101.205z"/>
	<path id="XMLID_511_" d="M50.87,70.286c-2.917,1.281-3.234,2.236-2.621,6.91c-2.007-1.042-2.345-2.217-1.301-4.522
		c1.569-3.464,1.569-3.464-0.098-6.479c2.127,0.253,3.334-1.128,4.721-2.623c1.049,2.083,2.021,3.839,0.764,6.148
		c-1,1.836-0.27,3.843,0.146,5.783c0.486,2.271-0.307,3.284-2.612,3.276C52.952,76.125,49.839,73.206,50.87,70.286z"/>
	<path id="XMLID_510_" d="M86.056,125.647c1.058,0.581,2.504-0.635,3.393,0.732c-6.508,3.192-6.159,3.526-8.538-3.576
		c-0.334-0.996-0.644-1.989-0.293-3.079c0.892,0.278,0.654,1.551,1.609,1.696c0.253,0.936,0.66,1.776,1.469,2.367
		C83.855,125.204,84.43,126.093,86.056,125.647z"/>
	<path id="XMLID_509_" d="M109.782,128.887c3.357-0.777,5.582-2.935,7.231-6.582c0.363,3.202-1.289,4.645-2.82,6.149
		c-0.954,0.448-1.903,0.91-2.865,1.342C110.406,130.209,109.931,129.813,109.782,128.887z"/>
	<path id="XMLID_508_" d="M59.145,107.832c0.005,0.204,0.01,0.409,0.015,0.613c-0.164-0.081-0.329-0.161-0.493-0.241
		C58.826,108.08,58.986,107.956,59.145,107.832z"/>
	<path id="XMLID_507_" d="M126.001,55.173c-1.138,2.903-3.703,1.575-5.746,2.104c0.118-1.135,1.494-0.857,1.577-1.803
		C123.198,55.044,124.57,54.693,126.001,55.173z"/>
	<path id="XMLID_505_" d="M110.352,118.811c-2.529-1.728-5.33-2.486-8.24-3.051c-2.879-0.558-5.692,0.893-8.536,0.1
		C96.837,112.902,108.357,114.801,110.352,118.811z"/>
	<path id="XMLID_503_" d="M60.073,36.17c-0.141,0.173-0.282,0.347-0.422,0.52c-0.164-0.133-0.329-0.266-0.494-0.399
		c0.169-0.162,0.338-0.324,0.507-0.485C59.801,35.927,59.937,36.048,60.073,36.17z"/>
	<path id="XMLID_502_" d="M59.665,35.805c0.094-0.216,0.234-0.457,0.471-0.245c0.089,0.079-0.037,0.399-0.064,0.609
		C59.937,36.048,59.801,35.927,59.665,35.805z"/>
	<path id="XMLID_501_" d="M60.538,26.145c0.202,0.004,0.404,0.008,0.606,0.012c-0.088,0.161-0.176,0.322-0.265,0.483
		C60.766,26.475,60.652,26.31,60.538,26.145z"/>
	<path id="XMLID_500_" d="M89.718,49.77c3.925-3.615,9.016-4.459,13.062-2.378c0.848,0.436,1.68,1.062,1.961,2.091
		c0.197,0.721,0.349,1.576-0.185,2.11c-0.43,0.43-1.073-0.139-1.575-0.336C98.865,49.638,94.548,49.643,89.718,49.77z"/>
	<path id="XMLID_499_" d="M107.294,53.776c-0.591-1.175-2.857-1.359-1.927-3.511c1.107,0.547,1.689,1.6,2.385,2.523
		c0.476,0.63-0.021,0.803-0.513,0.944C107.241,53.732,107.294,53.776,107.294,53.776z"/>
</g>
<g>
</g>
<g>
</g>
<g>
</g>
<g>
</g>
<g>
</g>
<g>
</g>
<g>
</g>
<g>
</g>
<g>
</g>
<g>
</g>
<g>
</g>
<g>
</g>
<g>
</g>
<g>
</g>
<g>
</g>
</svg>
