<?xml version="1.0" encoding="iso-8859-1"?>
<!-- Generator: Adobe Illustrator 19.1.0, SVG Export Plug-In . SVG Version: 6.00 Build 0)  -->
<svg version="1.1" id="Capa_1" xmlns="http://www.w3.org/2000/svg" xmlns:xlink="http://www.w3.org/1999/xlink" x="0px" y="0px"
	 viewBox="0 0 158.784 158.784" style="enable-background:new 0 0 158.784 158.784;" xml:space="preserve">
<g>
	<path d="M138.015,135.527c-2.102,0.684-4.031,1.247-6.188,0.715c1.11-0.39,2.209-0.521,2.781-1.862
		c-1.329-0.015-2.393,0.661-3.523,0.376c-0.364-0.092-0.792-0.177-0.864-0.618c-0.088-0.533,0.39-0.548,0.735-0.658
		c1.085-0.347,2.017-0.848,2.427-2.435c-0.509,0.346-0.714,0.462-0.892,0.61c-0.642,0.533-1.339,0.751-2.068,0.234
		c-0.474-0.337-0.439-0.91-0.331-1.397c0.244-1.098,1.103-0.479,1.71-0.549c1.473-0.169,2.932-0.36,4.017-1.672
		c-0.751-0.434-1.384-0.173-1.992-0.18c-3.135-0.033-3.657-0.469-4.214-3.506c-0.159-0.866-0.336-1.746-0.652-2.562
		c-0.589-1.523-1.286-3.005-2.014-4.681c1.708,0.631,2.77,1.78,4.282,3.005c-0.629-4.829-5.869-6.19-6.849-10.571
		c4.553,1.656,7.669,4.191,7.833,9.391c0.855-0.859,0.782-1.577,0.854-2.254c0.438-4.12-1.329-7.483-3.66-10.65
		c-1.645-2.234-3.35-4.427-4.928-6.708c-1.027-1.484-1.104-2.079-0.985-3.516c3.264,4.47,8.508,7.023,10.569,12.784
		c0.513-1.67-0.053-2.694-0.681-3.6c-1.399-2.021-2.891-3.979-4.378-5.938c-1.988-2.62-3.977-5.234-4.845-8.488
		c-0.1-0.375-0.394-0.811,0.074-1.115c0.911,0.225,0.406,1.452,1.342,1.738c0.875-2.245-0.812-4.03-0.923-6.078
		c1.224,0.35,0.713,1.746,1.697,2.394c0.566-1.435,0.345-2.645-0.331-3.837c-0.59-1.041-1.294-2.044-1.708-3.153
		c-0.453-1.212-0.935-2.617,0.344-3.653c1.091-0.883,1.393-2.042,1.596-3.306c0.714-4.452,0.577-8.925,0.264-13.391
		c-0.236-3.36-2.451-5.368-5.168-6.902c-0.716-0.404-1.492-0.532-1.549-1.617c-0.154-2.931-1.167-5.669-2.06-8.429
		c-0.973-3.007-1.856-6.051-2.058-9.208c-0.121-1.903-0.656-3.568-1.653-5.144c-1.348-2.132-2.565-4.355-4.024-6.406
		C101.496,10.738,89.785,3.756,75.564,0.817c-8.562-1.77-16.711-0.804-24.076,4.285c-7.154,4.943-12.522,11.475-16.719,19.018
		c-0.863,1.552-1.273,3.272-1.568,5.033c-0.519,3.093-0.105,6.157,0.025,9.242c0.191,4.536,0.083,9.084,0.275,13.62
		c0.268,6.329,1.351,12.521,3.805,18.439c-2.433,0.283-2.967,0.826-2.836,3.305c0.233,4.405,1.392,8.692,3.445,12.49
		c1.461,2.703,1.467,5.052,0.73,7.729c-0.712,2.588-1.987,4.899-3.383,7.16c-0.794,1.286-1.713,2.513-2.165,3.978
		c-0.289,0.938-0.445,1.898,0.615,2.698c0.408-2.645,1.979-5.084,4.202-6.452c-0.545,1.546-1.007,2.905-1.504,4.252
		c-0.851,2.307-1.807,4.581-2.23,7.023c-0.411,2.371,0.175,4.369,2.182,5.848c1.884,1.389,1.879,1.65,0.056,3.242
		c-1.222,1.067-2.674,1.664-4.223,2.031c-2.483,0.588-4.991,0.611-7.522,0.32c-1.297-0.149-2.596-0.518-3.905-0.141
		c6.584,2.031,13.101,3.132,19.444-2.056c-0.542,2.99,0.008,5.606-2.142,7.904c-3.236,3.46-6.155,7.229-6.608,12.267
		c-0.172,1.907-0.542,2.055-2.447,1.583c-1.822-0.451-3.072-1.814-4.952-3.096c1.051,2.324,2.432,3.955,4.319,4.228
		c2.595,0.376,4.357,1.403,5.418,3.741c0.007,0.016,0.196-0.052,0.377-0.101c-0.143-0.354-0.271-0.705-0.424-1.044
		c-0.701-1.555-0.59-2.663,1.27-3.4c1.758-0.697,3.166-2.045,4.635-3.243c2.493-2.033,4.575-4.54,7.286-6.318
		c0.791-0.519,1.599-1.146,3.125-0.365c-6.508,2.523-9.251,8.865-15.1,12.169c1.678,0.305,2.909,0.27,4.131-0.078
		c1.199-0.341,2.39-0.707,3.89-1.153c-1.717,2.232-1.78,2.582-0.573,4.682c2.015,3.507,4.794,6.317,8.107,8.606
		c0.412,0.285,0.859,0.829,1.499,0.285c-0.005-0.598-0.495-0.853-0.836-1.196c-2.251-2.261-4.014-4.862-5.336-7.756
		c-0.573-1.255-1.343-2.647-0.117-3.86c1.199-1.187,2.44-2.805,4.462-1.074c0.326-4.376,0.426-4.772,1.666-6.175
		c-0.425,5.135,0.336,9.687,4.703,12.827c3.799,2.732,7.733,5.133,12.528,5.205c0.086-0.214,0.171-0.428,0.257-0.642
		c-0.557-0.221-1.112-0.446-1.671-0.663c-2.655-1.028-5.24-2.193-7.548-3.89c-0.711-0.522-1.652-1.088-1.572-2.005
		c0.104-1.19-0.511-1.669-1.312-2.217c-0.849-0.581-1.451-1.408-1.836-2.362c-1.212-3.001-1.68-6.161-0.935-9.28
		c1.004-4.198,1.685-8.395,1.684-12.714c0-1.629,0.672-2.035,2.182-1.37c1.895,0.836,3.386,2.177,4.436,3.976
		c3.307,5.665,6.877,11.176,9.966,16.97c0.361,0.678,0.645,1.479,1.693,1.87c-0.004-1.663-0.633-2.979-1.115-4.312
		c-1.714-4.746-3.475-9.475-5.205-14.216c-0.192-0.525-0.476-1.182,0.014-1.599c0.543-0.461,1.056,0.11,1.507,0.397
		c1.714,1.091,3.17,2.489,4.611,3.908c1.378,1.357,2.365,1.302,3.331-0.291c0.581-0.959,0.904-2.073,1.363-3.108
		c0.535-1.206,0.316-2.01-1.045-2.473c-1.362-0.463-2.374-1.396-2.981-2.74c-0.957-2.116-0.772-2.618,1.255-3.712
		c4.646-2.508,9.501-4.371,14.777-5.045c1.495-0.191,3.018-0.354,4.428-0.951c1.352-0.572,2.043,0.078,2.422,1.261
		c0.19,0.594,0.192,1.247,0.36,1.851c0.271,0.973-0.056,2.677,1.247,2.612c1.254-0.063,0.952-1.724,0.953-2.711
		c0.004-3.214,1.141-5.916,3.395-8.157c3.489-3.469,6.981-6.93,8.958-12.208c0.104,0.879,0.159,1.161,0.168,1.444
		c0.209,6.24,0.218,12.494,0.683,18.715c0.343,4.587-0.391,8.597-3.774,11.91c-0.38,0.372-0.977,0.822-0.655,1.722
		c1.781-0.942,2.756-2.637,4.47-4.062c-0.119,2.606,0.572,4.876-0.123,7.175c-0.569,1.882-0.846,3.83-0.944,5.777
		c-0.118,2.344-0.028,4.699-0.028,7.151c1.106-0.349,1.173-1.199,1.439-1.847c1.914-4.665,1.884-4.649,5.944-1.359
		c1.074,0.871,1.559,1.759,1.338,3.228c-0.799,5.293-3.434,9.545-7.132,13.255c-0.413,0.414-1.302,0.821-0.841,1.481
		c0.561,0.804,1.251-0.012,1.804-0.298c2.366-1.227,4.189-3.025,5.326-5.451c0.99-2.113,1.955-4.24,2.846-6.395
		c0.424-1.025,1.061-1.409,2.153-1.448c0.998-0.035,2.03,0.437,3.156-0.035c-0.804-1.094-2.188-1.419-2.639-2.763
		c7.482,3.715,9.121,4.068,11.424,2.272c-5.079,0.486-7.776-2.859-10.859-5.998C133.285,138.492,135.963,138.135,138.015,135.527z
		 M116.854,49.28c0.219,0.497,0.785,1.089,0.253,1.534c-0.64,0.536-1.141-0.204-1.587-0.574c-0.977-0.81-1.712-1.84-2.423-2.884
		c-1.95-2.862-3.76-5.815-5.903-8.551c-3.579-4.567-7.741-8.561-11.943-12.539c2.652,1.553,4.936,3.577,7.211,5.611
		c5.485,4.902,10.224,10.429,14.012,16.751C116.603,48.843,116.754,49.051,116.854,49.28z M39.29,116.681
		c-0.137,0.591-0.147,1.422-0.84,1.567c-0.742,0.156-1.251-0.517-1.658-1.069c-0.822-1.113-1.08-2.366-0.853-3.749
		c0.492-2.99,2.135-5.47,3.573-8.075C39.739,109.172,40.154,112.948,39.29,116.681z M36.931,58.327
		c-1.24-7.066-2.555-14.124-0.926-21.33c0.366-1.618,0.918-3.137,1.743-4.573c0.301-0.524,0.807-1.09,0.399-1.734
		c-0.395-0.624-1.031,0.231-1.643-0.114c0.539-1.195,1.063-2.331,1.561-3.478c0.12-0.277,0.297-0.642-0.001-0.874
		c-0.407-0.316-0.735,0.034-0.932,0.324c-0.549,0.806-1.039,1.653-1.658,2.655c1.677-8.9,7.164-15.056,13.561-20.546
		c5.6-4.805,12.071-7.762,19.565-7.196c18.053,1.365,32.233,9.362,42.08,24.859c2.313,3.64,3.733,7.316,4.161,11.541
		c0.192,1.896,0.884,3.741,1.207,5.681c-1.78-1.985-3.514-3.954-5.354-5.828c-5.464-5.566-11.686-10.185-18.093-14.577
		c-0.387-0.266-0.876-0.866-1.304-0.417c-0.653,0.685,0.533,0.789,0.622,1.484C66.797,11.246,35.774,24.2,36.931,58.327z
		 M33.779,142.677c-0.099-4.141,4.767-10.095,8.419-10.172C38.993,135.667,37.431,139.904,33.779,142.677z M47.064,117.713
		c-2.922-1.811-3.088-2.682-1.544-8.086C46.938,112.361,47.558,115.609,47.064,117.713z M111.902,85.874
		c-0.349,3.729-2.118,6.823-5.74,8.554c-3.04,1.453-6.097,2.755-9.571,2.554c-0.767-0.044-1.595,0.005-2.189,0.464
		c-1.641,1.269-3.512,1.161-5.412,1.185c-4.602,0.058-9.197,0.22-13.656,1.588c-0.644,0.197-1.388,0.255-2.053,0.156
		c-1.392-0.208-2.591,0.133-3.789,0.816c-2.349,1.338-5.409,0.751-7.207-1.301c-0.686-0.784-0.764-1.589-0.43-2.615
		c1.032-3.176-0.54-5.379-3.807-5.5c-2.322-0.086-3.292-1.92-2.07-3.926c0.229-0.376,0.488-0.736,0.747-1.094
		c0.848-1.17,0.727-2.339-0.64-2.743c-2.98-0.88-4.035-3.346-5.167-5.761c-0.96-2.046-2.456-3.473-4.45-4.449
		c-2.567-1.256-3.775-3.215-3.204-6.133c0.176-0.897-0.126-1.696-0.636-2.489c-1.79-2.785,0.409-7.697,3.65-8.293
		c0.425-0.078,0.702,0.103,1.039,0.287c2.239,1.221,4.966,0.838,6.74-0.951c0.668-0.674,1.283-1.348,2.297-1.556
		c1.15-0.236,1.299-1.22,1.412-2.198c0.049-0.43,0.141-0.92,0.636-1.056c0.141-0.038,0.393,0.228,0.556,0.392
		c1.898,1.916,2.564,1.765,3.316-0.765c0.071-0.239,0.107-0.501,0.499-0.576c0.492,3.796-3.549,5.491-4.121,8.795
		c0.833,0.409,1.652-0.813,2.327,0.022c0.607,0.751,0.297,1.707,0.256,2.567c-0.05,1.066-0.31,2.123-0.34,3.188
		c-0.11,3.875,0.899,4.767,4.667,4.196c0.24,0.721-0.466,1.447,0.154,2.44c2.205-1.72,3.813-3.734,4.529-6.44
		c0.19-0.719,0.266-1.491,0.895-2.039c1.223-1.065,2.613-0.931,3.702,0.369c0.282,0.336,0.581,0.675,0.931,0.933
		c0.9,0.665,1.819,1.613,3.039,0.933c1.364-0.76,1.617-2.164,1.596-3.61c-0.004-0.296,0.022-0.676-0.388-0.757
		c-0.386-0.076-0.532,0.254-0.695,0.516c-0.394,0.635-0.555,1.431-1.252,1.854c-0.348,0.211-0.724,0.235-1.049-0.055
		c-0.288-0.258-0.24-0.507,0.008-0.805c1.4-1.684,1.215-3.659-0.571-5.345c-0.521-0.492-0.89-0.926-1.054-1.676
		c-0.303-1.386-1.709-1.872-2.731-0.829c-2.383,2.432-4.921,1.024-7.438,0.546c-0.602-0.114-0.492-0.626-0.445-1.07
		c0.352-3.345-0.29-6.662-0.299-10.006c-0.016-5.697-3.977-7.898-9.71-7.62c-3.908,0.19-7.077,2.061-10.014,4.461
		c-0.546,0.446-1.039,1.052-2.214,1.217c1.16-1.386,1.625-2.522,0.517-3.935c-0.413-0.526,0.366-1.392,0.764-2.026
		c3.388-5.401,8.09-9.294,13.869-11.893c13.992-6.291,27.021-4.61,38.887,5.063c3.06,2.494,5.625,5.466,6.424,9.712
		c0.703,3.735,2.887,6.965,4.629,10.321c0.203,0.392,0.409,0.785,0.653,1.151c2.373,3.558,2.822,6.757-0.591,10.23
		c-2.64,2.686-4.087,6.336-5.435,9.891c-0.181,0.477-0.618,1.125,0.052,1.527c0.523,0.313,0.933-0.22,1.311-0.517
		c1.15-0.905,2.348-1.702,3.793-2.058c2.278-0.561,3.675,0.289,4.038,2.578C112.178,76.799,112.324,81.361,111.902,85.874z
		 M48.69,46.588c-1.778,0.896-3.022,2.221-3.285,4.294c-0.039,0.306-0.124,0.621-0.26,0.896c-0.201,0.405-0.522,0.799-1.017,0.654
		c-0.6-0.176-0.402-0.712-0.285-1.112c0.64-2.197,1.909-3.922,3.862-5.15c1.517-0.953,3.147-1.496,5.35-1.658
		C51.29,45.349,49.976,45.94,48.69,46.588z M56.159,48.282c0.671,0.032,1.778-0.279,1.795,0.797
		c0.012,0.809-1.007,0.853-1.651,0.877c-2.255,0.082-4.242,0.817-6.058,2.133c-0.321,0.233-0.809,0.235-1.22,0.344
		C51.135,50.448,52.996,48.132,56.159,48.282z M115.545,78.263c-2.71-2.196-2.623-4.9-2.718-7.808
		c-0.094-2.894-0.412-5.781-0.61-8.673c-0.116-1.695,0.573-2.953,2.183-3.581c1.373-0.535,2.324-1.61,3.348-2.562
		c1.645-1.53,3.58-1.571,4.965,0.135c0.709,0.873,1.546,1.673,1.965,2.759c-0.444-0.445-0.892-0.886-1.332-1.334
		c-2.541-2.589-4.254-2.334-5.575,1.061c-0.653,1.677-1.408,3.202-2.629,4.514c-0.727,0.781-0.644,1.466,0.163,2.261
		c2.395,2.358,2.352,3.155-0.057,5.559c-0.312,0.311-0.645,0.606-0.922,0.946c-0.441,0.54-1.01,1.208-0.287,1.8
		c0.856,0.7,1.433-0.118,1.777-0.743c0.841-1.531,2.01-2.714,3.402-3.733c1.158-0.847,1.298-2.091,0.227-2.876
		c-2.309-1.692-1.11-3.519-0.53-5.374c0.134-0.429,0.3-0.886,0.869-0.815c0.553,0.069,0.625,0.556,0.696,0.991
		c0.195,1.184,0.43,2.358,0.95,3.446c0.232,0.485,0.267,1.26,0.926,1.291c0.71,0.033,0.089-1.096,0.879-1.248
		c0.158,0.258,0.301,0.536,0.485,0.783c0.284,0.38,0.457,1.085,1.055,0.866c0.57-0.209,0.292-0.885,0.3-1.354
		c0.026-1.636,0.007-3.273,0.006-4.909c-0.134-0.376-0.269-0.752-0.403-1.129c0,0,0,0,0,0c0.134,0.376,0.269,0.752,0.403,1.129
		c0.499,3.497,0.692,7.008,0.476,10.945c-0.855-1.657-0.779-3.464-2.724-4.734c0.598,2.437,1.482,4.31,0.863,6.319
		c-1.729-0.969-1.738-0.973-2.689,0.857c-0.274,0.527-0.601,0.95-1.202,1.117c-0.393,0.109-1.016,0.039-0.924,0.685
		c0.086,0.601,0.667,0.675,1.169,0.757c1.545,0.251,3.28-0.472,5.082-2.137c0.023,1.507-0.633,2.534-1.93,3.197
		c-0.567,0.29-1.006,0.726-1.376,1.263C120.186,80.314,117.77,80.066,115.545,78.263z M127.285,133.58
		c-0.535,0.561-0.966-0.262-1.32-0.607c-2.338-2.279-3.988-5.009-5.165-8.041c-0.434-1.118-0.03-1.9,0.756-2.545
		c0.702,0.177,1.011,0.572,1.144,1.077c0.239,0.911,0.449,1.832,0.634,2.756c0.459,2.296,1.341,4.329,3.408,5.653
		C127.402,132.297,127.861,132.976,127.285,133.58z"/>
	<path d="M96.413,32.743c-2.766-1.538-5.785-2.042-8.88-2.381c-4.105-0.45-7.978,0.894-11.958,1.388
		c-1.191,0.148-2.144,0.925-2.389,2.152c-0.251,1.258-0.699,2.396-1.291,3.522c-0.646,1.231-0.4,2.131,1.108,2.572
		c1.67,0.488,1.825,1.08,0.891,2.604c-0.197,0.322-0.436,0.623-0.593,0.963c-0.275,0.597-0.422,1.278,0.101,1.765
		c0.493,0.458,0.901-0.111,1.318-0.346c1.002-0.564,1.58-0.393,1.474,0.884c-0.068,0.827,0.455,1.271,1.06,1.645
		c1.256,0.776,2.597,1.251,4.107,1.229c2.284-0.033,4.569-0.009,7.35-0.009c-1.97,0.944-3.571,0.137-5.217,0.536
		c0.296,0.878,0.893,0.952,1.425,1.065c2.707,0.576,5.418,0.073,7.7-1.156c1.56-0.84,3.442-2.297,2.693-4.836
		c-0.329-1.116,0.258-1.572,1.35-1.742c1.367-0.214,1.32-1.062,0.483-1.832c-0.635-0.584-1.443-1.01-2.231-1.39
		c-2.503-1.209-5.222-1.742-7.947-2.49c1.444,0.188,2.542-0.318,3.541-1.309c0.723-0.717,1.771-0.77,2.661-0.298
		c1.34,0.712,2.582,1.436,4.247,1.144c0.793-0.139,1.454,0.65,1.867,1.407c0.271,0.497,0.48,1.035,0.802,1.495
		c0.318,0.454,0.742,1.039,1.367,0.744c0.726-0.343,0.293-1.022,0.108-1.498C100.562,36.006,98.823,34.083,96.413,32.743z"/>
	<path d="M86.839,76.15c-1.845-0.417-3.679-0.873-5.367-1.76c-2.846-1.497-5.714-2.368-8.743-0.455
		c-0.252,0.159-0.606,0.231-0.91,0.224c-3.134-0.074-5.28,1.685-7.279,3.803c-1.642,1.741-3.202,3.538-4.511,5.546
		c-0.203,0.312-0.539,0.603-0.368,1.004c0.241,0.564,0.741,0.295,1.615,0.242c1.014,0.056,1.991-0.521,3.009-1.733
		c2.229-2.653,4.966-4.656,8.788-4.177c0.704,0.088,1.342-0.202,1.984-0.497c2.526-1.161,5.022-1.354,7.398,0.397
		c0.541,0.398,1.074,0.216,1.61,0.02c0.946-0.345,1.893-0.686,2.83-1.053c0.448-0.175,1.09-0.256,0.995-0.925
		C87.82,76.264,87.263,76.245,86.839,76.15z"/>
	<path d="M80.92,81.686c-1.529,0.531-2.876,2.307-4.81,0.976c-0.24-0.166-0.556,0.096-0.582,0.324
		c-0.212,1.872-1.261,1.116-2.075,0.662c-0.778,0.446,0.042,2.012-1.119,1.713c-2.493-0.643-4.951,0.292-7.411-0.111
		c-0.404-0.066-0.973-0.173-1.198,0.295c-0.288,0.599,0.289,0.914,0.654,1.21c1.725,1.4,3.765,2.277,5.661,3.395
		c2.085,1.229,4.079,1.147,6.074-0.013c1.633-0.95,3.426-1.448,5.193-2.018c0.589-0.19,1.393-0.092,1.479-0.876
		c0.079-0.722-0.7-0.773-1.198-0.97c-0.788-0.311-0.988-0.992-0.959-1.685c0.041-0.958,0.867-0.727,1.449-0.729
		c1.222-0.005,1.205-0.668,0.813-1.49C82.48,81.503,81.952,81.327,80.92,81.686z"/>
	<path d="M97.117,83.638c-1.003,0.232-0.5,1.379-0.605,2.136c-0.051,0.371-0.009,0.754-0.009,1.132c-0.004,0-0.008,0-0.013,0
		c0,0.252-0.065,0.526,0.012,0.751c0.224,0.65-0.789,1.71,0.308,1.921c1.008,0.194,1.954-0.531,2.341-1.563
		c0.36-0.961,0.443-2.007-0.272-2.874C98.379,84.532,97.946,83.447,97.117,83.638z"/>
	<path d="M61.517,16.912c3.445,0.023,6.312-2.799,6.331-6.232c0.018-3.319-2.98-6.295-6.339-6.294
		c-3.231,0.001-6.137,2.897-6.221,6.199C55.202,13.953,58.092,16.889,61.517,16.912z"/>
</g>
<g>
</g>
<g>
</g>
<g>
</g>
<g>
</g>
<g>
</g>
<g>
</g>
<g>
</g>
<g>
</g>
<g>
</g>
<g>
</g>
<g>
</g>
<g>
</g>
<g>
</g>
<g>
</g>
<g>
</g>
</svg>
