<?xml version="1.0" encoding="iso-8859-1"?>
<!-- Generator: Adobe Illustrator 19.1.0, SVG Export Plug-In . SVG Version: 6.00 Build 0)  -->
<svg version="1.1" id="Capa_1" xmlns="http://www.w3.org/2000/svg" xmlns:xlink="http://www.w3.org/1999/xlink" x="0px" y="0px"
	 viewBox="0 0 151.088 151.088" style="enable-background:new 0 0 151.088 151.088;" xml:space="preserve">
<g>
	<path d="M132.512,48.286c-0.904-2.614-1.956-5.166-3.171-7.653c-1.467-3.003-3.217-5.833-5.474-8.811
		c1.643,0.593,2.698,1.342,3.62,2.316c0.29,0.307,0.619,0.807,1.103,0.407c0.483-0.399,0.048-0.822-0.184-1.17
		c-1.234-1.859-3.03-2.98-5.062-3.772c-0.654-0.255-1.318-0.483-2.272-0.83c2.618-0.309,4.903-0.762,6.785,1.11
		c0.238,0.237,0.597,0.246,0.833-0.048c0.241-0.302,0.049-0.594-0.133-0.852c-0.95-1.341-2.341-1.854-3.893-2.064
		c-1.639-0.221-3.286-0.24-4.936-0.261c-0.491-0.006-1.09,0.158-1.483-0.597c1.799-0.28,3.569-0.401,5.246-0.948
		c0.43-0.141,1.155-0.15,1.036-0.804c-0.137-0.755-0.816-0.488-1.322-0.392c-4.455,0.843-8.617-0.413-12.782-1.665
		c0.05-0.549,0.453-0.626,0.738-0.799c1.958-1.192,4.044-2.053,6.308-2.481c2.714-0.514,5.233-0.223,7.427,1.623
		c0.326,0.275,0.725,0.721,1.143,0.247c0.472-0.535-0.092-0.896-0.415-1.215c-1.696-1.674-3.777-2.476-6.132-2.604
		c-3.202-0.175-6.165,0.736-9.045,2.015c-0.271,0.12-0.557,0.387-0.859,0.155c-0.241-0.184-0.136-0.495-0.096-0.755
		c0.424-2.767,1.972-4.168,4.776-4.315c0.339-0.018,0.648-0.079,0.703-0.459c0.056-0.378-0.228-0.547-0.538-0.66
		c-1.405-0.514-2.708-0.284-3.949,0.514c-0.669,0.43-1.148,1.068-1.796,1.789c-0.508-2.263-0.905-4.318-1.739-6.248
		c-1.941-4.487-4.898-7.842-9.897-8.934c-0.418-0.091-0.96-0.333-1.136,0.278c-0.178,0.621,0.407,0.71,0.82,0.818
		c6.232,1.628,9.228,8.349,9.46,14.16c-0.806-1.871-1.573-3.621-2.632-5.219c-2.61-3.938-6.112-6.568-10.864-7.295
		c-0.566-0.087-1.545-0.583-1.694,0.359c-0.12,0.763,0.883,0.685,1.442,0.816c5.966,1.395,9.169,5.54,11.171,11.067
		c-0.178-0.048-0.237-0.045-0.255-0.071c-0.261-0.361-0.508-0.732-0.774-1.09C96.532,5.791,88.439,2.166,78.32,3.054
		c-1.293,0.114-2.543,0.06-3.821-0.339c-4.239-1.324-8.564-1.562-12.947-0.796c-7.077,1.237-13.025,4.675-18.32,9.379
		c-0.676,0.601-1.375,1.089-2.225,1.425c-2.855,1.127-5.36,2.809-7.547,4.962c-4.62,4.546-7.444,10.161-9.725,16.129
		c-1.427,3.733-1.763,7.827-3.811,11.35c-0.193,0.332-0.206,0.77-0.303,1.159c-0.798,3.192-0.382,6.48-0.764,9.71
		c-0.308,2.602-0.754,5.222-0.416,7.854c0.538,4.188,2.243,7.946,4.467,11.484c0.505,0.804,0.803,1.52,0.33,2.468
		c-0.224,0.448-0.681,1.134,0.024,1.547c0.639,0.375,0.86-0.438,1.296-0.669c0.055-0.029,0.156,0.026,0.392,0.074
		c-0.714,1.286-1.394,2.5-2.71,3.214c-0.368,0.2-1.01,0.247-0.851,0.834c0.179,0.662,0.816,0.57,1.35,0.491
		c0.306-0.045,0.652-0.074,0.896-0.236c1.119-0.739,1.268,0.014,1.295,0.842c0.071,2.191,0.349,4.357,0.893,6.474
		c1.014,3.951,2.805,7.668,3.115,11.846c0.244,3.276,1.942,5.805,5.248,6.927c0.623,0.211,0.753,0.676,0.824,1.235
		c0.272,2.131,0.196,4.276,0.194,6.41c-0.001,2.182,0.527,4.172,1.769,5.921c5.027,7.079,10.264,13.963,18.239,18.07
		c0.972,0.501,1.722,1.238,2.451,2.033c2.233,2.435,4.465,4.925,7.539,6.301c0.665,0.298,1.278,0.595,1.767,0.972
		c0.089,0.032,0.179,0.064,0.27,0.095c0.379,0.088,0.752,0.198,1.118,0.329c1.139,0.29,2.329,0.468,3.433,0.529
		c0.171,0.01,0.343,0.013,0.515,0.013c0.422-0.076,0.751-0.093,1.012-0.036c0.699-0.05,1.402-0.144,2.106-0.232
		c0.193-0.13,0.458-0.193,0.867-0.287c-0.021,0.067-0.038,0.128-0.057,0.191c0.571-0.063,1.141-0.111,1.707-0.117
		c2.094-0.023,4.205-0.12,6.155-0.937c0.734-0.454,1.449-0.91,2.226-1.204c2.135-0.808,3.933-2.063,5.547-3.636
		c2.277-2.219,4.225-4.71,6.045-7.305c0.522-0.744,1.155-1.302,1.939-1.781c5.353-3.271,9.194-7.704,10.525-14.005
		c0.178-0.844,0.488-1.636,0.989-2.321c1.918-2.621,2.684-5.558,2.669-8.78c-0.005-1.018-0.008-2.12,0.972-2.927
		c1.916-1.576,3.083-3.669,3.816-6.013c1.169-3.74,1.699-7.629,2.603-11.433c0.772-3.25,0.914-6.589,1.925-9.876
		c1.29-4.193,2.613-8.306,4.364-12.348c2.004-4.626,1.642-9.677,1.353-14.623c-0.063-1.072-0.193-2.134,0.153-3.177
		c0.4-1.205,1.033-1.47,2.129-0.897c0.38,0.199,0.759,0.678,1.188,0.31C132.984,49.268,132.669,48.74,132.512,48.286z
		 M82.461,17.373c-3.605-1.821-7.31-3.309-11.405-3.672c-4.146-0.368-8.014,0.619-11.818,2.079
		C67.285,11.767,75.013,12.686,82.461,17.373z M71.297,16.433c-5.386-0.577-10.433,0.673-15.309,2.845
		C60.754,16.512,65.836,15.451,71.297,16.433z M78.736,5.647c-8.179-0.743-15.014,2.802-21.699,6.824
		C63.567,7.965,70.408,4.445,78.736,5.647z M74.741,9.465c-7.027,0.009-13.096,2.912-19.036,6.221
		C61.495,11.918,67.539,8.91,74.741,9.465z M47.733,38.567c0.674-0.295,1.27-0.818,1.826-1.321c0.571-0.517,1.251-0.433,1.739-0.168
		c0.558,0.303,0.029,0.877-0.106,1.295c-0.593,1.823-1.924,2.827-3.761,3.197c-0.625,0.126-1.223,0.131-1.004-0.955
		C46.315,39.7,46.716,39.011,47.733,38.567z M39.163,40.608c2.303-0.195,3.932-1.668,5.617-3.109
		c-1.249,2.117-5.282,4.248-8.184,4.281C39.53,37.415,43.255,34,47.831,31.099C45.966,34.593,42.788,37.993,39.163,40.608z
		 M43.552,30.347c-3.837,3.36-8.799,5.707-10.1,11.424c-0.517-1.377-0.098-2.601,0.469-3.739
		C35.936,33.992,39.538,31.906,43.552,30.347z M31.186,39.858c-0.629-4.503,4.824-10.307,10.818-12.069
		C37.585,31.08,32.992,34.163,31.186,39.858z M29.763,35.72c-0.137-1.322,0.181-2.414,1.262-3.996
		c2.194-3.211,7.167-6.452,11.542-7.358C37.548,27.731,32.023,30.053,29.763,35.72z M28.673,32.59
		c0.019-4.425,5.198-9.564,11.415-11.112C32.735,26.357,31.496,27.572,28.673,32.59z M41.848,18.014
		c-6.394,2.87-12.103,6.455-14.75,13.218C26.641,25.939,34.691,18.593,41.848,18.014z M113.071,89.499
		c0.131,0.57,0.253,1.132,0.204,1.716c-0.401,4.792-0.809,9.583-1.211,14.374c-0.208,2.485-0.47,4.968-0.589,7.457
		c-0.063,1.305-0.46,2.437-1.148,3.501c-1.217,1.884-2.097,3.876-2.63,6.089c-0.941,3.906-3.404,6.837-6.725,9.493
		c0.413-1.305,1.225-2.035,1.91-3.29c-1.133,0.611-1.723,1.244-2.328,1.87c-2.457,2.541-4.495,5.416-6.625,8.219
		c-1.298,1.707-2.724,3.302-4.315,4.741c-0.414,0.375-0.773,0.859-1.459,0.994c0.358-1.587,1.093-3.057,0.911-4.707
		c-0.521-0.03-0.437,0.403-0.545,0.629c-0.308,0.642-0.54,1.319-0.837,1.967c-2.152,4.696-5.591,6.347-10.56,5.003
		c-0.981-0.265-1.814-0.337-2.805,0.086c-1.34,0.572-2.803,0.346-4.212,0.055c-3.881-0.801-6.787-3.223-9.62-5.777
		c-2.781-2.507-5.504-5.083-8.466-7.381c-0.644-0.499-1.335-0.938-2.004-1.405c-0.072,0.084-0.144,0.169-0.217,0.254
		c0.634,0.715,1.268,1.43,1.902,2.145c-1.676-0.873-3.099-2.078-4.314-3.485c-2.592-3.002-5.185-6.007-7.549-9.198
		c-1.412-1.906-2.166-3.937-2.233-6.407c-0.224-8.191-0.929-16.365-1.257-24.548c-0.124-3.094-0.076-6.297,0.407-9.424
		c0.217-1.403-0.12-2.752-0.404-4.125c-0.93,1.516-1.116,3.193-1.452,4.819c-0.37,1.787-0.65,3.593-1.002,5.384
		c-0.067,0.342,0.016,0.971-0.583,0.845c-0.512-0.108-0.355-0.623-0.281-1.02c0.628-3.37,1.292-6.735,1.86-10.115
		c0.224-1.331,0.6-2.677,0.162-4.083c-2.254,4.251-3.346,8.777-3.252,13.556c-1.011-0.899-1.286-1.808-0.934-3.14
		c1.016-3.84,2.457-7.538,3.733-11.292c0.266-0.782,0.588-1.562,0.594-2.434c-0.635-0.006-0.804,0.47-1.047,0.805
		c-1.558,2.147-2.763,4.484-3.463,7.042c-0.412,1.506-0.887,2.984-1.404,4.456c-0.947,2.702-0.887,5.194,1.319,7.41
		c1.089,1.093,1.906,2.463,2.802,3.739c0.427,0.608,0.89,1.229,0.529,2.089c-0.292,0.694,0.708,0.781,0.737,1.433
		c0.125,2.757,0.343,5.51,0.492,8.266c0.047,0.882-0.471,0.794-1.048,0.5c-1.658-0.844-2.43-2.314-2.771-4.04
		c-0.25-1.265-0.394-2.552-0.57-3.831c-0.171-1.24-0.366-2.487-0.876-3.627c-2.124-4.745-2.743-9.743-2.606-14.878
		c0.034-1.293,0.031-1.293,1.15-2.569c-0.146,1.312-0.417,2.543,0.529,3.809c1.087-4.806,4.07-8.609,5.574-13.256
		c-1.294,0.383-1.669,1.466-2.713,2.249c0.714-1.842,1.325-3.42,1.932-4.987c-0.472-0.224-0.609,0.27-0.945,0.235
		c-0.084-0.511,0.552-0.807,0.376-1.434c-0.878,0.142-1.262,1.009-2.096,1.498c0.644-1.109,1.447-1.869,2.245-2.789
		c-0.882-0.332-1.422,0.107-1.926,0.467c-3.789,2.709-5.958,6.412-6.669,10.994c-0.027,0.174-0.049,0.349-0.077,0.544
		c-1.223-1.076-1.382-1.555-0.739-2.953c1.407-3.057,3.201-5.863,5.591-8.26c0.154-0.155,0.362-0.271,0.295-0.771
		c-3.558,0.694-5.121,3.327-6.415,6.173c0.108-1.748,1.25-3.617,3.112-5.001c1.225-0.911,2.555-1.624,4.021-2.075
		c0.561-0.173,1.128-0.487,0.52-1.1c-1.004-1.013-0.392-1.594,0.41-2.224c0.304-0.238,0.658-0.466,0.762-0.982
		c-0.79-0.342-1.659,0.062-2.663-0.293c0.935-0.807,1.792-1.535,2.633-2.283c0.214-0.191,0.592-0.355,0.4-0.741
		c-0.137-0.276-0.464-0.192-0.718-0.237c-0.635-0.114-1.619,0.35-1.839-0.253c-0.234-0.641,0.712-1.113,1.161-1.638
		c0.716-0.836,0.944-2.221,2.47-2.278c-0.181-0.108-0.36-0.218-0.543-0.323c-0.302-0.175-0.92,0.075-0.861-0.578
		c0.048-0.527,0.327-0.946,0.891-1.029c0.916-0.135,1.838-0.226,2.859-0.347c-0.378-0.736-1.09-0.586-1.614-0.791
		c-0.32-0.125-0.802-0.074-0.796-0.543c0.007-0.489,0.451-0.605,0.863-0.669c0.853-0.132,1.706-0.259,2.755-0.418
		c-0.797-0.691-1.675-0.567-2.454-0.944c0.862-1.586,2.696-0.484,3.775-1.428c1.103-0.965,2.67-1.008,3.921-1.8
		c-1.222,3.265-2.468,6.444-6.197,8.142c1.497,0.246,2.391-0.274,3.208-0.919c2.17-1.714,3.195-4.109,3.913-6.688
		c0.174-0.626,0.133-1.367,0.75-1.807c0.343-0.245,0.591-0.786,1.112-0.568c0.535,0.224,0.381,0.773,0.326,1.187
		c-0.353,2.688-0.76,5.367-1.446,7.997c-0.462,1.771-0.984,3.519-1.738,5.19c-1.17,2.597-2.745,4.798-5.738,5.678
		c1.143,0.34,2.495-0.12,3.719-1.184c1.622-1.409,2.694-3.19,3.496-5.154c1.137-2.781,1.825-5.678,2.157-8.658
		c0.128-1.144,0.156-2.018,1.864-1.953c2.2,0.083,3.948-1.149,4.809-3.234c0.898-2.174,2.523-3.49,4.544-4.485
		c2.7-1.33,5.587-2.083,8.48-2.825c0.42-0.108,0.876-0.115,1.346-0.625c-3.689-0.395-7.053,0.333-10.416,1.577
		c1.14-1.646,3.64-2.784,6.551-3.129c2.756-0.327,5.508-0.374,8.268-0.094c0.298,0.03,0.621,0.115,0.9-0.125
		c-0.014-0.51-0.469-0.49-0.769-0.577c-3.505-1.021-7.056-1.482-10.677-0.7c-2.977,0.643-5.34,2.133-6.782,4.93
		c-0.9,1.746-1.437,2.183-3.011,2.678c1.765-2.007,2.804-4.564,4.806-6.369c2.1-1.893,4.773-2.512,7.484-2.944
		c2.643-0.421,5.294-0.419,7.981-0.038c-0.084-0.545-0.479-0.62-0.79-0.718c-5.184-1.622-10.195-1.311-14.951,1.442
		c-1.26,0.729-2.168,1.836-2.893,3.093c-1.268,2.199-2.623,4.34-4.287,6.266c-0.515,0.596-1.033,1.209-1.719,1.578
		c-0.314-0.193-0.285-0.427-0.222-0.63c1.146-3.673,3.453-6.673,6.119-9.259c1.656-1.607,4.158-2.174,6.42-2.87
		c3.688-1.135,7.432-1.797,11.32-1.33c2.099,0.252,3.663,1.883,3.84,4.078c0.135,1.665-0.301,3.25-0.511,4.891
		c1.711-2.248,2.695-4.702,2.15-7.574c2.966,0.233,3.685,1.476,3.393,5.994c1.532-1.967,1.482-3.903,1.001-6.018
		c0.467,0.568,0.952,1.122,1.397,1.708c0.447,0.588,0.755,0.564,0.962-0.158c0.086-0.299,0.136-0.61,0.235-0.905
		c0.174-0.518,0.059-1.351,0.671-1.432c0.473-0.062,0.71,0.716,1.006,1.145c0.736,1.066,0.499,2.221,0.159,3.343
		c-0.721,2.372-2.401,4.023-4.259,5.527c-0.339,0.275-0.694,0.531-0.955,0.932c1.336-0.494,2.537-1.213,3.595-2.172
		c1.13-1.024,2.105-2.16,2.818-3.533c0.68-1.309,0.645-2.862,1.448-4.157c1.978,2.788,1.608,4.534-1.841,9.461
		c1.49-0.588,2.532-1.715,3.285-3.1c0.761-1.4,1.391-2.87,2.333-4.19c0.893,2.668,0.75,2.771-1.422,6.506
		c0.943-0.318,1.386-0.835,2.566-2.89c0.678-1.181,1.048-2.577,2.395-3.455c0.635,2.346-0.388,4.135-1.953,6.122
		c1.396-0.569,1.923-1.485,2.465-2.347c0.455-0.724,0.972-1.35,1.625-1.919c0.977-0.853,1.201-0.339,1.411,0.576
		c0.283,1.232-0.336,2.326-0.324,3.498c2.433-4.84,3.056-9.79,0.753-14.932c1.583,1.67,2.162,3.727,2.313,5.928
		c0.125,1.829-0.035,3.649-0.412,5.448c-0.062,0.293-0.21,0.658,0.143,0.837c0.333,0.169,0.61-0.105,0.803-0.335
		c0.513-0.611,0.987-1.254,1.488-1.899c0.183,0.308-0.068,0.529-0.177,0.716c-0.624,1.071-0.515,1.603,0.814,2.11
		c2.17,0.826,3.714,2.574,5.131,4.375c3.765,4.783,5.959,10.133,5.578,16.313c-0.209,3.383-1.083,6.677-1.695,10.002
		C110.98,71.585,111.017,80.556,113.071,89.499z M119.099,90.281c-1.004,3.049-1.354,6.24-2.093,9.344
		c-0.451,1.894-1.176,3.691-2.629,5.34c-0.567-2.477,0.278-4.234,1.987-5.692c-0.675-0.294-0.948,0.01-1.267,0.12
		c-0.434,0.15-0.572-0.055-0.552-0.452c0.132-2.628,0.364-5.218,2.665-7.055c0.374,0.603-0.116,1.32,0.317,2.035
		c1.171-1.684,0.851-3.778,1.836-5.441C119.28,89.082,119.286,89.713,119.099,90.281z"/>
	<path d="M78.325,93.037c0.493,0.886,0.636,1.964,0.542,3.098c-0.328,3.944-0.877,7.89-0.366,11.863
		c0.087,0.677,0.103,1.377,0.805,2.145c-0.314-2.587-0.075-4.878,0.145-7.18c0.374-3.918,1.717-7.634,2.282-11.51
		c0.069-0.471,0.277-1.187,1.057-0.603c0.38,0.285,0.677,0.777,1.224,0.235c0.62-0.615-0.024-0.918-0.282-1.333
		c-0.264-0.426-0.833-1.043,0.029-1.26c1.244-0.314,2.461-0.78,3.844,0.022c3.304,1.918,6.812,2.207,10.404,0.723
		c0.241-0.1,0.502-0.388,0.847-0.124c-0.79,1.147-2.242,1.352-3.266,2.271c0.817,0.36,1.413-0.037,2.007-0.285
		c1.322-0.551,2.513-1.344,3.724-2.099c0.545-0.34,1.147-0.664,1.661-0.009c0.533,0.68,0.291,2.29-0.389,2.912
		c-1.496,1.371-3.311,2.061-5.27,2.435c-0.438,0.084-0.878,0.154-1.315,0.241c-0.378,0.075-0.826-0.077-1.309,0.386
		c2.967,0.287,5.585-0.131,8.068-1.449c1.688-0.896,2.563-2.145,2.166-4.109c-0.201-0.995,0.23-1.333,1.228-1.344
		c1.365-0.014,2.728-0.19,4.092-0.297c-0.838-0.594-1.753-0.615-2.665-0.677c-0.829-0.056-1.054-0.409-0.438-1.065
		c0.703-0.75,1.422-1.484,2.282-2.379c-1.538,0.223-2.584,1.057-3.88,1.845c0.707-1.473,1.985-2.075,3.109-3.077
		c-1.316-0.14-2.208,0.534-3.373,0.939c0.79-1.291,2.044-1.742,3.221-2.781c-1.83,0.135-3.063,0.931-4.619,1.717
		c1.095-1.285,2.094-2.193,3.582-3.128c-1.746,0.05-2.752,0.915-4.074,1.537c0.631-1.208,1.757-1.641,2.603-2.674
		c-2.15,0.263-3.469,1.649-5.256,2.629c0.939-1.299,2.01-2.073,2.916-3.048c-1.817,0.236-3.112,1.483-4.815,2.523
		c1.05-1.341,2.021-2.357,3.179-3.257c-1.991,0.148-3.391,1.485-5.233,2.696c0.933-1.331,1.943-2.086,3.082-3.158
		c-2.224,0.329-3.419,1.933-5.1,2.583c0.688-1.22,1.749-2.041,2.723-2.969c-2.046,0.254-3.444,1.719-5.115,2.653
		c0.646-1.157,1.683-1.915,2.469-2.926c-2.091,0.476-3.455,2.119-5.169,3.214c0.485-1.067,1.364-1.813,1.966-2.795
		c-1.967,0.85-3.402,2.441-5.325,3.808c0.595-1.28,1.628-1.936,2.147-3.31c-1.475,0.741-2.393,1.707-3.433,2.502
		c-1.448,1.107-2.617,2.559-4.27,3.416c-0.933,0.484-1.52,0.27-1.829-0.739c-0.489-1.596-0.57-3.235-0.586-4.89
		c-0.01-1.073,0.135-2.161-0.24-3.225c-0.917,2.826-1.231,5.694-0.593,8.618c0.147,0.676,0.122,1.298,0.002,1.972
		C76.996,87.287,76.754,90.214,78.325,93.037z M99.073,87.869c-1.75,0.966-3.608,1.514-5.645,1.414
		c-1.766,0.104-3.419-0.397-5.011-1.134c-0.373-0.173-0.97-0.302-0.785-0.897c0.205-0.66,0.72-1.178,1.36-1.386
		c0.645-0.21,0.605,0.49,0.769,0.848c0.768,1.674,2.357,2.595,4.212,2.411c1.732-0.172,2.792-1.145,3.129-3.096
		c0.134-0.777,0.468-0.736,0.986-0.533c0.372,0.145,0.747,0.304,1.082,0.517C100.303,86.731,100.272,87.207,99.073,87.869z
		 M91.115,85.001c0.525-0.128,0.485,0.377,0.56,0.706c0.199,0.87,0.686,1.508,1.62,1.492c0.996-0.017,1.488-0.692,1.621-1.637
		c0.042-0.298-0.057-0.673,0.437-0.653c0.469,0.019,0.559,0.343,0.595,0.732c0.123,1.336-0.951,2.332-2.492,2.299
		c-1.426-0.031-2.518-0.799-2.705-1.927C90.685,85.619,90.608,85.124,91.115,85.001z M85.866,84.804
		c0.374-0.315,0.762-0.614,1.147-0.916c0.899-0.706,1.829-1.308,2.419-2.407c0.539-1.004,1.799-0.812,2.677-0.561
		c2.638,0.755,5.144,1.87,7.502,3.378c-5.245-2.504-10.056-1.304-14.82,1.465C85.148,85.442,85.499,85.113,85.866,84.804z"/>
	<path d="M95.18,122.678c-0.507-0.65-0.449-0.905,0.333-1.166c0.85-0.284,1.527-0.82,1.829-2.02
		c-0.522,0.371-0.814,0.627-1.147,0.807c-1.46,0.79-3.529,0.179-3.601-1.081c-0.147-2.569-0.859-4.996-1.75-7.382
		c-0.42-1.125-0.874-2.237-1.313-3.355c3.254,2.907,6.681,5.637,7.589,10.239c0.615-0.38,0.526-0.947,0.531-1.453
		c0.016-1.71-0.604-3.237-1.509-4.639c-2.563-3.976-6.214-6.701-10.34-8.859c-0.652-0.341-1.375-0.329-2.093-0.335
		c-1.03-0.008-1.872,0.37-2.278,1.328c-0.421,0.995-0.473,2.027,0.321,3.207c0.047-0.542,0.095-0.842,0.094-1.14
		c-0.004-0.888,0.087-1.775,1.076-2.08c0.977-0.302,1.717,0.234,2.32,0.962c1.972,2.381,1.686,4.426-1.089,5.723
		c-2.024,0.946-3.533,2.168-4.255,4.303c-0.121,0.357-0.31,0.86-0.841,0.608c-1.17-0.556-2.048,0.056-2.971,0.618
		c-1.213,0.739-3.672,0.672-4.369-0.179c-1.769-2.162-4.114-3.401-6.711-4.175c-1.149-0.343-1.596-0.965-1.617-2.095
		c-0.031-1.674-0.014-3.342,0.222-5.019c-1.029,1.681-1.358,3.538-1.368,5.442c-0.007,1.45,0.58,2.497,2.138,2.989
		c2.899,0.915,5.259,2.735,6.862,5.265c0.756,1.193,1.336,1.108,2.428,0.823c2.065-0.539,4.22-1.106,6.283-0.158
		c0.972,0.447,1.411,0.18,2-0.499c1.855-2.14,4.063-3.862,6.483-5.328c0.737-0.447,1.089-0.31,1.316,0.527
		c0.432,1.594,0.853,3.174,0.883,4.848c0.021,1.145-0.316,1.743-1.531,2.056c-6.615,1.7-13.29,2.529-20.117,1.794
		c-4.25-0.457-8.542-0.334-12.785-0.914c-2.159-0.296-3.524,1.339-2.974,3.556c0.132,0.533,0.099,1.388,1.103,1.07
		c0.823-0.261,0.921-0.708,0.573-1.522c-0.64-1.497,0.178-2.466,1.781-2.212c2.815,0.446,5.623,0.935,8.439,1.37
		c5.973,0.925,11.939,1.376,17.91-0.107c2.58-0.641,5.107-1.428,7.728-2.581c-1.478,4.394-4.201,7.259-8.357,8.799
		c1.536,0.045,2.819-0.537,4.059-1.215c2.642-1.443,4.417-3.692,5.787-6.312c0.728-1.393,0.851-1.403,1.923-0.212
		c1.478,1.641,2.974,3.275,3.294,5.684c0.647-0.573,0.316-1.109,0.182-1.574C97.173,125.428,96.222,124.015,95.18,122.678z"/>
	<path d="M61.813,84.904c0.979,0.53,1.94,1.106,2.956,1.553c0.759,0.334,1.575,0.686,2.824,0.276
		c-2.012-0.726-3.341-1.876-4.655-3.082c1.501,0.246,2.969,0.605,4.302,1.295c0.968,0.502,1.666,0.29,2.406-0.362
		c1.693-1.495,2.618-3.412,2.807-5.604c0.168-1.948,0.298-3.953-0.758-5.785c-0.154,1.153-0.085,2.303-0.169,3.442
		c-0.162,2.22-0.742,4.304-2.349,5.967c-0.375,0.388-0.74,0.782-1.382,0.509c-1.438-0.611-2.923-1.079-4.439-1.457
		c-0.273-0.068-0.667-0.15-0.584-0.59c0.055-0.293,0.28-0.46,0.586-0.434c0.52,0.043,0.858-0.067,0.865-0.696
		c0.007-0.587-0.109-1.007-0.731-1.253c-2.318-0.92-4.563-2.041-6.999-2.635c-0.767-0.187-1.55-0.566-2.721-0.184
		c2.139,0.727,3.961,1.413,5.892,2.702c-4.15-1.158-7.819-2.816-11.899-2.501c3.442,0.607,6.6,1.984,9.73,3.458
		c-3.223-0.846-6.393-1.896-9.682-2.435c-1.165-0.191-2.397-0.617-3.878,0.196c3.494,0.077,6.344,1.31,9.219,2.447
		c-3.454-0.32-6.841-1.387-10.348-0.701c2.469,0.151,4.796,0.882,7.136,1.576c-2.698-0.165-5.379-0.76-8.087-0.269
		c1.527,0.397,3.09,0.521,4.763,1.167c-2.117,0.113-4.038-0.266-5.885,0.502c2.19,0.282,4.346,0.652,6.435,1.475
		c-2.136,0-4.272,0-6.408,0c-0.005,0.074-0.011,0.148-0.016,0.222c1.292,0.303,2.583,0.605,3.875,0.908
		c-1.318,0.486-2.686,0.409-4.056,0.876c0.643,0.635,1.413,0.272,1.995,0.61c-0.145,0.462-0.886,0.215-0.906,0.974
		c1.06-0.167,1.959,1.396,3.24-0.211c0.511-0.641,1.698-1.359,2.952-1.587c-0.836,1.253-1.876,2.105-2.746,3.118
		c0.783,0.021,1.351-0.321,1.892-0.7c0.986-0.69,1.971-1.384,2.927-2.114C53.736,82.666,57.709,82.684,61.813,84.904z"/>
	<path d="M107.627,38.276c-1.256-1.662-2.833-2.878-5.036-3.095c1.126,1.084,2.299,2.094,3.056,3.474
		c1.278,2.332,1.658,4.875,1.745,7.476c0.204,6.094-1.146,12.044-1.717,18.066c-0.283,2.978-0.437,5.972,0.659,8.852
		c0.726,1.908,1.958,3.332,4.117,3.883c-2.693-2.352-2.573-5.42-2.286-8.476c0.166-1.767,0.565-3.515,0.893-5.265
		c1.042-5.562,2.174-11.113,1.45-16.828C110.139,43.453,109.428,40.661,107.627,38.276z"/>
	<path d="M108.277,90.64c-0.489,0.102-0.29,0.574-0.282,0.901c0.113,5.185-2.051,9.271-5.953,12.57
		c-0.66,0.558-2.154,0.988-1.743,1.796c0.415,0.814,1.796,0.153,2.725-0.037c1.505-0.308,1.574-0.27,1.375,1.285
		c-0.34,2.661-0.332,5.322-0.009,7.987c0.443,3.655,0.83,7.308-1.783,10.5c1.545-0.759,2.236-2.183,2.75-3.689
		c0.637-1.868,0.887-3.819,0.828-5.788c-0.097-3.23,0.252-6.4,1.115-9.511c0.606-2.188,1.317-4.326,2.259-6.41
		c1.371-3.031,1.53-6.113-0.441-9.03C108.919,90.92,108.651,90.562,108.277,90.64z"/>
	<path d="M56.055,90.797c3.57,0.444,6.307-1.772,9.618-2.788c-8.795-6.112-11.603-4.871-18.506,0.395
		c2.466-0.164,4.047,1.357,6.003,1.903C54.118,90.571,55.08,90.676,56.055,90.797z M54.302,85.494
		c0.578-0.159,0.628,0.299,0.712,0.706c0.191,0.93,0.708,1.602,1.714,1.516c1.05-0.09,1.516-0.817,1.5-1.852
		c-0.004-0.238-0.18-0.588,0.276-0.547c0.287,0.026,0.418,0.285,0.495,0.562c0.374,1.349-0.78,2.597-2.417,2.606
		c-1.431,0.008-2.374-0.664-2.691-1.907C53.772,86.112,53.725,85.652,54.302,85.494z M50.848,87.109
		c1.332-0.974,1.468-0.96,2.221,0.514c0.808,1.582,2.169,2.166,3.873,2.056c1.596-0.103,2.636-0.95,3.174-2.447
		c0.085-0.237-0.009-0.548,0.267-0.708c0.051,0.002,0.105-0.012,0.134,0.009c0.679,0.5,1.706,1.045,1.624,1.794
		c-0.091,0.83-1.3,0.917-2.068,1.17c-3.132,1.034-6.144,0.616-9.045-0.891C50.183,88.168,49.937,87.775,50.848,87.109z"/>
	<path d="M51.747,117.445c3.678-4.553,7.917-8.397,11.976-12.826C59.59,105.293,51.233,113.765,51.747,117.445z"/>
	<path d="M70.642,130.753c-4.094-0.928-7.488-2.697-11.285-4.057C61.081,129.12,67.862,131.638,70.642,130.753z"/>
	<path d="M69.643,100.449c0.634-3.626,0.243-7.207-0.41-10.777C68.496,93.302,68.707,96.891,69.643,100.449z"/>
	<path d="M65.578,88.531c-1.707,2.105-2.87,4.429-4.736,6.207C63.248,94.316,65.769,90.989,65.578,88.531z"/>
</g>
<g>
</g>
<g>
</g>
<g>
</g>
<g>
</g>
<g>
</g>
<g>
</g>
<g>
</g>
<g>
</g>
<g>
</g>
<g>
</g>
<g>
</g>
<g>
</g>
<g>
</g>
<g>
</g>
<g>
</g>
</svg>
