<?xml version="1.0" encoding="iso-8859-1"?>
<!-- Generator: Adobe Illustrator 19.1.0, SVG Export Plug-In . SVG Version: 6.00 Build 0)  -->
<svg version="1.1" id="Capa_1" xmlns="http://www.w3.org/2000/svg" xmlns:xlink="http://www.w3.org/1999/xlink" x="0px" y="0px"
	 viewBox="0 0 139.453 139.453" style="enable-background:new 0 0 139.453 139.453;" xml:space="preserve">
<g>
	<path d="M129.37,97.158c-0.278-1.015-0.681-1.274-1.731-1.001c-4.536,1.18-9.03,2.487-13.408,4.168
		c-10.413,3.998-20.048,9.438-29.171,15.813c-0.804,0.562-1.38,0.563-2.179,0.045c-3.078-1.998-6.193-3.939-9.302-5.891
		c-0.284-0.178-0.554-0.483-1.132-0.369c0.426,0.347,0.716,0.598,1.02,0.828c2.772,2.095,5.55,4.183,8.317,6.285
		c0.396,0.301,1.104,0.57,0.238,1.177c-2.015,1.411-4.024,2.83-6.012,4.28c-0.549,0.4-0.956,0.291-1.47-0.049
		c-0.847-0.559-1.597-1.298-2.775-1.703c0.489,1,1.15,1.61,1.712,2.287c0.48,0.578,0.447,0.96-0.196,1.416
		c-4.397,3.122-8.827,6.188-13.727,8.495c-0.333,0.157-0.726,0.57-1.054,0.268c-0.312-0.287-0.194-0.82-0.103-1.232
		c0.064-0.293,0.241-0.574,0.415-0.829c1.603-2.358,3.2-4.721,5.266-6.717c0.167-0.162,0.465-0.306,0.263-0.752
		c-2.222,1.625-3.93,3.696-5.863,5.545c3.039-5.059,6.731-9.637,10.434-14.218c-3.795,3.289-6.926,7.183-10.237,10.967
		c0.825-5.529,0.843-11.268,4.731-15.889c-0.859,0.412-1.378,1.155-1.989,1.794c-0.43,0.449-0.765,0.537-1.245,0.014
		c-0.728-0.793-1.694-1.118-2.763-0.983c-0.946,0.119-1.19,0.637-0.717,1.446c0.316,0.541,0.645,1.072,0.798,1.687
		c0.295,1.189-0.056,1.912-1.22,2.268c-0.886,0.27-1.803,0.383-2.265,1.38c-0.131,0.283-0.565,0.464-0.932,0.304
		c-0.403-0.175-0.184-0.539-0.154-0.827c0.063-0.621,0.174-1.238,0.21-1.86c0.075-1.297,0.209-2.607-0.491-4.091
		c-0.319,0.906-0.142,1.601-0.204,2.269c-0.207,2.237-0.393,4.453-2.893,5.537c-0.731,0.317-1.31,0.976-1.978,1.45
		c-0.322,0.228-0.586,0.613-1.14,0.568c0.241-8.397-1.48-16.342-4.907-23.925c-0.207,0.512,0.081,0.909,0.246,1.326
		c2.828,7.146,4.223,14.502,3.48,22.22c-0.134,1.392-0.789,2.023-1.949,2.411c-1.074,0.359-1.332,0.186-1.342-0.963
		c-0.059-6.736-1.837-13.024-4.964-18.953c-0.49-0.929-1.096-1.796-1.814-2.961c-0.074,0.858,0.226,1.196,0.434,1.55
		c3.642,6.215,4.962,12.99,4.868,20.107c-0.005,0.365,0.137,0.898-0.342,1.013c-0.497,0.12-0.723-0.371-0.921-0.748
		c-0.126-0.239-0.203-0.507-0.274-0.77c-0.399-1.468-0.803-2.935-1.182-4.408c-1.714-6.668-4.232-12.922-9.26-17.865
		c-4.785-4.704-8.815-10.01-12.526-15.575c-1.017-1.525-3.342-1.258-4.223,0.537c0.232-0.115,0.4-0.201,0.57-0.283
		c1.799-0.865,2.962-0.51,4.038,1.232c0.841,1.362,0.526,2.571-0.99,3.723c-0.309,0.235-0.649,0.436-0.997,0.609
		c-3.021,1.505-6.27,1.406-9.504,1.269c-1.059-0.045-1.487-0.863-1.554-1.878c-0.111-1.675,0.315-3.246,0.863-4.802
		c1.483-4.214,4.206-7.845,5.664-12.07c0.137-0.398,0.359-0.313,0.631-0.166c2.718,1.473,5.794,2.367,7.631,5.204
		c0.741,1.145,1.663,0.992,2.412-0.156c0.705-1.08,1.375-2.183,2.335-3.065c0.911-0.837,1.883-0.992,2.993-0.346
		c1.994,1.16,1.642,0.944,2.829-0.599c0.071-0.093,0.138-0.189,0.206-0.285c1.189-1.658,1.222-1.732-0.384-2.977
		c-3.29-2.551-6.898-4.557-10.768-6.095c-1.067-0.424-2.104-0.436-3.197-0.081c-1.93,0.628-3.863,1.258-5.827,1.759
		c-1.531,0.391-1.877,0.034-1.946-1.541c-0.118-2.699,0.456-5.272,1.337-7.8c0.735-2.107,1.181-4.271,1.337-6.509
		c0.194-2.786,0.963-5.441,2.065-8.008c0.307-0.716,0.639-0.996,1.4-0.576c0.682,0.375,1.427,0.634,2.129,0.974
		c7.167,3.479,14.122,7.366,21.187,11.041c0.644,0.335,0.97,0.851,1.243,1.475c0.833,1.902,1.717,3.852,3.155,5.314
		c2.767,2.813,4.619,6.123,6.074,9.718c0.117,0.288,0.268,0.567,0.436,0.829c0.31,0.483,0.418,1,0.346,1.565
		c-0.225,1.777-0.445,3.554-0.667,5.332c-0.04,0.001-0.08,0.002-0.12,0.003c-0.553-3.054-1.106-6.108-1.66-9.162
		c-0.123,3.234-0.04,6.426,0.174,9.609c0.115,1.711,0.068,3.203-1.669,4.185c-0.703,0.397-1.055,1.247-1.347,2.018
		c-0.273,0.719-0.642,1.447-0.281,2.53c0.256-0.751,0.391-1.269,0.608-1.75c0.223-0.495,0.484-0.984,0.802-1.422
		c1.187-1.631,2.418-1.984,4.268-1.274c1.307,0.502,2.61,0.713,3.993,0.22c2.236-0.797,2.632-3.269,1.419-5
		c-1.075-1.534-2.297-2.97-3.149-4.649c-0.745-1.469-1.378-2.984-1.534-4.962c0.632,1.065,1.105,1.868,1.584,2.666
		c0.483,0.803,0.964,1.608,1.463,2.4s1.003,1.583,1.54,2.351c0.504,0.72,1.053,1.409,1.583,2.111
		c0.095-0.074,0.19-0.148,0.284-0.222c-0.474-1.103-0.985-2.191-1.41-3.312c-0.413-1.089-0.88-2.2-0.417-3.491
		c0.45,0.378,0.375,0.81,0.489,1.171c0.348,1.095,0.815,2.118,1.708,2.88c0.261,0.223,0.602,0.512,0.943,0.298
		c0.413-0.259,0.091-0.639-0.033-0.935c-0.303-0.719-0.671-1.41-0.966-2.132c-0.203-0.496-0.481-1.052,0.034-1.517
		c0.382-0.345,0.892-0.303,1.337-0.152c0.656,0.223,0.629,0.799,0.613,1.367c-0.008,0.278-0.262,0.606,0.076,0.836
		c0.63-0.581,1.232-1.175,1.875-1.722c1.047-0.893,4.254-1.297,4.896-0.372c0.798,1.151,1.981,2.333,1.529,3.999
		c-0.138,0.507-0.084,0.688,0.445,0.782c1.203,0.213,2.407,0.322,3.6,0.018c1.364-0.348,1.611-1.305,0.621-2.322
		c-0.243-0.249-0.527-0.466-0.819-0.658c-1.828-1.206-1.819-1.737,0.081-2.963c0.294-0.19,0.615-0.339,0.926-0.501
		c0.624-0.326,1.064-0.178,1.483,0.416c2.599,3.687,2.469,8.577-0.38,12.096c-0.573,0.708-1.221,1.354-1.837,2.031
		c0.255,0.219,0.43,0.076,0.589-0.008c2.359-1.255,4.04-3.104,4.618-5.745c0.823-3.76,0.007-7.276-1.855-10.591
		c-0.832-1.481-1.99-2.534-3.772-2.16c-1.924,0.404-3.966,0.807-4.724,3.067c-0.146,0.436-0.281,0.866-0.837,0.779
		c-0.794-0.124-1.685-0.139-1.876-1.224c-0.226-1.288,0.059-1.782,1.183-2.204c0.467-0.175,0.89-0.48,1.314-0.755
		c1.149-0.747,2.319-1.446,3.64-1.856c2.224-0.689,4.152-0.221,5.785,1.452c1.834,1.878,2.772,4.219,2.889,6.748
		c0.094,2.025,0.614,3.804,1.594,5.515c0.232,0.406,0.369,0.87,0.628,1.255c0.597,0.887,0.448,1.506-0.324,2.302
		c-2.094,2.162-2.12,3.43-0.41,5.919c0.535,0.779,0.292,1.525-0.641,1.968c-1.867,0.886-3.992-0.04-4.653-2.012
		c-0.111-0.332-0.004-0.793-0.567-0.999c-0.338,1.902,0.314,3.425,1.77,4.797c-1.409,0.408-2.573,0.744-3.988,1.154
		c1.024-1.426,1.826-2.644,1.677-4.347c-3.113,3.356-6.277,6.269-10.974,2.263c0.055,1.624,1.489,2.533,1.353,3.978
		c-0.13,1.376-0.383,2.753-0.12,4.158c0.459-0.07,0.499-0.434,0.647-0.682c0.479-0.805,0.911-1.638,1.401-2.436
		c0.413-0.673,1.183-0.609,1.683-0.38c0.634,0.29,0.02,0.801-0.153,1.151c-0.571,1.154-1.225,2.266-1.814,3.412
		c-0.739,1.439-1.647,2.779-2.618,4.265c0.723-0.125,0.975-0.545,1.279-0.874c1.487-1.606,2.822-3.337,4.164-5.063
		c1.755-2.256,0.958-2.132,3.759-0.821c0.693,0.325,0.895,0.579,0.284,1.242c-1.269,1.377-2.457,2.83-3.671,4.257
		c-0.175,0.206-0.494,0.381-0.263,0.841c0.352-0.255,0.666-0.474,0.97-0.705c1.584-1.206,3.175-2.405,4.744-3.631
		c0.483-0.377,0.905-0.477,1.488-0.172c3.634,1.899,7.251,3.826,10.701,6.05c0.335,0.216,0.631,0.559,1.146,0.419
		c-5.002-4.118-10.589-7.362-16.275-10.862c2.507-0.194,4.625-0.867,6.493-2.234c0.372-0.272,0.828-0.198,1.253-0.185
		c2.328,0.071,4.359-0.72,6.199-2.093c0.25-0.187,0.525-0.34,1.008-0.65c-0.932,1.996-2.188,3.284-3.816,4.236
		c-1.634,0.955-3.364,1.252-5.221,0.788c3.088,2.473,6.091,1.208,9.131-0.322c-1.206,4.423,0.805,8.274,4.137,7.671
		c-1.358-0.788-2.423-1.659-2.792-3.121c-0.35-1.388,0.128-3.057,1.209-3.872c0.13,0.592,0.243,1.16,0.38,1.722
		c0.685,2.798,1.697,5.442,3.626,7.651c2.077,2.38,4.674,3.212,7.802,2.533c-1.846-0.332-3.54-0.93-4.724-2.469
		c-1.139-1.481-1.963-3.046-1.503-5.05c0.563,0.146,0.666,0.571,0.91,0.855c2.367,2.76,5.103,4.945,8.799,5.615
		c1.909,0.346,3.645-0.094,5.197-1.247c0.19-0.141,0.524-0.262,0.313-0.634c-0.423-0.089-0.742,0.201-1.111,0.291
		c-1.607,0.39-3.104,0.24-4.414-0.853c-0.698-0.582-1.015-1.391-0.644-2.202c0.355-0.774,1.204-0.434,1.788-0.307
		c1.581,0.342,3.168,0.47,4.769,0.371c2.17-0.134,4.134-0.812,5.652-2.458c0.82-0.889,1.151-1.668,1.13-2.688
		c-1.383,2.305-3.204,3.554-6.137,3.35c2.133-1.572,3.241-3.445,3.648-5.73c0.187-1.045,0.117-2.104,0.055-3.155
		c-0.056-0.954,0.8-0.804,1.281-1.083c0.511-0.296,0.674,0.157,0.834,0.516c1.49,3.355,4.235,5.225,7.591,6.315
		c3.937,1.279,7.979,1.336,12.042,0.824c1.085-0.137,2.222-0.122,3.28-0.756c-1.551-0.434-2.919-1.141-4.063-2.22
		c-1.136-1.072-2.233-2.184-3.224-3.397c-3.016-3.691-5.985-7.42-10.157-9.945c-1.091-0.661-0.963-2.094,0.106-2.798
		c1.671-1.1,3.048-2.444,3.602-4.445c0.08-0.289,0.335-0.632,0.107-0.888c-0.314-0.35-0.641,0.033-0.947,0.141
		c-1.888,0.667-3.74,0.735-5.529-0.309c-0.194-0.113-0.468-0.22-0.453-0.489c0.017-0.288,0.319-0.303,0.529-0.376
		c1.074-0.372,2.105-0.841,3.073-1.43c0.511-0.311,1.379-0.57,1.243-1.199c-0.11-0.508-1.009-0.366-1.567-0.45
		c-2.82-0.425-4.88-1.95-6.357-4.335c-0.119-0.193-0.319-0.415-0.126-0.625c0.184-0.2,0.443-0.057,0.652,0.034
		c1.204,0.522,2.219,1.287,3.042,2.319c0.218,0.274,0.3,0.739,0.883,0.735c-0.329-1.214,0.322-0.93,1.019-0.733
		c3.776,1.068,6.025-0.198,7.101-3.939c0.334-1.162,0.656-2.335,1.1-3.458c1.246-3.15,3.434-5.266,6.843-5.937
		c0.532-0.105,1.086-0.101,1.628-0.157c0.233-0.024,0.519-0.064,0.531-0.342c0.006-0.142-0.184-0.335-0.333-0.433
		c-0.886-0.585-1.831-1.033-2.898-1.192c-2.532-0.378-4.774,0.447-6.92,1.656c-2.801,1.578-5.27,3.63-7.841,5.535
		c-0.615,0.455-1.24,0.892-1.996,1.07c0.184-0.296,0.435-0.48,0.658-0.692c2.465-2.333,4.46-4.942,4.688-8.494
		c0.102-1.597-0.112-1.708-1.601-1.145c-3.123,1.181-6.26,1.668-9.438,0.2c-1.167-0.539-2.117-1.334-2.726-2.475
		c-0.356-0.667-0.609-1.432-0.151-2.117c0.474-0.709,1.273-0.502,1.941-0.349c2.519,0.575,4.776,1.676,6.671,3.469
		c0.287,0.272,0.516,0.675,1.154,0.64c-1.644-6.413-6.524-9.861-11.78-13.215c4.492-0.83,8.75-1.597,11.982-4.872
		c-0.288-0.329-0.523-0.204-0.739-0.167c-2.249,0.384-4.5,0.431-6.757,0.079c-3.928-0.614-7.703-1.663-11.059-3.896
		c-0.596-0.397-1.221-0.884-0.979-1.693c0.248-0.832,1.074-0.66,1.705-0.656c2.844,0.016,5.439,0.915,7.889,2.305
		c0.447,0.254,0.864,0.632,1.495,0.615c-0.044-0.205-0.034-0.339-0.095-0.416c-3.232-4.069-6.854-7.68-11.54-10.104
		c-4.703-2.434-9.743-3.217-14.958-3.281c-1.323-0.016-2.659-0.039-3.949-0.395c-0.347-0.096-0.891-0.161-0.826-0.647
		c0.048-0.359,0.545-0.365,0.882-0.435c2.442-0.506,4.892-0.366,7.345-0.095c0.547,0.06,1.107,0.226,1.829-0.097
		c-2.346-1.393-4.542-2.622-7.052-3.188c-4.331-0.976-8.614-0.452-12.898,0.343c-1.953,0.363-3.891,0.859-5.901,0.822
		c-0.586-0.011-1.117-0.152-1.302-0.777c-0.186-0.627,0.208-1.057,0.667-1.376c0.828-0.575,1.788-0.763,2.778-0.771
		c1.953-0.017,3.906,0.023,5.858-0.025c1.044-0.026,2.085-0.188,3.127-0.289C57.82-2.766,43.83,0.271,31.278,10.764
		c1.97-5.066,6.088-7.575,10.809-9.405c-0.188-0.115-0.305-0.154-0.407-0.131c-5.724,1.321-10.291,4.185-12.964,9.633
		c-0.871,1.775-1.634,3.682-2.874,5.173c-1.054,1.268-0.222,1.521,0.486,2.051c7.543,5.642,15.357,10.872,23.502,15.61
		c3.208,1.866,6.491,3.588,9.772,5.318c0.563,0.297,1.129,0.59,0.854,1.422c-0.528,1.597-2.172,2.324-3.619,1.575
		c-10.712-5.546-21.424-11.093-32.139-16.634c-0.32-0.166-0.617-0.457-1.079-0.349c0.221,0.468,0.63,0.649,0.966,0.895
		c3.556,2.613,7.116,5.218,10.68,7.819c3.343,2.44,6.693,4.871,10.034,7.313c0.362,0.265,0.869,0.482,0.672,1.091
		c-0.162,0.503-0.457,0.919-0.978,1.094c-0.474,0.159-0.917,0.037-1.337-0.225c-4.749-2.967-9.913-5.125-14.916-7.596
		c-1.689-0.834-3.366-1.738-5.269-2.343c0.139,0.535,0.507,0.632,0.786,0.815c6.231,4.097,12.464,8.19,18.696,12.285
		c0.228,0.15,0.458,0.299,0.671,0.47c0.356,0.287,0.43,0.723,0.214,1.051c-0.248,0.376-0.56-0.02-0.802-0.145
		c-8.221-4.246-16.461-8.46-24.308-13.386c-0.475-0.298-0.969-0.564-1.454-0.845c-0.052,0.089-0.104,0.178-0.155,0.267
		c8.141,6.092,16.855,11.33,25.47,16.796c-0.375,0.272-0.612,0.038-0.839-0.052c-6.422-2.549-12.866-5.057-18.91-8.446
		c-2.519-1.412-5.046-2.831-7.004-5.036c-0.74-0.833-1.085-1.77-0.969-2.897c0.266-2.59,1.245-4.891,2.704-7.023
		c1.987-2.903,4.513-5.265,7.273-7.406c0.342-0.265,1.117-0.412,0.622-1.111c-0.401-0.567-0.916-0.761-1.596-0.269
		c-6.451,4.666-11.095,10.691-13.065,18.437c-0.661,2.598-1.43,5.158-2.125,7.742c-0.152,0.564-0.286,1.135-0.395,1.709
		c-0.536,2.83-0.444,5.764-1.418,8.522c-0.625,1.768-1.213,3.552-1.456,5.417c-0.427,3.284-0.595,6.497,2.443,8.857
		c0.832,0.646,0.821,1.663,0.609,2.603c-0.153,0.678-0.404,1.35-0.715,1.973c-1.081,2.165-2.243,4.291-3.308,6.463
		c-1.12,2.284-2.014,4.65-2.378,7.196c-0.466,3.257,0.867,4.893,4.128,4.875c1.205-0.007,2.415-0.146,3.612-0.305
		c1.908-0.254,2.393,0.031,2.992,1.866c0.47,1.439,0.453,2.918,0.45,4.404c-0.003,1.507,0.506,2.213,1.909,2.723
		c0.624,0.227,1.272,0.348,1.93,0.458c2.4,0.402,4.841,0.002,7.241,0.418c1.054,0.183,2.07,0.431,2.952,1.047
		c2.068,1.446,1.911,3.946-0.306,5.028c-0.421,0.205-0.839,0.427-1.281,0.576c-0.747,0.254-1.043,0.743-0.955,1.515
		c0.111,0.976-0.184,1.748-0.861,2.537c-2.214,2.578-1.854,4.666,0.988,6.576c0.805,0.541,0.97,1.414,0.458,2.359
		c-1.475,2.723-1.027,5.365,0.47,7.882c1.445,2.432,3.765,2.943,6.398,2.676c5.917-0.6,11.779-1.451,17.343-3.689
		c1.065-0.428,1.693-0.087,2.169,0.875c0.802,1.62,1.29,3.346,1.837,5.057c0.282,0.88-0.033,1.145-0.869,1.315
		c-2.647,0.54-5.273,0.458-7.909-0.042c-0.391-0.074-0.885-0.371-1.177,0.111c-0.264,0.436-0.085,0.921,0.163,1.332
		c0.504,0.836,1.265,1.35,2.165,1.704c1.578,0.621,3.254,0.775,4.898,1.085c2.656,0,5.311,0,7.967,0
		c0.303-0.051,0.605-0.123,0.91-0.149c5.227-0.442,10.396-1.214,15.361-2.975c12.699-4.503,25.511-8.635,38.618-11.787
		c7.055-1.697,14.122-3.39,21.467-3.108c1.006,0.039,0.822-0.53,0.65-1.148C133.635,112.579,131.481,104.874,129.37,97.158z
		 M52.555,77.514c0.323,0.357,0.085,1.884-0.341,2.124c-0.582,0.328-0.757-0.148-0.851-0.562c-0.239-1.051-0.432-2.113-0.713-3.523
		C51.437,76.358,52.015,76.919,52.555,77.514z M67.107,41.168c2.315,2.852,5.05,4.777,8.308,5.933
		c3.185,1.13,6.466,1.498,9.834,1.05C79.04,50.629,69.632,47.046,67.107,41.168z M82.989,53.182
		c4.799,4.089,9.579,8.098,16.429,6.359C94.535,62.806,86.359,58.557,82.989,53.182z M105.359,69.887
		c-4.63,2.386-12.731-0.45-14.206-3.635C95.409,69.189,99.997,70.69,105.359,69.887z M86.304,75.171
		c1.304,7.434,3.861,13.63,12.256,14.753C91.184,90.324,85.971,84.217,86.304,75.171z M95.638,75.53
		c2.052,5.645,4.994,8.049,9.899,8.256C100.793,85.579,95.293,80.338,95.638,75.53z M106.541,94.151
		c-0.362,0.038-0.77,0.065-0.78-0.431c-0.011-0.569,0.182-1.104,0.811-1.258c2.85-0.698,2.949-1.02,4.751-2.804
		C110.94,91.707,108.567,93.937,106.541,94.151z M120.34,84.798c1.37,1.277,2.648,2.653,3.994,3.958
		c0.927,0.899,1.998,1.611,3.119,2.276c-1.925-0.313-3.437-1.4-4.798-2.691c-1.558-1.477-3.018-3.056-4.563-4.547
		c-0.684-0.661-1.47-1.215-2.368-1.947C117.736,82.341,119.04,83.586,120.34,84.798z M118.034,71.057
		c0.25,0.421,0.848,0.701,1.344,0.898c0.9,0.357,0.965,0.722,0.254,1.377c-0.983,0.905-2.052,1.662-3.308,2.206
		c0.927-1.528,1.642-3.032,0.636-4.78c-0.483,0.052-0.422,0.408-0.504,0.626c-0.625,1.657-1.863,2.214-3.526,1.561
		c-1.016-0.399-1.201-1.219-1.159-2.191c0.045-1.039,0.857-0.875,1.504-1.074C115.18,69.091,116.852,69.063,118.034,71.057z
		 M114.532,65.409c0.313-0.372,0.61-0.243,0.877,0.061c0.5,0.57,1.181,0.867,2.008,1.304c-1.544,0.897-3.092,1.373-4.923,1.866
		C112.95,67.206,113.764,66.321,114.532,65.409z M108.934,45.85c0.265,0.033,0.536,0.134,0.773,0.262
		c3.345,1.822,6.743,1.572,10.178,0.293c0.382-0.142,0.808-0.538,1.19-0.211c0.361,0.309,0.127,0.801,0.053,1.218
		c-0.499,2.794-2.008,4.992-4.055,6.916c0.646-2.186,0.953-4.318-0.281-6.392c0.185,1.905,0.124,3.73-1.141,5.326
		c-1.264,1.594-3.428,2.49-5.03,1.977c-0.364-0.116-0.72-0.304-1.032-0.525c-0.663-0.47-0.723-0.934,0.019-1.446
		c1.512-1.042,2.946-2.185,4.192-3.545c0.237-0.258,0.471-0.524,0.666-0.814c0.167-0.247,0.447-0.56,0.183-0.834
		c-0.288-0.3-0.572,0.058-0.821,0.197c-5.166,2.868-10.709,3.692-16.52,3.047c-1.088-0.121-2.168-0.318-3.152-0.832
		c-0.899-0.47-1.433-1.174-1.35-2.255c0.079-1.033,0.843-1.326,1.648-1.564C99.214,45.255,104.058,45.241,108.934,45.85z
		 M99.466,24.51c4.242,2.327,8.829,3.435,13.88,3.767c-2.742,1.138-5.381,1.731-8.069,2.141c-0.77,0.117-1.549,0.172-2.323,0.262
		c-0.304,0.035-0.728-0.009-0.812,0.328c-0.101,0.404,0.351,0.439,0.617,0.545c3.229,1.287,6.063,3.202,8.682,5.458
		c1.537,1.324,2.833,2.846,4.057,4.878c-1.412-0.706-2.476-1.347-3.659-1.725c-0.898-0.286-1.806-0.516-2.749-0.535
		c-1.943-0.038-2.879,1.234-2.268,3.067c0.122,0.365,0.281,0.719,0.487,1.238c-6.851-1.366-13.745,0.048-20.499-1.211
		c5.778-1.31,11.115-3.425,15.472-7.541c0.635-0.6,1.204-1.315,1.424-2.543c-3.733,2.878-7.777,4.495-12.136,5.285
		c-4.36,0.79-8.707,1-13.132-0.878c6.725-0.83,12.807-2.58,17.771-7.127c-4.265,1.17-8.568,2.048-12.948,2.3
		c-4.377,0.251-8.783,0.304-13.072-1.095c2.574-0.525,4.85-1.668,7.006-3.071c0.43-0.28,0.8-0.164,1.215-0.022
		c7.079,2.424,13.601,1.477,19.487-3.249C98.385,24.388,98.814,24.152,99.466,24.51z M80.895,16.478
		c1.362,0.061,2.721,0.024,4.087,0.182c3.68,0.427,6.071,2.416,7.414,5.791c0.115,0.288,0.246,0.57,0.375,0.851
		c0.009,0.021,0.069,0.018,0.175,0.043c0.305-0.896,0.057-1.745-0.246-2.569c-1.023-2.783-3.124-4.413-5.845-5.323
		c-1.973-0.66-4.013-0.969-6.096-0.979c-0.467-0.003-0.944,0.003-1.397-0.089c-0.35-0.071-0.895-0.018-0.944-0.514
		c-0.051-0.522,0.441-0.734,0.851-0.814c4.528-0.882,8.933-0.832,12.968,1.82c1.203,0.791,2.045,1.963,3.076,2.905
		c-2.443-4.215-6.342-5.997-11.22-6.412c4.686-1.471,16.797,3.5,20.131,8.173c-0.975-0.171-1.875-0.332-2.776-0.487
		c-0.853-0.147-1.707-0.186-2.556,0.025c-2.018,0.5-2.703,2.372-1.318,3.916c0.724,0.808,0.501,1.08-0.297,1.483
		c-4.97,2.508-10.083,2.696-15.328,1.019c-0.813-0.26-1.092-0.533-0.388-1.334c1.5-1.706,2.532-3.659,2.538-6.014
		c0.001-0.416,0.14-1.007-0.293-1.174c-0.563-0.217-0.581,0.48-0.809,0.784c-2.189,2.912-5.217,4.654-8.469,6.066
		c-2.125,0.923-4.326,1.592-6.688,1.436c-1.357-0.09-2.804-0.289-3.294-1.747c-0.494-1.469,0.732-2.281,1.763-2.976
		c2.335-1.573,4.886-2.589,7.74-2.712c0.266-0.011,0.531-0.053,0.838-0.085c-0.559-0.595-1.893-0.921-3.344-0.804
		c-0.854,0.069-1.702,0.212-2.553,0.314c-2.843,0.341-5.215-0.579-7.155-2.668c-0.691-0.744-0.581-1.186,0.379-1.623
		c3.998-1.818,9.79-2.743,14.846-2.238c-0.491,0.362-0.887,0.625-1.249,0.928c-1.624,1.359-1.465,2.908,0.416,3.899
		C77.686,16.32,79.294,16.407,80.895,16.478z M70.571,6.046c3.209-0.516,6.424-0.762,9.646-0.097
		c0.262,0.054,0.518,0.136,0.867,0.229c-1.135,0.246-2.134,0.419-3.107,0.686c-0.817,0.224-1.53,0.641-1.658,1.605
		c-0.079,0.594-0.5,0.629-0.95,0.605c-5.652-0.292-11.171,1.061-16.775,1.35c-2.158,0.111-4.291-0.022-6.355-0.709
		c-0.468-0.156-1.081-0.339-1.035-0.953c0.048-0.632,0.723-0.526,1.135-0.575c2.673-0.318,5.347-0.751,8.03-0.825
		C63.829,7.266,67.185,6.591,70.571,6.046z M32.095,16.907c-0.371,0.104-0.785,0.282-1.052-0.16
		c-0.247-0.408-0.004-0.758,0.254-1.057c0.927-1.071,2.046-1.92,3.207-2.717c0.386-0.265,0.79-0.505,1.173-0.772
		c0.24-0.168,0.687-0.27,0.556-0.64c-0.146-0.412-0.586-0.281-0.925-0.228c-1.862,0.293-3.26,1.426-4.643,2.581
		c-0.297,0.248-0.575,0.521-1.075,0.976c0.439-1.314,0.719-2.351,1.666-3.148C37.717,6.303,44.927,2.48,53.398,1.331
		c1.935-0.263,3.88-0.384,5.836-0.361c2.028,0.024,4.029,0.273,6.034,0.59c-1.962,0.168-3.915,0.31-5.361,1.921
		c-0.148,0.165-0.503,0.167-0.768,0.2c-5.717,0.735-11.257,2.157-16.62,4.265c-0.982,0.386-1.932,0.847-2.787,1.475
		c-0.44,0.323-1.027,0.708-0.839,1.286c0.222,0.681,0.945,0.376,1.438,0.319c2.736-0.321,5.448-0.217,8.143,0.345
		c0.226,0.047,0.445,0.127,0.668,0.191c-3.212,0.551-6.344,1.323-9.381,2.457c-2.193,0.819-4.366,1.69-6.55,2.53
		C32.846,16.691,32.47,16.802,32.095,16.907z M37.55,19.383c-0.612,0.057-1.531,0.382-1.781-0.37
		c-0.259-0.778,0.687-1.029,1.222-1.326c3.186-1.767,6.612-2.95,10.078-4.022c0.67-0.208,1.386-0.307,2.016-0.597
		c2.251-1.038,4.046-0.163,5.878,1.378c-4.655,0.283-8.705,2.069-12.83,3.596C40.638,18.594,39.156,19.233,37.55,19.383z
		 M53.207,22.587c-0.735,0.197-1.71,0.491-2.163-0.274c-0.511-0.862,0.371-1.507,0.908-2.069c0.865-0.906,1.908-1.602,3.06-2.118
		c0.238-0.107,0.581-0.166,0.55-0.51c-0.032-0.356-0.395-0.336-0.642-0.387c-0.955-0.199-1.862,0.089-2.745,0.381
		c-2.014,0.666-3.789,1.822-5.625,2.849c-0.955,0.534-1.911,1.069-2.994,1.291c-0.456,0.094-1.004,0.164-1.246-0.357
		c-0.238-0.512,0.146-0.895,0.509-1.195c1.558-1.291,3.423-2.006,5.271-2.738c2.213-0.876,4.483-1.577,6.827-2.022
		c0.584-0.111,1.166-0.207,1.71,0.103c2.31,1.317,4.774,2.24,7.695,2.924C60.357,19.775,56.936,21.586,53.207,22.587z
		 M59.725,65.939c-0.984-0.245-2.173-1.634-2.971-3.532C59.108,62.489,59.756,63.979,59.725,65.939z M48.57,78.351
		c-0.183-2.217-0.349-4.238-0.53-6.434C50.411,74.577,50.577,76.373,48.57,78.351z M49.317,58.972
		c0.302-0.245,0.554,0.126,0.818,0.252c0.991,0.473,1.624,1.148,1.865,2.319c0.269,1.301,1.107,2.378,1.981,3.408
		c-2.202-1.113-3.869-2.716-4.652-5.105C49.236,59.564,49.039,59.197,49.317,58.972z M43.024,57.271
		c1.74,4.531,5.273,7.425,9.827,9.453c-5.467-0.217-12.003-7.543-13.612-12.536C40.777,55.067,42.29,55.359,43.024,57.271z
		 M37.073,126.49c-0.74,0.805-1.512,1.572-2.464,2.145c-1.305,0.785-2.604,0.995-3.968,0.148c-0.936-0.582-1.804-0.774-2.418,0.472
		c-0.245,0.497-0.566,0.374-0.91,0.009c-1.485-1.573-1.637-5.306-0.827-7.306c0.672-1.661,1.849-2.65,3.037-3.778
		c0.985-0.935,1.743-2.052,1.576-3.547c-0.863,1.138-1.805,2.093-3.128,2.619c-1.598,0.635-3.192,0.234-3.796-0.969
		c-0.538-1.071,0.182-3.162,1.396-3.877c0.955-0.562,1.779-1.262,2.522-2.072c1.748-1.904,2.475-4.101,1.539-6.577
		c-0.92-2.435-3.093-3.12-5.424-3.465c-2.439-0.361-4.916-0.049-7.354-0.445c-2.055-0.334-2.298-0.628-2.397-2.688
		c-0.067-1.396-0.052-2.816-0.571-4.154c-0.176-0.455-0.025-0.665,0.408-0.901c2.291-1.253,2.901-2.05,3.578-4.472
		c0.193-0.099,0.283,0.053,0.362,0.17c2.849,4.263,6.154,8.162,9.659,11.883c4.259,4.521,6.581,9.981,8.072,15.888
		c0.62,2.457,1.443,4.857,1.987,7.337C38.25,124.282,38.018,125.462,37.073,126.49z M56.442,134.223
		c-0.59,0.207-0.747-0.127-0.883-0.584c-0.407-1.374-1.019-2.66-1.68-3.939c1.442,0.794,2.303,2.048,2.913,3.496
		C56.966,133.609,57.03,134.017,56.442,134.223z M127.204,117.193c-7.053-0.889-13.73,0.764-20.3,3.081
		c-6.521,2.3-12.812,5.173-19.226,7.739c-3.432,1.373-6.917,2.611-10.449,3.728c2.392-0.98,4.79-1.947,7.176-2.942
		c7.602-3.17,14.914-7.004,22.624-9.929c5.425-2.058,10.939-3.714,16.813-3.749c1.677-0.01,3.351-0.007,5.02,0.256
		c1.784,0.281,2.254,0.675,2.704,2.558C130.102,117.682,128.661,117.377,127.204,117.193z"/>
	<path d="M66.912,79.431c0.854,0.127,1.36,0.679,1.841,1.361c0.371-1.909-0.346-3.396-1.921-4.286
		c-1.55-0.877-2.542-2.132-3.332-3.646c-0.401-0.77-0.943-1.44-1.692-1.906c-0.295-0.183-0.7-0.433-0.968-0.166
		c-0.347,0.346,0.127,0.596,0.312,0.849c0.23,0.314,0.506,0.594,0.749,0.9c2.14,2.692,3.032,4.89,0.5,7.47
		c-0.348,0.355-0.558,0.862-0.268,1.402c0.379,0.706,1.779,1.139,2.739,0.821c0.898-0.297,1.371-0.835,1.083-1.861
		C65.725,79.55,66.143,79.317,66.912,79.431z"/>
</g>
<g>
</g>
<g>
</g>
<g>
</g>
<g>
</g>
<g>
</g>
<g>
</g>
<g>
</g>
<g>
</g>
<g>
</g>
<g>
</g>
<g>
</g>
<g>
</g>
<g>
</g>
<g>
</g>
<g>
</g>
</svg>
