<?xml version="1.0" encoding="iso-8859-1"?>
<!-- Generator: Adobe Illustrator 19.1.0, SVG Export Plug-In . SVG Version: 6.00 Build 0)  -->
<svg version="1.1" id="Capa_1" xmlns="http://www.w3.org/2000/svg" xmlns:xlink="http://www.w3.org/1999/xlink" x="0px" y="0px"
	 viewBox="0 0 154.86 154.86" style="enable-background:new 0 0 154.86 154.86;" xml:space="preserve">
<g>
	<path d="M134.481,63.425c-0.57-3.949-2.238-7.484-4.13-10.932c-1.523-2.776-3.3-5.411-4.596-8.311
		c-1.065-2.383-1.586-4.751-0.505-7.355c0.954-2.297,0.192-4.131-1.911-5.478c-1.197-0.767-2.504-1.316-3.817-1.856
		c-1.693-0.695-3.44-1.282-4.966-2.336c-1.13-0.781-2.217-1.727-2.294-3.128c-0.141-2.568-1.621-4.296-3.254-5.994
		c-3.435-3.57-7.418-6.449-11.593-9.064c-5.343-3.345-10.88-6.276-16.9-8.289c-4.305-1.44-7.715-0.693-10.42,3.073
		c-1.189,1.655-2.645,3.108-4.132,4.512c-2.882,2.722-6.149,3.294-9.801,1.777c-1.123-0.466-2.154-1.091-3.154-1.774
		c-3.421-2.336-3.42-2.337-6.986-0.04c-0.105,0.068-0.21,0.136-0.314,0.205c-5.622,3.76-10.906,7.952-15.929,12.476
		c-2.354,2.12-4.625,4.327-6.564,6.848c-1.186,1.543-1.957,3.156-1.346,5.208c0.28,0.941,0.27,1.975,0.337,2.971
		c0.234,3.448,0.506,6.895,0.648,10.348c0.218,5.283,0.336,10.569,0.512,15.854c0.016,0.473-0.149,0.748-0.532,1.027
		c-2.624,1.912-3.272,4.042-2.046,7.069c0.844,2.084,1.804,4.122,2.767,6.155c2.831,5.978,4.757,12.172,4.658,18.872
		c0,0.834-0.064,1.673,0.013,2.5c0.194,2.098,0.13,4.29,1.927,5.88c0.187,0.165,0.245,0.521,0.285,0.799
		c0.431,3.008,0.897,6.013,1.256,9.03c0.574,4.828,1.969,9.315,4.712,13.411c2.178,3.252,4.189,6.621,6.412,9.846
		c2.648,3.841,5.216,7.753,8.609,11.012c3.379,3.245,7.144,5.77,12.004,6.065c2.623,0.159,5.203,0.664,7.817,0.858
		c3.743,0.278,7.482,0.51,11.042-1.174c8.715-4.12,16.107-9.885,21.096-18.185c5.593-9.305,9.55-19.338,11.629-30.044
		c0.197-1.013,0.503-1.292,1.531-1.084c2.697,0.547,4.928-0.322,6.624-2.495c1.527-1.957,1.825-4.332,2.242-6.671
		c0.422-2.364,0.299-4.864,1.564-7.026c2.962-5.059,5.312-10.364,6.855-16.035C134.6,69.13,134.898,66.317,134.481,63.425z
		 M23.262,65.425c0.391,1.943,0.774,3.845,1.203,5.974C21.928,69.33,21.52,67.096,23.262,65.425z M107.82,87.515
		c-1.815-0.129-3.499-0.694-5.105-1.549c-0.678-0.361-0.657-0.634-0.072-1.026c0.242-0.162,0.467-0.35,0.693-0.534
		c1.284-1.047,1.313-1.646,0.105-2.821c-1.626-1.581-2.818-3.503-4.164-5.302c-0.233-0.312-0.298-0.769-0.378-1.172
		c-0.751-3.822-2.957-6.596-6.334-8.367c-3.403-1.784-6.82-0.982-10.13,0.435c-2.804,1.201-5.354,2.882-7.987,4.403
		c-0.81,0.468-1.639,0.901-2.414,1.449c0.879,0.107,1.533-0.418,2.227-0.777c2.7-1.396,5.26-3.054,8.064-4.259
		c1.272-0.547,2.577-0.948,3.93-1.218c5.3-1.059,9.453,2.592,10.965,6.916c-1.468-1.586-2.936-2.828-4.573-3.879
		c-2.716-1.744-5.382-2.021-8.328-0.382c-4.892,2.721-9.483,5.891-14.128,8.99c-1.455,0.971-2.849,2.043-4.434,2.802
		c-0.577,0.276-0.791,0.679-0.773,1.283c0.067,2.205,0.058,4.421,0.562,6.583c0.164,0.701-0.004,1.325-0.158,1.962
		c-0.627,2.595-1.134,5.209-1.317,7.876c-0.044,0.635-0.19,1.305,0.299,2.056c0.393-0.729,0.348-1.395,0.445-2.019
		c0.342-2.194,1.021-4.293,1.776-6.37c0.131-0.362,0.187-0.851,0.844-0.504c3.91,2.067,8.09,3.546,12.066,5.454
		c2.321,1.114,4.655,1.512,7.127,1.372c2.642-0.149,5.042-1.056,7.139-2.696c0.333-0.26,0.899-0.526,0.504-1.083
		c-0.369-0.521-0.823-0.225-1.189,0.072c-2.7,2.194-5.84,2.671-9.189,2.42c-0.879-0.066-1.579-0.371-2.257-1.129
		c1.688-0.139,3.264,0.023,4.813-0.299c2.086-0.434,4.002-1.162,5.466-2.787c0.291-0.323,0.78-0.66,0.283-1.148
		c-0.457-0.448-0.83-0.121-1.156,0.245c-1.644,1.843-3.822,2.453-6.168,2.586c-1.329,0.075-2.666-0.009-4,0.006
		c-1.621,0.018-2.693-0.884-3.731-2.135c0.569-0.171,0.975,0.035,1.391,0.134c3.682,0.874,7.336,0.976,10.947-0.362
		c0.869-0.322,1.744-0.689,2.399-1.315c1.986-1.896,4.639-2.667,6.838-4.19c0.68-0.471,1.3-0.536,2.051-0.023
		c1.351,0.921,2.863,1.574,4.456,1.918c1.179,0.255,1.243,0.868,0.918,1.794c-1.302,3.718-4.029,6.025-7.508,7.586
		c-0.417,0.187-0.842,0.355-1.257,0.546c-0.05,0.023-0.055,0.141-0.086,0.229c0.365,0.275,0.722,0.065,1.053-0.043
		c4.606-1.514,8.324-4.012,9.828-8.939c0.128-0.418,0.311-0.805,0.822-0.807c0.614-0.003,0.709,0.509,0.816,0.945
		c0.763,3.107,0.87,6.272,0.695,9.442c-0.198,3.595-0.725,7.14-2.252,10.45c-1.14,2.473-2.729,4.485-5.6,5.078
		c-1.946,0.402-3.723-0.141-5.429-0.979c-3.606-1.771-6.878-4.078-10.129-6.413c-2.741-1.969-5.445-3.993-8.225-5.905
		c-3.272-2.251-7.469-1.638-9.612,1.308c-1.036,1.425-0.957,3.542,0.183,4.884c0.27,0.318,0.27,0.318,1.036,0.496
		c0.174-0.214,0.013-0.378-0.076-0.56c-0.593-1.213-0.405-2.029,0.644-2.83c1.236-0.944,2.272-0.971,3.266-0.073
		c0.185,0.167,0.376,0.341,0.511,0.547c2.536,3.877,1.844,5.336-2.071,5.806c-1.612,0.193-3.233,0.32-4.853,0.426
		c-2.576,0.168-3.083,0.667-3.154,3.231c-0.061,2.185-2.484,3.511-4.461,2.437c-1.268-0.689-2.061-1.827-2.675-3.061
		c-0.838-1.684-1.882-2.721-3.994-2.387c-1.323,0.21-2.362-1.135-2.191-2.571c0.198-1.67,0.989-3.095,2.125-4.302
		c0.796-0.845,1.727-0.643,2.808,0.424c0.296,0.292,0.444,1.05,0.955,0.766c0.556-0.309,0.249-0.986,0.078-1.479
		c-0.176-0.508-0.421-1-0.697-1.462c-0.935-1.567-1.605-1.809-3.323-1.122c-2.697,1.078-4.878,2.846-6.66,5.122
		c-0.723,0.924-1.335,1.925-1.799,2.995c-1.007,2.32-1.408,4.607-0.261,7.1c1.233,2.679,2.264,5.467,2.693,8.428
		c0.109,0.753,0.124,1.484-0.05,2.23c-0.361,1.549-0.279,1.642,1.233,1.238c0.528-0.141,0.849-0.062,1.152,0.402
		c2.734,4.187,6.799,6.228,11.557,7.175c3.234,0.644,6.45,1.178,9.787,0.756c3.491-0.442,6.066-2.139,7.896-5.079
		c0.683-1.097,1.33-2.218,2.051-3.288c0.838-1.244,1.527-1.406,2.863-0.728c0.555,0.282,1.063,0.656,1.605,0.967
		c0.409,0.234,0.85,0.414,1.271,0.033c0.386-0.349,0.397-0.797,0.264-1.27c-0.286-1.013-0.852-1.898-1.284-2.844
		c-0.311-0.681-0.592-1.376-0.858-2.076c-0.146-0.385-0.097-0.765,0.325-0.955c0.447-0.201,0.702,0.087,0.897,0.439
		c0.434,0.785,0.624,1.626,0.577,2.522c-0.013,0.243-0.086,0.565,0.223,0.632c0.388,0.085,0.454-0.285,0.54-0.553
		c0.287-0.898,0.224-1.805,0.072-2.721c-0.061-0.37-0.319-0.942,0.279-1.038c0.531-0.085,0.616,0.509,0.681,0.889
		c0.218,1.278,0.281,2.566,0.028,3.852c-0.046,0.236-0.172,0.548,0.124,0.66c0.373,0.141,0.509-0.221,0.607-0.474
		c0.456-1.178,0.524-2.434,0.712-3.668c0.098-0.644-0.128-1.733,0.777-1.691c0.679,0.031,0.347,1.056,0.363,1.634
		c0.027,0.997-0.057,1.998-0.095,2.997c-0.009,0.24-0.129,0.553,0.171,0.657c0.366,0.127,0.505-0.222,0.626-0.468
		c0.464-0.95,0.552-1.999,0.781-3.013c0.172-0.759,0.131-2.04,1.196-1.841c1.1,0.205,0.751,1.395,0.548,2.227
		c-0.499,2.045-1.528,3.864-2.531,5.689c-1.889,3.438-3.885,6.803-6.488,9.769c-3.577,4.077-8.014,6.716-13.267,8.013
		c-2.506,0.619-4.991,1.351-7.608,1.339c-1.68-0.008-1.721-0.044-1.86-1.732c-0.055-0.668-0.41-0.871-1.024-0.651
		c-0.806,0.288-1.457,0.816-2.024,1.43c-0.545,0.589-0.838,0.531-1.081-0.238c-0.373-1.18-0.798-2.343-1.39-3.493
		c-0.366,1.569,0.248,3.139-0.239,4.742c-0.692-2.577-1.383-5.155-2.075-7.732c-0.111,0.012-0.222,0.023-0.333,0.035
		c-0.129,1.871,0.372,3.758,0.064,6.014c-0.971-3.207-1.834-6.06-2.697-8.913c-0.135,0.033-0.27,0.066-0.405,0.099
		c0.222,1.959,0.445,3.917,0.709,6.242c-2.257-4.062-2.837-8.661-6.384-11.591c1.886,2.57,2.497,5.603,3.279,8.546
		c-0.143,0.174-0.245,0.094-0.315-0.004c-4.47-6.232-8.81-12.547-12.561-19.252c-1.599-2.859-1.834-6.038-2.374-9.141
		c-0.542-3.118-0.893-6.269-1.309-9.408c-0.081-0.608-0.261-1.144-0.762-1.514c-0.642-0.474-0.981-1.097-1.098-1.883
		c-0.355-2.386-0.432-4.777-0.3-7.539c1.76,2.533,2.91,4.955,3.47,7.679c0.266-1.035,0.177-2.035-0.072-3.023
		c-0.624-2.483-1.593-4.83-2.927-7.011c-0.619-1.012-1.052-2.06-1.303-3.217c-0.452-2.076-1.047-4.114-1.69-6.143
		c-0.76-2.4-0.366-4.892-0.24-7.328c0.414-8,1.624-15.91,2.927-23.806c0.011-0.065,0.067-0.122,0.157-0.278
		c0.414,1.558,0.837,3.038,1.848,4.24c0.221,0.262,0.423,0.768,0.857,0.542c0.333-0.173,0.111-0.609,0.06-0.924
		c-0.385-2.396-0.297-4.758,0.439-7.097c0.329,1.39,0.664,2.75,1.372,3.98c0.152,0.265,0.248,0.711,0.674,0.592
		c0.332-0.093,0.262-0.488,0.284-0.765c0.146-1.839,0.493-3.631,1.195-5.346c0.205-0.502,0.402-0.902,1.091-0.574
		c5.194,2.476,10.754,2.797,16.37,2.682c3.394-0.07,6.722-0.567,9.89-1.885c1.48-0.616,2.81-1.446,3.979-2.543
		c0.226-0.212,0.389-0.692,0.758-0.514c0.345,0.167,0.36,0.647,0.356,1.01c-0.027,2.24-1.084,4.009-2.723,5.41
		c-4.141,3.54-8.949,4.122-14.103,3.028c-0.668-0.142-1.302-0.481-2.18-0.436c0.447,0.813,1.109,1.182,1.687,1.619
		c3.277,2.477,6.886,3.932,11.069,3.281c3.705-0.576,6.642-2.617,9.16-5.26c3.022-3.172,5.393-6.776,6.712-10.999
		c0.258-0.827,0.576-0.662,0.995-0.154c1.072,1.298,1.942,2.723,2.437,4.333c1.032,3.353-0.291,6.203-3.7,7.934
		c-1.026,0.521-2.138,0.869-3.268,1.32c0.301,0.663,0.934,0.713,1.463,0.836c3.584,0.834,6.754-0.221,9.68-2.235
		c3.831-2.637,6.24-6.282,7.531-10.771c0.305,0.211,0.285,0.547,0.346,0.836c1.199,5.711,2.467,11.405,3.998,17.038
		c0.074,0.272,0.282,0.564,0.079,0.831c-0.207,0.274-0.469,0.058-0.667-0.054c-5.071-2.866-10.412-2.438-15.809-1.303
		c-4.698,0.988-9.213,2.619-13.813,3.952c-2.04,0.591-4.088,1.139-6.285,1.266c0.958,0.5,0.957,0.493,1.97,0.339
		c3.968-0.604,7.776-1.86,11.65-2.846c4.363-1.111,8.733-2.084,13.296-2.078c3.912,0.005,7.164,1.651,10.399,3.499
		c0.4,0.229,0.512,0.639,0.648,1.031c0.874,2.507,2.15,4.579,4.343,6.345c4.396,3.542,6.661,8.452,7.408,14.028
		C112.332,86.161,110.575,87.711,107.82,87.515z M84.586,84.975c-0.105-0.173-0.313-0.323-0.207-0.544
		c0.132-0.274,0.426-0.239,0.663-0.216c2.35,0.228,4.404,1.177,6.248,2.614c0.586,0.457,0.115,0.794-0.18,1.122
		c-1.615,1.79-3.654,2.72-6.037,2.879c-1.035,0.069-2.079,0.012-3.119,0.012C85.071,90.193,86.232,87.697,84.586,84.975z
		 M85.34,91.939c3.056-0.18,5.609-1.347,7.362-4.085c0.542,0.818,0.052,1.216-0.352,1.604c-2.798,2.688-6.271,3.235-9.94,3.034
		c-1.894-0.104-3.754-0.47-5.718-1.32c0.759-0.372,1.263-0.102,1.738,0.035C80.693,91.863,83.001,92.077,85.34,91.939z
		 M78.395,84.085c4.202-3.512,12.174-3.462,15.25-0.007C88.662,82.05,83.667,81.77,78.395,84.085z M80.895,79.943
		c-0.279,0.086-0.557,0.174-0.84,0.245c-0.068,0.017-0.153-0.035-0.598-0.15c2.82-1.492,4.95-3.559,7.723-4.562
		c2.187-0.792,4.212-0.486,6.094,0.96c-0.428,0.591-1.151,0.561-1.547,1.208c0.87,0.334,1.624-0.376,2.502-0.164
		c-0.367,0.752-1.378,0.597-1.752,1.386c0.93,0.226,1.696-0.462,2.613-0.308c-0.314,0.736-1.294,0.623-1.607,1.374
		c0.863,0.278,1.567-0.386,2.397-0.215c-0.242,0.641-1.171,0.417-1.369,1.158c0.757,0.378,1.507-0.288,2.481-0.005
		c-1.025,0.487-1.754,1.174-2.772,0.521C90.019,78.696,85.545,78.51,80.895,79.943z M79.642,121.889
		c-3.817,0.026-7.385,1.209-11.01,2.112c-1.603,0.399-3.122,0.415-4.671-0.056c-4.312-1.309-8.645-2.49-13.17-2.827
		c-1.298-0.097-1.941-1.07-2.207-2.241c-0.699-3.079,0.487-5.804,1.725-8.878c0.465,2.981,1.693,4.943,4.332,5.821
		c1.089,0.362,1.864,1.186,2.374,2.128c1.749,3.23,4.273,4.504,7.958,3.805c3.266-0.619,6.596-0.893,9.89-1.37
		c1.344-0.195,2.074-1.108,2.439-2.383c0.371-1.298,0.233-2.655,0.525-3.958c0.079-0.352,0.022-0.823,0.505-0.897
		c0.364-0.056,0.601,0.262,0.792,0.529c1.095,1.527,2.128,3.093,2.68,4.916C82.313,120.274,81.396,121.877,79.642,121.889z
		 M80.339,126.672c-0.403,1.808-1.649,2.989-3.134,3.87c-3.73,2.214-7.714,3.71-12.108,3.908c-2.301,0.103-4.569-0.111-6.808-0.641
		c-1.678-0.397-3.07-1.237-4.155-2.591c-0.884-1.104-1.82-2.166-2.696-3.276c-0.778-0.986-0.781-2.513,0.039-3.163
		c0.926-0.734,1.816-0.278,2.609,0.324c0.595,0.451,1.158,0.952,1.691,1.475c1.418,1.39,3.075,1.843,5.034,1.527
		c5.179-0.835,10.252-2.164,15.379-3.238c0.911-0.191,1.822-0.202,2.732-0.138C80.134,124.815,80.602,125.494,80.339,126.672z
		 M121.847,89.653c-0.281,0.174-0.529,0.406-0.78,0.625c-0.522,0.457-0.571,1.053-0.227,1.574c0.326,0.495,0.888,0.387,1.359,0.15
		c0.514-0.258,1.002-0.569,1.723-0.985c-0.516,3.115-0.508,6.131-1.988,8.823c-1.129,2.053-3.372,2.918-5.552,2.268
		c-0.684-0.204-1.06-0.57-1.171-1.276c-0.604-3.836-1.656-7.567-2.691-11.301c-0.175-0.634-0.221-1.192,0.286-1.736
		c1.078-1.157,1.651-2.586,2.057-4.091c0.082-0.304,0.023-0.735,0.469-0.783c0.384-0.041,0.589,0.285,0.752,0.571
		c0.742,1.3,0.897,2.69,0.432,4.1c-0.39,1.185-0.862,2.346-1.358,3.492c-0.347,0.801-0.174,1.456,0.352,2.076
		c1.092,1.287,2.405,2.313,3.874,3.119c1.057,0.58,1.596,0.204,1.51-0.993c-0.098-1.367-0.548-2.64-1.463-3.651
		c-0.749-0.828-0.599-1.518,0.09-2.163c1.093-1.023,2.229-2.003,3.385-2.956c1.866-1.538,2.415-3.606,2.503-5.894
		c0.056-1.456-0.447-2.705-1.349-3.797c-0.606-0.733-0.198-1.331,0.157-1.934c0.447-0.76,0.948-1.565,1.912-1.641
		c0.713-0.056,0.75,0.666,0.858,1.179c0.373,1.771,0.277,3.567,0.254,5.358c-0.005,0.404-0.001,0.808-0.001,1.47
		c1.005-0.752,1.201-1.681,1.874-2.249C127.497,83.103,125.849,87.173,121.847,89.653z M129.882,77.279
		c0-1.185-0.007-2.064,0.002-2.942c0.015-1.499,0.136-3.006-0.192-4.486c-0.369-1.667-1.159-2.152-2.704-1.514
		c-2.336,0.964-4.25,2.487-5.391,4.793c-1.014,2.049-2.703,3.307-4.74,4.268c1.333-3.382,2.593-6.788,4.995-9.571
		c2.235-2.589,6.398-2.809,8.54-0.534c0.755,0.802,1.08,1.751,1.155,2.827C131.714,72.566,130.962,74.794,129.882,77.279z"/>
	<path d="M59.211,96.204c-0.442-3.349-1.697-6.531-2.012-9.908c-0.192-2.055-0.842-3.827-3.107-4.459
		c-0.155-0.043-0.288-0.165-0.43-0.253c-5.844-3.621-11.685-7.245-17.532-10.859c-1.384-0.855-1.92-0.779-3.02,0.432
		c-0.497,0.547-0.931,1.151-1.456,1.806c-0.352-0.523-0.17-0.897-0.13-1.253c0.48-4.228,2.656-5.543,6.561-3.953
		c2.281,0.929,4.43,2.125,6.581,3.317c2.988,1.656,5.969,3.332,9.245,4.38c1.086,0.347,1.091,0.331,1.954,0.038
		c-2.327-0.583-4.387-1.464-6.357-2.55c-1.97-1.086-3.911-2.225-5.886-3.301c-2.228-1.214-4.367-2.615-6.832-3.343
		c-2.441-0.721-4.511,0.2-5.59,2.5c-0.408,0.87-0.645,1.788-0.768,2.754c-0.254,2.006,0.292,4.056-0.484,6.046
		c-0.489,1.255-0.357,2.643-0.215,3.965c0.163,1.514,0.679,2.912,2,4.282c-0.061-0.875-0.237-1.44-0.099-1.913
		c0.18-0.615,1.149,0.112,1.453-0.683c-0.395-0.208-0.779-0.41-1.31-0.69c0.831-0.217,1.526,0.391,2.18-0.085
		c-0.215-0.634-1.017-0.415-1.248-0.954c0.515-0.311,1.12,0.355,1.641-0.121c-0.191-0.572-0.895-0.446-1.13-0.919
		c0.799-0.269,1.57,0.292,2.615-0.159c-1.049-0.466-1.856-0.823-2.92-1.295c1.237-0.057,2.157,0.604,3.364,0.099
		c-0.751-0.407-1.308-0.709-1.866-1.011c2.095,0.353,4.367,0.123,6.01,1.975c-0.291,0.082-0.525,0.154-0.762,0.213
		c-2.716,0.669-4.212,2.241-4.529,4.981c-0.113,0.973-0.622,1.774-0.827,2.608c-0.16,0.652,1.187,1.305,1.654,2.224
		c1.112,2.191,2.947,3.534,5.474,3.88c1.097,0.15,2.155,0.049,3.231-0.062c0.375-0.039,0.879-0.076,0.971,0.345
		c0.116,0.53-0.45,0.471-0.773,0.549c-2.049,0.496-4.044,0.273-6.013-0.445c-0.544-0.198-1.295-1.024-1.667-0.032
		c-0.281,0.752,0.709,0.902,1.227,1.107c3.098,1.225,6.174,1.175,9.19-0.313c0.47-0.232,1.029-0.697,1.406-0.006
		c0.395,0.723-0.389,0.901-0.796,1.152c-1.628,1.006-3.425,1.488-5.331,1.591c-0.49,0.026-1.12-0.027-1.045,0.723
		c0.063,0.628,0.651,0.585,1.088,0.547c3.453-0.301,6.563-1.429,8.679-4.306c1.453-1.976,2.694-4.151,0.718-6.584
		c-0.05-0.061-0.068-0.152-0.086-0.233c-0.066-0.281-0.216-0.614,0.028-0.827c0.28-0.245,0.541,0.052,0.768,0.201
		c1.251,0.815,2.036,1.907,2.183,3.452c0.206,2.173-0.216,4.141-1.642,5.845c-0.171,0.204-0.483,0.385-0.182,0.869
		c1.876-0.924,2.718-2.711,3.653-4.64c1.146,3.062,1.893,5.933,2.349,9.193c0.527-0.781,0.421-1.325,0.364-1.828
		C59.598,98.925,59.391,97.566,59.211,96.204z M36.574,84.743c0.647-3.677,5.098-4.397,9.808-1.627
		C42.968,82.666,39.58,82.381,36.574,84.743z M49.047,89.657c-1.545,2.148-3.759,2.09-5.975,1.798
		c-2.36-0.311-4.04-1.642-4.993-3.859c-0.211-0.491-0.121-0.889,0.202-1.267c0.943-1.103,2.128-1.66,3.818-1.66
		c-0.947,1.275-1.447,2.513-1.034,3.936c0.218,0.751,0.71,1.314,1.325,1.769c1.237,0.915,2.993,0.864,4.178-0.107
		c1.54-1.262,1.722-2.869,0.536-5.243c1.262,0.256,2.232,0.803,2.754,1.945C50.364,88.078,49.642,88.831,49.047,89.657z"/>
	<path d="M98.5,65.464c-4.21-3.256-8.842-4.341-14.097-3.067c-5.152,1.249-10.145,2.975-15.182,4.579
		c-2.378,0.758-4.759,1.604-7.324,1.277c-8.919-1.136-17.566-3.377-26.004-6.457c-1.099-0.401-2.195-0.806-3.391-0.742
		c-1.119,0.061-1.888,0.608-2.204,1.703c-0.315,1.094-0.25,2.181,0.126,3.457c0.452-0.712,0.18-1.208,0.175-1.692
		c-0.021-2.153,1.143-3.056,3.223-2.469c0.28,0.079,0.559,0.173,0.823,0.295c4.632,2.136,9.501,3.591,14.397,4.955
		c4.055,1.13,8.165,2,12.351,2.522c3.543,0.442,6.739-0.786,9.97-1.873c4.776-1.606,9.517-3.313,14.44-4.45
		c3.584-0.828,6.928-0.258,10.179,1.347c2.689,1.328,4.517,3.35,5.339,6.253c0.006,0.022,0.072,0.028,0.135,0.05
		c0.291-0.533,0.065-1.048-0.088-1.542C100.848,67.933,99.89,66.54,98.5,65.464z"/>
	<path d="M37.541,116.942c3.828,2.852,3.779,3.402,3.488,7.995c1.611-0.851,2.091-3.395,1.058-5.603
		C41.17,117.374,39.127,116.299,37.541,116.942z"/>
	<path d="M93.686,107.962c1.004-0.044,1.708-0.785,1.683-1.774c-0.023-0.916-0.854-1.742-1.765-1.755
		c-0.97-0.013-1.843,0.866-1.814,1.826C91.822,107.278,92.634,108.008,93.686,107.962z"/>
</g>
<g>
</g>
<g>
</g>
<g>
</g>
<g>
</g>
<g>
</g>
<g>
</g>
<g>
</g>
<g>
</g>
<g>
</g>
<g>
</g>
<g>
</g>
<g>
</g>
<g>
</g>
<g>
</g>
<g>
</g>
</svg>
