<?xml version="1.0" encoding="iso-8859-1"?>
<!-- Generator: Adobe Illustrator 19.1.0, SVG Export Plug-In . SVG Version: 6.00 Build 0)  -->
<svg version="1.1" id="Capa_1" xmlns="http://www.w3.org/2000/svg" xmlns:xlink="http://www.w3.org/1999/xlink" x="0px" y="0px"
	 viewBox="0 0 145.379 145.379" style="enable-background:new 0 0 145.379 145.379;" xml:space="preserve">
<g id="sheikh_mohammed">
	<path id="XMLID_795_" d="M22.742,85.491c-1.215-0.368-2.342-0.459-3.13-1.023c-0.669-0.479-1.287-1.502-1.29-2.287
		c-0.003-0.616,0.887-1.656,1.522-1.781c2.953-0.581,5.946-1.012,8.943-1.303c4.618-0.447,5.719-1.766,5.011-6.382
		c-0.064-0.414-0.171-0.821-0.277-1.323c4.351,3.499,5.123,6.745,2.596,11.029c1.367,1.044,2.746,2.097,4.546,3.471
		c-0.217-1.915-0.377-3.33-0.537-4.746c1.7,5.268,4.843,9.445,9.35,12.739c-1.137-0.41-2.274-0.82-3.422-1.234
		c0.393,3.809,3.032,5.841,6.627,4.921c5.135-1.314,8.978-4.612,11.653-8.968c3.467-5.645,5.882-11.772,5.401-18.609
		c-0.111-1.578-0.464-3.279-1.208-4.65C62.797,54.779,56.907,44.299,51.15,33.747c-1.922-3.523-4.73-5.455-8.701-5.989
		c-7.661-1.03-14.121-0.122-18.943,4.834c1.922-5.631,8.652-11.125,17.161-8.989c2.946,0.74,5.318,2.275,7.151,4.526
		c2.371,2.911,4.833,5.843,6.628,9.112c6.38,11.619,14.501,22.083,21.592,33.216c12.165,19.098,23.817,38.526,31.593,59.957
		c1.022,2.815,1.718,5.749,2.115,8.822c-2.131-3.804-4.342-7.567-6.355-11.434c-0.801-1.54-1.632-1.654-3.14-1.13
		c-10.069,3.495-18.421,9.525-25.704,17.172c-0.455,0.478-0.898,0.967-1.756,1.233c0.559-1.088,0.936-2.329,1.706-3.237
		c4.475-5.284,8.742-10.795,13.658-15.641c5.48-5.402,6.2-11.642,4.166-18.321c-1.269-4.169-3.731-7.974-5.731-12.094
		c-8.662,13.847-22.609,20.081-36.277,26.687c-1.924,0.93-3.908,1.734-5.861,2.603c-0.118,0.053-0.209,0.169-0.401,0.329
		c4.707,5.886,7.661,12.552,8.989,19.978c-1.445-2.727-2.885-5.458-4.339-8.18c-0.521-0.976-1.133-1.906-1.608-2.903
		c-3.34-6.997-9.277-9.678-16.617-10.14c-6.54-0.411-10.414-8.226-6.819-13.666c1.91-2.89,2.329-5.589,0.109-8.749
		C20.238,96.722,19.856,91.217,22.742,85.491z M24.071,97.413c2.221-0.248,4.452-0.653,6.693-0.706
		c2.77-0.066,3.675,1.364,2.772,4.023c-0.32,0.942-0.727,1.855-1.095,2.784c2.608,0.958,5.247,0.974,7.511,0.113
		c1.554-0.591,2.116-1.98,1.024-3.352C36.371,94.486,31.26,92.288,24.071,97.413z"/>
	<path id="XMLID_794_" d="M16.538,31.348c-0.762-4.545,0.362-8.175,3.609-11.007c0.928-0.809,1.402-1.479,1.274-2.743
		c-0.381-3.77,1.421-6.532,4.371-8.625c4.276-3.033,9.255-4.146,14.304-4.853c9.927-1.391,19.844-3.081,29.826-3.779
		c9.247-0.646,18.618-0.499,27.754,1.527c2.796,0.62,5.377,2.269,8.01,3.543c1.983,0.96,3.951,1.978,5.819,3.141
		c4.06,2.529,7.921,5.332,8.945,10.423c0.37,1.84,0.263,3.775,0.396,6.042c-8.235-9.384-19.002-11.864-30.268-12.492
		c-18.565-1.035-36.762,1.537-54.688,6.431c-6.979,1.906-12.306,6.174-17.536,10.759C17.815,30.187,17.288,30.672,16.538,31.348z"/>
	<path id="XMLID_793_" d="M129.723,135.004C116.196,103.89,102.67,72.775,89.144,41.66c0.186-0.081,0.372-0.162,0.558-0.243
		C108.954,70.041,122.495,101.149,129.723,135.004z"/>
	<path id="XMLID_792_" d="M55.885,54.059c-2.745,4.058-9.272,6.655-15.919,6.791c2.253,0.793,4.506,1.585,6.916,2.433
		c-5.013,0.312-11.845-3.788-13.734-8.115c-0.623-1.427-0.26-2.033,2.653-4.127c-1.353,0.218-2.381,0.58-3.367,0.491
		c-1.11-0.101-2.343-0.375-3.236-0.99c-1.694-1.167-1.563-2.678,0.328-3.571c1.641-0.774,3.448-1.221,5.209-1.713
		c7.786-2.174,14.027,0.332,19.086,6.371c0.567,0.677,1.204,1.296,1.799,1.95C55.716,53.683,55.763,53.832,55.885,54.059z"/>
	<path id="XMLID_791_" d="M128.504,103.266c-6.872-25.916-14.95-51.533-18.387-78.224
		C115.958,31.719,129.947,91.496,128.504,103.266z"/>
	<path id="XMLID_749_" d="M20.095,66.145c-2.448-2.986-4.224-5.807-3.105-9.508c0.858-2.836,4.572-4.34,7.19-2.981
		c1.66,0.862,2.258,3.091,1.07,5.006C23.71,61.144,21.944,63.484,20.095,66.145z"/>
	<path id="XMLID_682_" d="M18.046,45.714c-0.688-2.786-1.312-5.398-1.983-7.998c-0.415-1.61-0.931-3.53,0.82-4.321
		c1.302-0.588,3.084-0.116,4.652-0.116c0.013,0.221,0.025,0.442,0.038,0.663c-0.365,0.082-0.735,0.149-1.095,0.249
		c-3.178,0.882-3.748,1.815-3.18,5.056c0.341,1.947,0.629,3.903,0.927,5.857C18.244,45.23,18.15,45.374,18.046,45.714z"/>
</g>
<g>
</g>
<g>
</g>
<g>
</g>
<g>
</g>
<g>
</g>
<g>
</g>
<g>
</g>
<g>
</g>
<g>
</g>
<g>
</g>
<g>
</g>
<g>
</g>
<g>
</g>
<g>
</g>
<g>
</g>
</svg>
