<?xml version="1.0" encoding="iso-8859-1"?>
<!-- Generator: Adobe Illustrator 19.1.0, SVG Export Plug-In . SVG Version: 6.00 Build 0)  -->
<svg version="1.1" id="Capa_1" xmlns="http://www.w3.org/2000/svg" xmlns:xlink="http://www.w3.org/1999/xlink" x="0px" y="0px"
	 viewBox="0 0 159.039 159.039" style="enable-background:new 0 0 159.039 159.039;" xml:space="preserve">
<g>
	<path d="M129.379,63.158c-0.085-1.524-0.009-3.057,0.006-4.586c0.012-1.216,0.043-2.43-0.288-3.619
		c-0.642-2.312-0.314-4.738-0.996-7.079c-1.479-5.076-2.49-10.298-5.159-14.964c-0.206-0.36-0.335-0.822-0.177-1.467
		c1.719,1.671,2.772,3.698,4.12,5.565c0.254-0.442,0.081-0.746-0.013-1.067c-0.356-1.221-1.009-2.267-1.803-3.247
		c-2.778-3.427-5.381-6.966-7.391-10.921c-0.972-1.912-2.035-3.795-3.234-5.573c-3.121-4.63-6.782-8.624-12.568-9.911
		c-0.529-0.118-1.099-0.276-1.643-0.882c2.047,0.341,3.717,1.249,5.551,1.582c1.249,0.227,2.367,0.827,3.324,1.635
		c1.637,1.382,3.19,2.86,4.496,4.59c0.03-0.647,0.002-0.636-0.167-1.076c-1.021-2.654-3.216-4.1-5.58-5.315
		c-1.385-0.712-2.775-1.413-4.136-2.171c-2.978-1.659-6.022-2.467-9.242-0.625c-0.119,0.068-0.256,0.104-0.386,0.153
		C92.236,4.88,90.513,4.72,88.89,3.498c-1.253-0.943-2.66-1.66-4.159-2.093C77.87-0.58,71.085-0.567,64.36,2.122
		c-4.085,1.633-7.998,3.53-11.292,6.489c-2.166,1.946-4.782,3.36-6.627,5.682c-1.405,1.769-2.984,3.387-4.497,5.062
		c-1.446,1.6-2.636,3.383-3.421,5.42c-1.642,4.262-3.287,8.522-4.975,12.766c-1.308,3.286-2.575,6.581-3.071,10.108
		c-0.756,5.38-0.967,10.787-0.797,16.214c0.101,3.228,0.617,6.341,2.239,9.195c0.206,0.362,0.391,0.973,0.719,0.956
		c0.936-0.049,1.146,0.699,1.483,1.212c0.503,0.767,1.062,1.458,1.771,2.025c0.933,0.747,1.517,1.72,1.786,2.858
		c0.808,3.422,1.95,6.686,3.794,9.726c1.318,2.172,0.138,4.434-2.373,4.979c-0.77,0.167-1.55,0.286-2.485,0.456
		c0.862,0.38,1.66,0.257,2.449,0.478c-0.6,0.703-1.624,0.273-2.185,1.18c1.733-0.372,3.431-0.215,4.73-1.453
		c0.855-0.814,1.73-1.608,2.595-2.412c0.251-0.233,0.49-0.439,0.493-0.855c0.015-1.985-0.108-3.953-0.57-5.89
		c-0.122-0.512-0.274-1.045-0.826-1.25c-0.497-0.186-0.808-0.48-0.949-0.996c-0.061-0.223-0.212-0.507-0.487-0.462
		c-0.339,0.056-0.345,0.39-0.33,0.665c0.019,0.346,0.085,0.689,0.107,1.035c0.074,1.152,0.333,2.297,0.107,3.485
		c-1.012-1.524-1.756-3.143-1.927-5.011c0.389,0.743,0.778,1.487,1.167,2.23c0.078-1.331-0.236-2.537-0.802-3.708
		c-0.274,0.195-0.021,0.61-0.371,0.625c-0.225,0.01-0.293-0.257-0.367-0.443c-0.614-1.535-1.037-3.127-1.548-4.978
		c0.834,0.844,1.206,1.667,1.678,2.417c0.502,0.797,1.122,1.459,2.107,1.508c0.896,0.044,1.486,0.446,1.948,1.173
		c0.195,0.307,0.327,0.702,0.801,0.865c-0.553-2.347-0.546-4.702-0.672-7.051c-0.072-1.328,0.006-2.516,0.916-3.582
		c0.32-0.374,0.467-0.924,0.607-1.419c0.574-2.031,1.103-4.076,1.679-6.107c0.123-0.433,0.118-1.134,0.722-1.111
		c0.858,0.033,1.338-0.507,1.89-0.947c0.955-0.76,1.914-1.475,3.143-1.753c4.001-0.905,7.893-0.134,11.783,0.856
		c-2.01,0.129-4.023,0.074-6.031,0.144c-2.17,0.075-4.276,0.474-6.108,1.763c-0.439,0.309-1.03,0.516-0.842,1.259
		c0.184,0.724,0.622,1.149,1.373,1.202c1.215,0.085,2.391,0.34,3.563,0.671c0.55,0.155,1.181,0.13,1.756,0.052
		c0.546-0.074,1.003-0.295,1.094-1.029c0.172-1.389,0.372-1.455,1.464-0.53c1.041,0.882,2.143,1.464,3.567,1.423
		c1.124-0.032,1.9-0.682,2.728-1.336c0.31,1.588,0.31,1.592,2.008,1.789c0.483,0.056,0.97,0.122,1.454,0.109
		c1.489-0.04,2.533,0.523,2.863,2.069c0.518-0.153,0.669-0.562,0.869-0.912c1.007-1.762,0.817-3.673,0.69-5.58
		c-0.056-0.845-0.537-1.254-1.275-1.578c-2.327-1.023-4.659-1.978-7.268-1.934c-0.235,0.004-0.473-0.101-0.707-0.163
		c-0.768-0.206-1.561-0.551-1.607-1.399c-0.046-0.84,0.55-1.48,1.338-1.988c0.06,0.667-0.448,0.977-0.628,1.454
		c0.691,0.184,0.958-0.347,1.294-0.705c0.736-0.785,1.436-1.603,2.171-2.389c0.177-0.19,0.411-0.507,0.688-0.351
		c0.352,0.199,0.113,0.573,0.034,0.843c-0.276,0.949-0.969,1.696-1.412,2.688c0.843-0.124,1.528-0.334,2.023-0.919
		c0.751-0.887,1.757-1.305,2.818-1.673c2.279-0.79,4.655-1.078,7.021-1.4c3.763-0.512,7.134-1.712,9.476-4.952
		c0.481-0.666,1.076-1.289,1.961-1.466c0.427-0.086,0.845-0.089,1.14,0.296c0.286,0.372,0.211,0.769,0.043,1.176
		c-0.28,0.682-0.898,0.918-1.494,1.204c-0.849,0.407-1.739,0.769-2.355,1.654c0.889,0.156,1.639-0.046,2.356-0.264
		c0.752-0.229,1.342-0.116,1.909,0.411c0.364,0.338,0.786,0.512,1.333,0.362c2.157-0.595,3.951-1.549,4.307-4.053
		c0.016-0.111,0.144-0.206,0.29-0.402c0.387,1.849-0.007,3.329-1.561,4.54c2.574-0.389,4.396-2.658,4.187-4.991
		c-0.056-0.622-0.049-1.25-0.091-1.873c-0.104-1.555-0.16-3.11-0.989-4.522c-0.29-0.494-0.438-1.091-0.447-1.696
		c-0.048-3.505-0.166-7.017,0.666-10.463c0.235-0.975,0.203-2.018,0.706-3.095c0.261,2.27,0.395,4.319-0.195,6.435
		c-0.49,1.757-0.215,3.661-0.164,5.5c0.1,3.585,1.216,6.858,3.1,9.888c0.213,0.267,0.427,0.535,0.64,0.802
		c0.061,0.032,0.105,0.079,0.133,0.142c0.071,0.077,0.141,0.153,0.212,0.23c0.531,0.568,1.147,1.061,1.525,1.76
		c-0.816-0.257-1.139-1.036-1.67-1.595c-0.068-0.071-0.136-0.142-0.204-0.213c-0.068-0.07-0.137-0.14-0.205-0.21
		c-0.206-0.15-0.411-0.3-0.617-0.45c0.007,0.417,0.309,0.693,0.521,0.993c1.379,1.95,3.083,3.649,4.329,5.698
		c0.345-0.204,0.02-0.559,0.338-0.761c0.215,0.672,0.457,1.318,0.627,1.983c0.337,1.322,0.208,1.447-1.148,1.093
		c-1.775-0.463-3.53-1.013-5.372-1.164c-0.621-0.051-1.259-0.177-1.837,0.297c0.611,0.566,1.486,0.327,2.125,0.988
		c-1.982,0.513-3.877,0.989-5.838,1.036c-1.877,0.045-3.721,0.12-5.531,0.746c-2.358,0.815-4.234,2.474-6.455,3.521
		c-0.445,0.21-0.686,0.68-0.728,1.199c-0.118,1.458-0.056,2.912,0.073,4.367c0.138,1.55,1.583,1.888,2.494,2.721
		c0.147,0.135,0.326,0.35,0.525,0.161c0.24-0.229-0.011-0.421-0.131-0.622c-0.162-0.272-0.712-0.45-0.497-0.77
		c0.405-0.603,0.639-1.362,1.61-1.5c1.578-0.225,3.163-0.293,4.807-0.405c-0.128-0.342-0.225-0.633-0.345-0.915
		c-0.127-0.297-0.288-0.583-0.144-0.919c0.113,0.026,0.156,0.023,0.176,0.043c0.941,0.934,1.878,1.817,3.325,1.954
		c1.493,0.141,2.629-0.393,3.591-1.472c0.255-0.286,0.52-0.121,0.829,0.036c1.394,0.704,2.119,1.903,2.686,3.289
		c0.294,0.719,0.065,1.115-0.503,1.466c-0.932,0.575-1.907,0.931-3.041,0.867c-1.092-0.062-2.2-0.07-3.233,0.384
		c4.499,0.583,8.674,0.089,11.841-3.668c0.2-0.237,0.411-0.474,0.653-0.665c0.86-0.678,1.765-0.574,2.455,0.275
		c0.595,0.732,1.055,1.521,1.222,2.482c0.105,0.607,0.11,1.289,0.501,1.787c1.053,1.345,0.902,2.744,0.345,4.207
		c-0.196,0.515-0.304,1.064-0.48,1.588c-1.522,4.539-4.529,8.225-7.026,12.204c-0.343,0.547-1.061,0.794-1.261,1.474
		c0.435,0.033,0.754-0.243,1.103-0.432c0.857-0.464,1.385-1.22,1.844-2.051c0.169-0.305,0.382-0.836,0.815-0.589
		c0.411,0.235,0.068,0.706-0.063,1.027c-0.325,0.794-0.986,1.313-1.626,1.85c-0.68,0.57-1.514,0.985-1.924,1.839
		c-0.163,0.057-0.215,0.213-0.127,0.312c0.138,0.155,0.193-0.065,0.285-0.122l0,0c0.088-0.056,0.173-0.116,0.263-0.169
		c0.311-0.184,0.64-0.61,0.984-0.308c0.29,0.254-0.091,0.638-0.177,0.956c-0.473,1.764-1.221,3.477-0.956,5.369
		c0.213,1.521-0.16,2.928-1.03,4.141c-1.789,2.496-3.132,5.316-5.448,7.436c-0.713,0.653-1.203,1.498-1.549,2.433
		c-0.66,1.784-1.372,3.549-2.106,5.303c-0.225,0.539-0.326,1.426-1.088,1.308c-0.695-0.107-0.855-0.911-0.953-1.577
		c-0.035-0.238-0.065-0.482-0.055-0.722c0.042-1.043,0.223-2.066,0.427-3.088c0.206-1.031-0.142-1.817-1.099-2.34
		c-2.184-1.193-4.633-0.391-6.313,2.135c0.487,0.059,0.684-0.331,0.962-0.544c0.949-0.728,1.924-1.381,3.2-1.289
		c1.575,0.114,2.262,0.953,2.141,2.528c-0.091,1.181-0.301,2.333-0.62,3.472c-0.405,1.447-0.71,2.931-0.388,4.418
		c0.432,1.994,0.953,3.972,1.514,5.935c1.133,3.962,2.763,7.756,4.027,11.673c1.344,4.162,1.799,8.536,2.908,12.758
		c0.37,1.408,0.734,2.817,1.451,4.098c0.843,1.505,1.689,1.586,2.76,0.234c0.538-0.679,0.94-1.446,1.225-2.275
		c0.624-1.815,1.556-3.466,2.668-5.029c2.605-3.664,5.961-6.571,9.372-9.431c2.605-2.184,5.373-4.195,7.521-6.877
		c1.932-2.413,1.685-4.454-0.786-6.333c-0.91-0.691-1.915-1.256-2.832-1.938c-1.96-1.456-3.094-3.256-2.31-5.824
		c0.287-0.938,0.304-1.921,0.261-2.893c-0.194-4.385-1.348-8.403-4.593-11.572c-0.615-0.601-1.352-1.077-2.002-1.645
		c-0.343-0.3-0.674-0.687-0.273-1.163c1.217-1.445,2.452-2.875,3.68-4.31c-0.085,1.228-1.1,1.878-1.568,2.854
		c-0.129,0.115-0.428,0.203-0.225,0.414c0.135,0.14,0.288-0.088,0.392-0.222c0.627-0.593,1.254-1.185,1.986-1.878
		c0.023,0.86-0.502,1.357-0.652,2.025c1.893-0.646,2.215-1.096,2.546-3.403c0.047-0.326-0.002-0.776,0.335-0.907
		c0.311-0.121,0.521,0.276,0.757,0.464c1.196,0.955,2.923,1.081,4.404,0.306c-3.185-1.191-3.576-1.492-3.563-2.737
		c1.897,1.84,3.274,2.296,4.556,1.482c-1.195-0.379-2.606-0.325-3.231-1.72l0.039-0.047c1.158,0.486,2.328,0.837,3.698,0.279
		c-0.831-0.196-1.569-0.343-2.288-0.553c-0.242-0.071-0.623-0.199-0.581-0.513c0.052-0.381,0.449-0.214,0.696-0.231
		c0.921-0.064,1.867,0.059,2.817-0.376c-0.529-0.393-1.082-0.292-1.575-0.409c-1.894-0.447-2.658-2.11-1.718-3.843
		c0.456-0.841,0.949-0.916,1.616-0.246c0.055-0.042,0.136-0.072,0.161-0.127c0.694-1.567,0.575-3.511,2.168-4.662
		c0.021-0.015,0.018-0.066,0.021-0.1c0.134-1.74,0.943-3.34,1.18-5.025C128.768,74.162,129.687,68.711,129.379,63.158z
		 M43.229,91.428c-0.3-1.615-0.46-3.123-0.493-4.748C43.823,87.776,44.059,90.021,43.229,91.428z M34.287,49.97
		c0.069-2.493,1.194-4.76,1.486-7.206C36.57,45.443,34.647,47.539,34.287,49.97z M34.46,39.556c0.388-3.424,2.489-6.114,3.883-9.106
		C37.655,33.745,35.519,36.419,34.46,39.556z M36.754,41.051c0.005-1.683,2.094-6.463,3.929-9.096
		C39.641,35.096,37.877,37.931,36.754,41.051z M64.177,47.942c-0.484,0.661-1.362,1.059-2.83,1.24
		C62.19,48.534,63.102,48.099,64.177,47.942z M49.378,14.779c3.314-2.98,7.422-4.135,11.599-5.084
		C56.906,10.944,53.325,13.286,49.378,14.779z M58.875,55.761c0.716-0.673,1.416-1.33,2.273-2.135
		C60.686,54.884,59.872,55.599,58.875,55.761z M60.736,52.299c-0.075,0.155-0.255,0.324-0.356,0.228
		c-0.177-0.167,0.064-0.277,0.176-0.389c1.547-1.522,3.45-2.51,5.208-3.715c0.069,0.101,0.139,0.203,0.208,0.304
		C64.227,49.917,62.481,51.108,60.736,52.299z M101.632,38.459c-1.022-3.002,0.23-5.652,1.233-8.343
		C102.533,32.905,101.595,35.603,101.632,38.459z M103.093,40.118c0.737,2.502,1.17,5.084,1.997,7.57
		C103.398,45.434,102.731,42.907,103.093,40.118z M104.529,42.208c-0.074-0.188-0.006-0.339,0.203-0.387
		c0.229-0.052,0.156,0.16,0.176,0.246c0.345,1.499,0.955,2.912,1.42,4.364C105.289,45.191,105.088,43.626,104.529,42.208z
		 M112.629,16.158c-0.835-1.282-1.89-2.278-3.318-2.865c-0.691-0.284-1.208-0.775-1.625-1.398c-0.678-1.015-1.549-1.854-2.479-2.637
		c-0.335-0.282-0.637-0.603-1.012-0.962c2.1-0.179,8.094,5.448,9.684,9.061C113.123,17.139,112.909,16.588,112.629,16.158z
		 M102.249,114.001c-1.253,1.137-2.118,2.635-3.442,3.704c-0.183,0.148-0.38,0.301-0.778,0.266c0.559-1.506,1.251-2.838,2.225-4.011
		c0.332-0.399,0.721-0.736,1.248-0.88c0.348-0.095,0.619,0.027,0.828,0.271C102.516,113.57,102.441,113.827,102.249,114.001z
		 M119.694,38.65c-0.27-0.709-0.49-1.442-0.663-2.181c-0.609-2.595-1.251-5.173-2.699-7.467c-0.191-0.302-0.431-0.633-0.3-1.22
		c2.447,4.152,3.708,8.627,5.247,12.993C120.379,40.309,120.012,39.484,119.694,38.65z M116.317,23.384
		c2.328,2.738,6.659,12.068,7.153,15.568C121.408,33.613,118.317,28.751,116.317,23.384z"/>
	<path d="M55.373,128.451c-1.27-0.632-1.979-1.677-2.36-3.007c-0.917-3.205-1.469-6.478-1.914-9.775
		c-0.212-1.575-0.388-3.17-1.006-4.655c-0.49-1.176-0.962-1.237-1.752-0.261c-1.336,1.651-2.376,3.485-3.341,5.371
		c-0.655,1.279-0.988,2.641-0.724,4.022c0.668,3.488,0.757,7.031,1.16,10.543c0.133,1.159-0.138,2.058-0.932,2.924
		c-2.608,2.848-5.916,4.51-9.468,5.803c-1.729,0.629-3.402,1.369-4.788,2.639c-0.54,0.495-0.862,1.022-0.487,1.729
		c0.595,1.123,1.638,1.544,2.825,1.669c1.037,0.109,1.797-0.352,2.342-1.226c0.513-0.823,1.012-1.66,1.587-2.438
		c1.57-2.122,4.256-2.65,6.548-1.375c1.082,0.602,2.033,1.382,3.185,2.275c-0.624-3.424,1.117-5.194,3.839-6.336
		c1.266-0.531,2.59-0.4,3.902-0.345c0.503,0.021,0.863-0.011,1.025-0.583c0.518-1.837,1.752-3.102,3.325-4.096
		c0.548-0.346,1.057-0.754,1.583-1.133c-0.968,0.073-1.772-0.225-2.548-0.642C56.704,129.19,56.054,128.789,55.373,128.451z"/>
	<path d="M86.088,89.237c-1.174,1.031-2.369,2.047-3.453,3.169c-1.181,1.222-2.754,1.183-4.216,1.518
		c-0.163,0.037-0.424-0.095-0.559-0.23c-1.7-1.707-3.799-2.87-5.803-4.164c0.38,1.507,0.954,2.328,3.14,3.706
		c1.899,1.197,3.384,2.615,3.827,4.911c0.153,0.794,0.732,1.208,1.469,1.464c1.323,0.46,2.601-0.03,3.903-0.115
		c1.642-0.107,2.573-0.741,2.96-2.476c0.269-1.206,1.265-2.232,1.682-3.427c1.067-3.066,0.793-6.213,0.264-9.346
		c-0.13-0.767-0.433-1.46-0.971-2.034c-0.574-0.613-1.297-0.419-1.805-0.064c-0.447,0.313,0.063,0.8,0.247,1.176
		c0.234,0.479,0.702,0.758,1.061,1.13c0.96,0.995,1.208,2.217,1.001,3.548c-0.036,0.23-0.14,0.507-0.43,0.512
		c-0.31,0.006-0.322-0.279-0.403-0.511c-0.171-0.487,0.005-1.106-0.766-1.689C87.841,87.879,86.909,88.515,86.088,89.237z"/>
	<path d="M63.978,121.729c-1.967-2.151-3.901-4.334-5.911-6.444c-2.284-2.396-4.389-4.93-6.159-7.724
		c-0.822-1.297-2.111-2.088-3.104-3.19c-0.159-0.177-0.342-0.209-0.562-0.128c-1.337,0.494-2.728,0.851-3.996,1.549
		c1.223-0.052,2.279,0.794,3.538,0.538c-0.443,0.542-1.045,0.661-1.582,1.072c0.744-0.049,1.487-0.114,2.231-0.143
		c1.063-0.042,1.992,0.205,2.566,1.224c3.077,5.461,6.886,10.414,10.777,15.296c1.168,1.466,1.17,2.77,0.36,4.273
		c-0.052,0.096-0.228,0.19,0.062,0.385c1.212-0.704,1.269-2.42,2.509-3.108c1.232-0.684,2.48-1.34,3.721-2.008
		C66.585,123.734,65.175,123.037,63.978,121.729z"/>
	<path d="M83.47,104.88c2.618-0.254,5.207-0.846,7.865-0.689c2.324,0.138,3.964-1.259,5.56-2.653
		c0.559-0.489,0.275-1.557-0.431-1.652c-1.084-0.146-2.085-0.631-3.242-0.529c-1.76,0.154-3.538,0.046-5.305-0.096
		c-0.43-0.034-0.876-0.1-1.382,0.329c2.294,1.072,4.637,0.504,6.934,0.662c-0.091,0.803-0.597,1.237-1.317,1.39
		c-0.674,0.143-1.37,0.192-2.06,0.25c-2.502,0.211-5.033,0.094-7.371,1.386c-1.434,0.792-3.095,0.892-4.756,0.769
		c-3.733-0.275-7.47-0.497-11.145-1.282c-0.334-0.071-0.692-0.056-1.037-0.044c-0.524,0.018-1.074,0.231-1.06,0.768
		c0.012,0.487,0.628,0.416,1.015,0.459c2.55,0.278,5.1,0.569,7.655,0.799C76.745,105.048,80.096,105.207,83.47,104.88z"/>
	<path d="M40.593,98.807c-1.175,0.856-2.585,1.119-4.02,1.207c-0.588,0.036-1.178,0.052-1.766,0.095
		c-0.58,0.042-1.159,0.105-1.738,0.158c2.869,0.498,5.723,0.855,8.605,0.218c-1.984,0.96-4.167,0.642-6.232,1.213
		c1.027,0.073,2.055,0.145,3.235,0.229c-0.867,0.633-1.78,0.542-2.676,0.945c1.204,0.299,2.235,0.053,3.256-0.242
		c1.496-0.433,2.98-0.894,4.56-0.944c1.436-0.045,2.77,0.423,4.263,0.808c-1.34-3.007-2.274-6.01-2.708-9.403
		c-1.013,1.168-2.138,1.889-3.208,2.68c-0.148,0.109-0.286,0.251-0.229,0.427C42.36,97.518,41.432,98.196,40.593,98.807z"/>
	<path d="M106.8,5.108c2.093,1.238,4.077,2.629,5.92,4.214c0.79,0.679,1.616,1.386,2.053,2.327c0.998,2.15,2.418,4.033,3.617,6.054
		c2.168,3.655,4.757,7.073,6.256,11.104c0.465,1.252,0.926,2.505,1.389,3.758c0.139-0.285,0.174-0.53,0.134-0.762
		c-0.548-3.138-1.581-6.067-3.54-8.64c-1.405-1.845-2.697-3.773-3.7-5.881c-1.921-4.038-4.615-7.481-8.103-10.281
		c-1.447-1.162-3.009-2.151-4.943-2.75C106.098,4.816,106.491,4.925,106.8,5.108z"/>
	<path d="M88.075,111.648c1.827-1.032,2.523-3.163,4.247-4.308c-1.055,0.241-1.973,0.739-2.616,1.464
		c-1.105,1.245-2.234,1.726-3.75,0.828c-0.109-0.065-0.271-0.042-0.409-0.057c-2.427-0.272-4.841-0.077-7.253,0.193
		c-0.537,0.06-0.994,0.282-1.399,0.623c-0.214,0.18-0.445,0.393-0.349,0.698c0.122,0.384,0.481,0.208,0.711,0.178
		c1.2-0.157,2.389-0.405,3.592-0.527c1.709-0.174,3.504-0.566,4.966,0.721C86.593,112.145,87.285,112.094,88.075,111.648z"/>
	<path d="M84.724,126.994c0.006,3.342,3.518,9.362,8.27,14.172c-1.056-2.543-2.978-4.525-4.466-6.788
		C87.022,132.089,86.507,129.3,84.724,126.994z"/>
	<path d="M100.624,68.969c-2.262-0.169-4.564,0.328-6.843-0.159C96.055,69.507,98.316,70.748,100.624,68.969z"/>
	<path d="M60.013,68.423c2.498,0.881,4.965,0.762,7.414-0.252C64.976,68.54,62.501,68.626,60.013,68.423z"/>
	<path d="M79.894,122.499c0.865,0.806,1.623,1.513,2.543,2.37c-0.138-1.307,0.093-2.401,0.077-3.627
		C82.482,123.405,80.991,122.453,79.894,122.499z"/>
	<path d="M118.715,20.283c-1.021-2.047-2.134-4.038-3.536-5.857C116.226,16.458,117.209,18.528,118.715,20.283z"/>
	<path d="M49.369,103.844c-1.2-1.255-3.291-1.21-4.171-0.098C46.516,103.972,47.85,103.38,49.369,103.844z"/>
	<path d="M104.904,92.095c0.006,0.008,0.011,0.009,0.018,0.019l0,0.001c0.003-0.011,0.011-0.018,0.014-0.028
		c-0.01-0.001-0.019,0.003-0.03,0.002C104.906,92.092,104.904,92.092,104.904,92.095z"/>
	<path d="M104.717,92.135c-0.011,0.01,0.003,0.075,0.017,0.08c0.109,0.036,0.165-0.009,0.169-0.12
		C104.831,92.002,104.772,92.083,104.717,92.135z"/>
</g>
<g>
</g>
<g>
</g>
<g>
</g>
<g>
</g>
<g>
</g>
<g>
</g>
<g>
</g>
<g>
</g>
<g>
</g>
<g>
</g>
<g>
</g>
<g>
</g>
<g>
</g>
<g>
</g>
<g>
</g>
</svg>
