<?xml version="1.0" encoding="iso-8859-1"?>
<!-- Generator: Adobe Illustrator 19.1.0, SVG Export Plug-In . SVG Version: 6.00 Build 0)  -->
<svg version="1.1" id="Capa_1" xmlns="http://www.w3.org/2000/svg" xmlns:xlink="http://www.w3.org/1999/xlink" x="0px" y="0px"
	 viewBox="0 0 149.566 149.566" style="enable-background:new 0 0 149.566 149.566;" xml:space="preserve">
<g id="vladimir_putin">
	<path id="XMLID_260_" d="M98.245,149.566c-24.895-14.602-51.526-22.041-80.407-19.83c-0.277-0.782,0.084-1.149,0.253-1.536
		c3.047-6.992,6.11-13.976,9.179-20.958c0.242-0.551,0.349-1.1,0.343-1.703c-0.023-2.278,0.009-4.557-0.021-6.835
		c-0.008-0.593,0.091-0.951,0.777-0.949c0.33,0.001,0.659-0.13,0.991-0.178c2.826-0.408,2.802-0.408,3.052-3.316
		c0.169-1.971,0.324-3.952,0.66-5.898c0.234-1.354,0.09-2.381-1.24-3.017c-0.888-0.425-0.955-0.962-0.167-1.563
		c0.723-0.552,0.464-0.951-0.188-1.275c-1.144-0.569-1.266-1.267-0.32-2.145c0.581-0.539,0.513-1.025-0.076-1.552
		c-0.427-0.382-0.919-0.734-1.189-1.342c0.769-0.345,1.511-0.679,2.506-1.125c-2.626-1.726-3.059-4.515-4.024-7.043
		c-3.787-9.93-5.644-20.166-4.517-30.78c1.113-10.479,4.822-19.883,12.458-27.43c5.203-5.143,11.51-8.371,18.651-9.624
		c11.633-2.041,23.284-2.137,34.815,0.898c5.277,1.389,10.045,3.783,14.111,7.462c1.123,1.016,2.477,1.934,2.308,3.798
		c-0.023,0.256,0.448,0.577,0.721,0.835c2.882,2.726,5.666,5.536,7.873,8.862c1.658,2.497,2.672,5.305,3.854,8.027
		c0.976,2.248,2.113,4.355,3.707,6.253c1.332,1.586,1.534,3.694,1.958,5.655c0.301,1.395,0.424,2.827,0.669,4.235
		c0.294,1.69-0.05,3.211-1.257,4.434c-1.897,1.924-2.041,4.08-1.148,6.501c1.749,4.74,4.232,9.05,7.489,12.901
		c1.558,1.842,2.006,3.898,1.643,6.225c-0.249,1.593-1.272,2.634-2.459,3.524c-1.841,1.38-3.907,2.293-6.207,2.588
		c-0.7,0.09-1.012,0.25-0.91,1.097c0.243,2.01-0.007,4.032-0.098,6.047c-0.011,0.242-0.131,0.481-0.21,0.719
		c-0.245,0.73-1.348,0.86-1.392,1.434c-0.04,0.535,0.624,1.119,0.648,1.834c0.033,0.992-0.44,1.698-1.208,2.219
		c-0.624,0.423-1.331,0.664-2.073,0.856c-1.311,0.34-1.591,0.997-1.144,2.24c0.6,1.669,1.074,3.381,0.923,5.17
		c-0.343,4.059-2.68,6.664-7.364,7.565c-4.598,0.884-7.899,3.56-10.842,6.887c-1.566,1.77-2.768,3.801-3.791,5.93
		c-1.095,2.279-1.187,4.58-0.214,6.947c0.974,2.37,1.638,4.834,2.21,7.337c0.318,1.393,0.065,2.7-0.152,4
		c-0.212,1.27-0.068,2.388,0.43,3.537C98.118,148.083,98.377,148.718,98.245,149.566z M90.947,8.745
		c-0.094-0.063-0.189-0.127-0.283-0.19c0.765-1.041,2.029-1.45,2.967-2.307C90.929,6.579,88.527,7.668,86.2,8.99
		c1.159-1.507,2.799-2.3,4.499-3.304c-2.674,0.006-5.373,1.176-7.42,3.17c-3.584,3.492-5.745,7.833-7.31,12.498
		c-1.888,5.63-2.407,11.427-1.826,17.551c-0.399-0.637-0.396-1.135-0.445-1.622c-0.407-4.006-0.239-7.994,0.507-11.944
		c1.121-5.937,3.303-11.423,7.117-16.186c1.137-1.42,2.601-2.478,3.975-3.673c-1.573,0.347-2.975,0.994-4.225,2
		c-2.746,2.21-4.432,5.123-5.619,8.37c-3.886,10.633-4.619,21.548-3.008,32.698c0.307,2.124,1.28,3.516,3.151,4.471
		c2.34,1.194,4.141,3.025,5.562,5.212c0.425,0.654,0.938,0.986,1.682,1.146c2.125,0.456,4.308,0.78,6.181,1.993
		c1.115,0.722,2.306,1.08,3.612,1.301c6.172,1.044,8.929,4.181,9.036,10.173c0.006,0.339,0.225,0.929-0.268,0.97
		c-0.583,0.048-0.317-0.56-0.327-0.867c-0.15-4.86-2.539-7.255-7.617-7.461c1.842,2.578,1.739,5.47,1.4,8.304
		c-0.588,4.918-2.174,9.562-4.454,13.957c-0.256,0.493-0.318,0.926-0.188,1.435c0.845,3.303,1.969,6.503,3.573,9.517
		c0.732,1.375,1.52,2.738,2.714,3.774c1.222,1.06,1.861,0.829,2.265-0.729c0.371-1.432,0.8-1.558,1.915-0.513
		c1.075,1.007,2.066,2.11,3.188,3.06c2.542,2.152,5.193,4.159,8.527,4.942c2.001,0.47,3.006-0.069,3.586-2.079
		c0.797-2.765,0.09-5.427-1.423-7.688c-1.235-1.845-1.947-3.761-2.453-6.137c1.617,1.718,3.352,2.769,5.35,3.381
		c0.496,0.152,0.969,0.223,1.452-0.075c0.734-0.451,1.458-0.89,1.373-1.917c-0.083-0.992-1.219-2.192-2.288-2.419
		c-1.519-0.323-3.029-0.696-4.559-0.954c-2.121-0.357-4.297-0.824-5.92,1.254c-0.13,0.166-0.325,0.275-0.55,0.117
		c1.596-3.154,3.528-4.27,6.571-3.648c1.517,0.31,3.014,0.264,4.525,0.119c1.065-0.102,2.601,0.127,3.063-0.465
		c0.518-0.664,0.016-2.088,0.039-3.179c0.045-2.097-1.079-3.367-2.872-4.159c-0.923-0.408-1.859-0.779-2.689-1.365
		c-2.445-1.726-2.81-4.689-0.978-7.893c1.146-2.003,3.597-2.475,6.222-1.199c-0.06,0.087-0.12,0.175-0.18,0.262
		c-3.74-1.109-5.75,0.118-5.73,3.501c0.013,2.369,1.297,3.434,3.659,3.077c1.123-0.17,2.253-0.343,3.385-0.397
		c1.467-0.069,2.961-0.151,4.361,0.443c1.51,0.64,1.658,1.769,0.383,2.734c-0.34,0.257-0.702,0.484-1.055,0.725
		c1.987-0.494,3.774-1.374,4.506-3.369c0.674-1.838,0.273-3.676-0.987-5.203c-3.612-4.379-6.537-9.138-8.28-14.573
		c-0.692-2.158-0.765-4.346,0.843-6.067c1.717-1.837,2.084-3.829,1.553-6.145c-0.112-0.49-0.139-1.001-0.261-1.489
		c-0.493-1.981-0.517-4.177-1.852-5.812c-1.699-2.081-2.956-4.362-4.006-6.808c-1.453-3.386-2.784-6.83-5.17-9.744
		c-3.818-4.664-8.33-8.558-13.062-12.242c-1.513-1.178-2.923-1.969-4.71-0.633c-0.105,0.079-0.321,0.01-0.702,0.01
		c0.798-0.602,1.443-1.089,2.283-1.724C93.8,7.03,92.418,8.062,90.947,8.745z M95.938,143.233c0.311-0.947,0.413-1.796,0.245-2.625
		c-0.738-3.632-1.837-7.156-3.592-10.429c-3.875-7.224-9.245-12.881-16.717-16.58c-9.998-4.95-19.99-9.885-30.715-13.091
		c-4.658-1.393-9.343-2.824-14.343-1.683c-1.655,0.378-1.691,0.223-1.691,1.964c0,1.097,0.034,2.195-0.013,3.29
		c-0.028,0.656,0.191,0.912,0.841,1.121c14.571,4.692,28.622,10.607,41.932,18.191C80.985,128.578,89.689,134.301,95.938,143.233z
		 M89.531,98.264c-1.22-5.139-1.561-9.401-0.878-12.63c0.75-3.552,1.172-7.135,1.098-10.767c-0.059-2.923-0.442-5.789-1.921-8.383
		c-1.525-2.675-3.815-4.051-6.942-3.955c-0.989,0.03-1.482,0.444-1.685,1.467c-0.347,1.748,0.016,3.44,0.188,5.146
		c0.3,2.968,1.087,5.875,1.159,8.873c0.008,0.347,0.157,0.82-0.278,1.018c-0.442,0.202-0.672-0.233-0.938-0.472
		c-1.981-1.776-3.642-3.856-5.466-5.782c-1.444-1.525-2.847-3.103-4.699-4.164c-0.893-0.512-1.826-0.883-2.865-0.383
		c-0.393,0.189-0.525,0.352-0.275,0.853c1.269,2.547,1.046,3.834-0.916,5.875c-0.263,0.274-0.56,0.485-0.49,0.946
		c0.468,3.06,1.219,5.994,3.263,8.459c2.175,2.623,5.151,4,8.153,5.312C80.985,91.839,85.849,94.096,89.531,98.264z M95.648,122.292
		c1.898-2.995,3.985-5.561,6.71-7.54c0.578-0.419,0.15-0.731-0.066-1.009c-4.529-5.821-9.802-10.607-17.277-12.288
		c-2.131-0.479-4.236-1.095-6.735-1.405C84.163,107.584,89.852,114.87,95.648,122.292z M58.398,57.344
		c1.096-0.097,1.531-0.812,1.988-1.414c1.206-1.588,1.933-3.428,2.59-5.29c0.185-0.524,0.186-1.074,1.042-0.815
		c0.423,0.128,0.589-0.322,0.584-0.762c-0.01-0.762-0.409-1.356-0.791-1.955c-1.075-1.683-2.854-2.589-4.294-3.869
		c-1.16-1.032-2.562-1.613-4.01-2.045c-2.571-0.767-3.994-0.258-5.576,1.925c-2.235,3.083-3.207,6.623-2.994,10.341
		c0.323,5.646,2.184,10.858,5.615,15.388c2.919,3.853,6.807,5.467,11.663,4.444c1.023-0.216,1.429-0.759,1.39-1.75
		c-0.058-1.482-0.71-2.326-2.277-2.235c-2.313,0.135-4.418-1.021-6.708-0.847c-0.228,0.017-0.494-0.11-0.703-0.236
		c-3.366-2.015-5.956-4.673-6.788-8.649c-0.577-2.758-0.261-5.535,0.143-8.292c0.257-1.752,0.667-3.462,1.619-4.99
		c1.219-1.957,2.793-2.415,4.834-1.372c1.241,0.634,2.272,1.588,3.431,2.345c1.262,0.824,1.561,1.938,1.432,3.356
		C60.373,52.971,59.472,55.079,58.398,57.344z M44.203,88.216c2.307,1.208,4.554,1.237,6.622,1.961
		c-3.327,0.607-6.628,1.283-9.996,1.615c2.77,0.853,5.65,0.846,8.453,1.448c-4.178,0.471-8.336,1.004-12.546,1.276
		c0.655,0.283,1.314,0.444,1.983,0.528c4.049,0.504,8.101,0.977,12.148,1.493c0.747,0.095,1.113,0.002,1.176-0.882
		c0.071-0.999-0.407-2.528,1.608-2.156c-0.212-0.807-0.354-1.508-0.586-2.178c-0.212-0.609-0.162-0.896,0.567-0.713
		c0.728,0.183,0.645-0.299,0.543-0.717c-0.23-0.952-0.496-1.896-0.794-3.016c1.415,0.431,1.462-0.137,1.032-1.065
		c-0.158-0.342-0.333-0.691-0.402-1.056c-0.107-0.566-0.441-0.625-0.915-0.561c-2.573,0.347-5.085,1.083-7.924,1.049
		c2.103,1.297,4.438,1.077,6.543,2.137C49.198,87.695,46.936,88.358,44.203,88.216z M65.579,61.33
		c0.058-3.142-1.034-4.335-3.358-4.31c-0.957,0.01-1.114,0.406-1.009,1.241c0.259,2.059,0.867,4.007,1.717,5.889
		c0.118,0.261,0.326,0.54,0.105,0.821c-0.261,0.331-0.571,0.033-0.789-0.064c-0.571-0.254-1.197-0.504-1.628-0.931
		c-1.565-1.553-3.386-2.296-5.606-2.424c-1.55-0.089-2.116-1.141-1.759-2.723c0.392-1.738,1.127-3.334,2.232-4.749
		c0.198-0.254,0.627-0.476,0.451-0.838c-0.449-0.922-1.373-1.186-2.273-1.407c-0.689-0.169-1.188,0.099-1.535,0.766
		C51.4,53.993,50.887,55.459,50.668,57c-0.535,3.762,0.35,5.154,3.961,6.239c2.055,0.617,3.89,1.523,5.298,3.214
		c0.991,1.19,1.698,1.243,2.881,0.225C64.581,65.153,65.597,63.232,65.579,61.33z M81.41,4.658
		c-1.627,0.549-3.564,1.299-4.789,2.932c-2.1,2.799-3.592,5.94-4.479,9.362c-1.214,4.687-1.993,9.451-2.651,14.237
		c-0.78,5.672-1.318,11.369-1.494,17.095c-0.013,0.418,0.016,0.81,0.254,1.207c0.755,1.258,1.414,2.574,2.192,3.816
		c0.322,0.515,0.53,1.545,1.334,1.198c0.636-0.275,0.203-1.181,0.068-1.741c-2.38-9.877-2.296-19.777-0.132-29.651
		c1.254-5.722,2.903-11.324,7.252-15.654C79.884,6.545,80.677,5.505,81.41,4.658z M93.211,127.843
		c0.275-1.358,0.798-2.545,1.448-3.668c0.36-0.622,0.24-0.993-0.262-1.494c-3.906-3.894-7.829-7.768-11.988-11.393
		c-1.423-1.241-2.863-2.473-4.514-3.42c-0.255-0.147-0.566-0.331-0.805-0.12c-0.274,0.242-0.031,0.54,0.108,0.793
		c0.302,0.551,0.6,1.105,0.913,1.65c1.851,3.22,4.493,5.701,7.279,8.107C88.517,120.999,91.009,124.285,93.211,127.843z
		 M66.786,42.539c0.582-7.237,1.467-14.409,2.841-21.521c1.022-5.289,2.688-10.301,5.919-14.69c0.477-0.647,0.992-1.266,1.489-1.898
		c-0.757,0.202-1.369,0.537-1.909,0.964c-1.744,1.379-3.516,2.699-4.223,5.007c-1.886,6.152-3.194,12.428-4.299,18.759
		C65.825,33.634,65.7,38.073,66.786,42.539z M48.922,7.902c-0.696-0.152-1.031,0.248-1.403,0.545
		c-3.605,2.878-6.845,6.122-9.575,9.843c-5.202,7.091-8.369,14.828-7.299,23.844c0.366,3.087,1.228,6.031,2.67,8.892
		c0.314-0.628,0.055-1.078-0.101-1.548c-2.526-7.643-2.09-15.131,1.144-22.487c3.017-6.864,7.681-12.503,13.031-17.639
		C47.895,8.864,48.41,8.385,48.922,7.902z M59.166,36.631c1.551-0.745,2.384-1.542,2.561-2.485c0.379-2.023,0.766-4.047,1.062-6.084
		c0.968-6.658,2.256-13.242,4.358-19.648c0.317-0.965,0.812-1.876,0.979-2.996c-1.784,1.641-2.643,3.012-3.313,5.203
		C62.227,19.07,61.67,27.952,59.166,36.631z M45.838,37.309c-2.532-14.951,4.8-25.186,15.948-33.612
		C49.839,9.665,41.01,23.549,45.838,37.309z M71.229,5.327c-1.31,0.962-2.787,3.355-3.378,5.19
		c-2.863,8.891-3.135,18.292-5.485,27.36c1.392-0.876,1.861-1.511,1.959-2.484c0.662-6.57,1.822-13.053,3.431-19.456
		C68.651,12.377,69.736,8.876,71.229,5.327z M52.968,36.748c3.979-8.456,4.898-17.856,8.457-26.424
		C56.937,18.606,53.761,27.307,52.968,36.748z M63.632,10.126c-3.815,8.096-5.159,16.975-8.232,25.457
		c2.282-1.368,3.52-3.118,3.905-5.681c0.636-4.232,1.444-8.446,2.495-12.604C62.404,14.906,63.02,12.517,63.632,10.126z
		 M54.03,23.247c1.37-4.601,3.193-9.001,5.431-13.234C55.754,13.656,54.366,18.247,54.03,23.247z M110.973,90.158
		c0.196,0.05,0.39,0.117,0.589,0.147c2.768,0.416,5.601,0.492,8.229,1.638c0.495,0.216,0.883-0.182,1.17-0.542
		c0.304-0.381,0.325-0.796,0.133-1.292c-0.231-0.598-0.652-0.401-1.042-0.393c-0.336,0.007-0.676,0.017-1.005,0.079
		c-1.96,0.369-3.91,0.447-5.879,0.014C112.459,89.653,111.702,89.609,110.973,90.158z M112.128,110.421
		c-3.109,0.457-5.735-0.632-8.702-1.32C106.16,111.353,108.69,113.095,112.128,110.421z M80.226,58.312
		c-1.602-2.442-3.753-4.017-6.296-5.337C75.081,55.213,77.94,57.63,80.226,58.312z"/>
	<path id="XMLID_207_" d="M115.513,45.42c0.132,0.196,0.18,0.303,0.259,0.377c0.538,0.505,0.074,1.957,1.515,1.608
		c1.555-0.377,3.366-0.318,3.969-2.323c0.023-0.077,0.068-0.148,0.104-0.221c0.503,0.774,0.646,1.287,0.543,2.142
		c-0.245,2.042-1.026,3.936-2.65,5.133c-1.432,1.055-1.383,2.31-1.299,3.716c0.073,1.215,0.193,2.428,0.302,3.746
		c-1.229-0.744-1.429-2.041-1.977-3.117c-0.259-0.51-0.173-1.444-0.983-1.361c-0.927,0.095-0.856,0.954-0.844,1.685
		c0.02,1.294,0.006,2.589-0.161,3.91c-0.335-1.361-0.709-2.714-0.989-4.086c-0.122-0.596-0.324-0.835-0.963-0.806
		c-1.961,0.089-3.645-0.647-4.974-2.042c-0.694-0.728-1.316-0.844-2.219-0.286c1.492,1.577,2.99,3.141,4.991,3.985
		c0.924,0.389,1.294,0.763,0.965,1.782c-1.662-0.084-2.943-1.01-4.158-2.006c-1.041-0.853-1.999-1.808-2.99-2.723
		c-0.43-0.397-0.79-0.904-1.43-0.977c-0.481-0.055-0.449-0.384-0.482-0.73c-0.043-0.447,0.179-0.548,0.565-0.632
		c1.764-0.381,3.525-0.774,5.276-1.209c1.425-0.354,2.817-0.818,4.143-1.465C113.753,48.675,115.19,47.585,115.513,45.42z
		 M107.517,53.023c1.175,1.147,2.311,1.965,3.757,2.261c0.428,0.087,0.695-0.024,0.776-0.536c0.096-0.609-0.299-0.457-0.602-0.467
		c-0.833-0.029-1.564-0.317-1.62-1.224c-0.054-0.881-0.412-0.806-0.995-0.547C108.46,52.675,108.073,52.808,107.517,53.023z"/>
	<path id="XMLID_206_" d="M101.221,82.998c-0.326,1.212-0.913,2.359-1.072,3.615c-0.196,1.546-0.286,3.085,0.068,4.628
		c0.39,1.695,1.268,2.796,3.146,2.836c0.276,0.006,0.548,0.173,0.978,0.318c-0.784,0.432-1.49,0.756-2.123,1.185
		c-0.776,0.527-1.303,1.281-1.725,2.128c-0.219,0.44-0.581,0.934-1.155,0.809c-0.517-0.113-0.561-0.665-0.63-1.126
		c-0.476-3.214,0.052-6.359,0.646-9.5c0.303-1.602,0.613-3.202,1.393-4.662C100.827,83.084,100.854,82.908,101.221,82.998z"/>
	<path id="XMLID_205_" d="M96.161,47.875c3.457-0.185,6.807,0.481,10.261-0.292c-0.637,1.019-1.634,1.13-2.489,1.318
		c-1.508,0.332-3.06,0.443-4.601,0.604C97.953,49.65,97.005,49.192,96.161,47.875z"/>
	<path id="XMLID_204_" d="M97.666,36.649c-3.125-1.766-6.021-1.126-8.898-0.222c-1.757,0.552-3.443,1.295-5.116,2.068
		c-0.38,0.176-0.76,0.585-1.273,0.278C89.056,34.328,95.557,33.683,97.666,36.649z"/>
	<path id="XMLID_203_" d="M99.286,50.444c2.96-0.498,5.954-0.722,9.02-1.823c-1.14,1.608-2.666,2.066-4.161,2.545
		c-0.633,0.203-1.325,0.222-1.962,0.418C100.953,51.962,99.972,51.765,99.286,50.444z"/>
	<path id="XMLID_202_" d="M76.77,41.716c-2.3-2.08-1.738-11.03-0.019-15.878c-0.173,1.705-0.394,3.406-0.507,5.114
		c-0.119,1.806-0.317,3.606-0.292,5.425C75.977,38.14,76.069,39.881,76.77,41.716z"/>
	<path id="XMLID_201_" d="M102.969,38.748c-3.588-3.092-6.625-6.375-10.616-8.387C94.435,29.992,101.363,35.298,102.969,38.748z"/>
	<path id="XMLID_200_" d="M79.643,26.687c0.16,4.01-0.496,8.03-0.037,12.052C78.14,34.737,78.836,30.718,79.643,26.687z"/>
	<path id="XMLID_199_" d="M111.105,61.399c-1.184,1.466-1.739,1.589-3.787,0.923C108.015,61.923,109.707,61.503,111.105,61.399z"/>
	<path id="XMLID_198_" d="M120.849,70.926c0.541,0.112,1.008,0.367,1.5,0.764c-0.706,0.126-1.143-0.361-1.68-0.502
		C120.729,71.101,120.789,71.014,120.849,70.926z"/>
	<path id="XMLID_197_" d="M90.947,8.745c-0.167,0.241-0.45,0.601-0.656,0.396c-0.252-0.25,0.175-0.423,0.373-0.586
		C90.759,8.619,90.853,8.682,90.947,8.745z"/>
</g>
<g>
</g>
<g>
</g>
<g>
</g>
<g>
</g>
<g>
</g>
<g>
</g>
<g>
</g>
<g>
</g>
<g>
</g>
<g>
</g>
<g>
</g>
<g>
</g>
<g>
</g>
<g>
</g>
<g>
</g>
</svg>
