<?xml version="1.0" encoding="iso-8859-1"?>
<!-- Generator: Adobe Illustrator 19.1.0, SVG Export Plug-In . SVG Version: 6.00 Build 0)  -->
<svg version="1.1" id="Capa_1" xmlns="http://www.w3.org/2000/svg" xmlns:xlink="http://www.w3.org/1999/xlink" x="0px" y="0px"
	 viewBox="0 0 147.502 147.502" style="enable-background:new 0 0 147.502 147.502;" xml:space="preserve">
<g>
	<path d="M125.433,78.358c-0.443-4.345-0.991-8.679-1.448-13.023c-0.157-1.495-0.611-2.923-2.098-3.323
		c-2.389-0.643-2.289-1.969-1.896-3.992c2.46-12.684,0.103-24.683-7.426-34.983c-8.387-11.476-19.377-19.529-34.009-22
		c-12.857-2.171-24.752-1.303-36.05,6.143C29.702,15.619,24.048,27.57,23.18,42.309c-0.342,5.804,0.601,11.483,2.468,17.006
		c0.594,1.756,0.658,3.326-1.857,3.651c-1.144,0.148-1.741,1.087-1.741,2.223c-0.005,8.443-0.745,17.012,4.086,24.655
		c0.97,1.534,1.372,3.23,1.496,5.024c0.097,1.416,0.27,3.121,1.701,3.583c2.373,0.766,2.404,2.714,3.094,4.502
		c2.721,7.05,2.291,13.677-2.237,19.886c-1.246,1.708-0.403,2.811,1.057,3.902c5.971,4.462,12.341,8.311,18.683,12.196
		c2.293,1.404,4.632,3,7.172,3.685c9.958,2.686,19.99,5.139,30.436,4.859c5.689-0.022,11.239-1.031,16.851-1.889
		c5.67-0.866,7.538-4.464,8.891-8.968c0.473-1.576,0.584-3.303,0.607-4.965c0.127-9.383,0.6-18.79-1.507-28.055
		c-0.432-1.899,0.024-3.288,1.762-4.516c6.22-4.392,8.181-11.505,11.074-17.992C125.567,80.304,125.525,79.261,125.433,78.358z
		 M40.869,105.975c-1.927-2.843-2.784-6.044-3.31-9.381c-0.622-3.948-1.751-7.706-3.196-11.48
		c-2.68-7.003-4.008-14.544-2.754-21.906c0.622-3.651,2.142-7.599,4.313-10.97c0.65-1.009,1.573-0.679,2.505-0.526
		c3.548,0.584,6.364,2.928,9.86,3.853c-0.823,1.361-2.039,1.008-3.08,1.116c-3.482,0.361-6.847,1.018-9.281,3.852
		c-0.614,0.715-1.842,1.472-0.976,2.553c0.671,0.837,2.186,0.875,2.846,0.27c1.662-1.524,3.231-0.671,4.925-0.383
		c1.916,0.326,4.011,0.793,4.453-2.175c0.13-0.875,1.113-1.181,1.791-0.86c1.931,0.914,3.643,2.458,6.194,1.424
		c-1.022,1.516-2.418,1.753-3.651,2.292c-0.683,0.298-1.925,0.216-1.459,1.51c0.314,0.872,1.253,1.38,2.051,1.034
		c2.622-1.139,3.231-0.143,2.949,2.349c-0.071,0.627,0.317,1.609,1.226,1.599c0.937-0.011,1.063-0.968,1.168-1.66
		c0.417-2.755,1.121-5.535,1.031-8.284c-0.126-3.871-2.857-6.52-5.936-8.222c-4.214-2.329-8.738-4.13-13.225-5.918
		c-2.924-1.165-5.651-0.586-7.784,3.083c-1.554-11.98-0.91-22.461,6.699-31.445c1.261-1.49,2.405-3.08,3.683-4.555
		c5.921-6.833,13.42-9.862,22.455-9.881c4.841-0.01,9.641-0.182,14.401,0.836c9.992,2.137,16.459,8.513,20.9,17.346
		c1.701,3.383,4.045,6.553,3.348,10.687c-0.061,0.363,0.095,0.801-0.052,1.106c-2.546,5.269-0.613,10.798-0.973,16.189
		c-0.054,0.805,0.295,1.872-0.569,2.3c-1.017,0.503-1.848-0.411-2.328-1.092c-3.064-4.342-7.303-4.068-11.778-3.259
		c-5.123,0.927-10.224,1.73-15.009,4.071c-3.818,1.868-5.531,5.059-6.017,8.795c-0.645,4.953-1.271,9.98-0.31,15.004
		c0.356,1.862-0.556,3.163-2.263,3.633c-2.004,0.553-4.09,0.748-5.578-1.268c-0.724-0.981-1.124-2.114-1.384-3.881
		c-1.097,1.739-0.663,2.888-0.038,3.965c0.416,0.715,0.947,1.388,1.533,1.974c2.089,2.09,5.991,3.024,4.248,7.231
		c-0.797-0.667-2.268-0.826-2.974-2.279c-0.335-0.69-1.317-0.547-2.062-0.371c-2.112,0.497-4.082,1.3-5.68,2.821
		c-0.925,0.881-1.553,2.585-3.171,0.652c-0.48-0.573-1.186,0.23-1.515,0.779c-1.528,2.549-3.122,5.088-3.532,8.113
		c-0.344,2.541,0.751,3.551,3.223,2.826c2.404-0.705,4.761-1.596,7.092-2.525c6.864-2.736,13.451-1.04,20.691,1.005
		c-2.43,2.025-4.849,2.23-7.121,2.219c-3.708-0.018-7.415-0.457-11.121-0.726c-0.834-0.06-1.664-0.182-2.498-0.213
		c-0.645-0.024-1.388-0.06-1.715,0.646c-0.393,0.848,0.176,1.514,0.796,1.864c2.164,1.223,4.226,2.756,6.911,2.655
		c2.431-0.091,4.835,0.171,7.2,0.718c1.133,0.262,2.447,0.394,2.52,2.076c-3.664-2.3-4.887-2.282-5.968,0.194
		c-0.411-0.433-0.783-0.819-1.148-1.212c-1.187-1.276-1.971-1.153-2.506,0.594c-0.516,1.683-1.096,3.359-1.824,4.959
		c-0.498,1.096-0.22,1.761,0.677,2.348c1.138,0.744,1.626,1.889,0.519,2.747c-2.707,2.097-1.776,4.747-1.483,7.348
		c0.071,0.632,0.132,1.265,0.244,2.343c-4.074-2.944-4.221-3.115-6.768-7.686c-1.121-0.045-0.559,1.459-1.55,1.649
		c0.219-2.917,0.142-5.826,2.805-7.871c0.833-0.64,1.043-1.798,0.717-2.835c-0.464-1.474-1.439,0.046-2.021-0.245
		c-2.146-1.072-4.194-1.093-6.583-0.597C43.136,109.213,41.834,107.4,40.869,105.975z M68.486,112.324
		c-0.077-0.487,0.687-0.596,1.063-0.222c2.471,2.458,6.072,3.889,6.457,8.191c0.208,2.321-1.489,3.047-2.549,4.216
		c-0.63,0.695-1.357-0.532-1.824-1.188c-1.019-1.429-1.969-2.444-2.564,0.254c-0.102,0.464-0.221,0.989-0.79,0.974
		c-0.641-0.016-0.985-0.562-1.082-1.107c-0.455-2.551-0.584-5.165-1.478-7.545c-0.085-0.56-0.087-1.256,0.471-1.154
		C68.314,115.134,68.789,114.245,68.486,112.324z M97.917,122.53c-0.217,2.773-0.611,5.534-0.771,8.31
		c-0.187,3.241-0.178,6.493-0.29,9.739c-0.128,3.704-0.683,3.823-4.197,4.383c-9.652,1.538-18.037-2.394-26.6-5.653
		c-7.572-2.881-14.973-6.074-21.167-11.529c-2.042-1.798-2.29-3.978-2.259-6.814c5.056,4.404,10.174,8.057,15.204,11.829
		c3.559,2.669,7.304,2.826,10.946,0.942c6.194-3.204,12.852-5.31,19.055-8.484c2.634-1.348,5.349-2.543,7.892-4.073
		c0.537-0.323,1.01-1.028,1.698-0.673C98.248,120.93,97.97,121.842,97.917,122.53z M101.329,79.702
		c-3.047,4.556-4.591,9.559-4.458,15.225c0.17,7.217-4.222,12.142-9.505,16.402c-1.256,1.013-2.052,1.033-2.657-0.632
		c-0.751-2.067-2.626-3.049-4.315-4.196c-2.974-2.021-2.922-3.605,0.111-5.162c0.467-0.24,0.98-0.645,1.184-1.102
		c0.807-1.809,1.894-1.81,3.562-1.055c1.714,0.776,2.791-0.271,2.605-2.224c-0.373-3.906-6.083-8.803-10.002-9.155
		c-3.094-0.277-5.997-1.617-8.641-3.334c-0.434-0.282-1.095-0.653-0.744-1.301c0.345-0.637,0.924-0.291,1.45-0.066
		c2.552,1.093,5.413,0.262,6.61-1.893c1.322-2.379,0.661-5.662-1.847-7.03c-2.557-1.395-2.961-3.206-2.32-5.778
		c0.583-2.337,0.847-4.753,1.343-7.114c0.167-0.796,0.549-1.569,0.956-2.283c0.269-0.471,0.777-0.899,1.391-0.687
		c0.771,0.266,0.418,0.888,0.301,1.406c-0.041,0.181-0.092,0.36-0.135,0.541c-0.245,1.027-0.102,1.883,1.084,2.17
		c1.113,0.269,1.553-0.127,1.853-1.337c0.332-1.341,1.112-1.851,2.213-0.218c1.644,2.436,5.082,2.298,6.783-0.099
		c0.892-1.256,1.085-1.272,3.525-0.11c-0.859,0.563-1.448,0.949-2.034,1.333c0.508,0.915,1.315,0.894,2.004,1.058
		c1.102,0.262,1.49,0.696,0.629,1.69c-0.62,0.715-0.781,1.604,0.026,2.198c0.743,0.547,1.597,0.114,2.358-0.28
		c2.108-1.091,2.602-3.548,4.268-5.051c0.649-0.585-0.33-1.079-0.853-1.393c-1.837-1.102-3.73-1.99-5.891-2.396
		c-3.189-0.6-6.329-1.464-9.486-2.226c-0.536-0.129-1.179-0.258-1.247-0.916c-0.071-0.689,0.574-0.926,1.083-1.084
		c4.211-1.308,8.518-1.783,12.895-1.191c1.804,0.244,2.962,1.622,3.803,3.057c2.58,4.405,4.992,8.889,4.943,14.237
		C104.141,73.315,103.401,76.604,101.329,79.702z M120.485,87.611c-0.374,0.412-0.767,0.972-1.377,0.671
		c-0.88-0.434-0.359-1.169-0.083-1.671c0.665-1.209,1.595-2.287,2.156-3.536c1.316-2.927,1.883-5.901,0.612-9.096
		c-0.53-1.332-1.144-2.849-0.671-4.636C124.241,73.745,123.786,83.978,120.485,87.611z"/>
	<path d="M54.894,83.355c1.692-0.128,3.371-0.499,5.222-0.538c-1.98-1.503-3.424-4.599-6.373-3.091
		c-2.32,1.186-2.104-0.211-2.235-1.463c-0.109-1.039,0.928-2.048,0.071-3.374c-1.577,1.715-2.524,3.63-1.732,5.75
		C50.649,82.787,52.805,83.513,54.894,83.355z"/>
</g>
<g>
</g>
<g>
</g>
<g>
</g>
<g>
</g>
<g>
</g>
<g>
</g>
<g>
</g>
<g>
</g>
<g>
</g>
<g>
</g>
<g>
</g>
<g>
</g>
<g>
</g>
<g>
</g>
<g>
</g>
</svg>
