<?xml version="1.0" encoding="iso-8859-1"?>
<!-- Generator: Adobe Illustrator 19.1.0, SVG Export Plug-In . SVG Version: 6.00 Build 0)  -->
<svg version="1.1" id="Capa_1" xmlns="http://www.w3.org/2000/svg" xmlns:xlink="http://www.w3.org/1999/xlink" x="0px" y="0px"
	 viewBox="0 0 143.862 143.862" style="enable-background:new 0 0 143.862 143.862;" xml:space="preserve">
<g id="winston_churchill">
	<path id="XMLID_188_" d="M143.862,141.256H0v-19.881c0.96-5.123,4.957-8.167,7.882-11.905c0.531-0.679,1.079-1.349,1.565-2.06
		c1.97-2.886,4.483-5.232,7.225-7.358c1.299-1.007,2.726-1.612,4.397-1.426c2.249,0.25,4.275-0.384,6.162-1.534
		c2.554-1.556,5.338-2.467,8.244-3.075c2.811-0.589,3.023-0.882,2.743-3.758c-0.062-0.639-0.146-1.303-0.379-1.893
		c-2.614-6.608-3.61-13.577-4.878-20.514c-0.996-5.451-0.95-11.216-4.223-16.126c-3.09-4.637-2.664-9.718-1.284-14.755
		c0.683-2.495,1.567-4.944,1.935-7.507c0.649-4.522,2.931-8.188,5.72-11.652c3.876-4.814,9.268-7.68,14.156-11.199
		c3.442-2.479,7.335-3.491,11.502-3.845c8.672-0.737,16.919,1.126,24.811,4.398c3.793,1.573,7.727,3.601,10.162,7.015
		c4.705,6.598,7.66,13.987,7.899,22.243c0.052,1.811,0.639,3.268,1.831,4.676c2.779,3.284,4.322,6.954,2.72,11.35
		c-0.32,0.877-0.278,1.762,0.052,2.723c0.543,1.581,0.332,3.169-0.737,4.796c-1.054-1.229-0.657-2.784-1.683-4.328
		c0.026,1.936,0.709,3.392,0.286,4.85c-0.234,0.804-0.294,1.938-1.275,2.054c-0.888,0.105-0.774-1.012-1.085-1.603
		c-0.289-0.55-1.033-1.521-1.187-1.158c-0.532,1.258-2.419,1.911-1.917,3.499c0.676,2.136,0.355,4.274,0.413,6.412
		c0.036,1.312,0.221,2.578,0.762,3.776c0.623,1.38,1.55,2.097,3.066,1.247c0.865-0.485,1.556-0.554,2.22,0.365
		c2.788,3.853,6.659,5.751,11.323,6.283c3.446,0.394,6.556,1.68,9.065,4.127c1.174,1.145,2.471,1.59,4.073,1.563
		c4.098-0.067,8.198-0.066,12.297-0.07V141.256z M52.982,97.902c1.987,1.359,3.587,1.944,5.406,2.059
		c3.01,0.19,6.01,0.476,9.019-0.068c0.651-0.118,1.599-0.298,1.679,0.775c0.066,0.888-0.82,0.936-1.401,1.028
		c-4.114,0.65-8.237,1.239-12.356,1.862c-0.942,0.142-2.304-0.45-2.696,0.721c-0.397,1.186,0.649,2.125,1.479,2.914
		c0.458,0.435,1.102,0.666,1.627,1.039c3.749,2.663,8.002,2.179,12.242,2.115c4.643-0.07,8.473-2.086,12.027-4.707
		c1.374-1.013,2.499-2.116,4.305-2.543c1.881-0.445,3.458-1.72,4.344-3.619c0.271-0.581,0.648-1.12,1.032-1.637
		c0.255-0.343,0.633-0.674,1.09-0.375c0.358,0.234,0.221,0.652,0.116,0.991c-0.494,1.597-0.826,3.246-1.826,4.937
		c1.066-0.456,1.192-1.168,1.524-1.802c1.541-2.94,0.622-6.829,3.588-9.22c0.393-0.317,0.379-1.241,1.17-0.943
		c0.61,0.23,0.646,0.916,0.648,1.492c0.005,1.658-0.909,3.003-1.578,4.426c-0.811,1.723-1.63,3.438-1.39,5.568
		c0.348-0.18,0.594-0.226,0.695-0.372c4.053-5.815,7.323-11.884,6.294-19.361c-0.075-0.546,0.118-1.134,0.22-1.696
		c0.172-0.939,0.229-1.862-0.279-2.725c-0.431-0.731-0.386-1.484-0.251-2.293c0.575-3.435-1.053-6.707-0.796-10.135
		c0.05-0.665-0.567-1.153-1.196-1.407c-1.199-0.485-1.319-1.404-1.053-2.484c0.704-2.851,0.195-5.73,0.198-8.596
		c0.001-0.487-0.046-1.333-0.502-1.293c-2.4,0.209-1.9-1.812-2.447-3.009c-0.295-0.646-0.307-1.685-0.777-1.943
		c-2.137-1.168-0.922-2.463-0.292-3.726c0.508-1.02,1.499-2.012,0.96-3.179c-1.351-2.929-0.871-6.233-2.084-9.187
		c-0.759-1.849-1.549-3.681-2.139-5.621c-1.176-3.867-2.696-7.621-7.266-8.861c-1.592-0.432-3.225-1.207-3.754-2.958
		c-0.945-3.127-3.21-4.163-6.171-4.39c-1.844-0.141-3.435-0.632-4.385-2.568c-0.658-1.341-2.106-2.132-3.633-1.747
		c-1.728,0.435-4.023,0.786-4.881,2.008c-1.35,1.924-3.409,3.611-4.007,5.809c-1.489,5.474-4.992,7.997-10.555,6.895
		c-0.638-0.126-1.224-0.011-1.552,0.483c-2.391,3.595-5.468,6.704-5.995,11.448c-0.333,2.993-0.477,6.099-1.673,9.041
		c-1.304,3.208,1.251,10.472,4.07,12.356c1.258,0.842,1.735,1.784,0.784,3.017c-1.058,1.371-1.676,0.002-2.398-0.544
		c-0.334-0.253-0.642-0.694-1.113-0.436c-0.455,0.249-0.331,0.755-0.266,1.167c0.19,1.205,0.458,2.399,0.612,3.609
		c0.151,1.188,0.758,1.969,1.946,1.818c1.121-0.143,2.769,1.375,3.316-0.966c0.23-0.986,1.079-0.861,1.747-0.487
		c2.075,1.162,4.283,1.553,6.64,1.442c1.472-0.069,2.275,0.642,2.116,2.249c-0.143,1.447,0.305,2.838,0.495,4.255
		c0.406,3.027,0.976,6.043-0.061,9.14c-1.396,4.169,0.466,7.345,4.478,9.199c1.992,0.921,3.345,1.355,4.401-0.965
		c0.108-0.237,0.403-0.407,0.64-0.564c1.087-0.718,2.067-0.208,3.026,0.313c0.561,0.305,0.843,0.785,0.642,1.438
		c-0.379,1.233-1.435,0.977-2.334,1.021c-1.943,0.094-3.501,0.68-4.07,2.805c-0.321,1.199-0.858,2.034-2.45,1.647
		c-1.172-0.285-2.221,0.575-2.487,1.626c-0.289,1.142,1.035,1.156,1.752,1.445c1.832,0.738,3.775,0.8,5.731,0.772
		c0.844-0.012,1.816-0.285,2.772,0.744c-2.163,0.718-4.124,0.91-6.105,0.998C57.611,98.234,55.665,97.415,52.982,97.902z
		 M43.422,73.529c-0.702,0.433-1.25,0.181-1.81,0.098c-0.802-0.118-1.763-1.036-2.366-0.155c-0.54,0.787-0.37,1.963-0.063,2.912
		c0.238,0.734,0.739,1.388,1.152,2.06c0.451,0.736,1.024,1.445,1.083,2.322c0.141,2.086,1.113,3.774,2.129,5.549
		c1.157,2.021,1.701,4.281-0.289,6.316c-0.65,0.665-0.671,1.602-0.552,2.452c0.344,2.458,1.731,4.529,2.665,6.767
		c0.259,0.62,0.953,0.868,1.657,0.759c0.77-0.12,1.017-0.723,1.146-1.388c0.244-1.254,0.098-2.414-0.746-3.454
		c-0.448-0.553-0.915-1.146-1.153-1.801c-0.441-1.217-0.566-2.355,1.384-2.139c1.631,0.18,1.941-0.387,1.088-1.842
		c-0.699-1.194-1.845-2.485-0.976-3.975c2.928-5.021,1.887-10.827,3.302-16.145c0.389-1.46-0.516-2.574-1.788-3.382
		c-1.233-0.784-2.273-0.568-3.337,0.304c-0.437,0.358-0.992,0.573-1.491,0.855c-1.002,0.566-2.757,0.167-3.095,1.106
		C40.91,72.008,43.122,72.166,43.422,73.529z M103.268,83.725c-0.138,0.773-0.341,1.541-0.403,2.319
		c-0.415,5.262-2.067,10.104-4.749,14.64c-3.133,5.299-6.833,10.139-11.4,14.273c-1.216,1.101-1.775,2.194-1.078,3.768
		c0.678,1.53,0.504,3.068,0.065,4.64c-0.229,0.82-0.691,1.661-0.413,2.78c1.079-1.128,1.536-2.349,2.113-3.487
		c2.829-5.58,5.508-11.24,8.488-16.738c2.496-4.606,5.459-8.943,7.61-13.76C104.805,89.244,104.553,86.511,103.268,83.725z"/>
	<path id="XMLID_187_" d="M63.838,64.886c2.856-2.371,6.117-2.024,9.288-2.141c1.948-0.072,3.872,0.003,5.691,0.868
		c0.425,0.202,0.966,0.215,1.454,0.217c0.806,0.004,2.146-0.495,2.081,0.573c-0.038,0.628-0.514,2.326-2.29,2.124
		c-1.896-0.215-3.808-0.278-5.562,1.01c-1.009,0.741-2.292,0.27-3.122-0.643c-0.971-1.068-1.716-1.062-2.9-0.203
		c-2.459,1.784-4.359,1.178-5.861-1.619c-0.101-0.189-0.177-0.452-0.34-0.539c-2.984-1.59-0.68-2.447,0.483-3.424
		c0.934-0.784,1.91-1.521,2.881-2.259c0.706-0.537,1.505-0.825,2.407-0.783c0.68,0.031,1.336,0.207,1.621,0.86
		c0.336,0.77-0.293,1.216-0.815,1.56c-1.137,0.75-2.332,1.411-3.49,2.13C64.66,63.054,63.784,63.369,63.838,64.886z"/>
</g>
<g>
</g>
<g>
</g>
<g>
</g>
<g>
</g>
<g>
</g>
<g>
</g>
<g>
</g>
<g>
</g>
<g>
</g>
<g>
</g>
<g>
</g>
<g>
</g>
<g>
</g>
<g>
</g>
<g>
</g>
</svg>
